<svg xmlns="http://www.w3.org/2000/svg" overflow="hidden" viewBox="0 0 1299.18 245.13">
    <g fill="#fff" class="B">
        <path d="M879.67 214.13c1.32 0 2.41.48 3.25 1.43s1.26 2.15 1.26 3.6c0 1.4-.42 2.59-1.26 3.54s-1.93 1.43-3.25 1.43c-1.33 0-2.41-.47-3.24-1.41s-1.25-2.13-1.25-3.56c0-1.45.42-2.65 1.25-3.6s1.91-1.43 3.24-1.43zm234.5 8.7c-2 0-3.45.22-4.32.65-.88.43-1.32 1.27-1.32 2.5 0 1.18.41 2.09 1.21 2.74.81.64 1.95.97 3.41.97 2.28 0 4.37-.96 6.28-2.88v-3.97zm-32.31-10c-2.15 0-3.81.72-4.99 2.14s-1.77 3.54-1.77 6.37c0 2.7.59 4.74 1.76 6.11s2.81 2.06 4.94 2.06c2.16 0 3.84-.68 5.04-2.06s1.8-3.4 1.8-6.11c0-2.83-.6-4.95-1.79-6.37-1.18-1.42-2.85-2.13-4.99-2.13zM948 206.76h8.21v16.17c0 2.13.28 3.64.86 4.53.57.88 1.64 1.33 3.2 1.33 2.47 0 4.75-1.35 6.84-4.05v-17.98h8.2v28.85h-8.2V232l-2.53 1.7c-.6.4-1.32.8-2.18 1.25s-1.68.76-2.48.93a12.1 12.1 0 0 1-2.57.26c-3.14 0-5.48-.9-7.03-2.7-1.54-1.81-2.32-4.63-2.32-8.48zm258.03-.53v11.85h6.36c2.36 0 4.18-.5 5.46-1.53s1.92-2.46 1.92-4.32c0-1.9-.64-3.38-1.92-4.43s-3.1-1.57-5.46-1.57zm-124.17 0c4.6 0 8.25 1.33 10.94 4s4.04 6.37 4.04 11.12c0 4.62-1.34 8.25-4.01 10.86-2.68 2.62-6.35 3.93-11.03 3.93-4.62 0-8.26-1.3-10.92-3.93-2.65-2.61-3.98-6.24-3.98-10.86 0-4.75 1.34-8.46 4.03-11.12 2.68-2.67 6.32-4 10.93-4zm61.64-.06c3.78 0 7.89.8 12.3 2.42l-2.04 5.91c-4.26-1.26-7.53-1.89-9.83-1.89-.93 0-1.66.19-2.17.56-.52.37-.77.9-.77 1.6 0 .28.03.53.08.74.06.21.18.4.34.58.17.17.32.33.47.46.14.13.46.26.95.4l1.24.36 1.56.46 1.74.5c3.42.93 5.8 1.98 7.13 3.15 1.32 1.17 1.98 3 1.98 5.47 0 2.97-1 5.26-3 6.86-2.01 1.6-4.87 2.39-8.58 2.39-4.56 0-8.98-1.25-13.24-3.75l2.28-5.56c4.39 1.91 8.06 2.87 11.01 2.87 2.22 0 3.33-.7 3.33-2.07 0-.3-.05-.58-.15-.81a1.58 1.58 0 0 0-.6-.64 8.36 8.36 0 0 0-1.98-.9l-1.24-.4-1.59-.5-1.82-.56c-2.78-.85-4.82-1.91-6.14-3.2s-1.98-2.95-1.98-5c0-2.98.94-5.3 2.8-6.96 1.87-1.66 4.51-2.49 7.92-2.49zm-27.43 0c4.15 0 7.12.94 8.9 2.8s2.66 4.93 2.66 9.17v17.47h-8.2v-3.44c-1.34 1.25-2.72 2.23-4.12 2.93s-2.98 1.04-4.73 1.04c-3.44 0-6.01-.7-7.71-2.07-1.69-1.39-2.54-3.69-2.54-6.9 0-3.06 1.04-5.33 3.12-6.8s5.21-2.23 9.41-2.23h6.57c0-2.04-.33-3.44-.99-4.2s-1.95-1.15-3.86-1.15c-2.49 0-5.76.45-9.8 1.36l-1.3-5.87c5.53-1.4 9.73-2.11 12.59-2.11zm46.26-6.09h8.21v6.68h7.53v6.73h-7.53v11.6c0 1.5.31 2.57.92 3.2.62.62 1.68.94 3.18.94a40.86 40.86 0 0 0 3.96-.18l.79 5.18a17.58 17.58 0 0 1-7.83 1.73c-3.26 0-5.61-.81-7.06-2.45-1.44-1.64-2.17-4.33-2.17-8.08v-11.94h-4.07v-6.73h4.07zm71.6-1.2h26.22v7.64h-17.87v7.24h15.35v7.35h-15.35v6.85h18.37v7.65h-26.72zm-36.25 0h14.62c5.07 0 8.97 1.15 11.71 3.47s4.11 5.6 4.11 9.88c0 2.72-.66 5.05-1.98 6.98a11.93 11.93 0 0 1-5.66 4.38l8.64 11.34v.68h-8.94l-7.97-10.68h-6.18v10.68h-8.35zm86.76-.62c4.83 0 9.3 1.1 13.42 3.29l-2.52 6.34c-4.16-1.32-7.67-1.98-10.55-1.98-3.37 0-5.94.95-7.69 2.86-1.74 1.91-2.62 4.75-2.62 8.52.04 3.43.92 6.16 2.65 8.17s4.08 3.03 7.05 3.03c2.21 0 4.22-.22 6.05-.67s3.87-1.22 6.14-2.31l2.81 6.33a29.63 29.63 0 0 1-7.35 3.26c-2.47.7-5.13 1.04-8 1.04-5.57 0-9.94-1.64-13.11-4.93-3.18-3.28-4.76-7.92-4.76-13.92 0-6.06 1.62-10.75 4.86-14.06s7.78-4.97 13.62-4.97zm-236.26 0c4.82 0 9.29 1.1 13.42 3.29l-2.52 6.34c-4.17-1.32-7.68-1.98-10.55-1.98-3.38 0-5.95.95-7.69 2.86-1.75 1.91-2.63 4.75-2.63 8.52.04 3.43.93 6.16 2.66 8.17 1.72 2.02 4.07 3.03 7.04 3.03 2.21 0 4.23-.22 6.05-.67a31.78 31.78 0 0 0 6.14-2.31l2.81 6.33c-2.44 1.48-4.89 2.57-7.35 3.26s-5.13 1.04-8 1.04c-5.57 0-9.94-1.64-13.11-4.93s-4.76-7.92-4.76-13.92c0-6.06 1.62-10.75 4.86-14.06s7.79-4.97 13.63-4.97zm-122.95 0c2.42 0 5 .27 7.75.8 2.74.54 5.29 1.3 7.63 2.32l-2.17 6.36c-4.69-1.42-8.85-2.13-12.48-2.13-3.16 0-5.66 1.05-7.5 3.14s-2.75 4.94-2.75 8.52c0 3.63.82 6.41 2.47 8.34s3.96 2.88 6.93 2.88c3.91 0 7.17-.6 9.79-1.83v-4.6h-10.37v-6.74h17.75v16.07a41.82 41.82 0 0 1-8.8 3.63 33.36 33.36 0 0 1-8.72 1.12c-5.47 0-9.77-1.64-12.89-4.93-3.13-3.29-4.69-7.93-4.69-13.94 0-5.76 1.63-10.37 4.89-13.83s7.65-5.18 13.16-5.18zm56.79-1.68h8.2v39.03h-8.2zm20.57-.44h12.56l-.43 4.88-3.9-.11c-1.6 0-2.71.37-3.34 1.13s-.94 1.89-.94 3.4v1.32h7.88v6.73h-7.88v22.12h-8.2v-22.12h-3.78v-6.73h3.78v-1.41c0-3.76.87-6.51 2.62-8.26zm-164.86 26.74c-2 0-3.44.22-4.31.65s-1.32 1.26-1.32 2.5c0 1.17.4 2.08 1.21 2.72s1.94.98 3.4.98c2.28 0 4.37-.96 6.28-2.88v-3.97zm-33.26-9.74c-1.85 0-3.27.61-4.26 1.85s-1.5 3.24-1.5 6.02c0 2.87.56 5 1.67 6.37s2.61 2.05 4.5 2.05c1.4 0 2.58-.31 3.56-.94s1.91-1.55 2.83-2.79v-8.78c-1.97-2.52-4.23-3.78-6.8-3.78zm-70.17-.24c-2.14 0-3.8.71-4.98 2.13s-1.76 3.54-1.76 6.36c0 2.7.58 4.73 1.75 6.1s2.81 2.06 4.93 2.06c2.16 0 3.84-.69 5.04-2.06s1.8-3.4 1.8-6.1c0-2.82-.6-4.94-1.78-6.36s-2.86-2.13-5-2.13zm-113.6 0c-2.14 0-3.8.71-4.98 2.13s-1.77 3.54-1.77 6.36c0 2.7.59 4.73 1.76 6.1s2.8 2.06 4.93 2.06c2.16 0 3.84-.69 5.04-2.06s1.8-3.4 1.8-6.1c0-2.82-.6-4.94-1.79-6.36s-2.85-2.13-5-2.13zm-167.57-.17c-3.74 0-5.9 1.88-6.46 5.63h12.58c-.14-1.88-.73-3.3-1.79-4.23s-2.5-1.4-4.33-1.4zm324.57-5.9h8.2v28.8h-8.2zm-222.5 0h8.46l5.82 14.73 1.5 4.55a88.54 88.54 0 0 0 3.53-8.14c1.1-2.9 2.4-6.6 3.9-11.15h8.68l-3.21 8.87c-.73 1.96-1.7 4.4-2.95 7.34s-2.4 5.41-3.5 7.43c-2.04 3.74-4.31 6.8-6.8 9.18s-5.55 4.2-9.14 5.5l-2.75-6.31c1.58-.73 2.94-1.47 4.08-2.22s2.22-1.68 3.24-2.77zm-33.42 0h8.19v28.8h-8.2zm-117.23 0h8.23l6.29 15.94c.29.72.75 2.22 1.37 4.49l1.44-4.5 6.73-15.94h8.19l-11.91 28.8h-8.75zm-11.36 0h8.2v28.8h-8.2zm377.44-.54a36.18 36.18 0 0 1 3.6.17l-.62 7.59c-.95-.08-2.1-.12-3.42-.12-3.88 0-6.4 2.05-7.55 6.14v15.56h-8.2v-28.8h8.2v4.95c1.9-3.66 4.56-5.48 7.99-5.48zm-36.33 0c4.6 0 8.24 1.34 10.93 4s4.04 6.36 4.04 11.1c0 4.62-1.34 8.23-4 10.85s-6.35 3.92-11.03 3.92c-4.61 0-8.24-1.31-10.9-3.92s-3.97-6.23-3.97-10.85c0-4.74 1.34-8.44 4.02-11.1s6.32-4 10.91-4zm-113.6 0c4.6 0 8.24 1.34 10.93 4s4.03 6.36 4.03 11.1c0 4.62-1.33 8.23-4 10.85s-6.35 3.92-11.02 3.92c-4.61 0-8.25-1.31-10.9-3.92s-3.98-6.23-3.98-10.85c0-4.74 1.34-8.44 4.02-11.1s6.32-4 10.92-4zm-133.46 0c1.33 0 2.53.06 3.6.17l-.61 7.59c-.96-.08-2.1-.12-3.43-.12-3.88 0-6.4 2.05-7.55 6.14v15.56h-8.19v-28.8h8.2v4.95c1.89-3.66 4.55-5.48 7.98-5.48zm-34.4 0c4.08 0 7.28 1.2 9.61 3.59s3.53 5.82 3.59 10.3c0 .9-.09 2.04-.26 3.4h-19.11c.56 4.1 2.8 6.15 6.7 6.15 1.93 0 3.68-.22 5.24-.65s3.23-1.18 5.03-2.23l2.43 4.75c-2.07 1.61-4.14 2.77-6.2 3.48s-4.36 1.08-6.85 1.08c-4.42 0-7.94-1.24-10.58-3.72s-3.96-6.14-3.96-11c0-4.97 1.28-8.73 3.84-11.3s6.07-3.84 10.52-3.84zm-74.92 0c3.16 0 5.48.9 6.98 2.66s2.23 4.59 2.23 8.44v18.24h-8.19v-16.05c0-2.12-.26-3.59-.77-4.41s-1.56-1.24-3.12-1.24c-2.48 0-4.78 1.29-6.9 3.86v17.84h-8.2v-28.8h8.2v3.87a19.57 19.57 0 0 1 4.74-3.3 11.61 11.61 0 0 1 5.03-1.1zm461.71-.05c4.15 0 7.1.93 8.88 2.8s2.67 4.92 2.67 9.15v17.44h-8.2v-3.44c-1.34 1.26-2.7 2.23-4.1 2.92s-2.98 1.05-4.73 1.05c-3.44 0-6-.7-7.7-2.07s-2.54-3.68-2.54-6.89c0-3.05 1.04-5.32 3.11-6.8s5.21-2.21 9.4-2.21H843c0-2.04-.33-3.43-1-4.2s-1.94-1.15-3.85-1.15c-2.49 0-5.75.46-9.78 1.37l-1.3-5.87c5.52-1.4 9.72-2.1 12.57-2.1zm-334.65 0c3.79 0 7.88.8 12.3 2.42l-2.05 5.9c-4.25-1.26-7.52-1.9-9.81-1.9-.93 0-1.66.2-2.17.56s-.77.9-.77 1.6c0 .28.03.53.08.74s.18.4.34.58a6.73 6.73 0 0 0 .47.46c.14.12.46.26.95.4l1.24.36 1.56.45 1.73.5c3.42.93 5.8 1.98 7.12 3.15s1.98 2.99 1.98 5.46c0 2.97-1 5.25-3 6.85s-4.86 2.39-8.57 2.39c-4.55 0-8.96-1.25-13.22-3.75l2.28-5.55c4.39 1.91 8.05 2.86 11 2.86 2.21 0 3.32-.68 3.32-2.06 0-.3-.05-.58-.15-.81s-.3-.45-.6-.64a8.86 8.86 0 0 0-.85-.48 8.43 8.43 0 0 0-1.12-.42l-1.25-.4-1.59-.49-1.81-.57c-2.77-.84-4.82-1.9-6.13-3.18s-1.98-2.95-1.98-5c0-2.97.94-5.29 2.8-6.95s4.5-2.48 7.9-2.48zm32.55-6.08h8.2v6.66h7.51v6.73h-7.52v11.57c0 1.5.3 2.57.92 3.2s1.68.94 3.18.94a40.6 40.6 0 0 0 3.95-.18l.79 5.17a17.54 17.54 0 0 1-7.82 1.73c-3.25 0-5.6-.82-7.05-2.45s-2.16-4.32-2.16-8.06v-11.92h-4.07v-6.73h4.07zm137.66-1.2h25.72v7.63h-17.38v8.84h14.98v7.34h-14.98v12.86h-8.34zm-355.01 0h8.34v19.4c0 3.37.67 5.9 2 7.6s3.31 2.56 5.91 2.56c5.36 0 8.03-3.38 8.03-10.16v-19.4h8.34v19.46c0 11.82-5.45 17.74-16.37 17.74-10.83 0-16.25-5.93-16.25-17.8zm491.09-2.3h8.2v38.97h-8.2v-3.44c-1 .96-1.82 1.68-2.48 2.16s-1.55.9-2.67 1.26-2.41.55-3.87.55a10.88 10.88 0 0 1-8.14-3.5c-1.1-1.17-1.99-2.75-2.63-4.74s-.96-4.3-.96-6.91c0-5.03.98-8.74 2.93-11.13s4.68-3.58 8.19-3.58a12.9 12.9 0 0 1 9.63 4.02zm-105.5 0h8.18v38.97h-8.19zm-52.73-2.1c2.23 0 4.23.2 6 .63l-.52 5.9-3.9-.1c-1.6 0-2.7.37-3.33 1.12s-.94 1.89-.94 3.4v1.31h7.87v6.73h-7.87v22.08h-8.19v-22.08h-3.77v-6.73h3.77v-1.4c0-3.76.87-6.5 2.62-8.25s4.5-2.62 8.26-2.62zm128.71-.42c1.3 0 2.4.37 3.28 1.12s1.33 1.79 1.33 3.14-.44 2.4-1.33 3.15-1.98 1.13-3.28 1.13-2.28-.37-2.93-1.13-.97-1.8-.97-3.15.32-2.4.97-3.14 1.63-1.12 2.93-1.12zm-255.92 0c1.3 0 2.4.37 3.28 1.12s1.33 1.79 1.33 3.14-.44 2.4-1.33 3.15-1.98 1.13-3.28 1.13-2.28-.37-2.93-1.13-.98-1.8-.98-3.15.33-2.4.98-3.14 1.63-1.12 2.93-1.12zm-128.59 0c1.3 0 2.4.37 3.28 1.12s1.33 1.79 1.33 3.14-.44 2.4-1.33 3.15-1.97 1.13-3.28 1.13-2.27-.37-2.93-1.13-.97-1.8-.97-3.15.32-2.4.97-3.14 1.63-1.12 2.93-1.12zM486.58 152.7c-2.46 0-4.23.27-5.3.8s-1.62 1.57-1.62 3.1c0 1.45.5 2.57 1.49 3.37s2.38 1.2 4.18 1.2c2.8 0 5.37-1.18 7.71-3.55v-4.92zm433.69-3.97a14.53 14.53 0 0 0-4.11 2.75 4.27 4.27 0 0 0-1.29 2.96c0 2.17.86 3.84 2.57 5a11.25 11.25 0 0 0 6.42 1.73 11.4 11.4 0 0 0 8.03-3.18zm202.49-8.38c-2.63 0-4.67.88-6.12 2.64s-2.17 4.37-2.17 7.86c0 3.35.72 5.86 2.15 7.56 1.44 1.7 3.46 2.54 6.07 2.54 2.66 0 4.72-.84 6.19-2.54s2.21-4.21 2.21-7.56c0-3.49-.73-6.1-2.19-7.86s-3.51-2.64-6.14-2.64zm-564.48 0c-2.63 0-4.67.88-6.12 2.64s-2.17 4.37-2.17 7.86c0 3.35.72 5.86 2.15 7.56s3.46 2.54 6.07 2.54c2.66 0 4.72-.84 6.2-2.54s2.2-4.21 2.2-7.56c0-3.49-.73-6.1-2.19-7.86s-3.5-2.64-6.14-2.64zm-176.08 0c-2.64 0-4.68.88-6.13 2.64s-2.17 4.37-2.17 7.86c0 3.35.72 5.86 2.16 7.56s3.45 2.54 6.06 2.54c2.66 0 4.72-.84 6.2-2.54s2.2-4.21 2.2-7.56c0-3.49-.73-6.1-2.19-7.86s-3.5-2.64-6.13-2.64zm657.8-.22c-4.61 0-7.26 2.33-7.95 6.98h15.47c-.17-2.34-.9-4.08-2.2-5.24-1.29-1.16-3.07-1.74-5.32-1.74zm-292.23 0c-4.61 0-7.26 2.33-7.95 6.98h15.47c-.17-2.34-.9-4.08-2.2-5.24s-3.07-1.74-5.32-1.74zm-82.43 0c-4.6 0-7.25 2.33-7.95 6.98h15.47c-.17-2.34-.9-4.08-2.2-5.24s-3.06-1.74-5.32-1.74zm546.32-7.3h10.08v35.65h-10.08zm-410.87 0h10.08v35.65h-10.08zm447.12-.66c5.06 0 9.7 1.24 13.92 3.71l-2.88 6.54a23.74 23.74 0 0 0-9.93-2.07c-2.61 0-4.67.93-6.17 2.8s-2.25 4.43-2.25 7.7c0 3.15.73 5.62 2.2 7.42 1.46 1.79 3.48 2.68 6.04 2.68 3.74 0 7.46-1.04 11.15-3.12l3.17 6.03c-2.49 1.92-4.92 3.27-7.27 4.07s-5.15 1.2-8.42 1.2c-4.92 0-8.97-1.62-12.16-4.85s-4.78-7.71-4.78-13.43c0-5.9 1.6-10.5 4.8-13.77s7.39-4.9 12.58-4.9zm-78.3 0c5.33.08 8.73 2.18 10.2 6.33 2.18-2.28 4.22-3.9 6.12-4.84s3.88-1.41 5.94-1.41c3.71 0 6.48 1.1 8.31 3.29 1.82 2.19 2.73 5.65 2.73 10.37v22.57h-10.07v-19.8c0-2.5-.33-4.3-.97-5.4-.65-1.1-1.77-1.66-3.37-1.66-2.4 0-4.94 1.52-7.64 4.54v22.32h-10.08v-19.74c0-2.5-.35-4.3-1.06-5.43s-1.88-1.69-3.51-1.69c-2.52 0-5.05 1.57-7.59 4.69v22.17h-10.07v-35.65h10.07l-.07 4.9a21.64 21.64 0 0 1 5.31-4.16c1.77-.93 3.68-1.4 5.75-1.4zm-46.85 0c5.65 0 10.13 1.65 13.44 4.95s4.96 7.87 4.96 13.73c0 5.72-1.64 10.2-4.92 13.43-3.29 3.23-7.8 4.85-13.55 4.85-5.67 0-10.14-1.62-13.4-4.85s-4.89-7.71-4.89-13.43c0-5.86 1.64-10.44 4.94-13.73s7.77-4.95 13.42-4.95zm-37.04 0c3.88 0 6.74 1.1 8.58 3.3 1.83 2.19 2.75 5.67 2.75 10.44v22.57h-10.07v-19.86c0-2.63-.32-4.45-.96-5.47-.63-1.02-1.91-1.53-3.83-1.53-3.05 0-5.88 1.6-8.49 4.78v22.08h-10.07v-35.65h10.07v4.8c1.97-1.81 3.91-3.17 5.83-4.08s3.98-1.38 6.19-1.38zm-46.08 0c5.01 0 8.95 1.48 11.82 4.44 2.86 2.95 4.33 7.2 4.4 12.75 0 1.12-.1 2.52-.32 4.22h-23.49c.69 5.06 3.44 7.6 8.23 7.6 2.38 0 4.53-.27 6.44-.8a25.76 25.76 0 0 0 6.19-2.77l2.99 5.89c-2.54 1.98-5.09 3.42-7.63 4.3s-5.35 1.33-8.42 1.33c-5.43 0-9.76-1.53-13.01-4.6s-4.87-7.6-4.87-13.6c0-6.16 1.58-10.82 4.73-14 3.16-3.17 7.47-4.76 12.94-4.76zm-202.6 0c5.06 0 9.7 1.24 13.92 3.71l-2.88 6.54a23.78 23.78 0 0 0-9.93-2.07c-2.61 0-4.67.93-6.17 2.8s-2.25 4.43-2.25 7.7c0 3.15.73 5.62 2.2 7.42s3.47 2.68 6.04 2.68a22.5 22.5 0 0 0 11.15-3.12l3.17 6.03c-2.5 1.92-4.92 3.27-7.27 4.07s-5.15 1.2-8.42 1.2c-4.92 0-8.97-1.62-12.16-4.85s-4.78-7.71-4.78-13.43c0-5.9 1.6-10.5 4.8-13.77s7.39-4.9 12.58-4.9zm-89.63 0c5 0 8.95 1.48 11.82 4.44s4.33 7.2 4.4 12.75c0 1.12-.1 2.52-.32 4.22h-23.5c.7 5.06 3.45 7.6 8.24 7.6 2.38 0 4.53-.27 6.44-.8s3.99-1.46 6.2-2.77l2.98 5.89c-2.54 1.98-5.09 3.42-7.63 4.3s-5.35 1.33-8.42 1.33c-5.43 0-9.76-1.53-13.01-4.6s-4.87-7.6-4.87-13.6c0-6.16 1.58-10.82 4.73-14s7.47-4.76 12.94-4.76zm-36.35 0c3.89 0 6.75 1.1 8.58 3.3s2.75 5.67 2.75 10.44v22.57h-10.07v-19.86c0-2.63-.32-4.45-.95-5.47s-1.92-1.53-3.83-1.53c-3.05 0-5.88 1.6-8.5 4.78v22.08h-10.07v-35.65h10.08v4.8c1.96-1.81 3.9-3.17 5.82-4.08s3.99-1.38 6.2-1.38zm-46.08 0c5.02 0 8.95 1.48 11.82 4.44s4.34 7.2 4.4 12.75c0 1.12-.1 2.52-.31 4.22h-23.5c.7 5.06 3.44 7.6 8.24 7.6 2.37 0 4.52-.27 6.44-.8s3.98-1.46 6.19-2.77l2.98 5.89c-2.54 1.98-5.08 3.42-7.62 4.3s-5.35 1.33-8.42 1.33c-5.43 0-9.77-1.53-13.01-4.6s-4.87-7.6-4.87-13.6c0-6.16 1.57-10.82 4.73-14s7.46-4.76 12.93-4.76zm-106.7 0c5.65 0 10.13 1.65 13.44 4.95s4.97 7.87 4.97 13.73c0 5.72-1.65 10.2-4.93 13.43s-7.8 4.85-13.55 4.85c-5.67 0-10.14-1.62-13.4-4.85s-4.9-7.71-4.9-13.43c0-5.86 1.65-10.44 4.95-13.73s7.77-4.95 13.42-4.95zm-129.24 0c5.34.08 8.74 2.18 10.2 6.33 2.18-2.28 4.22-3.9 6.12-4.84s3.88-1.41 5.94-1.41c3.72 0 6.49 1.1 8.3 3.29s2.74 5.65 2.74 10.37v22.57h-10.07v-19.8c0-2.5-.32-4.3-.97-5.4s-1.77-1.66-3.37-1.66c-2.4 0-4.94 1.52-7.64 4.54v22.32H430.2v-19.74c0-2.5-.35-4.3-1.06-5.43s-1.87-1.69-3.5-1.69c-2.52 0-5.05 1.57-7.6 4.69v22.17h-10.07v-35.65h10.07l-.07 4.9c1.78-1.84 3.55-3.22 5.32-4.16s3.68-1.4 5.74-1.4zm-46.85 0c5.66 0 10.14 1.65 13.44 4.95s4.97 7.87 4.97 13.73c0 5.72-1.64 10.2-4.93 13.43s-7.8 4.85-13.55 4.85c-5.67 0-10.14-1.62-13.4-4.85s-4.9-7.71-4.9-13.43c0-5.86 1.66-10.44 4.95-13.73s7.77-4.95 13.42-4.95zm900.04-.07c4.65 0 9.69 1 15.11 3l-2.51 7.3c-5.22-1.56-9.24-2.34-12.06-2.34-1.15 0-2.04.23-2.67.69a2.28 2.28 0 0 0-.95 1.98c0 .34.03.65.11.9a1.71 1.71 0 0 0 .41.73 8.34 8.34 0 0 0 .57.56c.18.16.57.33 1.17.5l1.52.45 1.93.56 2.13.62c4.2 1.15 7.12 2.44 8.75 3.89s2.44 3.7 2.44 6.76c0 3.68-1.23 6.5-3.69 8.47-2.47 1.97-5.98 2.96-10.54 2.96a31.6 31.6 0 0 1-16.26-4.63l2.81-6.87c5.39 2.36 9.9 3.54 13.52 3.54 2.72 0 4.09-.85 4.09-2.56 0-.37-.07-.7-.19-1a1.9 1.9 0 0 0-.74-.79 10.56 10.56 0 0 0-1.05-.6c-.33-.16-.79-.33-1.37-.52l-1.53-.48-1.96-.61-2.23-.7c-3.41-1.05-5.92-2.36-7.54-3.95s-2.43-3.65-2.43-6.18c0-3.68 1.15-6.55 3.44-8.6 2.3-2.05 5.54-3.08 9.72-3.08zm-410.87 0c4.65 0 9.69 1 15.11 3l-2.51 7.3c-5.22-1.56-9.25-2.34-12.06-2.34-1.15 0-2.04.23-2.67.69a2.28 2.28 0 0 0-.95 1.98c0 .34.03.65.11.9a1.71 1.71 0 0 0 .41.73 8.34 8.34 0 0 0 .57.56c.18.16.57.33 1.17.5l1.52.45 1.93.56 2.13.62c4.2 1.15 7.12 2.44 8.75 3.89 1.62 1.45 2.44 3.7 2.44 6.76 0 3.68-1.23 6.5-3.69 8.47-2.47 1.97-5.98 2.96-10.54 2.96-5.6 0-11.02-1.54-16.26-4.63l2.8-6.87c5.4 2.36 9.91 3.54 13.53 3.54 2.72 0 4.08-.85 4.08-2.56 0-.37-.06-.7-.19-1-.12-.3-.37-.55-.73-.79a9.32 9.32 0 0 0-2.42-1.12l-1.53-.48-1.96-.61-2.23-.7c-3.4-1.05-5.92-2.36-7.54-3.95s-2.43-3.65-2.43-6.18c0-3.68 1.15-6.55 3.44-8.6s5.53-3.08 9.72-3.08zm-382.44 0c5.1 0 8.73 1.16 10.92 3.47s3.28 6.09 3.28 11.32v21.59h-10.08v-4.26c-1.65 1.56-3.33 2.76-5.06 3.62s-3.66 1.29-5.81 1.29c-4.22 0-7.37-.85-9.46-2.56s-3.12-4.55-3.12-8.52c0-3.78 1.27-6.59 3.82-8.41s6.41-2.75 11.57-2.75h8.06c0-2.51-.4-4.25-1.22-5.2s-2.39-1.41-4.73-1.41c-3.07 0-7.08.56-12.04 1.69l-1.6-7.26c6.8-1.74 11.96-2.6 15.47-2.6zm435.3-3.12c-1.6 0-2.93.44-3.99 1.34s-1.58 2.1-1.58 3.61c0 1.11.29 2.18.88 3.2s1.61 2.2 3.07 3.53c2.48-.96 4.26-1.96 5.37-2.98a4.77 4.77 0 0 0 1.65-3.6c0-1.64-.47-2.9-1.42-3.78s-2.27-1.32-3.98-1.32zm-150.92-4.4h10.08v8.25h9.24v8.32h-9.24v14.32c0 1.86.37 3.18 1.13 3.96s2.06 1.16 3.9 1.16c1.78 0 3.4-.07 4.86-.22l.97 6.4a21.45 21.45 0 0 1-9.6 2.14c-4 0-6.9-1-8.67-3.03s-2.67-5.35-2.67-9.98v-14.75h-5v-8.32h5zm-259.76 0h10.08v8.25h9.24v8.32h-9.24v14.32c0 1.86.37 3.18 1.13 3.96s2.06 1.16 3.9 1.16c1.78 0 3.4-.07 4.86-.22l.97 6.4a21.45 21.45 0 0 1-9.6 2.14c-4.01 0-6.9-1-8.67-3.03s-2.67-5.35-2.67-9.98v-14.75h-5v-8.32h5zm-193.36-1.5h39.18v9.46h-14.5v35.94h-10.25v-35.94h-14.43zm673.11-.75c2.97 0 6.15.33 9.52.99s6.49 1.61 9.37 2.86l-2.66 7.86c-5.76-1.75-10.87-2.63-15.33-2.63-3.89 0-6.96 1.3-9.21 3.89s-3.38 6.1-3.38 10.52c0 4.49 1.01 7.92 3.04 10.3 2.02 2.37 4.86 3.56 8.51 3.56 4.79 0 8.8-.75 12.01-2.27v-5.69h-12.73v-8.32h21.8v19.86a51 51 0 0 1-10.81 4.49c-3.4.92-6.96 1.38-10.7 1.38-6.72 0-12-2.03-15.84-6.1-3.83-4.05-5.75-9.8-5.75-17.21 0-7.12 2-12.81 6.01-17.09 4-4.27 9.39-6.4 16.15-6.4zm-69.07 0c3.91 0 7.06 1 9.43 3s3.56 4.7 3.56 8.06c0 2.34-.72 4.55-2.16 6.62s-3.64 3.8-6.62 5.17l8.42 6.52c.89-1.38 2.16-3.48 3.82-6.3l6.54 4.09a76.67 76.67 0 0 1-4.1 6.94l6.33 4.89-4.64 7.07-6.65-5.37c-2.07 2.22-4.21 3.8-6.44 4.72s-4.85 1.39-7.85 1.39c-6.16 0-10.88-1.14-14.15-3.41-3.28-2.27-4.91-5.63-4.91-10.08 0-2.46.76-4.57 2.29-6.33 1.54-1.76 4.06-3.49 7.56-5.18-1.89-1.8-3.2-3.53-3.92-5.17s-1.08-3.41-1.08-5.32c0-3.58 1.29-6.36 3.85-8.34 2.57-1.98 6.14-2.97 10.72-2.97zm-305.58 0c2.97 0 6.14.33 9.51.99s6.5 1.61 9.37 2.86l-2.66 7.86c-5.75-1.75-10.86-2.63-15.32-2.63-3.89 0-6.96 1.3-9.21 3.89s-3.39 6.1-3.39 10.52c0 4.49 1.02 7.92 3.04 10.3s4.87 3.56 8.51 3.56c4.8 0 8.8-.75 12.02-2.27v-5.69h-12.74v-8.32h21.8v19.86a51 51 0 0 1-10.8 4.49c-3.4.92-6.97 1.38-10.71 1.38-6.71 0-12-2.03-15.83-6.1s-5.76-9.8-5.76-17.21c0-7.12 2-12.81 6.01-17.09s9.4-6.4 16.16-6.4zm598.01-5.2c1.6 0 2.94.46 4.03 1.38s1.63 2.22 1.63 3.89-.54 2.97-1.63 3.9-2.43 1.4-4.03 1.4c-1.61 0-2.81-.46-3.61-1.4s-1.2-2.23-1.2-3.9.4-2.97 1.2-3.89 2-1.38 3.61-1.38zm-410.88 0c1.6 0 2.95.46 4.04 1.38s1.63 2.22 1.63 3.89-.54 2.97-1.63 3.9-2.43 1.4-4.03 1.4-2.8-.46-3.6-1.4-1.2-2.23-1.2-3.9.4-2.97 1.2-3.89 2-1.38 3.6-1.38zm436.44-57.87v16.86H1256c4.29 0 7.39-.7 9.33-2.08 1.93-1.39 2.9-3.6 2.9-6.63 0-2.61-1.01-4.62-3.02-6.04s-4.9-2.11-8.66-2.11zM667.96 26.79v24.47h14.03c4.07 0 7.2-1.09 9.36-3.26s3.25-5.21 3.25-9.13c0-3.87-1.23-6.85-3.68-8.94s-5.98-3.14-10.58-3.14zm480.21-.94c-.47 2.2-1.43 5.62-2.9 10.27l-7.68 23.45h21.32l-7.68-23.45c-.78-2.24-1.8-5.67-3.06-10.27zm-228.19 0c-.47 2.2-1.44 5.62-2.9 10.27l-7.68 23.45h21.31l-7.68-23.45c-.78-2.24-1.8-5.67-3.05-10.27zm-346.06 0c-.47 2.2-1.43 5.62-2.9 10.27l-7.68 23.45h21.32l-7.68-23.45c-.78-2.24-1.8-5.67-3.06-10.27zm668.29-.47v14.74h14.34c2.56 0 4.53-.65 5.92-1.96 1.38-1.3 2.07-3.16 2.07-5.57 0-2.56-.78-4.4-2.35-5.52-1.56-1.13-4.1-1.69-7.6-1.69zm-30.01-23.6h42.51c12.68 0 22.26 2.38 28.73 7.13s9.71 11.8 9.71 21.1c0 8.83-4.59 15.1-13.77 18.82 6.65 1.77 11.62 4.64 14.89 8.58s4.91 9.17 4.91 15.65c0 8.83-3.66 15.48-10.97 19.95s-18.16 6.7-32.52 6.7h-43.49zm-84.4 0h40.9l35.19 97.94h-31.66l-4.78-14.35h-38.4l-4.62 14.35h-31.82zm-112.45 0h30.01v70.65h42.08v27.29h-72.09zm-115.75 0h40.91l35.18 97.94h-31.66l-4.78-14.35h-38.39l-4.63 14.35h-31.81zm-158.68 0h33.14l19.6 47.2c.99 2.25 1.85 4.81 2.58 7.69a63.13 63.13 0 0 1 2.43-7.69l19.75-47.2h33.38l4 97.94h-30.02l-.62-45.95v-4.79l-20.22 50.74h-17.4l-19.82-50.74v4l-1.18 46.74h-29.7zm-102.98 0h42.09c14.1 0 24.98 3.21 32.63 9.64S724.15 27 724.15 38.87c0 14.32-5.36 24.6-16.07 30.82l19.43 27.75v2.28h-31.89l-15.6-24.55h-12.06v24.55h-30.02zm-84.4 0h40.91l35.19 97.94h-31.66l-4.78-14.35h-38.4l-4.62 14.35h-31.82zm-136.27 0h30.02V36.9h31.65V1.78h30.02v97.94h-30.02V64.2H447.3v35.52h-30.02zM361.24.13c14.37 0 28.76 2.67 43.18 8.02l-6.58 22.55c-14.1-4.65-25.86-6.97-35.26-6.97-4.18 0-6.27 1.53-6.27 4.6 0 .89.2 1.65.62 2.29s1.3 1.25 2.63 1.86a36.93 36.93 0 0 0 3.95 1.54l6.5 2.06c3.04.95 5.83 1.87 8.4 2.77 2.87 1 5.24 1.9 7.12 2.69s3.96 1.8 6.23 3.04 4.13 2.57 5.57 4 2.8 3.08 4.11 4.98 2.26 4.12 2.86 6.65.9 5.35.9 8.46c0 10.33-3.43 18.32-10.3 23.98s-16.2 8.48-28.02 8.48c-7.41 0-15.21-1.12-23.39-3.37s-15.94-5.38-23.31-9.4l9.95-22.77c6.95 3.58 13.56 6.34 19.83 8.27s11.44 2.88 15.51 2.88c4.92 0 7.37-1.66 7.37-4.98 0-1.69-.9-3-2.7-3.92s-5.9-2.38-12.27-4.39l-6.58-2.14c-9.77-3.21-16.76-7.01-20.96-11.39s-6.31-10.65-6.31-18.83c0-9.95 3.3-17.6 9.87-22.95S349.6.13 361.24.13z"/>
        <path stroke="#fff" stroke-miterlimit="8" stroke-width="12.13" d="M150.2 6.07c3.56.07 7.02 1.84 8.33 5.29l.52 4.01-.03-1.32 2.87-.18 3.04-.04c2.97.03 5.57.27 6.48.65 4.96 2.1 5.52 7.63 4.55 15.48l-.87 3.37-1.69.82.02.03 4.66-2.35c23.9-10.53 46.07-1.75 66.19-10.55a57.2 57.2 0 0 1-15.92 22.68l-2.67 2.08.68.05c1.96.17 3.94.37 5.93.66 11.97 1.73 24.53 6.48 37.31 24.01 14.91 20.46 20.24 46.57 17 71.12l-.67 3.66 1.51 1.01c8.51 6.36 18.38 18.64 14.94 31.36-9.7 35.75-33.06 55-54.1 56.89-7.6.68-15.56-2.65-23.19-8.56l-2.75-2.27-12.19 5.18c-25.08 9.4-53.96 12.74-84.92 7.3-41.28-7.25-78.11-30.47-93.44-69.2-4.79-12.1-6.48-25.49-5.62-38.68l.36-3.5-.7.12c-26.6 2.67-22.75-18.27-9.38-29.03 4.95-3.98 12.3-30.24 12.26-38.42-.06-9.85 6.06-14.77 12.77-15.73s13.98 2.06 16.24 8.1l2.86 7.92 1.14 3.13.98-.62c5.6-3 10.9-5.36 15.96-7.2l7.17-2.3-6.58-2.5c-6.98-2.3-14.61-4.22-21.5-9.95 22.7 2.32 48.63-6.41 58.65-6.54 7.52-.1 16.57 1.16 23.86 3.84l2.47 1.18-1.24-5.74-.03-.3.1-.04c-.93-5.58-1.48-11.4-1.28-16.22.26-5.9 5.18-8.8 9.92-8.7z"/>
    </g>
    <g stroke="#000" class="B" style="stroke-miterlimit:10;stroke-linejoin:round">
        <g stroke-width="2.02">
            <g fill="#38ad45">
                <path d="M164.3 13.07c3.05.03 5.73.27 6.68.66 5.11 2.11 5.7 7.67 4.7 15.58l-.9 3.4-1.87.87a67.54 67.54 0 0 0-6.16 3.75l-4.9 3.74-.07-.06-.14-1.2c-1.21-8.18-4.23-18.96-3.42-25.19l-.04-1.33 2.97-.18c1.06-.04 2.12-.05 3.14-.04zm-48.27 18.4c10.02-.13 22.78 2.15 30.45 6.99l4.36 4.4-.87-.7c-6.74-4.47-14.78-1.99-23.93 3.98l-2.8 2-5.47-.65a89.45 89.45 0 0 0-25.07 1.24l-7.14 1.79c-8.53-4-19.04-4.86-28.25-12.5 22.73 2.32 48.69-6.42 58.72-6.55z"/>
                <path d="M244.08 21.07c-3.57 9-9.2 16.3-15.96 22.02l-2.79 2.11-5.05-.45c-7.71-.52-14.82.9-21.88 2.67l-4.22 1.06-.18-.1c-5.4-2.82-10.88-4.75-16.5-5.34-6.9-.72-13.98.6-21.25 4.86l.14 1.17-.24-.43-1.07-1.48 5.74-5.32c30.46-25.6 58.42-10.25 83.26-20.77z"/>
                <path d="M140.13 13.75c.5-11.77 19.24-11.58 18.35.6-.88 7.05 2.98 20 3.6 28.26l-.01 2.27-.6.19a37.9 37.9 0 0 0-5.28 2.73l.15 1.27-.24-.5c-2.55-4.22-5.35-6.83-8.4-8.15l-4.45-.98-1.94-9.17-.03-.31.1-.03c-.92-5.57-1.45-11.37-1.25-16.18z"/>
            </g>
            <path fill="#de3f29" d="M231.77 46.26c11.98 1.73 24.57 6.47 37.37 23.95 17.07 23.32 21.6 54 15.12 81.3s-21.03 47.94-50.89 65.38c-29.84 17.45-67.5 25.8-108.85 18.57s-78.24-30.4-93.6-69.01S32.06 75.98 61.9 60.02c22.38-11.98 40.28-13.75 55.53-12.45l5.47.65-3.47 2.46c-17.15 13.04-37.7 34.66-60.67 45.48l.04.02-.06.03a55.3 55.3 0 0 0 12.47 6.6l.63.2.33.14 1.98.58 3.9 1.23.8.15.71.21 2.6.44 3.02.59 1 .09 1.08.18 2.66.14 2.57.23 1.22-.02 1.42.08 2.47-.14 2.28-.03 1.5-.17 1.69-.1 2.13-.34 2.06-.24 1.8-.39 1.89-.3 1.76-.5 1.82-.39 2.09-.68 2.03-.56 1.42-.57 1.52-.5 2.28-1.01 2.19-.88 1.14-.62 1.15-.52 2.25-1.32 2.45-1.33.95-.68.7-.41 1.85-1.4 2.97-2.13.81-.76.23-.17.82-.8 3.95-3.7a54.95 54.95 0 0 0 12.33-21.08l.77-3.31 1.1 3.88c13.99 37.83 66.44 54.06 99.04 31.43l-1.75-.7.02-.02-4.54-2.05-3.13-1.72c-15.8-9.71-32.37-29.33-50.07-40.77l-5.16-3.06 4.2-1.1c7.05-1.8 14.15-3.27 21.85-2.73 3.85.27 7.78.5 11.78 1.08z"/>
            <g fill="#38ad45">
                <path d="M59.08 96.18c45.97-21.6 82.31-86.41 101-39.39-7.52 47.93-68.28 62.78-101 39.4z"/>
                <path d="M177.41 43.26c30.02 3.24 56.73 46.25 81.67 54.36-32.75 22.82-85.46 6.45-99.51-31.7l-2.35-8.34.15-.65-.35-.78-.94-7.86c7.3-4.4 14.4-5.78 21.33-5.03z"/>
            </g>
            <path fill="#fff" d="M238.22 172.74c-4 1.52-16.98 9.32-19.81 10.99 1.15 3.39 4.53 10.82 7.56 13.66 2.84-3.33 11.85-22.12 12.25-24.65zm46.75.24a119.05 119.05 0 0 1-7.96 23.8c4.72-9.83 6.76-19 7.96-23.8zm-14.18-8.64c-3.3-2.15-8.83.7-11.9 2.38-3.01 2.78-18.43 38.6-19.26 41.9 3.13 3.17 5.53 3.4 7.56 3.37 7.78-4.55 23.72-42.76 23.6-47.65zm-96.1-8.92c-4.43 4.7-8.36 15.29-9.16 19.37 3.92 1.13 16.5-1.55 18.4-4.28-3.08-5.03-6.66-13.31-9.24-15.09zm-26.95-31.68c-5.26 7.02-20.9 41.32-22.53 50.71 3.23 1.2 9.84 1.89 13.08 1.7 5.53-6.35 19.19-31.22 21.84-39.7-1.13-2.61-7.76-10.23-12.39-12.71zm-58.56-16.09c-2.24.4-11.94.12-13.46 2.48.9 6.03 3.44 10.94 5.72 14.72 2.43-3.61 6.7-12.76 7.73-17.14l.01-.06zm24.32-.8a5.48 5.48 0 0 0-1.22.03c-3.48 4.22-17.6 33.08-19.83 43.43 2.28 5.03 6.18 10.18 9.46 12.82 5.93-6.8 23.46-43.38 25.19-52.76-1.68-1.16-10.02-3.27-13.6-3.51zM44.37 69.78c-.26 3.3-4.39 20.26-7.66 24.68 5.21.06 9.47-1.16 13.25-2.69.37-4.48-3.89-19.41-5.59-22zm-2.9-28.53c6.71-.95 14 2.06 16.25 8.1 3.37 9.01 8.58 24.97 15.25 38.27 15.43-1.33 55.73-5.37 78.78 8.76s49.85 57.63 54.27 67.8c19.42-4.58 42.04-17.8 53.27-21.01 11.23-3.21 14.56-4.17 24.63.25 8.94 5.2 22.4 19.17 18.46 33.69-9.7 35.74-33.06 54.99-54.1 56.88-17.4 1.56-36.6-17.85-49.52-41.03-31.67 7.84-75.23 9.55-98.53-3.5s-40.9-53.34-45.76-73.31c-9.68 1.97-21.46 7.53-28.64 8.25-26.6 2.67-22.75-18.26-9.38-29.02 4.95-3.98 12.3-30.23 12.26-38.4-.06-9.85 6.06-14.77 12.77-15.73z"/>
        </g>
        <path fill="#de3f29" stroke-linecap="round" stroke-width="5.05" d="M52.58 151.57c4.68 23.83 27.37 42.55 52 54"/>
    </g>
</svg>