<svg class="img-fluid" id="outputsvg" xmlns="http://www.w3.org/2000/svg" style="transform: matrix(0.507, 0, 0, 0.507, 0, 0); transform-origin: 50% 50%; cursor: move; transition: transform 200ms ease-in-out 0s;" width="620" height="362" viewBox="0 0 6200 3620"><g id="l4bgm0zud7f6IbwVAPHkkWe" fill="rgb(0,0,0)" style="transform: none;"><g><path id="p4vKdhFNJ" d="M2176 3611 c-3 -5 -26 -14 -50 -20 l-44 -11 -22 -27 -22 -28 6 -28 6 -29 59 -97 c33 -53 94 -150 136 -216 42 -66 104 -162 136 -213 l59 -93 11 7 11 7 -5 31 -5 31 -61 112 -61 111 0 16 0 16 9 0 c27 0 280 -405 423 -678 l59 -112 -31 -18 c-18 -9 -91 -53 -164 -96 -312 -189 -317 -192 -426 -273 -24 -18 -49 -33 -57 -33 l-13 0 0 193 0 192 15 103 15 103 10 19 11 20 -11 20 -11 20 -30 0 -30 0 -77 -26 c-89 -29 -97 -35 -122 -83 l-18 -36 -10 -55 c-21 -106 -23 -127 -29 -327 l-6 -203 -8 0 c-5 0 -48 30 -96 67 -48 38 -118 91 -155 118 -37 28 -104 80 -150 116 -46 37 -148 110 -226 163 -79 54 -189 132 -244 174 -120 92 -142 108 -199 146 -24 17 -55 40 -69 52 -14 12 -70 45 -126 73 l-101 51 -74 10 -74 11 -40 -7 c-22 -3 -72 -15 -112 -26 l-72 -21 -33 -27 -33 -28 10 -28 10 -28 40 -15 c85 -30 208 -92 346 -174 l144 -86 195 -140 c107 -76 218 -158 245 -180 28 -22 84 -65 126 -93 160 -111 288 -205 382 -281 l97 -78 -8 -15 c-4 -8 -29 -29 -54 -47 -25 -17 -74 -53 -109 -78 -35 -25 -125 -87 -199 -139 -163 -113 -339 -252 -449 -356 l-81 -76 -60 -79 -60 -80 -36 -75 -36 -76 -9 -77 -9 -76 12 -35 c6 -19 23 -60 39 -91 l28 -57 43 -37 43 -37 65 -33 65 -32 90 -16 c50 -9 137 -19 195 -22 l105 -7 100 11 100 12 125 30 c156 38 336 97 436 144 l77 35 23 0 23 0 16 -73 c9 -40 26 -107 39 -148 l23 -74 26 -9 26 -9 40 11 40 12 3 18 c2 9 -2 67 -9 127 -7 61 -15 142 -19 182 l-7 72 48 28 c111 66 408 313 507 422 30 34 58 61 61 61 23 0 208 -239 252 -325 l25 -50 0 -28 0 -27 -7 0 c-3 0 -29 14 -56 32 l-49 32 -16 -10 c-9 -6 -18 -16 -20 -22 l-4 -12 79 -78 79 -77 110 -134 c60 -74 129 -156 154 -183 l45 -48 55 26 c30 14 65 35 77 46 l22 21 17 56 16 56 -5 98 -5 97 -38 83 -38 82 -65 100 -65 100 -198 198 -198 199 0 10 c0 6 9 25 19 42 l19 31 10 53 10 54 -8 31 c-22 98 -107 190 -198 216 l-29 9 -69 -13 -69 -12 -58 -31 c-31 -18 -64 -32 -72 -32 l-15 0 -96 71 c-53 39 -117 84 -141 99 l-45 28 90 61 c106 71 255 152 367 200 44 18 106 44 138 58 l57 24 10 -6 c12 -8 480 -953 480 -970 0 -6 39 -91 170 -370 20 -44 64 -143 96 -220 l59 -140 45 -45 45 -45 61 -23 60 -24 35 4 34 3 4 25 3 25 -11 50 c-6 27 -27 131 -47 230 -36 180 -48 234 -65 310 -5 22 -18 90 -28 150 -10 61 -28 160 -40 220 -11 61 -28 162 -36 225 l-16 115 -6 195 -6 195 23 109 23 109 30 33 29 34 28 0 29 0 5 -9 c3 -5 12 -91 21 -192 l14 -184 21 -130 20 -130 35 -138 c80 -318 170 -533 300 -717 25 -36 63 -90 85 -121 l39 -56 70 -65 70 -64 59 -32 60 -32 43 0 44 0 40 23 40 23 14 28 13 28 8 107 c4 58 14 192 20 296 l13 190 7 14 7 13 98 -123 c54 -68 124 -151 155 -184 80 -84 203 -240 325 -412 22 -31 67 -91 100 -133 33 -43 93 -123 134 -179 l73 -101 33 0 32 0 27 21 26 20 0 26 0 25 -38 57 c-237 351 -298 439 -357 521 -103 143 -304 406 -437 574 l-118 148 0 15 c0 47 96 365 154 510 24 61 62 147 84 191 l40 81 100 133 c55 73 134 169 175 214 l75 80 81 53 81 54 0 9 0 9 -62 29 -63 30 -58 0 -57 0 -85 -30 c-47 -16 -112 -43 -145 -61 l-60 -32 -93 -97 -93 -96 -73 -135 c-41 -74 -80 -143 -86 -155 -26 -41 -84 -193 -125 -324 -23 -74 -45 -138 -49 -142 l-6 -7 -85 116 c-47 63 -101 135 -120 159 -19 23 -47 59 -61 78 -59 80 -231 278 -315 362 l-61 61 -61 42 -62 41 -10 20 -10 19 0 73 c-1 78 -16 217 -25 227 l-6 5 -9 -14 -10 -15 0 -135 0 -135 -8 -11 -7 -11 -87 -5 -86 -6 -58 -28 -57 -29 -11 -20 c-6 -11 -23 -39 -38 -62 -16 -23 -28 -45 -28 -48 0 -4 -15 -39 -32 -78 l-33 -72 0 -240 0 -240 18 -125 c10 -69 25 -165 33 -215 l15 -90 44 -155 c49 -175 57 -210 50 -210 -9 0 -38 67 -101 234 -35 94 -69 180 -74 191 -5 11 -21 52 -36 90 -14 39 -36 95 -49 125 -13 30 -42 102 -65 160 -23 58 -46 109 -51 114 -5 6 -9 17 -9 27 0 9 -20 59 -45 111 l-45 95 0 20 0 21 23 6 c12 3 51 6 87 6 l66 0 22 16 22 15 0 19 0 20 -55 55 -55 55 -70 35 -70 35 -39 0 c-22 0 -51 4 -64 9 l-24 9 -13 34 c-7 18 -19 40 -26 48 -7 8 -46 80 -87 160 -75 146 -133 248 -223 393 -109 173 -153 237 -237 342 l-89 110 -31 20 c-18 11 -33 23 -35 27 l-4 8 -58 0 -59 0 -5 -9z m1929 -1388 c16 -21 33 -42 40 -48 6 -5 54 -57 105 -115 52 -58 103 -114 113 -125 10 -11 60 -67 110 -125 51 -57 121 -137 157 -176 36 -40 76 -87 89 -104 l24 -32 -16 -112 -16 -111 -6 -140 -6 -140 11 -139 10 -139 -6 -6 -6 -6 -39 45 c-22 25 -83 109 -135 188 l-95 143 -78 152 -79 152 -37 105 c-21 58 -41 110 -45 115 -4 6 -20 62 -35 125 -14 63 -33 135 -40 160 -8 25 -19 77 -25 115 -11 71 -38 206 -46 238 l-5 17 14 0 15 0 27 -37z m-1848 -625 c44 -35 103 -84 131 -110 l52 -46 0 -14 0 -14 -50 -59 c-61 -72 -125 -163 -119 -169 3 -3 55 35 116 84 l112 88 19 -5 19 -5 74 -74 74 -75 -64 -61 c-35 -33 -109 -94 -164 -135 -56 -41 -119 -90 -142 -108 -22 -19 -53 -38 -68 -44 l-27 -10 -5 22 c-9 42 -30 277 -62 710 l-6 87 15 0 15 0 80 -62z m623 -121 l0 -23 -29 -34 -29 -35 -41 39 c-22 22 -39 42 -36 44 3 3 90 24 128 31 l7 1 0 -23z m-1019 11 c0 -2 6 -46 14 -98 41 -303 72 -481 107 -619 l11 -44 -19 -15 c-29 -22 -165 -84 -289 -132 -202 -77 -239 -90 -370 -125 l-130 -35 -100 -16 -100 -16 -110 -1 -110 0 -38 18 -38 18 -14 21 -15 20 0 22 0 22 52 79 52 78 141 139 140 139 95 77 c115 93 229 175 330 236 106 64 177 110 267 176 l78 57 23 1 c12 0 22 -1 23 -2z"></path></g></g></svg>