<svg width="0" height="0" class="hidden">
  <symbol xmlns="http://www.w3.org/2000/svg" id="ahk" preserveAspectRatio="xMidYMid meet" viewBox="0 0 48 48">
    <path d="M34.5,6h-21C9.364,6,6,9.364,6,13.5v21c0,4.136,3.364,7.5,7.5,7.5h21c4.136,0,7.5-3.364,7.5-7.5v-21 C42,9.364,38.636,6,34.5,6z M35,31c0,1.105-0.895,2-2,2h-2c-1.105,0-2-0.895-2-2v-5.435L19,26.87V34c0,1.105-0.895,2-2,2h-2 c-1.105,0-2-0.895-2-2V17c0-1.105,0.895-2,2-2h2c1.105,0,2,0.895,2,2v4.87l10-1.304V14c0-1.105,0.895-2,2-2h2c1.105,0,2,0.895,2,2 V31z"/>
  </symbol>
  <symbol xmlns="http://www.w3.org/2000/svg" viewBox="0 0 54 50" id="julia" preserveAspectRatio="xMidYMid meet">
    <circle r="12" cy="38" cx="12"></circle>
    <circle r="12" cy="38" cx="42"></circle>
    <circle r="12" cy="12" cx="27"></circle>
  </symbol>
  <symbol xmlns="http://www.w3.org/2000/svg" viewBox="0 0 48 48" widht="16px" height="16px" id="docker" preserveAspectRatio="xMidYMid meet" >
    <path d="M 22.5 6 C 22.224 6 22 6.224 22 6.5 L 22 9.5 C 22 9.776 22.224 10 22.5 10 L 25.5 10 C 25.776 10 26 9.776 26 9.5 L 26 6.5 C 26 6.224 25.776 6 25.5 6 L 22.5 6 z M 10.5 12 C 10.224 12 10 12.224 10 12.5 L 10 15.5 C 10 15.776 10.224 16 10.5 16 L 13.5 16 C 13.776 16 14 15.776 14 15.5 L 14 12.5 C 14 12.224 13.776 12 13.5 12 L 10.5 12 z M 16.5 12 C 16.224 12 16 12.224 16 12.5 L 16 15.5 C 16 15.776 16.224 16 16.5 16 L 19.5 16 C 19.776 16 20 15.776 20 15.5 L 20 12.5 C 20 12.224 19.776 12 19.5 12 L 16.5 12 z M 22.5 12 C 22.224 12 22 12.224 22 12.5 L 22 15.5 C 22 15.776 22.224 16 22.5 16 L 25.5 16 C 25.776 16 26 15.776 26 15.5 L 26 12.5 C 26 12.224 25.776 12 25.5 12 L 22.5 12 z M 37.478516 14.300781 L 37.025391 14.951172 C 36.458391 15.825172 36.045734 16.787828 35.802734 17.798828 C 35.343734 19.731828 35.621422 21.546656 36.607422 23.097656 C 35.416422 23.758656 33.386 23.986 33 24 L 2 24 C 0.895 24 0 24.895 0 26 C 0 28 0.43371875 30.924625 1.3867188 33.515625 C 2.4757187 36.359625 4.0970781 38.454328 6.2050781 39.736328 C 8.5670781 41.177328 12.404859 42 16.755859 42 C 18.720859 42.006 20.683234 41.828703 22.615234 41.470703 C 25.301234 40.979703 27.885719 40.045078 30.261719 38.705078 C 32.219719 37.576078 33.981469 36.139172 35.480469 34.451172 C 37.985469 31.627172 39.477891 28.4815 40.587891 25.6875 C 40.592891 25.6845 40.596562 25.683688 40.601562 25.679688 C 43.598562 25.800687 45.412625 24.642688 46.390625 23.679688 C 47.008625 23.095688 47.491688 22.38275 47.804688 21.59375 L 48 21.021484 L 47.527344 20.650391 C 47.397344 20.547391 46.182141 19.632812 43.619141 19.632812 C 42.942141 19.635813 42.266609 19.694641 41.599609 19.806641 C 41.103609 16.421641 38.293969 14.769313 38.167969 14.695312 L 37.478516 14.300781 z M 4.5 18 C 4.224 18 4 18.224 4 18.5 L 4 21.5 C 4 21.776 4.224 22 4.5 22 L 7.5 22 C 7.776 22 8 21.776 8 21.5 L 8 18.5 C 8 18.224 7.776 18 7.5 18 L 4.5 18 z M 10.5 18 C 10.224 18 10 18.224 10 18.5 L 10 21.5 C 10 21.776 10.224 22 10.5 22 L 13.5 22 C 13.776 22 14 21.776 14 21.5 L 14 18.5 C 14 18.224 13.776 18 13.5 18 L 10.5 18 z M 16.5 18 C 16.224 18 16 18.224 16 18.5 L 16 21.5 C 16 21.776 16.224 22 16.5 22 L 19.5 22 C 19.776 22 20 21.776 20 21.5 L 20 18.5 C 20 18.224 19.776 18 19.5 18 L 16.5 18 z M 22.5 18 C 22.224 18 22 18.224 22 18.5 L 22 21.5 C 22 21.776 22.224 22 22.5 22 L 25.5 22 C 25.776 22 26 21.776 26 21.5 L 26 18.5 C 26 18.224 25.776 18 25.5 18 L 22.5 18 z M 28.5 18 C 28.224 18 28 18.224 28 18.5 L 28 21.5 C 28 21.776 28.224 22 28.5 22 L 31.5 22 C 31.776 22 32 21.776 32 21.5 L 32 18.5 C 32 18.224 31.776 18 31.5 18 L 28.5 18 z"/>
  </symbol>
  <symbol xmlns="http://www.w3.org/2000/svg" viewBox="0 0 48 48" id="figma" preserveAspectRatio="xMidYMid meet">
    <path d="M17.026 46L17.026 46c-3.866 0-7-3.134-7-7l0 0c0-3.866 3.134-7 7-7h5c1.105 0 2 .895 2 2v5C24.026 42.866 20.892 46 17.026 46zM32.5 17A6.5 6.5 0 1032.5 30 6.5 6.5 0 1032.5 17zM33.5 15c3.656 0 6.607-3.019 6.497-6.7C39.89 4.743 36.787 2 33.227 2L28 2c-1.105 0-2 .895-2 2v9c0 1.105.895 2 2 2H33.5zM16.5 2c-3.656 0-6.607 3.019-6.497 6.7.107 3.557 3.21 6.3 6.77 6.3L22 15c1.105 0 2-.895 2-2V4c0-1.105-.895-2-2-2H16.5zM16.5 17c-3.656 0-6.607 3.019-6.497 6.7.107 3.557 3.21 6.3 6.77 6.3L22 30c1.105 0 2-.895 2-2v-9c0-1.105-.895-2-2-2H16.5z"/>
  </symbol>
  <symbol xmlns="http://www.w3.org/2000/svg" viewBox="0 0 208 128" id="markdown" preserveAspectRatio="xMidYMid meet">
    <rect height="128" width="208" x="0" y="0" ry="15" fill="#000" />
    <path d="m 30,98 0,-68 20,0 20,25 20,-25 20,0 0,68 -20,0 0,-39 -20,25 -20,-25 0,39 z" fill="#fff"/>
    <path d="m 155,98 -30,-33 20,0 0,-35 20,0 0,35 20,0 z" fill="#fff"/>
  </symbol>
  <symbol xmlns="http://www.w3.org/2000/svg" viewBox="0 0 512 512" preserveAspectRatio="xMidYMid meet" id="bash">
    <path d="M449.1 105.9l-161.6-96a60.74 60.74 0 0 0-62.4 0l-161.6 96c-19.3 11.4-31.2 32.6-31.2 55.5v191.9c0 22.9 11.9 44.1 31.2 55.5l161.6 95.9c9.6 5.7 20.4 8.6 31.2 8.6s21.5-2.9 31.2-8.6l161.6-95.9c19.3-11.5 31.2-32.6 31.2-55.5V161.4c0-22.9-11.9-44.1-31.2-55.5z" fill="#fff"></path>
    <path d="M449.1 105.9l-161.6-96c-9.6-5.7-20.4-8.6-31.2-8.6s-21.5 2.9-31.2 8.6l-161.6 96c-19.3 11.4-31.2 32.6-31.2 55.5v191.9c0 22.9 11.9 44.1 31.2 55.5l161.6 95.9c9.6 5.7 20.4 8.6 31.2 8.6s21.5-2.9 31.2-8.6l161.6-95.9c19.3-11.5 31.2-32.6 31.2-55.5V161.4c0-22.9-11.9-44.1-31.2-55.5zm-218.3 389L69.2 399c-15.8-9.4-25.6-26.9-25.6-45.7V161.4c0-18.8 9.8-36.3 25.6-45.7l161.6-95.9c7.8-4.6 16.6-7 25.5-7s17.8 2.4 25.5 7l161.6 95.9c13.3 7.9 22.3 21.6 24.8 37-5.4-11.4-17.4-14.6-31.5-6.3l-152.9 94.5c-19.1 11.1-33.1 23.7-33.1 46.6v188.4c0 13.8 5.5 22.7 14.1 25.3-2.8.5-5.6.8-8.5.8-8.9-.1-17.8-2.5-25.5-7.1z" fill="#283037"></path>
    <path d="M406.8 371.8l-40.3 24.1c-1.1.6-1.9 1.3-1.9 2.6V409c0 1.3.9 1.8 1.9 1.2l40.9-24.8c1.1-.6 1.2-1.8 1.2-3.1V373c.1-1.3-.8-1.8-1.8-1.2z" fill="#4da825"></path>
    <path d="M321.1 283.2c1.3-.7 2.4.2 2.4 1.9l.1 13.9c5.8-2.3 10.9-2.9 15.5-1.9 1 .3 1.4 1.6 1 3.2l-3.1 12.3c-.2.9-.8 1.9-1.4 2.5-.3.3-.5.5-.8.6-.4.2-.8.3-1.2.2-2.1-.5-7.1-1.6-14.9 2.4-8.2 4.2-11.1 11.3-11 16.6.1 6.3 3.3 8.3 14.5 8.4 14.9.2 21.4 6.8 21.5 21.8.2 14.8-7.7 30.6-19.8 40.4l.3 13.8c0 1.7-1.1 3.6-2.4 4.2l-8.2 4.7c-1.3.7-2.4-.1-2.4-1.8l-.1-13.6c-7 2.9-14.1 3.6-18.6 1.8-.9-.3-1.2-1.6-.9-3l3-12.5c.2-1 .8-2 1.5-2.6.3-.2.5-.4.8-.6.5-.2.9-.3 1.3-.1 4.9 1.6 11.1.9 17.1-2.2 7.6-3.9 12.7-11.6 12.6-19.4-.1-7-3.9-9.9-13.1-10-11.7 0-22.7-2.3-22.9-19.6-.1-14.2 7.3-29 19-38.4l-.1-13.9c0-1.7 1-3.6 2.4-4.3l7.9-4.8z" fill="#fff"></path>
  </symbol>
  <symbol xmlns="http://www.w3.org/2000/svg" viewBox="0 0 256 256" preserveAspectRatio="xMidYMid meet" id="brackets">
    <path d="M256 204.8c0 28.16-23.04 51.2-51.2 51.2H51.2C23.04 256 0 232.96 0 204.8V51.2C0 23.04 23.04 0 51.2 0h153.6C232.96 0 256 23.04 256 51.2v153.6z" fill="#115a91"></path>
    <path d="M204.8 28.16c12.705 0 23.04 10.335 23.04 23.04v128c0 12.705-10.335 23.04-23.04 23.04H51.2c-12.705 0-23.04-10.335-23.04-23.04v-128c0-12.705 10.335-23.04 23.04-23.04h153.6" fill="#fff"></path>
    <path d="M204.8 28.16c12.705 0 23.04 10.335 23.04 23.04v128c0 12.705-10.335 23.04-23.04 23.04H51.2c-12.705 0-23.04-10.335-23.04-23.04v-128c0-12.705 10.335-23.04 23.04-23.04h153.6zm0-28.16H51.2C23.04 0 0 23.04 0 51.2v128c0 28.16 23.04 51.2 51.2 51.2h153.6c28.16 0 51.2-23.04 51.2-51.2v-128C256 23.04 232.96 0 204.8 0z" fill="#25a5de"></path>
    <path d="M143.36 0v122.88h-64V92.16h35.84v-64H79.36V0h64zM64 0v28.16H28.16v64H64v30.72H0V0h64z" transform="translate(56.32 53.76)" fill="#4d4d4d"></path>
  </symbol>
  <symbol xmlns="http://www.w3.org/2000/svg" viewBox="0 0 362.7 411.4" preserveAspectRatio="xMidYMid meet" id="css">
    <path d="M0 0h362.734l-33.046 370.2-148.543 41.18L33.01 370.257z" fill="#264de4"></path>
    <path d="M301.397 346.626l28.24-316.352h-148.27v349.63z" fill="#2965f1"></path>
    <path d="M75.677 167.597l4.07 45.4h101.62v-45.4zm105.7-46.5v-45.4H67.5l4.128 45.4zM127.36 235.713H81.776l6.362 71.3 93.02 25.823.2-.058v-47.246l-.2.053-50.574-13.656z" fill="#ebebeb"></path>
    <path d="M274.304 307.014l20.66-231.33H181.2v45.41h63.988l-4.132 46.5H181.2v45.4h55.918l-5.27 58.894-50.647 13.67v47.244z" fill="#fff"></path>
  </symbol>
  <symbol xmlns="http://www.w3.org/2000/svg" viewBox="0 0 34.6 34.8" preserveAspectRatio="xMidYMid meet" id="gatk">
    <path d="M14.732 32.02c-1-.19-3.057-.904-4.04-1.398-3.545-1.78-5.965-4.536-7.308-8.323-.576-1.624-.615-1.91-.616-4.505-.001-3.185.26-4.415 1.474-6.927C6.026 7.17 9.206 4.5 13.347 3.218c1.933-.598 5.732-.653 7.72-.1 1.794.49 4.252 1.73 5.542 2.797C29.012 7.89 31 11.102 31.66 14.02c.498 2.237.335 5.818-.36 7.93-.915 2.78-.705 2.802-3.876-.425-3.347-3.406-3.586-3.88-3.586-7.12 0-2.792-.254-3.717-1.297-4.732-1.017-.988-2.79-1.944-4.22-2.278-2.5-.582-7.63.45-7.033 1.414.05.08 1.085.707 2.302 1.395s2.562 1.58 2.99 1.984c.715.676.766.794.644 1.484-.296 1.674-2.048 4.413-3.342 5.226-.995.625-1.962.41-4.4-.97C6.6 16.3 6.324 16.458 7.47 19.084c1.058 2.423 2.853 4.78 4.165 5.47.714.375 2.464.363 3.888-.026 1.478-.404 2.7-.37 3.74.102 1.094.496 5.683 4.98 5.462 5.336-.183.295-1.958 1.105-3.562 1.625-1.17.38-5.263.652-6.433.428z" fill="#2597b9"></path>
    <path d="M15.82 34.697c-4.592-.445-9.025-2.84-11.923-6.44C.435 23.953-.848 18.134.565 13.14c1.363-4.818 4.33-8.652 8.49-10.97C11.88.598 16.163-.3 18.974.09c4.454.62 7.385 1.967 10.264 4.715 1.823 1.74 2.858 3.182 3.905 5.44 1.198 2.584 1.472 3.947 1.46 7.248-.01 2.524-.075 3.08-.54 4.61-.92 3.03-2.11 5.074-4.274 7.337-3.552 3.716-8.936 5.74-13.966 5.254zm5.344-3.107c1.604-.52 3.38-1.33 3.562-1.625.22-.357-4.368-4.84-5.462-5.336-1.042-.473-2.263-.506-3.74-.102-1.424.39-3.174.4-3.888.026-1.312-.69-3.107-3.046-4.165-5.47-1.147-2.626-.87-2.785 2.008-1.153 2.438 1.382 3.405 1.596 4.4.97 1.293-.812 3.045-3.552 3.342-5.226.122-.69.07-.81-.644-1.484-.427-.404-1.772-1.297-2.99-1.984s-2.253-1.315-2.302-1.395C10.69 7.85 15.818 6.817 18.32 7.4c1.432.333 3.204 1.3 4.22 2.278 1.044 1.015 1.297 1.94 1.297 4.732 0 3.238.24 3.713 3.586 7.12 3.17 3.227 2.96 3.204 3.876.425.695-2.113.858-5.694.36-7.93-.65-2.92-2.647-6.13-5.05-8.117-1.3-1.067-3.748-2.307-5.542-2.797-1.987-.542-5.786-.488-7.72.1-4.14 1.282-7.32 3.952-9.105 7.647-1.214 2.512-1.475 3.743-1.474 6.927.001 2.594.04 2.882.616 4.505 1.62 4.57 4.943 7.77 9.584 9.228 1.827.574 2.013.595 4.634.52 1.653-.048 2.736-.186 3.563-.454z" fill="#343838"></path>
  </symbol>
  <symbol xmlns="http://www.w3.org/2000/svg" 
    xmlns:xlink="http://www.w3.org/1999/xlink" viewBox="0 0 735 852" preserveAspectRatio="xMidYMid meet" id="ggplot2">
    <path d="M705.6 196.2L367.5 1 .1 213v424.3l367.4 212 367.4-212V213z" fill="#fff"></path>
    <path d="M146.3 360L69 411a38.2 38.2 0 0 1 6.4 10.2l79.3-52.2a38.8 38.8 0 0 1-8.2-9zm298.7-4.6l71.5-45.6a38.6 38.6 0 0 1-6.5-10.1l-71.4 45.5a38.6 38.6 0 0 1 6.5 10.1zM581 269l59.5-38a39 39 0 0 1-6.5-10.1l-59.5 38a38.8 38.8 0 0 1 6.4 10.2zm-188 67l-41-59a38.7 38.7 0 0 1-9.9 6.9l41 59a38.9 38.9 0 0 1 9.9-6.9zm-177-7.6l80.7-53.2a38.8 38.8 0 0 1-6.6-10l-79 52a38.5 38.5 0 0 1 5 11z" fill="#424242"></path>
    <path d="M216 328.4a38.7 38.7 0 1 0-70.3 30.3l.7 1.2a38.7 38.7 0 0 0 69.6-31.4z" fill="#51a7f9"></path>
    <path d="M51.2 473.2c1.2-.4 2.4-.8 3.5-1.3a38.7 38.7 0 0 0 20.5-50.8 38.2 38.2 0 0 0-6.4-10.2 38.6 38.6 0 0 0-14.2-10.3c-1-.5-2.3-1-3.5-1.3a38.7 38.7 0 0 0-21.8-.4v74.5a38.8 38.8 0 0 0 21.8-.3z" fill="#a8d6ff"></path>
    <path d="M364 249.3a38.8 38.8 0 1 0-12 27.9 38.7 38.7 0 0 0 12-27.9z" fill="#0365c0"></path>
    <path d="M438.7 345.3a38.7 38.7 0 0 0-65.7 13.4 44 44 0 0 0-1 3.5 38.7 38.7 0 1 0 75.4 0l-1-3.5-1.3-3.3a38.6 38.6 0 0 0-6.4-10.1z" fill="#164f86"></path>
    <path d="M584 284a38.7 38.7 0 0 0-57.4-33.8 38.1 38.1 0 0 0-3.5 2.2 38.6 38.6 0 0 0 0 63.3 38 38 0 0 0 3.5 2.2 38.7 38.7 0 0 0 57.4-33.8z" fill="#002452"></path>
    <path d="M630.8 205.3v1.5a38.7 38.7 0 0 0 47.9 36c1.2-.3 2.4-.6 3.5-1a38.8 38.8 0 0 0 18.4-13.7L634 189.7a38.3 38.3 0 0 0-3.2 13.6v2z" fill="#000643"></path>
    <g fill="#424242">
      <path d="M705.6 196.2L367.5 1 .1 213v424.3l367.4 212 367.4-212V213zM682.2 635L365.7 815.7 29.4 621.5V231L369.2 36.8 705.6 231v390.4z"></path>
      <use xlink:href="#B"></use>
      <use xlink:href="#B" x="84.4"></use>
      <path d="M299 539.6l-.6-26.8H311l1 14a30 30 0 0 1 27.5-15.9c18.7 0 32.8 16.8 32.8 41.7 0 29.5-17 44-35.2 44-10.2 0-19.2-4.7-23.8-13h-.3v44.6h-14zm14 22a35.57 35.57 0 0 0 .6 6.1c2.6 10.3 11 17.5 21 17.5 15 0 23.5-13 23.5-31.7 0-16.5-8.2-30.5-23-30.5-9.6 0-18.6 7.3-21.3 18.5a25.6 25.6 0 0 0-1 6.1zm72-87h14V595h-14zm102.7 78.7c0 30.4-19.8 43.6-38.6 43.6-21 0-37-16.3-37-42.2 0-27.5 17-43.6 38.4-43.6 22.2 0 37.3 17 37.3 42.2zm-61.4 1c0 18 9.8 31.5 23.5 31.5 13.4 0 23.5-13.4 23.5-32 0-14-6.6-31.5-23.2-31.5s-23.8 16.3-23.8 32zm91-65v23.6h20.2v11.4h-20.2v44.3c0 10.2 2.7 16 10.6 16a29.6 29.6 0 0 0 8.2-1l.6 11.2c-2.7 1.2-7 2-12.5 2-6.6 0-11.8-2.2-15.2-6.3-4-4.4-5.4-11.7-5.4-21.4v-44.8h-12v-11.4h12V493zM543.7 595v-9l11-11.4c26.6-26.8 38.6-41 38.7-57.7 0-11.2-5-21.5-20.6-21.5-9.4 0-17.3 5-22 9.3l-4.4-10.5a44.1 44.1 0 0 1 29.4-11.2c18.133-1.137 33.107 13.978 31.8 32.1 0 20.4-14 36.8-35.8 59.2l-8.3 8.3H610V595z"></path>
    </g>
    <defs id="defs33">
      <path id="B" d="M198 512.8l-.6 70.2c0 18.8-3.5 30.4-11 37.5-7.5 7.5-18.4 9.8-28.2 9.8-9.3 0-19.5-2.4-25.8-6.8l3.5-11.4a41.8 41.8 0 0 0 22.7 6.5c14.4 0 25-8 25-28.7l-.3-9.2c-4.3 7.6-12.6 13.7-24.6 13.7-19.2 0-33-17.3-33-40 0-27.8 17-43.6 35-43.6 13.4 0 20.8 7.5 24.2 14.3h.3l.6-12.4zm-14.6 32.4a22.4 22.4 0 0 0-.8-6.8c-2.6-8.6-9.4-15.8-19.7-15.8-13.4 0-23 12-23 31 0 16 7.7 29.5 23 29.5 8.6 0 16.5-5.8 19.5-15.3a27.5 27.5 0 0 0 1.1-8z"></path>
    </defs>
  </symbol>
  <symbol xmlns="http://www.w3.org/2000/svg" baseProfile="tiny" viewBox="0 0 48 48" preserveAspectRatio="xMidYMid meet" id="github">
    <path d="M44,24c0,8.96-5.88,16.54-14,19.08V38c0-1.71-0.72-3.24-1.86-4.34c5.24-0.95,7.86-4,7.86-9.66c0-2.45-0.5-4.39-1.48-5.9 c0.44-1.71,0.7-4.14-0.52-6.1c-2.36,0-4.01,1.39-4.98,2.53C27.57,14.18,25.9,14,24,14c-1.8,0-3.46,0.2-4.94,0.61 C18.1,13.46,16.42,12,14,12c-1.42,2.28-0.84,4.74-0.3,6.12C12.62,19.63,12,21.57,12,24c0,5.66,2.62,8.71,7.86,9.66 c-0.67,0.65-1.19,1.44-1.51,2.34H16c-1.44,0-2-0.64-2.77-1.68c-0.77-1.04-1.6-1.74-2.59-2.03c-0.53-0.06-0.89,0.37-0.42,0.75 c1.57,1.13,1.68,2.98,2.31,4.19C13.1,38.32,14.28,39,15.61,39H18v4.08C9.88,40.54,4,32.96,4,24C4,12.95,12.95,4,24,4 S44,12.95,44,24z"/>
  </symbol>
  <symbol xmlns="http://www.w3.org/2000/svg" viewBox="0 0 48 48" preserveAspectRatio="xMidYMid meet" id="html">
    <path d="M40.814,7.171L38.11,38.72c-0.067,0.78-0.583,1.449-1.32,1.713L25.009,44.64c-0.652,0.233-1.366,0.233-2.018,0 L11.21,40.432c-0.737-0.263-1.253-0.933-1.32-1.713L7.186,7.171C7.086,6.003,8.007,5,9.179,5h29.642 C39.993,5,40.914,6.003,40.814,7.171z M35,12H13.01l1.16,13h15.74l-0.57,6.48L24,32.75l-5.33-1.26L18.37,28h-4.01l0.57,6.71 L24,36.85l9.06-2.14L34.29,21H17.83l-0.44-5H34.7L35,12z"/>
  </symbol>
  <symbol xmlns="http://www.w3.org/2000/svg" 
    xmlns:xlink="http://www.w3.org/1999/xlink" viewBox="0 0 124.113 122.28" preserveAspectRatio="xMidYMid meet" id="mega">
    <path d="M0 0h59.743v58.5H0z" fill="#e74c3c"></path>
    <path d="M64.224 0h59.743v58.5H64.224zM.146 63.78H59.9v58.5H.146zm64.224 0h59.743v58.5H64.37z" fill="#2c3e50"></path>
    <path d="M30.465 106.63c-1.942 0-3.585-.293-5.228-1.024-1.643-.585-2.838-1.61-4.033-2.78s-1.942-2.633-2.54-4.24-.896-3.5-.896-5.558.3-3.95.896-5.558 1.494-3.07 2.54-4.24 2.4-2.048 4.033-2.633c1.494-.585 3.286-.878 5.078-.878 1.494 0 2.838.146 4.033.585 1.195.293 2.4.878 3.435 1.463 1.046.73 1.792 1.463 2.4 2.34s1.046 1.9 1.344 3.07h-2.09c-.15-.73-.448-1.463-.896-2.194s-1.195-1.316-1.942-1.755-1.792-.878-2.838-1.17-2.24-.44-3.435-.44c-1.494 0-2.987.293-4.33.73s-2.4 1.17-3.286 2.194-1.643 2.194-2.24 3.656c-.448 1.463-.747 3.07-.747 4.973s.3 3.5.747 4.973 1.195 2.633 2.24 3.656c.896 1.024 2.09 1.755 3.435 2.34s2.688.73 4.33.73c2.24 0 4.182-.44 5.825-1.17 1.643-.878 2.987-1.9 4.182-3.364v-4.68h-7.468v-1.9h9.26v12.724H41.07l-.896-3.5c-.597.73-1.344 1.316-2.09 1.9-.747.44-1.494.878-2.4 1.17s-1.643.585-2.688.73c-.597-.293-1.643-.146-2.54-.146" fill="#fff"></path>
    <path d="M86.48 18.135v9.653h15.533v1.9H86.48v10.677h17.326v1.9H84.387V16.234h18.67v1.9z" fill="#fff"></path>
    <path d="M106.2 106.046h-2.4l-3.286-8.336H87.37l-1.494 4.24-1.643 4.24h-1.942l2.54-6.58L89.9 86.74l2.54-6.58h2.688zm-6.124-9.8l-6.124-14.48-5.825 14.48z" fill="#fff"></path>
    <path d="M19.267 19.305v22.962h-1.942V16.234h2.838l9.708 23.693 9.858-23.693h2.688v26.033h-1.942V19.305l-9.56 22.962h-2.09z" fill="#fff"></path>
  </symbol>
  <symbol xmlns="http://www.w3.org/2000/svg" viewBox="0 0 48 48" preserveAspectRatio="xMidYMid meet" id="photoshop">
    <path d="M 13.5 6 C 9.3754991 6 6 9.3754991 6 13.5 L 6 34.5 C 6 38.624501 9.3754991 42 13.5 42 L 34.5 42 C 38.624501 42 42 38.624501 42 34.5 L 42 13.5 C 42 9.3754991 38.624501 6 34.5 6 L 13.5 6 z M 16.5 15 L 19 15 C 22.03 15 24.5 17.47 24.5 20.5 C 24.5 23.53 22.03 26 19 26 L 18 26 L 18 31.5 C 18 32.33 17.33 33 16.5 33 C 15.67 33 15 32.33 15 31.5 L 15 16.5 C 15 15.67 15.67 15 16.5 15 z M 18 18 L 18 23 L 19 23 C 20.38 23 21.5 21.88 21.5 20.5 C 21.5 19.12 20.38 18 19 18 L 18 18 z M 29.050781 21 L 30.400391 21 C 31.840391 21 33.159922 21.91 33.669922 23.25 C 33.969922 24.03 33.580781 24.889453 32.800781 25.189453 C 32.030781 25.489453 31.159141 25.090313 30.869141 24.320312 C 30.809141 24.160312 30.640391 24 30.400391 24 L 29.050781 24 C 28.640781 24 28.300781 24.34 28.300781 24.75 C 28.300781 25.16 28.640781 25.5 29.050781 25.5 L 30.25 25.5 C 32.32 25.5 34 27.18 34 29.25 C 34 31.32 32.32 33 30.25 33 L 28.099609 33 C 27.249609 33 26.429063 32.690859 25.789062 32.130859 C 25.659063 32.010859 25.539687 31.889766 25.429688 31.759766 C 24.889688 31.119766 24.979375 30.180625 25.609375 29.640625 C 26.249375 29.110625 27.190469 29.200078 27.730469 29.830078 C 27.830469 29.930078 27.939609 30 28.099609 30 L 30.25 30 C 30.66 30 31 29.66 31 29.25 C 31 28.84 30.66 28.5 30.25 28.5 L 29.050781 28.5 C 26.980781 28.5 25.300781 26.82 25.300781 24.75 C 25.300781 22.68 26.980781 21 29.050781 21 z"/>
  </symbol>
  <symbol xmlns="http://www.w3.org/2000/svg" viewBox="0 -61 256 256" preserveAspectRatio="xMidYMid meet" fill-rule="evenodd" id="php">
    <ellipse fill="#8993be" cx="128" cy="66.63" rx="128" ry="66.63"></ellipse>
    <path d="M35.945 106.082l14.028-71.014H82.4c14.027.877 21.04 7.9 21.04 20.165 0 21.04-16.657 33.315-31.562 32.438H56.1l-3.507 18.41H35.945zm23.67-31.56L64 48.22h11.397c6.137 0 10.52 2.63 10.52 7.9-.876 14.905-7.9 17.535-15.78 18.412h-10.52zm40.576 13.15l14.027-71.013h16.658l-3.507 18.4h15.78c14.028.877 19.288 7.9 17.535 16.658l-6.137 35.945h-17.534l6.137-32.438c.876-4.384.876-7.014-5.26-7.014h-13.15l-7.9 39.452h-16.658zm53.233 18.41l14.027-71.014H199.9c14.028.877 21.042 7.9 21.042 20.165 0 21.04-16.658 33.315-31.562 32.438H173.6l-3.507 18.41h-16.657zm23.67-31.56l4.384-26.302h11.398c6.137 0 10.52 2.63 10.52 7.9-.876 14.905-7.9 17.535-15.78 18.412h-10.52z" fill="#232531"></path>
  </symbol>
  <symbol xmlns="http://www.w3.org/2000/svg" viewBox="0 0 256 193" preserveAspectRatio="xMidYMid meet" id="r">
    <path d="M149.333 149.333c-53.333 0-98.66-26.713-98.66-58.713S90.667 32 144 32c67.357 0 98.572 25.91 98.572 57.91s-34.407 59.422-93.24 59.422M128 0C58.667 0 0 37.333 0 85.333c0 45.334 58.312 82.97 127.646 82.97S256 133.333 256 85.333 197.333 0 128 0"></path>
    <path d="M105.946 51.83v141.11h42.643v-54.875c10.66 0 17.01-2.328 23.986 10.452 10.66 18.292 23.987 44.423 23.987 44.423H247.2l-34.647-54.875c-4.915-5.227-10.66-5.227-18.656-7.84 15.99-2.613 30.9-9.248 36.082-23.464 4.53-13.065 3.998-29.685-5.714-40.83-8.41-8.82-17.042-14.1-38.364-14.1h-79.955zm42.643 29.388h27.984c6.636 0 11.993 6.533 11.993 13.065s-5.33 13.066-11.993 13.066H148.59v-26.13z"></path>
  </symbol>
  <symbol xmlns="http://www.w3.org/2000/svg" viewBox="175.7 0 490.6 341.455" preserveAspectRatio="xMidYMid meet" fill="#61dafb" id="react">
    <path d="M666.3 248.777c0-32.5-40.7-63.3-103.1-82.4 14.4-63.6 8-114.2-20.2-130.4-6.5-3.8-14.1-5.6-22.4-5.6v22.3c4.6 0 8.3.9 11.4 2.6 13.6 7.8 19.5 37.5 14.9 75.7-1.1 9.4-2.9 19.3-5.1 29.4-19.6-4.8-41-8.5-63.5-10.9-13.5-18.5-27.5-35.3-41.6-50 32.6-30.3 63.2-46.9 84-46.9v-22.3c-27.5 0-63.5 19.6-99.9 53.6-36.4-33.8-72.4-53.2-99.9-53.2v22.3c20.7 0 51.4 16.5 84 46.6-14 14.7-28 31.4-41.3 49.9-22.6 2.4-44 6.1-63.6 11-2.3-10-4-19.7-5.2-29-4.7-38.2 1.1-67.9 14.6-75.8 3-1.8 6.9-2.6 11.5-2.6v-22.3c-8.4 0-16 1.8-22.6 5.6-28.1 16.2-34.4 66.7-19.9 130.1-62.2 19.2-102.7 49.9-102.7 82.3 0 32.5 40.7 63.3 103.1 82.4-14.4 63.6-8 114.2 20.2 130.4 6.5 3.8 14.1 5.6 22.5 5.6 27.5 0 63.5-19.6 99.9-53.6 36.4 33.8 72.4 53.2 99.9 53.2 8.4 0 16-1.8 22.6-5.6 28.1-16.2 34.4-66.7 19.9-130.1 62-19.1 102.5-49.9 102.5-82.3zm-130.2-66.7c-3.7 12.9-8.3 26.2-13.5 39.5-4.1-8-8.4-16-13.1-24-4.6-8-9.5-15.8-14.4-23.4 14.2 2.1 27.9 4.7 41 7.9zm-45.8 106.5c-7.8 13.5-15.8 26.3-24.1 38.2-14.9 1.3-30 2-45.2 2-15.1 0-30.2-.7-45-1.9-8.3-11.9-16.4-24.6-24.2-38-7.6-13.1-14.5-26.4-20.8-39.8 6.2-13.4 13.2-26.8 20.7-39.9 7.8-13.5 15.8-26.3 24.1-38.2 14.9-1.3 30-2 45.2-2 15.1 0 30.2.7 45 1.9 8.3 11.9 16.4 24.6 24.2 38 7.6 13.1 14.5 26.4 20.8 39.8-6.3 13.4-13.2 26.8-20.7 39.9zm32.3-13a428.56 428.56 0 0 1 13.8 39.8c-13.1 3.2-26.9 5.9-41.2 8 4.9-7.7 9.8-15.6 14.4-23.7 4.6-8 8.9-16.1 13-24.1zm-101.4 106.7c-9.3-9.6-18.6-20.3-27.8-32 9 .4 18.2.7 27.5.7 9.4 0 18.7-.2 27.8-.7-9 11.7-18.3 22.4-27.5 32zm-74.4-58.9c-14.2-2.1-27.9-4.7-41-7.9 3.7-12.9 8.3-26.2 13.5-39.5 4.1 8 8.4 16 13.1 24s9.5 15.8 14.4 23.4zm73.9-208.1c9.3 9.6 18.6 20.3 27.8 32-9-.4-18.2-.7-27.5-.7-9.4 0-18.7.2-27.8.7 9-11.7 18.3-22.4 27.5-32zm-74 58.9c-4.9 7.7-9.8 15.6-14.4 23.7-4.6 8-8.9 16-13 24a428.56 428.56 0 0 1-13.8-39.8c13.1-3.1 26.9-5.8 41.2-7.9zm-90.5 125.2c-35.4-15.1-58.3-34.9-58.3-50.6s22.9-35.6 58.3-50.6c8.6-3.7 18-7 27.7-10.1 5.7 19.6 13.2 40 22.5 60.9-9.2 20.8-16.6 41.1-22.2 60.6-9.9-3.1-19.3-6.5-28-10.2zm53.8 142.9c-13.6-7.8-19.5-37.5-14.9-75.7 1.1-9.4 2.9-19.3 5.1-29.4 19.6 4.8 41 8.5 63.5 10.9 13.5 18.5 27.5 35.3 41.6 50-32.6 30.3-63.2 46.9-84 46.9-4.5-.1-8.3-1-11.3-2.7zm237.2-76.2c4.7 38.2-1.1 67.9-14.6 75.8-3 1.8-6.9 2.6-11.5 2.6-20.7 0-51.4-16.5-84-46.6 14-14.7 28-31.4 41.3-49.9 22.6-2.4 44-6.1 63.6-11 2.3 10.1 4.1 19.8 5.2 29.1zm38.5-66.7c-8.6 3.7-18 7-27.7 10.1-5.7-19.6-13.2-40-22.5-60.9 9.2-20.8 16.6-41.1 22.2-60.6 9.9 3.1 19.3 6.5 28.1 10.2 35.4 15.1 58.3 34.9 58.3 50.6-.1 15.7-23 35.6-58.4 50.6z"></path>
    <circle r="45.7" cy="248.777" cx="420.9"></circle>
  </symbol>
  <symbol xmlns="http://www.w3.org/2000/svg" viewBox="0 0 35.637 41" preserveAspectRatio="xMidYMid meet" id="snapgene">
    <path d="M2.218 39.436c-.53-.31-.744-1.36-.723-3.54.03-3.104.637-6.874 1.97-12.22.62-2.482.953-3.335 4.054-10.345l3.38-7.887c0-.136-.155-.502-.345-.813-.427-.7-.43-1.06-.014-1.975.424-.934 1.13-1.188 2.867-1.03 3.36.304 7.766 2.367 9.837 4.605.895.967.976 1.12.978 1.866.003 1 .074 1.105.95 1.55.997.505 2.442 2.113 3.03 3.37.52 1.113.86 2.503.86 3.525 0 .485.11.65.67 1.003.37.233.842.7 1.052 1.04.308.5.567.67 1.362.896 1.256.358 1.684.762 1.94 1.83.525 2.2-.615 6.017-2.2 7.418-.454.398-.743.507-1.347.507-.746 0-.782.025-1.194.837-.443.874-1.378 1.82-1.995 2.014-.45.142-1.438-.172-1.782-.566-.142-.163-.356-.608-.475-.988s-.488-1.393-.82-2.25c-.59-1.524-.602-1.598-.513-3.46.16-3.345 1.647-6.362 3.67-7.45.76-.41.89-.86.606-2.125-.434-1.944-1.62-3.92-3.016-5.03-.73-.58-1.145-.633-2.422-.302-.697.18-.908.33-1.157.818-.168.33-1.638 3.627-3.267 7.33-3.523 8.006-3.333 7.622-5.047 10.18C8.838 34.63 4.255 39.646 2.73 39.6c-.123-.003-.354-.08-.513-.174z" fill="#b4e8fc"></path>
    <path d="M1.557 40.622c-.79-.53-1.162-1.322-1.388-2.95-.318-2.288.197-6.533 1.494-12.303.964-4.287 1.202-4.945 4.538-12.513l3.14-7.29c0-.09-.116-.388-.258-.66-.374-.717-.317-1.753.15-2.744.773-1.64 1.714-2.09 4.07-1.94 5.202.326 12.298 4.624 12.298 7.45 0 .305.308.664 1.157 1.346 1.882 1.513 3.117 3.64 3.554 6.12.155.883.312 1.18 1.048 1.987.7.768 1.058 1.01 1.873 1.26 1.676.514 2.318 1.702 2.312 4.28-.004 1.857-.432 3.53-1.34 5.244-.69 1.3-2.016 2.507-2.91 2.65-.56.1-.754.24-1.204.943-.57.886-1.76 1.794-2.596 1.978-.667.146-2.344-.352-2.834-.84-.213-.213-.528-.772-.702-1.244l-.923-2.415c-1.15-2.945-.92-6.194.66-9.342.7-1.393 1.557-2.47 2.507-3.145.414-.295.505-.476.47-.93-.068-.895-1.032-2.717-1.93-3.65-.724-.75-.884-.84-1.323-.738-.274.064-.593.205-.708.312s-1.65 3.453-3.412 7.435-3.528 7.758-3.925 8.4C12.793 31.425 8.958 36.366 6.6 38.6c-2.322 2.2-3.858 2.824-5.054 2.022zm2.126-1.372c1.715-.86 5.93-5.78 9.434-11.008 1.714-2.56 1.524-2.175 5.047-10.18l3.267-7.33c.25-.488.46-.638 1.157-.818 1.277-.33 1.69-.28 2.422.302 1.397 1.1 2.582 3.087 3.016 5.03.283 1.266.155 1.716-.606 2.125-2.024 1.09-3.5 4.107-3.67 7.45-.09 1.862-.078 1.936.513 3.46.332.856.702 1.868.82 2.25s.333.825.475.988c.344.394 1.334.708 1.782.566.616-.196 1.552-1.14 1.995-2.014.41-.812.448-.837 1.194-.837.604 0 .894-.11 1.347-.507 1.595-1.4 2.736-5.228 2.2-7.418-.256-1.07-.684-1.472-1.94-1.83-.795-.227-1.053-.397-1.362-.896-.21-.34-.682-.806-1.052-1.04-.562-.355-.67-.518-.67-1.003 0-1.022-.34-2.412-.86-3.525-.59-1.258-2.034-2.865-3.03-3.37-.876-.444-.947-.56-.95-1.55-.002-.745-.083-.9-.978-1.866-2.072-2.238-6.48-4.3-9.837-4.605-1.737-.157-2.443.096-2.867 1.03-.415.914-.413 1.275.014 1.975.2.312.345.677.345.813s-1.52 3.685-3.38 7.887c-3.1 7-3.436 7.863-4.054 10.345-1.332 5.346-1.94 9.116-1.97 12.22-.02 2.18.194 3.23.723 3.54.426.248.657.22 1.464-.185z" fill="#652d2c"></path>
  </symbol>
  <symbol xmlns="http://www.w3.org/2000/svg" viewBox="0 0 42.7 52.1" preserveAspectRatio="xMidYMid meet" stroke="#5da9dd" id="spades">
    <path d="M14.6 51.4s.2-.3.4-.5c.5-.5 1.9-2.6 2.4-3.5.4-.8.7-1.8 1-2.7a16 16 0 0 0 .2-3.6c-.1-.7-.2-.8-1-.2-1.6 1.2-3.5 1.8-5.7 2-2 .1-4.2-.6-6.4-2C4.2 40 2.6 38.2 2 37c-.6-1.3-.9-2-1.2-3.2-.2-.8-.2-4.4 0-5.4A22 22 0 0 1 3.7 21c.8-1.3 1.1-1.7 3.4-4.5.8-1 2.9-3 4.8-4.8l5.6-5.5A21 21 0 0 0 21.4.8c.1-.2.3-.1.6.3l2.4 3.5L27.2 8l9.5 9.7c2.3 2.7 4.3 6 4.9 8.6.3 1.3.4 1.8.4 3.8l-.2 2.7c-.7 3.2-2.3 6-4.5 7.5-1.4 1-2.8 1.6-4.7 2-1.3.2-2.4.1-3.9-.4-1.1-.3-2.6-1-3.3-1.7-.5-.4-.7-.4-.8.3-.3 1.2-.1 3.4.5 5.2.6 1.6 2.1 4.2 3.2 5.4l.5.6h-7c-4.2 0-7 0-7-.1zm5.9-.1c.6 0 1.2 0 1.3-.1.2-.1.3-2 .2-3.6a59 59 0 0 0-1.1-7.9l-.4-2c-.6-3.6-1-8.7-.7-9.8.2-.6.6-1 1.1-1.2.4-.1.5-.1 1 .1a27.9 27.9 0 0 1 1.6.7c1.8.8 2.5 1 3.2.6.7-.4 1.3-1.3 1.5-2.3.2-1.3-.4-2.7-1.4-3.2-.8-.4-1.5-.2-3 .8-1.3 1-1.9 1-2.5.7-.5-.3-.7-1-1-2.3-.2-1-.2-4.7 0-7l.9-10c.1-1 .1-1.4 0-1.4 0 0-.5.5-.9 1.2a48 48 0 0 1-7.2 8.1c-4.8 4.7-7.4 8-8.9 11-.6 1.2-1.3 3.4-1.6 4.7-.4 2-.3 4.3.1 6 .5 1.8 2.2 4.2 3.8 5.4 1.3 1 3.2 1.6 5.1 1.7 2.2.1 4-.4 6-1.8.4-.3.8-.5.9-.5.4.1.7 1.4.7 3 0 3-.8 5-3.3 8.3l-.8 1c0 .1 1.1.2 2.7.1h2.4zm6.2 0c.6 0 1.1 0 1.2-.1.1-.1.1-.1-1.4-2.2-1.3-1.8-1.9-3-2.3-5-.4-1.5-.4-2.8 0-4 .2-1 .4-1.3.6-1.3.1 0 .3.2.5.3.9.8 2.5 1.4 4.1 1.8 1.5.3 2.9.2 4.7-.4 1-.3 1.2-.4 2.1-1 2.1-1.4 3.4-3.2 4.3-6 .6-2 .6-4.2-.2-7.3-.3-1-.7-2.2-1.3-3.5-.8-1.5-1.4-2.5-2.5-4s-1.9-2.3-6.9-7.3A76 76 0 0 1 23.7 5l-1.1-1.4c-.4-.5-.6-.7-.7-.7a20 20 0 0 0-.2 2.7v14.6c.1 1 .3 1.8.5 2 .2.4.5.4 1.5-.1 1.7-1 2.5-1 3.4-.5.8.4 1.3 1 1.5 2 .5 2-.3 4.2-1.9 5-.5.3-.6.3-1.3.2-.7 0-.7 0-2.8-1-.9-.5-1.3-.5-1.6-.1-.5.6-.5 1.7 0 5.4l1.8 11c.1 1 .1 4-.1 5.7-.1.6-.1 1.2-.1 1.3s.1.1.3.1h3.8z" fill="#5ea9dc" stroke-width="1"></path>
    <path d="M15.4 51.2s.3-.6.8-1.2c2.2-3 2.9-4.6 3.2-7 .2-1.7-.1-3.7-.5-4.2-.2-.2-.2-.2-.5 0-.2.1-.7.4-1.1.6a9 9 0 0 1-6 1.5c-2.5-.2-4.6-1.3-6.1-3-1.8-2.2-2.6-4-2.7-6.5a18 18 0 0 1 3.4-10.8c1.5-2.2 3.1-4 7.9-9L18.2 7 21 3.3c.1-.2.2 0 .2.5 0 .3-.1 1-.2 1.7-.6 4.6-.9 9-.9 12.6 0 3.5.2 4.7.8 5.4.5.6 1.2.5 2.6-.3 1.6-1 2.2-1.2 3-1 .6.2 1.2 1 1.5 1.6.5 1.5-.4 3.6-1.6 4-.6.2-1.2 0-3.1-.8-1.9-.8-2.1-1-2.7-.6-.7.3-.9.8-1 2-.1 2.3.4 6.8 1.2 11.2l1.1 7c.1 1.7.1 4.2-.1 4.4-.1.1-.9.1-3.2.2-1.7 0-3.1 0-3.1-.1zm7.3-.7l.1-3.4c.1-3 0-3.4-1.1-9.5l-1.1-8c0-1 .1-1.4.4-1.7.3-.3.8-.2 2.3.6l1.5.7h.8c.7 0 .8-.1 1.4-.4.6-.4 1.1-1 1.5-2 .3-.7.3-2.6 0-3.5-.3-1-1.2-1.7-2.2-1.8-.6-.1-1.3.1-2.5.7s-1.4.6-1.7.1c-.7-1.3-.8-6.3-.5-15.6l.3-3.6a22 22 0 0 1 1.5 1.7 109 109 0 0 0 6.3 6.7l7.1 7.7c2.2 3 3.4 5.8 3.9 9.2.3 2 .2 3.7-.3 5.2-1.1 3.3-3.5 5.8-6.5 6.8-1.1.4-2.4.5-3.4.5a11 11 0 0 1-4.9-1.7c-.5-.3-.9-.5-1-.5s-.3.4-.4 1c-.8 2.4-.2 5.6 1.6 8.3l1.3 2c.8 1.2.9 1.3.8 1.4-.1 0-1.3.1-2.7.1h-2.5z" fill="#ccc" stroke-width=".5"></path>
    <path d="M16 51s.4-.6.9-1.4c1.6-2.3 2.3-3.6 2.6-5.3a13 13 0 0 0 0-4.3c-.2-.8-.5-1.3-.9-1.3-.1 0-.6.3-1.2.6-2.5 1.5-4.2 2-6.5 1.6-2.8-.4-4.7-1.6-6.4-4-1.4-2-1.9-4-1.8-6.6.2-3.7 1.9-7.8 5-11.5 1.2-1.4 2.1-2.4 5.7-6l7.5-8.4c0 .1-.1 1-.2 2.4a103 103 0 0 0-.7 8.9c-.1 3.5 0 6 .3 7.2.3 1 .9 1.6 1.6 1.6.5 0 .9-.2 2.2-1 1.1-.7 1.6-.8 2.2-.7.5.1 1.3 1 1.5 1.6.3 1-.2 2.8-1.1 3.3-.6.4-1.2.3-3.4-.6l-2.1-.7c-.4 0-1.1.3-1.3.6-.5.6-.7 1.7-.5 4.2.2 2.5.5 5.2 1.2 9.4l.8 4.8c.2 1.5.3 5.2.2 5.6l-.1.3h-2.7c-1.5 0-2.7 0-2.7-.1zm7.1-1c.1-2 .1-5.8 0-6.7l-1.9-13c-.1-2.4 0-2.5 2.4-1.3l1.4.7h.9c.8 0 .9-.1 1.4-.4.7-.4 1.2-1 1.5-1.8.3-.6.3-.7.3-2.2 0-1.4 0-1.6-.2-2-.8-1.5-2.1-2-3.6-1.6l-1.5.6c-.9.4-.9.4-1.1.2-.5-.7-.8-5.6-.6-12.5l.2-6 .9 1a107 107 0 0 0 6.2 6.6l6.9 7.4c2.4 3.2 3.6 6 4.1 9.6.2 1.5.2 3.4-.2 4.5-.8 3-2.7 5.3-5.2 6.5-1.6.8-4.1 1-5.8.7a11.5 11.5 0 0 1-3.4-1.4c-.5-.3-1-.6-1.1-.5-.2 0-.6.8-.8 1.6a11 11 0 0 0 0 3.6c.4 2 1.1 3.5 2.6 5.7l1.1 1.6h-1.2a70.9 70.9 0 0 1-2.2.1h-1z" fill="#fff" stroke-width=".5"></path>
  </symbol>
  <symbol xmlns="http://www.w3.org/2000/svg" viewBox="-11.9 -2 1003.9 995.6" preserveAspectRatio="xMidYMid meet" id="vscode">
    <path d="M12.1 353.9s-24-17.3 4.8-40.4l67.1-60s19.2-20.2 39.5-2.6l619.2 468.8v224.8s-.3 35.3-45.6 31.4z" fill="#2489ca"></path>
    <path d="M171.7 498.8L12.1 643.9s-16.4 12.2 0 34l74.1 67.4s17.6 18.9 43.6-2.6L299 614.4z" fill="#1070b3"></path>
    <path d="M451.9 500l292.7-223.5-1.9-223.6s-12.5-48.8-54.2-23.4L299 384z" fill="#0877b9"></path>
    <path d="M697.1 976.2c17 17.4 37.6 11.7 37.6 11.7l228.1-112.4c29.2-19.9 25.1-44.6 25.1-44.6V159.7c0-29.5-30.2-39.7-30.2-39.7L760 24.7c-43.2-26.7-71.5 4.8-71.5 4.8s36.4-26.2 54.2 23.4v887.5c0 6.1-1.3 12.1-3.9 17.5-5.2 10.5-16.5 20.3-43.6 16.2z" fill="#3c99d4"></path>
  </symbol>
  <symbol xmlns="http://www.w3.org/2000/svg" viewBox="0 0 48 48" preserveAspectRatio="xMidYMid meet" id="powershell">
    <path d="M19.847 41.956c-5.629-.002-11.259.024-16.888-.013-2.855-.019-3.374-.7-2.731-3.525 2.178-9.58 4.427-19.143 6.557-28.734C7.356 7.112 8.588 5.975 11.312 6c11.258.106 22.517.034 33.776.046 2.824.003 3.298.614 2.664 3.511a5514 5514 0 0 1-6.236 28.203c-.789 3.516-1.697 4.187-5.353 4.195-5.439.011-10.878.003-16.316.001z" fill="#0277BD"></path>
    <path d="M25.057 23.922c-.608-.687-1.114-1.267-1.531-1.732-2.43-2.728-4.656-5.27-7.063-7.869-1.102-1.189-1.453-2.344-.13-3.518 1.307-1.16 2.592-1.058 3.791.277 3.34 3.717 6.676 7.438 10.071 11.104 1.268 1.369.972 2.3-.424 3.315a2137.388 2137.388 0 0 0-16.01 11.778c-1.196.887-2.337 1.109-3.304-.201-1.066-1.445-.08-2.305 1.026-3.114 3.955-2.893 7.903-5.798 11.834-8.725.548-.407 1.278-.97 1.74-1.315zM21.75 37C20.625 37 20 36 20 35s.625-2 1.75-2h9.5c1.125 0 1.75 1 1.75 2s-.625 2-1.75 2h-9.5z" fill="#FAFAFA"></path>
  </symbol>
  <symbol xmlns="http://www.w3.org/2000/svg" viewBox="0 0 48 48" preserveAspectRatio="xMidYMid meet" id="inkscape">
    <path fill="#212121" d="M44.265 20.931L27.505 3.502c-2.08-2.003-5.498-2.003-7.423 0L3.908 20.327c-6.131 6.227 4.157 5.727 7.813 8.086 1.686 1.116-4.968 2.559-3.52 4.031 1.411 1.481 8.076 2.815 9.487 4.25 1.411 1.472-2.826 3.039-1.406 4.511 1.375 1.472 4.423.07 5.019 3.417.431 2.478 5.779 1.233 8.29-.879 1.567-1.353-2.74-1.352-1.329-2.833 1.265-1.298 2.474-1.875 3.574-2.231 1.97-.649 4.22-.504 5.054-2.662.706-1.792-5.266-3.194-3.654-4.346 3.848-2.751 17.554-4.12 11.029-10.74zM25.717 32.904c-2.126.732-11.867-3.948-9.31-3.948.44.001 14.854 2.065 9.31 3.948zm12.95 5.076c-1.847 1.904.321 3.899 2.128 2.584.483-.363-.039-2.131-2.128-2.584zm1.354-1.846c0 .899 6.313 1.412 5.965-.214-.503-2.739-5.267-2.525-5.965.214z"></path>
    <path fill="#212121" d="M9.552 41.421c1.477 1.555 3.711-.34 4.43-2.527-1.437-2.284-6.745.146-4.43 2.527z"></path>
    <path fill="#424242" d="M26.77 5.59l-4.48 7.59-7.94 13.46c-1.55-.59-3.21-.95-4.76-1.23-.6-.19-1.21-.36-1.82-.52-1.14-.31-3.21-.88-3.74-1.37.07-.21.34-.78 1.35-1.81l7.68-7.98 8.5-8.84c.55-.57 1.33-.89 2.21-.89s1.74.33 2.36.92l.64.67z"></path>
    <path fill="#fafafa" d="M33.07 12.13c-.03.1-.08.18-.13.24l-3.05-2.51-.6 3.69-2.51-1.37-4.09 2.62-.4-1.62-.95-3.89-2.18 4.79-5.45-.04c-.34 0-.55-.12-.65-.31l8.5-8.84c.55-.57 1.33-.89 2.21-.89s1.74.33 2.36.92l.64.67 6.3 6.54z"></path>
  </symbol>
  <symbol xmlns="http://www.w3.org/2000/svg" viewBox="0 0 48 48" preserveAspectRatio="xMidYMid meet" id="office">
    <path d="M8.932,11.264l17.6-6.705c0.956-0.364,2-0.426,2.993-0.178l8.203,2.051C39.063,6.766,40,7.966,40,9.342v29.315 c0,1.377-0.937,2.577-2.272,2.91l-8.203,2.051c-0.992,0.248-2.037,0.186-2.993-0.178L7,36l21,3V10l-12.673,4.526 C14.531,14.81,14,15.564,14,16.409V33l-7,3V14.067C7,12.823,7.769,11.707,8.932,11.264z"/>
  </symbol>
  <symbol xmlns="http://www.w3.org/2000/svg" viewBox="0 0 48 48" preserveAspectRatio="xMidYMid meet" id="python">
    <path d="M44,17c-0.79-1.82-2.94-2-4.92-2H36v3c0,4.14-3.36,7.5-7.5,7.5h-9c-2.48,0-4.5,2.02-4.5,4.5v9.08c0,1.98,0.18,4.13,2,4.92 c1.59,0.69,4.68,1,7,1s5.41-0.31,7-1c1.82-0.79,2-2.94,2-4.92V36h-7.5c-0.83,0-1.5-0.67-1.5-1.5c0-0.83,0.67-1.5,1.5-1.5h13.58 c1.98,0,4.13-0.18,4.92-2c0.69-1.59,1-4.68,1-7S44.69,18.59,44,17z M27.5,39c0.83,0,1.5,0.67,1.5,1.5c0,0.83-0.67,1.5-1.5,1.5 S26,41.33,26,40.5C26,39.67,26.67,39,27.5,39z M28.5,22.5c2.48,0,4.5-2.02,4.5-4.5V8.92c0-1.98-0.18-4.13-2-4.92 c-1.59-0.69-4.68-1-7-1s-5.41,0.31-7,1c-1.82,0.79-2,2.94-2,4.92V12h7.5c0.83,0,1.5,0.67,1.5,1.5c0,0.83-0.67,1.5-1.5,1.5H8.92 C6.94,15,4.79,15.18,4,17c-0.69,1.59-1,4.68-1,7s0.31,5.41,1,7c0.79,1.82,2.94,2,4.92,2H12v-3c0-4.14,3.36-7.5,7.5-7.5H28.5z M19.5,9C18.67,9,18,8.33,18,7.5C18,6.67,18.67,6,19.5,6S21,6.67,21,7.5C21,8.33,20.33,9,19.5,9z"/>
  </symbol>
  <symbol xmlns="http://www.w3.org/2000/svg" viewBox="0 0 24 24" preserveAspectRatio="xMidYMid meet" id="fusion360">
    <path d="M10.269 3.344c-.054.352-.114.749-.174 1.168 1.431-1.461 3.126-2.024 3.792-2.195 1.705-.438 3.68-.507 5.609-.453L19.16.94l-.558-.107c-1.225-.234-4.414-.564-7.438-.741C10.899.709 10.491 1.901 10.269 3.344zM15.53 6H21l-.768-2.11c-2.03-.09-4.141-.074-5.848.364-.759.195-3.31 1.058-4.217 3.942-.245.778-.462 2.087-.531 3.701.117 3.517.781 7.66 2.639 12.091L13 23.982v-6.05c.001-1.511.55-2.265 1.894-2.603.665-.166 2.798-.291 3.988-.331l1.331-.044L19.573 13l-.654-2-.625-1.913-2.843-.352C14.695 8.57 14.054 7.729 14 7.475 14 7.16 14.117 6.124 15.53 6zM15 11h1.816l.654 2H15c-.552 0-1-.447-1-1S14.448 11 15 11zM7.645 12.24C7.487 8.304 7.975 5.099 8.292 3.039 8.471 1.878 8.764.823 9.05.017 8.214.122 5.63.733 4.596 1.19L4 1.453v9.916c0 2.648.175 5.422.378 8.633.057.908.117 1.846.174 2.813L4.6 23.631l.809.116c1.486.212 3.229.248 4.644.251C8.096 19.987 7.564 15.597 7.645 12.24z"/>
  </symbol>
  <symbol xmlns="http://www.w3.org/2000/svg" viewBox="0 0 48 48" preserveAspectRatio="xMidYMid meet" id="teams">
    <path d="M 25.5 7.1308594 C 25.156 7.1308594 24.819187 7.1665625 24.492188 7.2265625 C 24.474187 7.2295625 24.4555 7.231375 24.4375 7.234375 C 24.1165 7.297375 23.809719 7.3898594 23.511719 7.5058594 C 23.493719 7.5128594 23.474078 7.5183906 23.455078 7.5253906 C 23.156078 7.6453906 22.871563 7.7929375 22.601562 7.9609375 C 22.588562 7.9689375 22.5755 7.975375 22.5625 7.984375 C 22.2895 8.157375 22.034875 8.3552656 21.796875 8.5722656 C 21.790875 8.5782656 21.784344 8.5838437 21.777344 8.5898438 C 21.536344 8.8118437 21.315187 9.0544063 21.117188 9.3164062 C 21.116187 9.3174062 21.114281 9.3193125 21.113281 9.3203125 C 20.417281 10.242313 20 11.386859 20 12.630859 C 20 13.532377 20.22115 14.380069 20.605469 15.130859 L 7 15.130859 C 5.343 15.130859 4 16.473859 4 18.130859 L 4 32.130859 C 4 33.787859 5.343 35.130859 7 35.130859 L 21 35.130859 C 22.657 35.130859 24 33.787859 24 32.130859 L 24 18.130859 C 24 18.056086 23.983897 17.985516 23.978516 17.912109 C 24.462357 18.05128 24.971335 18.130859 25.5 18.130859 C 27.275 18.130859 28.849469 17.284516 29.855469 15.978516 C 29.862469 15.969516 29.871906 15.959219 29.878906 15.949219 C 30.213906 15.508219 30.481875 15.015375 30.671875 14.484375 C 30.683875 14.450375 30.698938 14.415859 30.710938 14.380859 C 30.794937 14.130859 30.860203 13.872422 30.908203 13.607422 C 30.917203 13.559422 30.922688 13.512844 30.929688 13.464844 C 30.971688 13.191844 31 12.914859 31 12.630859 C 31 9.5928594 28.538 7.1308594 25.5 7.1308594 z M 37.5 9.1308594 A 4.5 4.5 0 1 0 37.5 18.130859 A 4.5 4.5 0 0 0 37.5 9.1308594 z M 27 20.130859 L 27 33.630859 C 27 36.110859 24.98 38.130859 22.5 38.130859 L 16.560547 38.130859 C 18.400547 41.150859 21.73 43.130859 25.5 43.130859 C 31.29 43.130859 36 38.420859 36 32.630859 L 36 21.630859 C 36 20.800859 35.33 20.130859 34.5 20.130859 L 27 20.130859 z M 38.740234 20.130859 C 38.910234 20.600859 39 21.100859 39 21.630859 L 39 32.630859 C 39 34.580859 38.580078 36.429375 37.830078 38.109375 C 41.260078 37.949375 44 35.100859 44 31.630859 L 44 21.630859 C 44 20.800859 43.33 20.130859 42.5 20.130859 L 38.740234 20.130859 z"/>
  </symbol>
  <symbol xmlns="http://www.w3.org/2000/svg" viewBox="0 0 48 48" preserveAspectRatio="xMidYMid meet" id="trello">
    <path fill="#1E88E5" d="M6 10c0-2.2 1.8-4 4-4h28c2.2 0 4 1.8 4 4v28c0 2.2-1.8 4-4 4H10c-2.2 0-4-1.8-4-4V10z"></path>
    <path fill="#FFF" d="M10 12.2c0-1.2 1-2.2 2.2-2.2h7.6c1.2 0 2.2 1 2.2 2.2v21.6c0 1.2-1 2.2-2.2 2.2h-7.6C11 36 10 35 10 33.8V12.2zm16 10.6c0 1.2 1 2.2 2.2 2.2h7.6c1.2 0 2.2-1 2.2-2.2V12.2c0-1.2-1-2.2-2.2-2.2h-7.6C27 10 26 11 26 12.2v10.6z"></path>
  </symbol>
  <symbol xmlns="http://www.w3.org/2000/svg" viewBox="0 0 48 48" preserveAspectRatio="xMidYMid meet" id="javascript">
    <path fill="#ffd600" d="M6 42V6h36v36H6z"></path>
    <path fill="#000001" d="M29.538 32.947c.692 1.124 1.444 2.201 3.037 2.201 1.338 0 2.04-.665 2.04-1.585 0-1.101-.726-1.492-2.198-2.133l-.807-.344c-2.329-.988-3.878-2.226-3.878-4.841 0-2.41 1.845-4.244 4.728-4.244 2.053 0 3.528.711 4.592 2.573l-2.514 1.607c-.553-.988-1.151-1.377-2.078-1.377-.946 0-1.545.597-1.545 1.377 0 .964.6 1.354 1.985 1.951l.807.344C36.452 29.645 38 30.839 38 33.523 38 36.415 35.716 38 32.65 38c-2.999 0-4.702-1.505-5.65-3.368l2.538-1.685zm-11.586.082c.506.906 1.275 1.603 2.381 1.603 1.058 0 1.667-.418 1.667-2.043V22h3.333v11.101c0 3.367-1.953 4.899-4.805 4.899-2.577 0-4.437-1.746-5.195-3.368l2.619-1.603z"></path>
  </symbol>
  <symbol xmlns="http://www.w3.org/2000/svg" viewBox="0 0 460.176 460.218" preserveAspectRatio="xMidYMid meet" id="netlify">
    <path fill="#38afbb" d="M333.505 159.708l-.168-.072a.71.71 0 0 1-.276-.156 1.322 1.32 0 0 1-.336-1.116l9.287-56.724 43.553 43.52-45.296 19.252a.997.996 0 0 1-.396.072h-.18a1.246 1.246 0 0 1-.24-.204 20.617 20.596 0 0 0-5.947-4.573zm63.173-3.457l46.57 46.522c9.672 9.674 14.514 14.5 16.28 20.092a22.61 22.61 0 0 1 .649 2.509l-111.292-47.086a8.747 8.738 0 0 0-.18-.072c-.445-.18-.96-.384-.96-.84s.53-.672.973-.852l.144-.06zm61.6 84.054c-2.403 4.513-7.09 9.194-15.018 17.128l-52.504 52.44-67.907-14.127-.36-.072c-.6-.096-1.238-.204-1.238-.744a20.497 20.476 0 0 0-7.87-14.319c-.276-.276-.204-.708-.12-1.104 0-.06 0-.12.024-.168l12.82-78.593c.072-.6.18-1.296.72-1.296a20.785 20.765 0 0 0 13.937-7.982c.108-.12.18-.252.324-.324.384-.18.84 0 1.238.168l115.942 48.995zm-79.598 81.63l-86.338 86.25 14.802-90.86c.012-.12.036-.24.072-.348.12-.288.433-.408.733-.528l.144-.06a22.227 22.205 0 0 0 8.35-6.205c.288-.336.637-.66 1.08-.72a1.081 1.08 0 0 1 .348 0l60.795 12.483zM274.068 426.442l-9.732 9.722-107.592-155.338a5.094 5.089 0 0 0-.12-.168c-.168-.228-.348-.456-.312-.72.012-.192.132-.36.264-.504l.12-.156c.324-.48.6-.96.9-1.476l.24-.42.036-.036c.168-.288.324-.564.613-.72.252-.12.6-.072.877-.012L278.56 301.17a1.97 1.968 0 0 1 .913.396c.156.156.192.324.228.516a21.11 21.089 0 0 0 12.351 14.103c.336.168.192.54.036.936a2.86 2.857 0 0 0-.18.54l-17.842 108.78zm-20.33 20.296c-7.173 7.094-11.402 10.85-16.184 12.363a24.029 24.005 0 0 1-14.49 0c-5.6-1.776-10.44-6.6-20.113-16.276L94.904 334.886l28.223-43.726c.132-.216.264-.408.48-.564.3-.216.733-.12 1.093 0a29.244 29.214 0 0 0 19.68-.996c.324-.12.65-.204.9.024a2.283 2.28 0 0 1 .336.384L253.74 446.75zM84.488 324.48L59.7 299.718l48.948-20.86a1.009 1.008 0 0 1 .396-.084c.41 0 .65.408.865.78a34.963 34.928 0 0 0 1.562 2.208l.156.192c.144.204.048.408-.096.6L84.5 324.48zm-35.756-35.72l-31.358-31.327c-5.335-5.33-9.203-9.194-11.895-12.52l95.35 19.756a10.092 10.082 0 0 0 .36.06c.59.096 1.238.204 1.238.756 0 .6-.71.876-1.3 1.104l-.276.12zM0 228.807a24.029 24.005 0 0 1 1.081-5.941c1.778-5.593 6.608-10.418 16.292-20.092l40.13-40.09a26138.336 26112.003 0 0 0 55.58 80.262c.324.432.685.912.312 1.272-1.754 1.932-3.508 4.045-4.746 6.337a1.922 1.92 0 0 1-.601.744c-.156.096-.324.06-.505.024h-.024L0 228.795zm68.244-76.853l53.958-53.904 67.5 28.614c.36.144.685.288.84.648.096.216.048.492 0 .72a24.065 24.041 0 0 0 6.284 21.941c.36.36 0 .876-.312 1.32l-.168.252-54.787 84.775c-.144.24-.276.444-.517.6-.288.18-.697.096-1.033.012a27.321 27.294 0 0 0-6.524-.888c-1.97 0-4.11.36-6.272.756h-.012c-.24.036-.457.084-.65-.06a2.523 2.521 0 0 1-.541-.612zm64.855-64.8l69.854-69.783c9.672-9.662 14.514-14.5 20.113-16.264a24.029 24.005 0 0 1 14.49 0c5.6 1.764 10.44 6.6 20.113 16.264l15.14 15.123-49.68 76.865a1.862 1.86 0 0 1-.493.576c-.3.204-.72.12-1.08 0a25.195 25.169 0 0 0-23.068 4.441c-.324.336-.805.144-1.213-.036L133.1 87.164zm150.256-44.122l45.872 45.826-11.054 68.57a1.622 1.62 0 0 1-.096.456c-.12.24-.36.288-.6.36a21.987 21.965 0 0 0-6.584 3.277 1.85 1.848 0 0 0-.24.204c-.132.144-.264.276-.48.3a1.37 1.368 0 0 1-.517-.084l-70.034-29.73c-.445-.18-.973-.396-.973-.852a26.408 26.382 0 0 0-3.725-10.982c-.336-.552-.71-1.128-.42-1.692zm-47.242 103.295l65.528 27.726c.36.168.757.324.913.696a1.274 1.272 0 0 1 0 .684c-.192.96-.36 2.052-.36 3.157v1.836c0 .456-.47.648-.9.828l-.132.048-145.943 62.1c-.204 0-.42 0-.625-.204-.36-.36 0-.864.324-1.32a9.131 9.122 0 0 0 .168-.24l53.946-83.442c.312-.504.673-1.068 1.25-1.068l.54.084c1.225.168 2.307.324 3.4.324 8.17 0 15.74-3.973 20.305-10.766a1.922 1.92 0 0 1 .409-.48c.324-.24.805-.12 1.177.048zM161.07 256.58l147.54-62.858s.216 0 .42.204c.805.804 1.5 1.344 2.15 1.848l.324.204c.3.168.6.36.625.672 0 .12 0 .192-.024.3l-12.688 77.873c-.084.6-.168 1.284-.733 1.284a20.773 20.753 0 0 0-16.496 10.166l-.06.096c-.168.276-.324.54-.6.684-.252.12-.577.072-.84.012l-117.66-24.245c-.12-.024-1.826-6.23-1.958-6.24z"></path>
  </symbol>
  <symbol xmlns="http://www.w3.org/2000/svg" viewBox="0 0 150 150.2" preserveAspectRatio="xMidYMid meet" id="geneious">
    <path d="M0 .2h150v150H0V.2z" fill="none"></path>
    <path d="M107.7 4.6c-1.1-1.1-2.2-1.5-3.1-1.5-1.2 0-2.3.7-2.9 1.8 2.5 7.5 2.4 10 .4 12.1-.6.6-1.4.9-2.3.9-1.3 0-3-.6-5.3-2.1-13.8-10.7-33.6-8.3-44.4 5.5-9.9 12.7-8.7 30.8 2.8 42 .2.3.5.6.7.8C69 79.5 70.5 81 58.3 93.6c-10.5 9.3-11.4 25.2-2.2 35.7s25.2 11.4 35.7 2.2 11.4-25.2 2.2-35.7c-.7-.8-1.4-1.5-2.2-2.2C79.5 81 81.1 79.4 96.4 64.1c.3-.3.5-.5.7-.8 8.4-8.2 11.6-20.5 8.1-31.8.9-.6 1.8-1.2 2.5-2 6.8-6.9 6.8-18 0-24.9zM75.1 34.2c3.6 0 6.5 2.9 6.5 6.5s-2.9 6.5-6.5 6.5-6.5-2.9-6.5-6.5 2.9-6.5 6.5-6.5c-.1 0 0 0 0 0zm0 83.1c-2.7 0-4.9-2.2-4.9-4.9s2.2-4.9 4.9-4.9 4.9 2.2 4.9 4.9c-.1 2.7-2.2 4.9-4.9 4.9z" fill="#f47b20"></path>
  </symbol>
</svg>