<svg xmlns="http://www.w3.org/2000/svg" viewBox="-2 -2 2314 1324">
    <path fill="#E2EBF3" d="M-2 0h2314v1322H-2Z"/>
    <path fill="#015495" d="M-2-2h2314v418H-2Zm1118.93 556.04c1.04-.17 2.21-.15 3.51.07 4.63.66 8.03 1.77 10.2 3.35 2.18 1.56 3.25 4.05 3.23 7.45a28.23 28.23 0 0 1-3.08 12.1 57.06 57.06 0 0 1-7.37 11.28 91.8 91.8 0 0 1-8.88 9.34l-6.06-4.44a82.81 82.81 0 0 0 4.3-9.62 38.16 38.16 0 0 0 1.76-6.96l-6.36-2.81 2.81-13.33c.52-2.46 1.58-4.24 3.18-5.35a6.57 6.57 0 0 1 2.76-1.08Zm-49.21-13.54-7.63 1.01c-2.89.39-5.77.84-8.63 1.36-3.3.49-5.69 1.39-7.15 2.7-1.47 1.3-2.19 3.17-2.17 5.59v1.63c-.02 2.72.59 4.69 1.83 5.9 1.25 1.22 3.3 1.82 6.16 1.8h2.07a17.1 17.1 0 0 0 8.37-2.63 29.36 29.36 0 0 0 7.15-5.96Zm-302.33 0-7.63 1.01c-2.89.39-5.77.84-8.63 1.36-3.3.49-5.69 1.39-7.16 2.7-1.47 1.3-2.19 3.17-2.16 5.59v1.63c-.03 2.72.58 4.69 1.83 5.9 1.25 1.22 3.3 1.82 6.15 1.8h2.08a17.1 17.1 0 0 0 8.37-2.63 29.3 29.3 0 0 0 7.15-5.96Zm-326.26-42.63h32.93v63.93c.03 4.36-.39 8-1.26 10.96a23.14 23.14 0 0 1-4.67 8.39 80.99 80.99 0 0 1-9.43 9.08 217.66 217.66 0 0 1-7.7 6 97.18 97.18 0 0 1-5.73 3.77l-9.46-9.92c.91-1.1 1.82-2.19 2.74-3.26.9-1.06 2.11-2.6 3.62-4.59 3.25-3.75 5.46-6.98 6.62-9.67 1.17-2.7 1.72-6.34 1.65-10.9v-45.6l-4.66-.69c-1.55-.23-3.1-.5-4.65-.8Zm-97.08 0h33.22v44.4c-.14 5.84.32 9.68 1.37 11.54 1.04 1.85 3.5 2.7 7.35 2.53h1.77c2.68-.04 5.46-.66 8.32-1.87a51.01 51.01 0 0 0 8.54-4.64V515.9a333.04 333.04 0 0 0-9.61-1.33v-16.71h33.23v60.55c1.24.15 2.63.33 4.15.55 1.52.22 3.24.48 5.15.78v16.56h-32.92v-11.39c-4.1 2.56-8.62 5.07-13.58 7.55a37.54 37.54 0 0 1-15.69 3.99h-1.92c-7.15.11-12.26-1.44-15.31-4.66-3.06-3.22-4.55-8.76-4.47-16.64V515.9l-3.8-.56c-1.53-.22-3.46-.48-5.8-.77Zm515.9-1.34h7.82v22.04c-2.89.15-5.64.3-8.25.47-2.61.16-5.03.35-7.26.57-2.63.03-5.09.5-7.37 1.39-2.28.9-4.55 2.5-6.81 4.83v32.74c1.44.14 3 .33 4.65.55l5.99.78v16.56H803.3V559.9a124.18 124.18 0 0 1 9.16-1.33V515.9c-1.4-.16-2.84-.36-4.3-.61s-2.93-.5-4.41-.72v-16.71h32.33v14.05a66.35 66.35 0 0 1 9.44-10.63c3.35-3.02 7.5-4.6 12.42-4.76Zm200.46-.44h6.65c8.59.08 15.11 2.58 19.56 7.49 4.45 4.9 6.69 11.73 6.72 20.48v34.36c2.34.3 5.34.74 9.01 1.33v16.56h-32.63v-9.16a52.97 52.97 0 0 1-11.79 7.57c-4.1 1.9-8.84 2.88-14.23 2.92h-2.36c-4.59.1-8.5-.38-11.73-1.42a12.52 12.52 0 0 1-7.4-6.42c-1.7-3.24-2.56-8.12-2.57-14.64v-1.48c.04-5.7 1.07-10.07 3.07-13.1 2-3.05 4.71-5.22 8.13-6.53a48.14 48.14 0 0 1 11.53-2.74 658.6 658.6 0 0 1 16.94-2.13c2.75-.32 6.22-.75 10.41-1.27v-2.82c.01-4.45-.97-7.58-2.96-9.38-1.98-1.8-5.04-2.68-9.16-2.61-2 0-4.22.11-6.67.35-2.46.24-4.72.61-6.79 1.13l-1.18 7.85h-17.56v-22.64c5.64-1.2 11.63-2.1 17.99-2.74 6.37-.63 12.04-.95 17.02-.96Zm-126.71 0h1.91c4.95-.04 8.94 1 11.98 3.1 3.04 2.11 5.15 5.51 6.33 10.21a85.44 85.44 0 0 1 13.6-9.1 34.71 34.71 0 0 1 15.81-4.21h1.92c6.38 0 11.26 1.75 14.65 5.27 3.39 3.52 5.1 8.87 5.13 16.03v41.03l9.61 1.48v16.56h-33.23v-46.18c.13-5.91-.34-9.8-1.42-11.67-1.07-1.87-3.5-2.72-7.3-2.55h-1.77c-2.57.02-5.12.6-7.65 1.74a45.68 45.68 0 0 0-7.88 4.63v35.99l9.62 1.48v16.56h-33.23v-46.18c.12-5.91-.35-9.8-1.43-11.67-1.07-1.87-3.5-2.72-7.3-2.55h-1.77c-2.41.02-4.8.57-7.13 1.65a43.25 43.25 0 0 0-7.36 4.42v36.44a124.18 124.18 0 0 1 9.17 1.33v16.56H872V559.9a124.18 124.18 0 0 1 9.16-1.33V515.9c-1.4-.16-2.84-.36-4.3-.61s-2.93-.5-4.41-.72v-16.71h32.33v9.76c3.99-3.2 8.21-5.9 12.68-8.1a33.1 33.1 0 0 1 14.23-3.44Zm-175.63 0h6.66c8.58.08 15.1 2.58 19.56 7.49 4.45 4.9 6.7 11.73 6.72 20.48v34.36c2.34.3 5.34.74 9 1.33v16.56H765.4v-9.16a53.15 53.15 0 0 1-11.8 7.57c-4.09 1.9-8.83 2.88-14.22 2.92H737c-4.6.1-8.5-.38-11.73-1.42a12.5 12.5 0 0 1-7.4-6.42c-1.7-3.24-2.56-8.12-2.57-14.64v-1.48c.04-5.7 1.07-10.07 3.07-13.1 2-3.05 4.71-5.22 8.12-6.53a48.26 48.26 0 0 1 11.54-2.74 646.82 646.82 0 0 1 16.94-2.13c2.75-.32 6.22-.75 10.4-1.27v-2.82c.02-4.45-.97-7.58-2.95-9.38-1.98-1.8-5.04-2.68-9.16-2.61-2 0-4.22.11-6.68.35a46.5 46.5 0 0 0-6.78 1.13l-1.18 7.85h-17.56v-22.64c5.63-1.2 11.63-2.1 18-2.74a175.3 175.3 0 0 1 17-.96Zm-443.7 0h1.77c6.45 0 11.37 1.75 14.78 5.27 3.4 3.52 5.12 8.87 5.15 16.03v41.03l9.6 1.48v16.56h-33.22v-46.18c.13-5.91-.35-9.8-1.44-11.67-1.1-1.87-3.57-2.72-7.43-2.55h-1.78c-2.67.03-5.42.66-8.26 1.89a52.02 52.02 0 0 0-8.59 4.77v35.85a124.18 124.18 0 0 1 9.17 1.33v16.56h-41.95V559.9a124.18 124.18 0 0 1 9.16-1.33V515.9c-1.4-.16-2.84-.36-4.3-.61s-2.93-.5-4.41-.72v-16.71h32.33v11.24a91.68 91.68 0 0 1 13.71-8.84 35.31 35.31 0 0 1 15.7-4.18Zm-127.3-2.68-9.75 32.14h20.09l-10.05-32.14Zm1220.1-.45v63.38h19.51c5.05-.02 8.92-1.34 11.62-3.98 2.7-2.63 4.1-6.43 4.19-11.42v-32.13c-.02-5.13-1.38-9.05-4.08-11.76-2.7-2.7-6.61-4.07-11.73-4.09Zm-199.27 0V522h17.59c4.58 0 7.99-1.01 10.24-3.06 2.25-2.04 3.37-5.17 3.36-9.39v-3.7c.03-4.36-1.06-7.6-3.25-9.72-2.19-2.12-5.64-3.18-10.35-3.17Zm163.39-20.11h57.9c13.14-.01 22.75 3.07 28.82 9.24 6.07 6.18 9.07 15.92 8.99 29.24v27.54c-.08 13.03-3.17 22.57-9.25 28.62-6.08 6.05-15.55 9.04-28.41 8.97h-57.61v-17.6c2.15-.36 4.13-.67 5.95-.92l4.84-.7v-65.17a416.38 416.38 0 0 1-11.23-1.63Zm-98.3 0h32.33v36.26a91.32 91.32 0 0 1 13.71-8.84 35.32 35.32 0 0 1 15.7-4.18h1.78c6.45 0 11.37 1.75 14.78 5.27 3.4 3.52 5.12 8.87 5.14 16.03v41.03l9.61 1.48v16.56h-33.22v-46.18c.13-5.91-.35-9.8-1.45-11.67-1.09-1.87-3.56-2.72-7.42-2.55h-1.78c-2.67.03-5.42.66-8.26 1.89a52.2 52.2 0 0 0-8.59 4.77v35.85a124.18 124.18 0 0 1 9.17 1.33v16.56h-41.95V559.9a123.75 123.75 0 0 1 9.16-1.33v-67.68l-4.3-.69c-1.46-.23-2.93-.5-4.41-.8Zm-100.97 0h55.25c12.31 0 21.22 2.51 26.73 7.54 5.51 5.03 8.22 13.03 8.12 23.98v8.44c.08 10.3-2.66 17.83-8.21 22.57-5.55 4.75-14.39 7.1-26.49 7.03h-19.52v14.82c2.07.15 4.11.37 6.12.65s4.01.6 6.01.98v17.6h-47.56v-17.6c3.52-.57 7.11-1.06 10.78-1.48v-65.3c-1.47-.22-3.14-.46-5-.7-1.87-.26-3.94-.57-6.23-.94Zm-551.8 0h32.34v36.26a91.63 91.63 0 0 1 13.71-8.84 35.31 35.31 0 0 1 15.7-4.18h1.77c6.45 0 11.38 1.75 14.78 5.27 3.41 3.52 5.13 8.87 5.15 16.03v41.03l9.6 1.48v16.56h-33.22v-46.18c.13-5.91-.35-9.8-1.44-11.67-1.09-1.87-3.56-2.72-7.43-2.55h-1.77c-2.67.03-5.42.66-8.26 1.89a52.05 52.05 0 0 0-8.6 4.77v35.85c1.48.14 2.97.33 4.48.55 1.51.22 3.07.48 4.7.78v16.56h-41.95V559.9a120.94 120.94 0 0 1 9.16-1.33v-67.68l-4.3-.69c-1.46-.23-2.93-.5-4.42-.8Zm-464.18 0h49.78l27.92 84.38a103.17 103.17 0 0 1 12.7 1.63v17.6h-49.92v-17.6a90.28 90.28 0 0 1 9.6-1.33l-3.54-11.12h-30l-2.37 10.97c1.5.22 2.6.45 3.34.68.74.24 1.89.5 3.45.8v17.6h-44v-17.6c1.99-.37 3.99-.7 6-.98 2-.28 4.04-.5 6.1-.65l20.99-65.45c-1.32-.15-2.79-.33-4.42-.56l-5.63-.78Zm406.39-1.78h4.87c6.7 0 13.04.45 19.03 1.37 5.98.92 12.25 2.33 18.78 4.25v28.86h-19.48l-2.8-13.18a24.28 24.28 0 0 0-6.95-1.83c-2.49-.29-5.1-.42-7.84-.4h-5.17c-4.53-.04-7.77.62-9.72 1.99-1.94 1.37-2.9 3.77-2.85 7.2v1.33c-.03 2.42.52 4.33 1.65 5.72 1.13 1.4 3.04 2.45 5.75 3.17l30 7.1c7.5 1.8 12.8 4.65 15.88 8.52 3.1 3.88 4.59 9.53 4.49 16.96v6.37c.08 10.36-2.9 17.93-8.94 22.7-6.04 4.75-15.66 7.1-28.87 7.04h-6.8c-4.73 0-8.96-.23-12.7-.7a85.24 85.24 0 0 1-11.44-2.26 252.1 252.1 0 0 1-13.67-4.14V544.2h20.52l2.66 12.59c2.6 1 5.27 1.66 8.02 1.96 2.74.3 5.93.44 9.57.4h2.36c5.6.1 9.45-.53 11.59-1.86 2.13-1.34 3.15-3.92 3.04-7.76v-2.96c.12-3-.67-5.22-2.36-6.66-1.7-1.45-5-2.78-9.9-4l-24.39-5.93c-5.66-1.6-10.11-3.46-13.35-5.57a17.14 17.14 0 0 1-6.86-8.4c-1.33-3.5-1.97-8.11-1.93-13.87v-1.48c-.09-10.36 2.89-17.9 8.93-22.62 6.04-4.72 15.67-7.04 28.88-6.97ZM459.36 465c3.85.04 7.03 1.14 9.54 3.31 2.5 2.17 3.8 5.16 3.9 8.97-.1 3.67-1.4 6.57-3.9 8.7-2.5 2.14-5.69 3.23-9.54 3.28-3.72-.05-6.84-1.14-9.36-3.27-2.51-2.14-3.82-5.04-3.93-8.71.1-3.81 1.42-6.8 3.93-8.97 2.52-2.17 5.64-3.27 9.36-3.31Z"/>
    <path fill="#262626" d="M1144.46 1204.11c1.17 0 2.12.41 2.85 1.24.74.82 1.1 1.85 1.1 3.1 0 2.23-.63 4.45-1.9 6.64a18.54 18.54 0 0 1-5.68 5.91l-1.73-1.94a13.28 13.28 0 0 0 3.04-3.44 12.95 12.95 0 0 0 1.41-3.79 3.78 3.78 0 0 1-2.13-1.32 3.76 3.76 0 0 1-.8-2.41c0-1.18.35-2.14 1.05-2.88a3.66 3.66 0 0 1 2.79-1.11Zm-395.48 0c1.16 0 2.11.41 2.85 1.24.73.82 1.1 1.85 1.1 3.1 0 2.23-.64 4.45-1.9 6.64a18.58 18.58 0 0 1-5.69 5.91l-1.72-1.94a13.4 13.4 0 0 0 3.03-3.44 12.98 12.98 0 0 0 1.42-3.79 3.73 3.73 0 0 1-2.94-3.73c0-1.18.35-2.14 1.05-2.88a3.66 3.66 0 0 1 2.8-1.11Zm362.48-8.25c-3.16 0-5.46.4-6.88 1.2-1.42.8-2.13 2.26-2.13 4.37 0 4.09 2.48 6.14 7.43 6.14 1.74 0 3.47-.48 5.19-1.43 1.72-.95 3.28-2.2 4.66-3.76v-6.52Zm-151.31 0c-3.17 0-5.46.4-6.88 1.2-1.42.8-2.13 2.26-2.13 4.37 0 4.09 2.47 6.14 7.42 6.14 1.74 0 3.47-.48 5.2-1.43 1.72-.95 3.27-2.2 4.66-3.76v-6.52Zm520.04-5.6c-3.49.86-5.97 2.05-7.43 3.56a7.39 7.39 0 0 0-2.19 5.3 6.44 6.44 0 0 0 3.2 5.72c2.13 1.37 5.02 2.06 8.68 2.06 3.61 0 6.47-.68 8.58-2.04a6.34 6.34 0 0 0 3.16-5.6c0-2.28-1.04-4.11-3.14-5.49-2.1-1.39-5.72-2.56-10.86-3.51Zm-842.27-2.33c-2.7 0-5.12.66-7.27 1.97a12.85 12.85 0 0 0-4.84 5.12c.52 3.84 1.79 6.78 3.82 8.82s4.8 3.06 8.29 3.06c3.03 0 5.5-.89 7.43-2.66 1.92-1.77 2.89-4.22 2.89-7.37 0-2.75-.94-4.92-2.82-6.53-1.88-1.61-4.38-2.41-7.5-2.41Zm-275.12 0c-2.7 0-5.12.66-7.27 1.97a12.86 12.86 0 0 0-4.84 5.12c.51 3.84 1.79 6.78 3.82 8.82s4.8 3.06 8.29 3.06c3.03 0 5.5-.89 7.43-2.66 1.92-1.77 2.89-4.22 2.89-7.37 0-2.75-.94-4.92-2.82-6.53-1.88-1.61-4.38-2.41-7.5-2.41Zm625.41-10.26h6.52v19.61c0 3.18.5 5.49 1.5 6.91 1 1.43 2.74 2.14 5.23 2.14 1.87 0 3.74-.6 5.61-1.8a22.6 22.6 0 0 0 5.05-4.51v-22.35h6.52v34.09h-6.52v-5.03a31.92 31.92 0 0 1-6.32 4.19 14.67 14.67 0 0 1-6.46 1.48c-3.81 0-6.62-1.1-8.43-3.3-1.8-2.2-2.7-5.6-2.7-10.21Zm-126.54 0h6.53v34.09h-6.53Zm189.73-.57c5.28 0 8.61 2.19 9.97 6.56 2.31-2.35 4.42-4.03 6.35-5.04a13.04 13.04 0 0 1 6.14-1.52c3.65 0 6.38 1.09 8.17 3.27 1.79 2.17 2.69 5.54 2.69 10.1v21.29h-6.52v-19.71c0-3.19-.38-5.47-1.12-6.84-.74-1.36-2.16-2.04-4.28-2.04-3.08 0-6.55 2-10.4 5.99v22.6h-6.53v-19.71c0-3.17-.39-5.44-1.18-6.82-.79-1.37-2.24-2.06-4.35-2.06-3.39 0-6.86 2-10.41 5.99v22.6h-6.52v-34.09h6.52l-.07 5.08a25.72 25.72 0 0 1 5.63-4.2 12.48 12.48 0 0 1 5.91-1.45Zm-151.32 0c5.29 0 8.62 2.19 9.98 6.56a26.7 26.7 0 0 1 6.35-5.04 13.04 13.04 0 0 1 6.13-1.52c3.66 0 6.38 1.09 8.17 3.27 1.8 2.17 2.7 5.54 2.7 10.1v21.29h-6.53v-19.71c0-3.19-.37-5.47-1.11-6.84-.74-1.36-2.17-2.04-4.29-2.04-3.08 0-6.54 2-10.4 5.99v22.6h-6.52v-19.71c0-3.17-.4-5.44-1.18-6.82-.8-1.37-2.24-2.06-4.36-2.06-3.38 0-6.85 2-10.4 5.99v22.6h-6.52v-34.09h6.52l-.07 5.08a25.63 25.63 0 0 1 5.62-4.2 12.5 12.5 0 0 1 5.9-1.45Zm213.6-.07c4.67 0 7.94 1.1 9.79 3.3 1.86 2.2 2.79 5.86 2.79 10.98v20.45h-6.53v-4.26a28.35 28.35 0 0 1-5.52 3.61 14.18 14.18 0 0 1-6.23 1.29c-3.92 0-6.84-.81-8.74-2.44-1.9-1.62-2.85-4.24-2.85-7.86 0-7.28 4.75-10.93 14.26-10.93 3.95 0 6.97.03 9.08.07 0-3.45-.47-5.76-1.4-6.94-.94-1.18-2.84-1.77-5.71-1.77-2.98 0-6.88.62-11.7 1.86l-1.11-5.18c5.81-1.45 10.44-2.18 13.87-2.18Zm-151.32 0c4.68 0 7.94 1.1 9.8 3.3 1.85 2.2 2.78 5.86 2.78 10.98v20.45h-6.52v-4.26a28.31 28.31 0 0 1-5.53 3.61 14.19 14.19 0 0 1-6.23 1.29c-3.92 0-6.83-.81-8.73-2.44-1.9-1.62-2.86-4.24-2.86-7.86 0-7.28 4.76-10.93 14.27-10.93 3.94 0 6.97.03 9.08.07 0-3.45-.47-5.76-1.41-6.94-.94-1.18-2.84-1.77-5.7-1.77-2.99 0-6.89.62-11.7 1.86l-1.11-5.18c5.8-1.45 10.43-2.18 13.86-2.18Zm-642.15-1.3a64.3 64.3 0 0 1-3.67 4.55l-10.19 11.42a53.16 53.16 0 0 1-4.27 4.55h18.13Zm239.43-1.8v17.77h9.75c3.57 0 6.32-.76 8.25-2.27 1.94-1.52 2.91-3.68 2.91-6.47 0-2.85-.97-5.05-2.9-6.61-1.94-1.57-4.7-2.37-8.26-2.42Zm876.82-1.44c-3.22 0-5.81.88-7.78 2.64-1.97 1.76-2.96 4.23-2.96 7.4 0 2.75.94 4.94 2.82 6.54 1.87 1.61 4.37 2.42 7.5 2.42 2.51 0 4.8-.64 6.86-1.91a15.64 15.64 0 0 0 5-4.84c-.45-3.97-1.64-7-3.59-9.1-1.95-2.1-4.57-3.15-7.85-3.15Zm46.27-1.1c-3.04 0-5.49.67-7.36 1.99a6.09 6.09 0 0 0-2.79 5.16c0 2.07.85 3.74 2.55 5.01 1.69 1.26 4.5 2.31 8.42 3.12 3.32-.7 5.72-1.73 7.2-3.11a6.76 6.76 0 0 0 2.21-5.16c0-2.09-.94-3.78-2.81-5.07-1.88-1.29-4.35-1.94-7.42-1.94Zm-100.68-3.66h28.46v5.5h-22.75l-1.17 14.35a26.42 26.42 0 0 1 11.29-2.75c4.37 0 7.85 1.2 10.43 3.61 2.57 2.4 3.86 5.65 3.86 9.73 0 4.38-1.53 7.85-4.6 10.4-3.07 2.55-7.03 3.83-11.87 3.83-3.03 0-6.15-.37-9.34-1.09-3.2-.73-6.13-1.8-8.78-3.2l1.86-4.87a36.08 36.08 0 0 0 15.49 3.66c3.22 0 5.84-.82 7.86-2.45a8 8 0 0 0 3.03-6.56c0-2.56-.89-4.63-2.68-6.21-1.78-1.58-4.17-2.38-7.15-2.38-3.22 0-6.58 1-10.09 2.98l-5.5-.9Zm-148.15 0h6.66v37.83h21.58v6.2h-28.24Zm-41.27 0h29.09v6.2h-22.43v13.79h19.54v6.2h-19.54v17.84h-6.66Zm-403.9 0h7.44l8.82 31.97c.44 2.07.77 4.09.99 6.07.32-1.62.76-3.64 1.3-6.07l8.89-31.97h7.3l8.9 31.99c.55 2.39.97 4.38 1.26 5.98.34-2.33.7-4.33 1.09-6l8.88-31.97h7.44l-12.71 44.03h-9.68l-7.71-28.81-.43-2.22a86.66 86.66 0 0 1-.6-3.2c-.1.8-.42 2.63-.92 5.47l-7.78 28.76h-9.86Zm-127.45 0h32.23v4.87a97.93 97.93 0 0 0-11.02 18.28 118.45 118.45 0 0 0-7.74 20.88h-7.8c2.1-6.95 4.85-13.9 8.25-20.84a91.84 91.84 0 0 1 11-17.69h-24.92Zm-108.3 0h16.25c5.8 0 10.28 1.32 13.42 3.96 3.14 2.65 4.7 6.4 4.7 11.27 0 3.43-.95 6.38-2.87 8.85a15.29 15.29 0 0 1-7.87 5.22l11.77 14.24v.49h-7.3l-11.2-13.85h-10.24v13.85h-6.67Zm-120.09 0h28.46v5.5H438.6l-1.18 14.35a26.43 26.43 0 0 1 11.3-2.75c4.37 0 7.85 1.2 10.42 3.61 2.58 2.4 3.87 5.65 3.87 9.73 0 4.38-1.54 7.85-4.6 10.4-3.07 2.55-7.03 3.83-11.87 3.83a42.5 42.5 0 0 1-9.35-1.09c-3.2-.73-6.12-1.8-8.78-3.2l1.87-4.87a36.02 36.02 0 0 0 15.48 3.66c3.22 0 5.84-.82 7.87-2.45a8 8 0 0 0 3.03-6.56 7.9 7.9 0 0 0-2.68-6.21c-1.79-1.58-4.17-2.38-7.16-2.38-3.22 0-6.58 1-10.08 2.98l-5.5-.9Zm-112.68 0h6.52v28.52h7.44v5.5h-7.44v10.01h-6.52v-10.01h-25.64l-.2-4.89Zm-48.74 0h5.16v38.53h9.38v5.5h-26.8v-5.5h10.9v-30.95a63.1 63.1 0 0 1-9.8 2.75L259 1174c5-1.88 9.16-3.97 12.46-6.27Zm1083.35-.53c4.28 0 7.75 1.13 10.42 3.41 2.67 2.27 4 5.25 4 8.93 0 2.34-.66 4.35-1.99 6.04a10.96 10.96 0 0 1-5.24 3.65c2.85.95 4.99 2.26 6.44 3.93 1.45 1.66 2.17 3.82 2.17 6.45 0 3.91-1.45 7.02-4.36 9.33-2.9 2.3-6.8 3.46-11.69 3.46-3.03 0-6.17-.38-9.41-1.15a34.23 34.23 0 0 1-8.85-3.37l1.87-4.64a35.54 35.54 0 0 0 8.2 2.77c2.85.59 5.51.89 7.98.89 3.01 0 5.42-.66 7.21-1.99a6.39 6.39 0 0 0 2.7-5.44c0-2.5-1-4.38-3.01-5.62-2.01-1.25-4.89-1.87-8.63-1.87h-6.34v-5.5h6.34c3.55 0 6.2-.49 7.94-1.46a4.92 4.92 0 0 0 2.61-4.61c0-2.35-.83-4.22-2.49-5.62-1.65-1.39-3.88-2.09-6.68-2.09-4.56 0-9.59 1.14-15.09 3.42l-1.52-4.5c5.9-2.95 11.71-4.42 17.42-4.42Zm-41.27 0c4.28 0 7.75 1.13 10.42 3.41a11.16 11.16 0 0 1 4.01 8.93c0 2.34-.67 4.35-2 6.04a10.93 10.93 0 0 1-5.23 3.65c2.84.95 4.99 2.26 6.43 3.93 1.45 1.66 2.17 3.82 2.17 6.45 0 3.91-1.45 7.02-4.35 9.33-2.91 2.3-6.8 3.46-11.69 3.46-3.04 0-6.17-.38-9.42-1.15a34.5 34.5 0 0 1-8.85-3.37l1.87-4.64a35.54 35.54 0 0 0 8.2 2.77c2.85.59 5.52.89 7.98.89 3.01 0 5.42-.66 7.22-1.99a6.4 6.4 0 0 0 2.69-5.44c0-2.5-1-4.38-3.01-5.62-2.01-1.25-4.89-1.87-8.62-1.87h-6.35v-5.5h6.35c3.55 0 6.19-.49 7.93-1.46a4.92 4.92 0 0 0 2.61-4.61c0-2.35-.83-4.22-2.49-5.62-1.65-1.39-3.88-2.09-6.68-2.09-4.56 0-9.59 1.14-15.09 3.42l-1.52-4.5c5.9-2.95 11.71-4.42 17.42-4.42Zm169.47-.21c4.97 0 8.88 1.02 11.73 3.06a9.67 9.67 0 0 1 4.28 8.28c0 4.72-2.97 7.98-8.9 9.77 3.73 1.09 6.47 2.56 8.23 4.41a9.78 9.78 0 0 1 2.64 7.03c0 4.04-1.61 7.2-4.85 9.46-3.23 2.27-7.63 3.4-13.2 3.4-6.18 0-10.84-1.12-14-3.34-3.15-2.23-4.73-5.4-4.73-9.52 0-5.19 3.34-8.85 10.02-10.99-5.34-2.07-8.01-5.38-8.01-9.94 0-3.59 1.5-6.43 4.51-8.51 3-2.07 7.09-3.11 12.28-3.11Zm-46.56 0c5.8 0 10.24 1.83 13.33 5.49s4.63 8.79 4.63 15.41c0 7.98-1.74 14.06-5.23 18.24-3.48 4.18-8.48 6.27-14.98 6.27-2.72 0-4.93-.21-6.62-.62a27.3 27.3 0 0 1-5.73-2.26l1.77-4.73a27.68 27.68 0 0 0 10.36 2.11c4.49 0 7.9-1.44 10.25-4.33 2.35-2.88 3.63-7.11 3.84-12.69-3.48 4.11-8.12 6.16-13.95 6.16-4.43 0-8-1.27-10.7-3.81-2.71-2.54-4.06-5.87-4.06-10.01 0-4.8 1.53-8.53 4.59-11.21 3.05-2.68 7.22-4.02 12.5-4.02Zm-718.1 0c4.49 0 8.02 1.23 10.6 3.7 2.57 2.46 3.86 5.82 3.86 10.08 0 1.42-.22 2.81-.66 4.18a13.66 13.66 0 0 1-2.3 4.17 75.94 75.94 0 0 1-3.07 3.72 38.16 38.16 0 0 1-4.4 3.96 218 218 0 0 1-10.2 7.71c-1.22.9-2.15 1.58-2.79 2.03 3.3-.19 5.59-.28 6.88-.28h17.49v5.5h-32.72v-4.64c1.31-1.08 2.88-2.35 4.69-3.81 1.8-1.45 3.34-2.67 4.6-3.67a156.52 156.52 0 0 0 7.98-6.75 53.5 53.5 0 0 0 3.13-3.09 23.04 23.04 0 0 0 2.48-3.07 16.1 16.1 0 0 0 1.5-2.9c.39-1 .58-1.96.58-2.88 0-2.7-.76-4.79-2.3-6.26-1.52-1.47-3.66-2.2-6.4-2.2-4.57 0-9.5 1.29-14.82 3.87l-1.87-4.8c6.63-3.05 12.54-4.57 17.74-4.57Zm-77.83 0c4.27 0 8.3.81 12.1 2.43l-1.69 4.78a33.55 33.55 0 0 0-10.13-1.71c-4.46.04-8.05 1.6-10.78 4.68-2.72 3.07-4.2 7.28-4.43 12.61 3.47-4.17 8.2-6.26 14.19-6.26 4.46 0 8.04 1.24 10.74 3.72 2.7 2.47 4.05 5.78 4.05 9.91 0 4.78-1.5 8.51-4.5 11.21-3.02 2.69-7.07 4.04-12.16 4.04-6.13 0-10.8-1.83-14.02-5.48-3.22-3.65-4.83-8.78-4.83-15.39 0-7.42 2-13.35 5.97-17.8 3.98-4.45 9.14-6.7 15.49-6.74Zm-116.9 0c2.72 0 5.49.33 8.3 1a27 27 0 0 1 7.35 2.84l-2.08 5.04a33.95 33.95 0 0 0-13.37-2.68c-4.86 0-8.56 1.41-11.09 4.21-2.52 2.81-3.79 6.94-3.79 12.4 0 5.17 1.26 9.19 3.76 12.07 2.5 2.88 5.99 4.32 10.45 4.32a28.2 28.2 0 0 0 15.3-4.26l2.55 5.14c-4.94 3.55-10.98 5.33-18.13 5.33-6.53 0-11.62-1.97-15.27-5.91-3.64-3.94-5.46-9.5-5.46-16.69 0-7.31 1.86-12.94 5.59-16.89 3.72-3.95 9.02-5.92 15.88-5.92Zm-118.22 0c4.5 0 8.02 1.23 10.6 3.7 2.57 2.46 3.86 5.82 3.86 10.08 0 1.42-.22 2.81-.65 4.18a13.65 13.65 0 0 1-2.31 4.17 75.91 75.91 0 0 1-3.07 3.72 38.16 38.16 0 0 1-4.4 3.96 218 218 0 0 1-10.2 7.71c-1.22.9-2.15 1.58-2.79 2.03 3.3-.19 5.59-.28 6.88-.28h17.5v5.5H388.1v-4.64c1.31-1.08 2.88-2.35 4.69-3.81 1.8-1.45 3.34-2.67 4.6-3.67a156.52 156.52 0 0 0 7.99-6.75 53.5 53.5 0 0 0 3.12-3.09 23.04 23.04 0 0 0 2.48-3.07 16.1 16.1 0 0 0 1.5-2.9c.39-1 .58-1.96.58-2.88 0-2.7-.76-4.79-2.29-6.26-1.53-1.47-3.67-2.2-6.42-2.2-4.56 0-9.5 1.29-14.8 3.87l-1.88-4.8c6.63-3.05 12.54-4.57 17.74-4.57Zm-40 0c4.27 0 8.3.81 12.1 2.43l-1.69 4.78a33.55 33.55 0 0 0-10.13-1.71c-4.46.04-8.05 1.6-10.78 4.68-2.72 3.07-4.2 7.28-4.43 12.61 3.47-4.17 8.2-6.26 14.19-6.26 4.45 0 8.04 1.24 10.74 3.72 2.7 2.47 4.05 5.78 4.05 9.91 0 4.78-1.5 8.51-4.5 11.21-3.02 2.69-7.07 4.04-12.16 4.04-6.13 0-10.8-1.83-14.02-5.48-3.22-3.65-4.83-8.78-4.83-15.39 0-7.42 2-13.35 5.97-17.8 3.98-4.45 9.14-6.7 15.49-6.74Zm499.45-2.82a4.1 4.1 0 0 1 2.78.95 3.33 3.33 0 0 1 1.12 2.68c0 1.13-.38 2.01-1.13 2.64-.76.64-1.68.95-2.77.95-1.1 0-2.02-.32-2.77-.97a3.27 3.27 0 0 1-1.12-2.62c0-1.15.37-2.05 1.11-2.68a4.1 4.1 0 0 1 2.78-.95Zm7.3-65.27c1.18 0 2.12.37 2.83 1.11.72.74 1.07 1.7 1.07 2.87a3.9 3.9 0 0 1-1.08 2.82 3.7 3.7 0 0 1-2.82 1.13 3.7 3.7 0 0 1-2.8-1.13 3.9 3.9 0 0 1-1.1-2.82c0-1.17.37-2.13 1.08-2.87a3.75 3.75 0 0 1 2.82-1.11Zm-171.94 0c1.17 0 2.11.37 2.82 1.11.72.74 1.07 1.7 1.07 2.87a3.9 3.9 0 0 1-1.08 2.82 3.7 3.7 0 0 1-2.81 1.13 3.7 3.7 0 0 1-2.82-1.13 3.9 3.9 0 0 1-1.08-2.82c0-1.17.35-2.13 1.07-2.87a3.75 3.75 0 0 1 2.83-1.11Zm-251.05 0c1.17 0 2.11.37 2.83 1.11.7.74 1.06 1.7 1.06 2.87a3.9 3.9 0 0 1-1.08 2.82 3.7 3.7 0 0 1-2.81 1.13 3.7 3.7 0 0 1-2.81-1.13 3.9 3.9 0 0 1-1.09-2.82c0-1.17.36-2.13 1.07-2.87a3.74 3.74 0 0 1 2.83-1.11Zm74.22-8.25c-3.16 0-5.46.4-6.88 1.2-1.41.8-2.12 2.25-2.12 4.37 0 4.09 2.47 6.13 7.42 6.13 1.74 0 3.47-.47 5.2-1.42a17.9 17.9 0 0 0 4.65-3.76v-6.52Zm431.57-13.26c-1.95 0-3.96.55-6.03 1.65a19.61 19.61 0 0 0-5.29 3.99v12.98c3.46 3.78 7.02 5.67 10.69 5.67a8.1 8.1 0 0 0 6.57-2.94c1.64-1.96 2.46-5.06 2.46-9.31 0-4.31-.7-7.4-2.09-9.26-1.38-1.85-3.49-2.78-6.3-2.78Zm-570.87 0c-1.95 0-3.96.55-6.03 1.65a19.6 19.6 0 0 0-5.3 3.99v12.98c3.47 3.78 7.03 5.67 10.7 5.67 2.74 0 4.94-.98 6.57-2.94s2.45-5.06 2.45-9.31c0-4.31-.7-7.4-2.08-9.26-1.39-1.85-3.49-2.78-6.31-2.78Zm385.86-.07a9.83 9.83 0 0 0-7.8 3.4c-1.97 2.27-2.96 5.27-2.96 9 0 3.58.98 6.48 2.94 8.67 1.97 2.2 4.55 3.29 7.74 3.29 3.25 0 5.87-1.09 7.87-3.29 2-2.19 3-5.09 3-8.67 0-3.73-1-6.73-2.99-9a9.88 9.88 0 0 0-7.8-3.4Zm-320.78-2.33c1.17 0 2.11.37 2.83 1.11a4 4 0 0 1 1.06 2.88 3.9 3.9 0 0 1-1.08 2.82 3.73 3.73 0 0 1-2.81 1.13 3.74 3.74 0 0 1-2.81-1.13 3.9 3.9 0 0 1-1.09-2.82 4 4 0 0 1 1.07-2.88 3.74 3.74 0 0 1 2.83-1.11Zm192.34-2.53h6.52v32.01c0 4.18-.68 7.39-2.04 9.62-1.37 2.24-3.77 3.79-7.2 4.66l-1.44-5.11c1.66-.83 2.77-1.85 3.33-3.07.55-1.22.83-3.26.83-6.1Zm-45.35 0h6.53v19.61c0 3.18.5 5.48 1.5 6.91 1 1.43 2.73 2.14 5.22 2.14 1.88 0 3.75-.6 5.61-1.81 1.87-1.2 3.55-2.7 5.05-4.51v-22.34h6.53v34.09h-6.53v-5.03a31.92 31.92 0 0 1-6.31 4.18 14.54 14.54 0 0 1-6.46 1.48c-3.82 0-6.63-1.09-8.43-3.29-1.8-2.2-2.7-5.6-2.7-10.21Zm360.1-.57c4.33 0 7.65 1.39 9.97 4.16 2.31 2.77 3.47 7.23 3.47 13.38 0 3.08-.39 5.8-1.17 8.14a14.26 14.26 0 0 1-3.2 5.56 13.31 13.31 0 0 1-9.84 4.05c-2.6 0-4.76-.41-6.45-1.24-1.7-.82-3.5-2.1-5.4-3.82v16.13h-6.52v-45.79h6.52v4.32c3.98-3.26 8.18-4.89 12.63-4.89Zm-44.84 0c3.88 0 6.74 1.08 8.59 3.23 1.84 2.15 2.76 5.53 2.76 10.13v21.3h-6.52v-19.71c0-3.31-.4-5.62-1.18-6.93-.79-1.3-2.42-1.95-4.89-1.95-4.02 0-7.76 2.02-11.25 6.06v22.53h-6.52v-34.09h6.52v5a25.42 25.42 0 0 1 5.98-4.16 14.87 14.87 0 0 1 6.5-1.41Zm-90.44 0c5.3 0 8.62 2.19 9.98 6.56a26.6 26.6 0 0 1 6.35-5.04 13.04 13.04 0 0 1 6.14-1.52c3.65 0 6.37 1.09 8.17 3.26 1.79 2.18 2.69 5.54 2.69 10.1v21.3h-6.53v-19.71c0-3.2-.37-5.48-1.1-6.84-.75-1.36-2.18-2.04-4.3-2.04-3.07 0-6.54 1.99-10.4 5.99v22.6h-6.52v-19.71c0-3.17-.4-5.45-1.18-6.82-.79-1.38-2.24-2.06-4.36-2.06-3.38 0-6.85 1.99-10.4 5.99v22.6H803v-34.09h6.52l-.07 5.07a25.86 25.86 0 0 1 5.63-4.19 12.37 12.37 0 0 1 5.9-1.45Zm-250.02 0c3.88 0 6.74 1.08 8.58 3.23 1.85 2.15 2.77 5.53 2.77 10.13v21.3h-6.52v-19.71c0-3.31-.4-5.62-1.18-6.93-.79-1.3-2.42-1.95-4.89-1.95-4.02 0-7.77 2.02-11.25 6.06v22.53h-6.52v-34.09h6.52v5a25.42 25.42 0 0 1 5.98-4.16 14.87 14.87 0 0 1 6.5-1.41Zm-185.57 0c4.33 0 7.65 1.39 9.97 4.16 2.31 2.77 3.47 7.23 3.47 13.38 0 3.08-.4 5.8-1.18 8.14a14.26 14.26 0 0 1-3.19 5.56 13.33 13.33 0 0 1-9.84 4.05 14.7 14.7 0 0 1-6.46-1.24 23.96 23.96 0 0 1-5.4-3.82v16.13h-6.51v-45.79h6.52v4.32c3.97-3.26 8.18-4.89 12.62-4.89Zm384.56-.07c5.12 0 9.26 1.64 12.4 4.92 3.16 3.27 4.73 7.6 4.73 12.98 0 5.24-1.57 9.47-4.72 12.66-3.15 3.2-7.31 4.8-12.49 4.8-5.12 0-9.24-1.6-12.36-4.8-3.11-3.19-4.67-7.42-4.67-12.66 0-5.38 1.57-9.71 4.7-12.98 3.15-3.28 7.28-4.92 12.4-4.92Zm-38.19 0c4.54 0 8.68 1.11 12.42 3.32l-2.23 4.41a22.5 22.5 0 0 0-10.12-2.23 9.41 9.41 0 0 0-7.6 3.43c-1.91 2.28-2.87 5.28-2.87 9 0 3.62.93 6.52 2.8 8.69 1.87 2.16 4.36 3.24 7.46 3.24 2.14 0 4.07-.27 5.78-.81 1.72-.54 3.63-1.5 5.72-2.89l2.36 4.33a24.62 24.62 0 0 1-6.9 3.82c-2.12.7-4.73 1.05-7.8 1.05-4.73 0-8.54-1.6-11.43-4.8-2.9-3.21-4.34-7.42-4.34-12.63 0-5.39 1.53-9.72 4.59-13.01 3.05-3.28 7.1-4.92 12.16-4.92Zm-206.15 0c4.67 0 7.94 1.1 9.8 3.3 1.85 2.2 2.78 5.86 2.78 10.98v20.45h-6.53v-4.27a28.36 28.36 0 0 1-5.52 3.62 14.18 14.18 0 0 1-6.23 1.28c-3.92 0-6.83-.81-8.74-2.43-1.9-1.62-2.85-4.24-2.85-7.86 0-7.29 4.76-10.93 14.27-10.93 3.94 0 6.96.02 9.07.07 0-3.45-.46-5.76-1.4-6.94-.94-1.18-2.84-1.77-5.7-1.77-2.99 0-6.9.62-11.7 1.86l-1.12-5.18c5.81-1.45 10.44-2.18 13.87-2.18Zm146.93-.07c3.72 0 7.96 1.07 12.73 3.22l-1.73 4.98c-4.9-1.8-8.62-2.7-11.14-2.7-1.83 0-3.24.36-4.23 1.07a3.56 3.56 0 0 0-1.48 3.06c0 .4.05.77.16 1.1.1.33.3.63.6.91a5.14 5.14 0 0 0 1.99 1.24l1.36.5 1.7.57 1.78.59 3.8 1.27c.95.31 1.94.72 2.98 1.21 1.04.48 1.83.97 2.37 1.46s1.06 1.08 1.54 1.78.82 1.48 1 2.36c.2.87.29 1.89.29 3.05 0 3.02-1.1 5.4-3.31 7.15-2.22 1.74-5.2 2.61-8.96 2.61a24.43 24.43 0 0 1-14.95-5.06l2.75-4.49a25.4 25.4 0 0 0 5.78 3.12c1.76.62 3.88.93 6.35.93 1.93 0 3.45-.36 4.58-1.08a3.49 3.49 0 0 0 1.7-3.13 5.82 5.82 0 0 0-.55-2.53c-.15-.31-.4-.6-.76-.87a7.08 7.08 0 0 0-2.31-1.26c-.62-.22-1.14-.39-1.56-.52l-1.96-.59-2.24-.68c-3.67-1.1-6.29-2.3-7.85-3.59-1.56-1.29-2.35-3.22-2.35-5.78 0-3.18 1.03-5.62 3.09-7.33 2.06-1.71 5-2.57 8.83-2.57Zm-251.04 0c3.71 0 7.95 1.07 12.73 3.22l-1.73 4.98c-4.92-1.8-8.63-2.7-11.14-2.7-1.84 0-3.25.36-4.24 1.07a3.56 3.56 0 0 0-1.48 3.06c0 .4.06.77.16 1.1.1.33.3.63.6.91.3.27.56.49.79.66.23.17.64.37 1.21.58l1.36.5 1.7.57 1.77.59 3.8 1.27c.95.31 1.95.72 2.98 1.21 1.04.48 1.83.97 2.37 1.46a9.73 9.73 0 0 1 1.54 1.78c.49.7.82 1.48 1.01 2.36.19.87.28 1.89.28 3.05 0 3.02-1.1 5.4-3.31 7.15-2.21 1.74-5.2 2.61-8.96 2.61a24.43 24.43 0 0 1-14.95-5.06l2.75-4.49a25.4 25.4 0 0 0 5.78 3.12c1.77.62 3.88.93 6.35.93 1.93 0 3.46-.36 4.58-1.08a3.49 3.49 0 0 0 1.7-3.13 5.82 5.82 0 0 0-.55-2.53c-.15-.31-.4-.6-.76-.87a7.1 7.1 0 0 0-2.3-1.26c-.63-.22-1.15-.39-1.57-.52l-1.95-.59-2.25-.68c-3.67-1.1-6.28-2.3-7.85-3.59-1.56-1.29-2.34-3.22-2.34-5.78 0-3.18 1.03-5.62 3.08-7.33 2.06-1.71 5-2.57 8.84-2.57Zm-84.83-7.79h6.52v8.5h10.09v5.5h-10.09v17.18c0 2.23.43 3.72 1.29 4.48.86.77 2.37 1.15 4.53 1.15 1.7 0 3.39-.12 5.08-.35l.7 4.81a23.47 23.47 0 0 1-7.93 1.6c-3.6 0-6.2-.89-7.8-2.68-1.6-1.78-2.39-4.69-2.39-8.71v-17.48h-5.11v-5.5h5.11Zm-30.95 0h6.52v8.5h10.09v5.5h-10.09v17.18c0 2.23.43 3.72 1.29 4.48.86.77 2.37 1.15 4.53 1.15 1.7 0 3.39-.12 5.08-.35l.7 4.81a23.47 23.47 0 0 1-7.93 1.6c-3.6 0-6.2-.89-7.8-2.68-1.6-1.78-2.4-4.69-2.4-8.71v-17.48h-5.1v-5.5h5.1Zm-46.08-4.69h6.52v18.48c4.11-3.91 8.51-5.86 13.19-5.86 3.8 0 6.53 1.06 8.18 3.17 1.65 2.12 2.47 5.52 2.47 10.19v21.3h-6.53v-19.45c0-3.33-.39-5.67-1.18-7-.79-1.34-2.41-2-4.88-2-3.88 0-7.63 2.1-11.25 6.3v22.15h-6.52Zm385.15-.32c1.1 0 2.02.32 2.76.95a3.35 3.35 0 0 1 1.11 2.68c0 1.13-.37 2.01-1.12 2.65-.76.63-1.67.95-2.75.95a4.1 4.1 0 0 1-2.79-.97 3.29 3.29 0 0 1-1.13-2.63c0-1.15.38-2.04 1.13-2.68a4.2 4.2 0 0 1 2.79-.95Zm-145.93-.21-19.32 61.25-6.07 1.44 19.33-61.25Zm-17.2 0-19.32 61.25-6.06 1.44 19.32-61.25Zm356.11-65.5c1.18 0 2.12.37 2.83 1.11.72.74 1.07 1.7 1.07 2.88 0 1.13-.36 2.06-1.08 2.82a3.74 3.74 0 0 1-2.82 1.13 3.73 3.73 0 0 1-2.8-1.13 3.91 3.91 0 0 1-1.1-2.82 4 4 0 0 1 1.08-2.88 3.74 3.74 0 0 1 2.82-1.1ZM640.33 985c-3.17 0-5.46.4-6.88 1.2-1.42.8-2.13 2.26-2.13 4.37 0 4.1 2.48 6.14 7.43 6.14 1.73 0 3.46-.48 5.19-1.43 1.72-.95 3.28-2.2 4.66-3.75V985Zm-137.56 0c-3.17 0-5.46.4-6.88 1.2-1.42.8-2.13 2.26-2.13 4.37 0 4.1 2.48 6.14 7.43 6.14 1.73 0 3.46-.48 5.19-1.43 1.72-.95 3.28-2.2 4.66-3.75V985Zm-230.41 0c-3.17 0-5.46.4-6.88 1.2-1.42.8-2.13 2.26-2.13 4.37 0 4.1 2.47 6.14 7.42 6.14 1.74 0 3.47-.48 5.2-1.43a17.8 17.8 0 0 0 4.66-3.75V985Zm423.98-9.8c-6 0-9.01 3.54-9.01 10.61 0 4.1.7 6.98 2.13 8.66 1.42 1.68 3.48 2.52 6.18 2.52 1.85 0 3.47-.41 4.87-1.23a31.4 31.4 0 0 0 4.98-3.88v-12.55a21.26 21.26 0 0 0-4.58-3.14 10.5 10.5 0 0 0-4.57-.99Zm216.48-3.52c-6.12 0-9.18 4-9.18 12 0 2.18.26 4.08.8 5.7a9.71 9.71 0 0 0 2.18 3.87 9.08 9.08 0 0 0 6.8 2.79c1.44 0 2.8-.3 4.08-.9 1.29-.6 2.31-1.24 3.08-1.95.76-.7 1.72-1.67 2.88-2.9v-12.9c-3.23-3.8-6.78-5.71-10.64-5.71Zm-43.56 0c-2.7 0-4.96.69-6.79 2.08-1.82 1.39-2.95 3.53-3.4 6.41h19.57c-.23-2.75-1.15-4.86-2.77-6.31-1.6-1.46-3.81-2.18-6.6-2.18Zm74.25-4.87h6.53v19.61c0 3.18.5 5.49 1.5 6.91.99 1.43 2.73 2.14 5.22 2.14 1.88 0 3.75-.6 5.61-1.8a22.15 22.15 0 0 0 5.05-4.51V966.8h6.52v34.09h-6.52v-5.03a32.15 32.15 0 0 1-6.32 4.19 14.53 14.53 0 0 1-6.45 1.48c-3.82 0-6.63-1.1-8.43-3.3-1.8-2.2-2.7-5.6-2.7-10.2Zm-206.34 0h6.53v19.61c0 3.18.5 5.49 1.5 6.91.99 1.43 2.73 2.14 5.22 2.14 1.88 0 3.75-.6 5.61-1.8a22.15 22.15 0 0 0 5.05-4.51V966.8h6.52v34.09h-6.52v-5.03a32.15 32.15 0 0 1-6.32 4.19 14.54 14.54 0 0 1-6.45 1.48c-3.82 0-6.63-1.1-8.43-3.3-1.8-2.2-2.7-5.6-2.7-10.2Zm-346.7 0h6.52v32.01c0 4.19-.68 7.4-2.04 9.63-1.37 2.23-3.76 3.78-7.2 4.65l-1.44-5.11c1.67-.82 2.78-1.84 3.33-3.07.55-1.22.83-3.25.83-6.1Zm-45.34 0h6.52v19.61c0 3.18.5 5.49 1.5 6.91 1 1.43 2.74 2.14 5.22 2.14 1.88 0 3.75-.6 5.62-1.8a22.57 22.57 0 0 0 5.05-4.51V966.8h6.52v34.09h-6.52v-5.03a32.15 32.15 0 0 1-6.32 4.19 14.54 14.54 0 0 1-6.46 1.48c-3.82 0-6.63-1.1-8.43-3.3-1.8-2.2-2.7-5.6-2.7-10.2Zm235.13-.56c5.3 0 8.62 2.18 9.98 6.55a26.6 26.6 0 0 1 6.35-5.04 13.03 13.03 0 0 1 6.13-1.51c3.66 0 6.38 1.08 8.18 3.26 1.79 2.17 2.69 5.54 2.69 10.1v21.29h-6.53v-19.7c0-3.2-.37-5.48-1.1-6.85-.75-1.36-2.18-2.04-4.3-2.04-3.07 0-6.54 2-10.4 6v22.59h-6.52v-19.7c0-3.18-.4-5.45-1.18-6.83-.79-1.37-2.24-2.06-4.35-2.06-3.4 0-6.86 2-10.4 6v22.59h-6.53v-34.1h6.52l-.07 5.08a25.94 25.94 0 0 1 5.63-4.2 12.46 12.46 0 0 1 5.9-1.44Zm-32.25 0c1.6 0 3.04.06 4.33.2l-.42 6.14c-1.15-.1-2.53-.14-4.13-.14-2.3 0-4.31.75-6.04 2.24-1.73 1.5-3.03 3.63-3.9 6.38v19.83h-6.52v-34.1h6.52v6.39a11.8 11.8 0 0 1 4.1-5.06 10.34 10.34 0 0 1 6.06-1.9Zm-228.09 0c3.88 0 6.74 1.07 8.59 3.22 1.84 2.15 2.77 5.53 2.77 10.14v21.29h-6.53v-19.7c0-3.32-.4-5.63-1.18-6.93-.79-1.3-2.41-1.96-4.88-1.96-4.02 0-7.77 2.02-11.25 6.06v22.53h-6.53v-34.1h6.53v5a25.3 25.3 0 0 1 5.97-4.15 14.87 14.87 0 0 1 6.51-1.41Zm549.2-.07c4.73 0 8.41 1.43 11.06 4.3 2.64 2.86 4.01 6.94 4.1 12.23 0 1.1-.07 2.1-.2 2.96h-25.15c.26 3.58 1.3 6.2 3.12 7.87s4.23 2.5 7.21 2.5c2.28 0 4.37-.31 6.26-.94a25.3 25.3 0 0 0 6.09-3.13l2.4 4.07a24 24 0 0 1-6.97 4.23c-2.3.84-4.98 1.27-8.06 1.27-4.91 0-8.87-1.45-11.88-4.36-3.01-2.9-4.52-7.29-4.52-13.16 0-3.03.41-5.7 1.24-8.01a13.91 13.91 0 0 1 3.49-5.6 14.61 14.61 0 0 1 5.22-3.18c1.97-.7 4.17-1.05 6.6-1.05Zm-226.57 0c4.67 0 7.94 1.1 9.8 3.3 1.85 2.19 2.77 5.85 2.77 10.97v20.45h-6.52v-4.26a28 28 0 0 1-5.52 3.61 14.19 14.19 0 0 1-6.23 1.29c-3.93 0-6.84-.81-8.74-2.43-1.9-1.63-2.85-4.25-2.85-7.87 0-7.28 4.75-10.93 14.26-10.93 3.94 0 6.97.03 9.08.07 0-3.45-.47-5.76-1.4-6.94-.95-1.17-2.85-1.76-5.7-1.76-3 0-6.9.62-11.71 1.85l-1.1-5.17c5.8-1.46 10.42-2.18 13.86-2.18Zm-137.56 0c4.67 0 7.94 1.1 9.8 3.3 1.85 2.19 2.77 5.85 2.77 10.97v20.45h-6.52v-4.26a28.03 28.03 0 0 1-5.52 3.61 14.18 14.18 0 0 1-6.23 1.29c-3.93 0-6.84-.81-8.74-2.43-1.9-1.63-2.85-4.25-2.85-7.87 0-7.28 4.75-10.93 14.26-10.93 3.94 0 6.97.03 9.08.07 0-3.45-.47-5.76-1.4-6.94-.95-1.17-2.85-1.76-5.7-1.76-3 0-6.9.62-11.71 1.85l-1.1-5.17c5.8-1.46 10.42-2.18 13.86-2.18Zm-230.42 0c4.68 0 7.94 1.1 9.8 3.3 1.85 2.19 2.78 5.85 2.78 10.97v20.45h-6.52v-4.26a28.03 28.03 0 0 1-5.53 3.61 14.18 14.18 0 0 1-6.23 1.29c-3.92 0-6.83-.81-8.73-2.43-1.9-1.63-2.86-4.25-2.86-7.87 0-7.28 4.76-10.93 14.27-10.93 3.94 0 6.97.03 9.08.07 0-3.45-.47-5.76-1.41-6.94-.94-1.17-2.84-1.76-5.7-1.76-2.99 0-6.89.62-11.7 1.85l-1.11-5.17c5.8-1.46 10.43-2.18 13.87-2.18Zm146.94-.07c3.71 0 7.95 1.07 12.73 3.21l-1.73 4.99c-4.92-1.8-8.63-2.7-11.14-2.7-1.84 0-3.25.35-4.24 1.07a3.55 3.55 0 0 0-1.48 3.05c0 .4.06.78.16 1.1.1.34.3.64.6.91s.56.5.79.67c.23.17.64.36 1.21.58a60.22 60.22 0 0 0 3.06 1.06 1208.23 1208.23 0 0 1 5.57 1.86c.95.32 1.95.72 2.98 1.21 1.04.49 1.83.98 2.37 1.47a10.2 10.2 0 0 1 1.54 1.78c.49.7.82 1.48 1.01 2.35.19.87.28 1.9.28 3.05 0 3.02-1.1 5.4-3.31 7.15s-5.2 2.62-8.96 2.62c-5.45 0-10.44-1.7-14.95-5.07l2.75-4.49c2.1 1.46 4.02 2.5 5.78 3.12 1.77.63 3.88.94 6.35.94 1.93 0 3.46-.36 4.58-1.08a3.5 3.5 0 0 0 1.7-3.14 5.83 5.83 0 0 0-.55-2.53c-.15-.31-.4-.6-.76-.87-.35-.26-.67-.49-.95-.66a7.66 7.66 0 0 0-1.36-.6c-.62-.21-1.14-.39-1.56-.51l-1.95-.6-2.25-.68c-3.67-1.1-6.28-2.3-7.85-3.58-1.56-1.3-2.34-3.22-2.34-5.78 0-3.18 1.03-5.63 3.08-7.34 2.06-1.71 5-2.56 8.84-2.56Zm276.87-9.98c4.34 0 8.3.64 11.9 1.94 3.6 1.29 6.63 3.1 9.1 5.4a23.73 23.73 0 0 1 5.76 8.42 28.1 28.1 0 0 1 2.04 10.82 30.68 30.68 0 0 1-.94 7.63 17.79 17.79 0 0 1-2.28 5.42c-.93 1.36-2 2.5-3.22 3.4a11.6 11.6 0 0 1-3.57 1.87c-1.16.34-2.34.51-3.54.51-2.03 0-3.7-.37-5.01-1.11-1.31-.74-2.22-2.05-2.71-3.93a22.08 22.08 0 0 1-5.61 3.86 15.92 15.92 0 0 1-6.46 1.18c-8.38 0-12.58-5.24-12.58-15.73 0-5.26 1.17-9.15 3.5-11.67 2.34-2.51 5.63-3.77 9.86-3.77 3.73 0 7.35 1.22 10.87 3.67v-3.1h6.07v22.1c0 1.88.28 3.2.84 3.97.56.76 1.43 1.14 2.6 1.14.8 0 1.58-.15 2.36-.46a7.5 7.5 0 0 0 2.37-1.62c.81-.77 1.52-1.72 2.13-2.85.6-1.13 1.11-2.6 1.51-4.4.4-1.82.61-3.85.63-6.1 0-7.15-2.3-12.88-6.92-17.18-4.62-4.3-10.85-6.45-18.7-6.45-5.45 0-10.3 1.12-14.53 3.35a24.2 24.2 0 0 0-9.9 9.52 27.87 27.87 0 0 0-3.55 14.14c0 7.82 2.45 14.09 7.36 18.79 4.9 4.7 11.36 7.05 19.39 7.05a38.9 38.9 0 0 0 17.85-4.09l1.23 2.43a31.85 31.85 0 0 1-8.75 3.56 41.42 41.42 0 0 1-10.33 1.27c-4.44 0-8.52-.7-12.25-2.1a26.81 26.81 0 0 1-9.47-5.87 25.99 25.99 0 0 1-6.04-9.18 31.77 31.77 0 0 1-2.16-11.86c0-5.9 1.33-11.13 4-15.7a27.32 27.32 0 0 1 11.09-10.55c4.72-2.48 10.07-3.72 16.06-3.72Zm225.08-2.37h6.52v47.14h-6.52v-4.57a22.4 22.4 0 0 1-5.37 3.95c-1.7.84-3.88 1.26-6.54 1.26-1.92 0-3.7-.34-5.36-1.01a13.52 13.52 0 0 1-4.51-3.06 14.12 14.12 0 0 1-3.21-5.59 26 26 0 0 1-1.18-8.2c0-6.04 1.19-10.47 3.56-13.29 2.38-2.8 5.67-4.21 9.89-4.21 4.87 0 9.11 1.68 12.72 5.04Zm-113.57 0h6.52v47.14h-6.52Zm-364.54-.14h6.53v18.49c4.11-3.91 8.5-5.86 13.18-5.86 3.81 0 6.54 1.05 8.19 3.17 1.64 2.11 2.46 5.51 2.46 10.19v21.29h-6.52v-19.45c0-3.33-.4-5.66-1.18-7-.79-1.33-2.42-2-4.88-2-3.88 0-7.63 2.1-11.25 6.3v22.15h-6.53Zm-51.6-.31c1.1 0 2.03.31 2.77.95a3.33 3.33 0 0 1 1.1 2.68c0 1.13-.37 2-1.12 2.64-.75.64-1.67.95-2.75.95-1.1 0-2.04-.32-2.79-.97a3.29 3.29 0 0 1-1.13-2.62c0-1.15.38-2.05 1.13-2.68a4.17 4.17 0 0 1 2.79-.95Zm401.32-1.1c2.63 0 4.84.22 6.63.66l-.5 5.05c-1.5-.14-3.2-.2-5.07-.2-2.24 0-3.8.51-4.68 1.54-.88 1.04-1.32 2.67-1.32 4.9v2.65h10.44v5.5h-10.44v28.59h-6.52v-28.6h-4.73v-5.5h4.73v-2.68c0-4.07.9-7.07 2.73-9 1.82-1.95 4.73-2.92 8.73-2.92Zm-47.58-81.16h26.94v5.5h-26.94Zm-478.22-8.7h4.76v12.05h12.13v4.83h-12.13v11.99h-4.76v-11.99H257.2v-4.83h12.06Zm681.5-7.1c-8.05 0-12.07 5.59-12.07 16.75 0 5.4 1 9.52 3.02 12.33 2.01 2.8 5.03 4.2 9.05 4.2 8.1 0 12.15-5.5 12.15-16.53 0-11.16-4.05-16.75-12.14-16.75Zm-54.22-.56c-3.22 0-5.81.88-7.78 2.64-1.98 1.76-2.96 4.23-2.96 7.4 0 2.76.94 4.94 2.81 6.55 1.88 1.61 4.38 2.41 7.5 2.41 2.51 0 4.8-.63 6.87-1.9a15.6 15.6 0 0 0 5-4.85c-.45-3.97-1.64-7-3.6-9.1-1.94-2.1-4.56-3.15-7.84-3.15Zm-47.32-4.76h5.16v38.54h9.38v5.5h-26.8v-5.5h10.9V857.5a62.69 62.69 0 0 1-9.8 2.75l-1.3-4.05c5-1.88 9.16-3.98 12.46-6.28Zm-60.7 0h32.23v4.88a98.13 98.13 0 0 0-11.02 18.27 118.57 118.57 0 0 0-7.74 20.89h-7.8c2.1-6.96 4.86-13.9 8.25-20.84a91.97 91.97 0 0 1 11.01-17.7h-24.93Zm-121.57 0h5.17v38.54h9.38v5.5h-26.8v-5.5h10.9V857.5a62.66 62.66 0 0 1-9.8 2.75l-1.31-4.05c5-1.88 9.16-3.98 12.46-6.28Zm-209.99 0h28.46v5.5h-22.75l-1.17 14.35a26.53 26.53 0 0 1 11.29-2.75c4.37 0 7.85 1.2 10.42 3.61 2.58 2.4 3.87 5.65 3.87 9.74 0 4.38-1.53 7.84-4.6 10.4-3.07 2.55-7.03 3.82-11.87 3.82-3.03 0-6.15-.36-9.34-1.09a35.5 35.5 0 0 1-8.78-3.2l1.86-4.86a36.07 36.07 0 0 0 15.48 3.65c3.23 0 5.85-.81 7.87-2.45a8 8 0 0 0 3.03-6.56 7.9 7.9 0 0 0-2.68-6.2c-1.78-1.59-4.17-2.38-7.15-2.38-3.22 0-6.58 1-10.09 2.98l-5.5-.9Zm-140.78 0h5.16v38.54h9.38v5.5h-26.8v-5.5h10.9V857.5a62.66 62.66 0 0 1-9.8 2.75l-1.31-4.05a56.7 56.7 0 0 0 12.47-6.28Zm398.99-.53c4.28 0 7.75 1.14 10.42 3.41 2.67 2.27 4 5.25 4 8.93a9.5 9.5 0 0 1-2 6.05 11.04 11.04 0 0 1-5.23 3.65c2.85.95 5 2.25 6.44 3.92 1.44 1.67 2.17 3.82 2.17 6.46 0 3.9-1.46 7.01-4.36 9.32-2.9 2.3-6.8 3.46-11.69 3.46-3.03 0-6.17-.38-9.41-1.15a34.2 34.2 0 0 1-8.86-3.37l1.87-4.64a39.43 39.43 0 0 0 16.19 3.66c3 0 5.41-.66 7.21-1.98a6.39 6.39 0 0 0 2.7-5.44c0-2.5-1-4.38-3.02-5.63-2-1.24-4.88-1.86-8.62-1.86h-6.35v-5.5h6.35c3.55 0 6.2-.5 7.94-1.47a4.91 4.91 0 0 0 2.6-4.6c0-2.35-.82-4.23-2.48-5.62-1.66-1.4-3.89-2.1-6.68-2.1-4.56 0-9.6 1.14-15.1 3.42l-1.51-4.5c5.9-2.94 11.7-4.42 17.42-4.42Zm-292.32 0c4.28 0 7.75 1.14 10.42 3.41 2.67 2.27 4 5.25 4 8.93a9.5 9.5 0 0 1-1.99 6.05 11.04 11.04 0 0 1-5.23 3.65c2.84.95 4.99 2.25 6.43 3.92 1.45 1.67 2.17 3.82 2.17 6.46 0 3.9-1.45 7.01-4.35 9.32-2.9 2.3-6.8 3.46-11.7 3.46-3.03 0-6.17-.38-9.41-1.15a34.18 34.18 0 0 1-8.85-3.37l1.87-4.64a39.43 39.43 0 0 0 16.19 3.66c3 0 5.4-.66 7.2-1.98a6.39 6.39 0 0 0 2.7-5.44c0-2.5-1-4.38-3.01-5.63-2.01-1.24-4.89-1.86-8.62-1.86h-6.35v-5.5h6.35c3.55 0 6.2-.5 7.93-1.47a4.91 4.91 0 0 0 2.61-4.6c0-2.35-.83-4.23-2.49-5.62-1.65-1.4-3.88-2.1-6.68-2.1-4.56 0-9.59 1.14-15.1 3.42l-1.5-4.5c5.9-2.94 11.7-4.42 17.41-4.42Zm527.91-.2c6.16 0 10.83 1.95 14.03 5.86 3.2 3.91 4.79 9.56 4.79 16.94 0 7.29-1.6 12.88-4.8 16.77-3.19 3.89-7.86 5.83-14.01 5.83-6.12 0-10.78-1.94-13.97-5.83-3.18-3.9-4.78-9.48-4.78-16.77 0-7.38 1.6-13.03 4.78-16.94 3.2-3.91 7.85-5.87 13.97-5.87Zm-54.22 0c5.8 0 10.24 1.82 13.33 5.48s4.63 8.8 4.63 15.41c0 7.98-1.74 14.06-5.23 18.24-3.49 4.18-8.48 6.27-14.99 6.27-2.72 0-4.92-.2-6.61-.62-1.7-.41-3.6-1.16-5.73-2.25l1.77-4.74a27.68 27.68 0 0 0 10.36 2.11c4.48 0 7.9-1.44 10.25-4.32 2.34-2.88 3.62-7.12 3.83-12.7-3.47 4.11-8.12 6.16-13.94 6.16-4.43 0-8-1.27-10.7-3.8-2.7-2.54-4.06-5.88-4.06-10.02 0-4.8 1.53-8.53 4.58-11.2 3.06-2.69 7.23-4.03 12.5-4.03Zm-274.47 0c4.49 0 8.02 1.22 10.6 3.7 2.57 2.46 3.86 5.82 3.86 10.08 0 1.42-.22 2.8-.66 4.17a13.68 13.68 0 0 1-2.3 4.18 72.46 72.46 0 0 1-3.07 3.71 37.4 37.4 0 0 1-4.4 3.96 208.19 208.19 0 0 1-10.2 7.72c-1.23.9-2.15 1.57-2.79 2.02 3.3-.18 5.58-.27 6.88-.27h17.49v5.5h-32.73v-4.64a440.37 440.37 0 0 1 9.3-7.48 162.08 162.08 0 0 0 7.98-6.75 58.41 58.41 0 0 0 3.12-3.1 22.93 22.93 0 0 0 2.49-3.07c.61-.94 1.11-1.9 1.5-2.9.39-1 .58-1.95.58-2.88 0-2.7-.76-4.78-2.3-6.25-1.52-1.47-3.66-2.2-6.41-2.2-4.56 0-9.5 1.28-14.81 3.87l-1.87-4.8c6.63-3.05 12.54-4.58 17.74-4.58Zm-103.17 0c4.49 0 8.02 1.22 10.6 3.7 2.57 2.46 3.86 5.82 3.86 10.08 0 1.42-.22 2.8-.66 4.17a13.65 13.65 0 0 1-2.3 4.18 72.46 72.46 0 0 1-3.07 3.71 37.4 37.4 0 0 1-4.4 3.96 208.19 208.19 0 0 1-10.2 7.72c-1.23.9-2.15 1.57-2.79 2.02 3.3-.18 5.58-.27 6.88-.27h17.49v5.5h-32.73v-4.64a440.37 440.37 0 0 1 9.3-7.48 162.08 162.08 0 0 0 7.98-6.75 58.41 58.41 0 0 0 3.12-3.1 22.85 22.85 0 0 0 2.49-3.07c.61-.94 1.11-1.9 1.5-2.9.39-1 .58-1.95.58-2.88 0-2.7-.76-4.78-2.3-6.25-1.52-1.47-3.66-2.2-6.41-2.2-4.56 0-9.5 1.28-14.81 3.87l-1.87-4.8c6.63-3.05 12.54-4.58 17.74-4.58Zm34.14-2.9c7.46 8.88 11.18 18.92 11.18 30.1 0 11.2-3.72 21.23-11.18 30.12l-4.05-2.43c6.11-8.54 9.17-17.76 9.17-27.68 0-9.9-3.06-19.11-9.17-27.64Zm-167.93 0 4.06 2.47c-6.11 8.65-9.17 17.86-9.17 27.64 0 9.8 3.06 19.03 9.17 27.68l-4.06 2.43c-7.45-8.89-11.18-18.92-11.18-30.11 0-11.19 3.73-21.23 11.18-30.11Zm450.77-86.53c-3.62 0-6.24.45-7.86 1.37-1.62.9-2.43 2.57-2.43 5 0 4.67 2.82 7 8.48 7 1.98 0 3.96-.54 5.93-1.63a20.23 20.23 0 0 0 5.33-4.29v-7.46Zm-519.29 0c-3.62 0-6.24.45-7.86 1.37-1.62.9-2.43 2.57-2.43 5 0 4.67 2.82 7 8.48 7 1.99 0 3.96-.54 5.94-1.63a20.21 20.21 0 0 0 5.32-4.29v-7.46Zm845.28-15.24c-3.68 0-6.65 1.3-8.91 3.89s-3.38 6.02-3.38 10.28c0 4.1 1.12 7.4 3.36 9.91 2.24 2.51 5.19 3.77 8.85 3.77 3.71 0 6.7-1.26 8.98-3.77 2.29-2.5 3.43-5.81 3.43-9.91 0-4.26-1.14-7.69-3.41-10.28-2.27-2.6-5.24-3.89-8.92-3.89Zm-96.78 0c-3.09 0-5.67.8-7.76 2.38-2.08 1.6-3.37 4.04-3.88 7.34h22.36c-.27-3.15-1.32-5.56-3.16-7.22-1.84-1.66-4.36-2.5-7.56-2.5Zm-135.43 0c-7 0-10.5 4.58-10.5 13.73 0 2.48.3 4.66.91 6.51.6 1.86 1.44 3.34 2.5 4.42a10.37 10.37 0 0 0 7.78 3.19c1.64 0 3.2-.34 4.66-1.03a13.77 13.77 0 0 0 3.51-2.22c.88-.8 1.97-1.91 3.3-3.33v-14.73c-3.7-4.36-7.75-6.54-12.16-6.54Zm-301.32 0c-3.09 0-5.68.8-7.76 2.38-2.08 1.6-3.38 4.04-3.89 7.34h22.37c-.27-3.15-1.32-5.56-3.16-7.22-1.84-1.66-4.36-2.5-7.56-2.5Zm-96.3 0c-3.08 0-5.67.8-7.75 2.38-2.08 1.6-3.38 4.04-3.89 7.34h22.37c-.27-3.15-1.32-5.56-3.17-7.22-1.84-1.66-4.36-2.5-7.55-2.5Zm-133.63 0c-3.68 0-6.65 1.3-8.9 3.89-2.26 2.59-3.4 6.02-3.4 10.28 0 4.1 1.13 7.4 3.37 9.91 2.25 2.51 5.2 3.77 8.85 3.77 3.7 0 6.7-1.26 8.99-3.77 2.28-2.5 3.42-5.81 3.42-9.91 0-4.26-1.13-7.69-3.4-10.28-2.27-2.6-5.25-3.89-8.93-3.89Zm-199.46 0c-3.68 0-6.65 1.3-8.9 3.89-2.27 2.59-3.4 6.02-3.4 10.28 0 4.1 1.13 7.4 3.37 9.91 2.25 2.51 5.2 3.77 8.85 3.77 3.7 0 6.7-1.26 8.98-3.77 2.29-2.5 3.43-5.81 3.43-9.91 0-4.26-1.13-7.69-3.4-10.28-2.28-2.6-5.25-3.89-8.93-3.89Zm1066.28-5.56h7.45v38.97h-7.45Zm-570.88 0h7.46v38.97h-7.46Zm518.97-.64c6.04 0 9.85 2.5 11.4 7.5 2.64-2.7 5.05-4.61 7.26-5.77a14.87 14.87 0 0 1 7.01-1.73c4.18 0 7.29 1.24 9.34 3.73 2.05 2.48 3.07 6.33 3.07 11.54v24.34h-7.45V755.4c0-3.65-.43-6.26-1.27-7.81-.85-1.56-2.48-2.34-4.9-2.34-3.52 0-7.48 2.28-11.89 6.85v25.83h-7.45V755.4c0-3.62-.45-6.22-1.35-7.8-.9-1.57-2.56-2.35-4.98-2.35-3.87 0-7.83 2.28-11.89 6.85v25.83h-7.45v-38.97h7.45l-.08 5.8a29.69 29.69 0 0 1 6.43-4.79 14.2 14.2 0 0 1 6.75-1.65Zm-95.12 0c4.43 0 7.7 1.23 9.81 3.69 2.11 2.45 3.16 6.32 3.16 11.58v24.34h-7.45V755.4c0-3.78-.45-6.42-1.35-7.91-.9-1.5-2.76-2.24-5.59-2.24-4.59 0-8.87 2.31-12.85 6.93v25.75h-7.46v-38.97h7.46v5.73a28.96 28.96 0 0 1 6.83-4.76 16.97 16.97 0 0 1 7.44-1.61Zm-230.42 0c4.44 0 7.7 1.23 9.82 3.69 2.1 2.45 3.16 6.32 3.16 11.58v24.34h-7.46V755.4c0-3.78-.45-6.42-1.35-7.91-.9-1.5-2.76-2.24-5.58-2.24-4.6 0-8.88 2.31-12.85 6.93v25.75h-7.46v-38.97h7.46v5.73a28.92 28.92 0 0 1 6.83-4.76 16.98 16.98 0 0 1 7.43-1.61Zm-302.63 0c4.43 0 7.7 1.23 9.81 3.69 2.11 2.45 3.17 6.32 3.17 11.58v24.34h-7.46V755.4c0-3.78-.45-6.42-1.35-7.91-.9-1.5-2.76-2.24-5.58-2.24-4.6 0-8.88 2.31-12.86 6.93v25.75h-7.45v-38.97h7.45v5.73a28.92 28.92 0 0 1 6.84-4.76 16.98 16.98 0 0 1 7.43-1.61Zm-334.75 0c6.04 0 9.85 2.5 11.4 7.5 2.64-2.7 5.06-4.61 7.26-5.77a14.88 14.88 0 0 1 7.01-1.73c4.18 0 7.3 1.24 9.34 3.73 2.05 2.48 3.07 6.33 3.07 11.54v24.34h-7.45V755.4c0-3.65-.42-6.26-1.27-7.81-.85-1.56-2.48-2.34-4.9-2.34-3.52 0-7.48 2.28-11.89 6.85v25.83h-7.45V755.4c0-3.62-.45-6.22-1.35-7.8-.9-1.57-2.56-2.35-4.98-2.35-3.87 0-7.83 2.28-11.89 6.85v25.83h-7.45v-38.97h7.45l-.08 5.8a29.6 29.6 0 0 1 6.43-4.79 14.22 14.22 0 0 1 6.75-1.65Zm1055.5-.08c5.19 0 9.92 1.26 14.19 3.79l-2.54 5.04a25.8 25.8 0 0 0-11.57-2.55c-3.6 0-6.49 1.3-8.68 3.92-2.19 2.6-3.29 6.04-3.29 10.29 0 4.14 1.07 7.45 3.21 9.92 2.13 2.48 4.97 3.72 8.52 3.72 2.45 0 4.65-.31 6.61-.93a26.57 26.57 0 0 0 6.53-3.31l2.7 4.96a28.28 28.28 0 0 1-7.88 4.36 28.8 28.8 0 0 1-8.93 1.2c-5.4 0-9.75-1.83-13.05-5.5-3.31-3.65-4.96-8.46-4.96-14.42 0-6.16 1.75-11.11 5.24-14.87 3.49-3.75 8.13-5.62 13.9-5.62Zm-144.03 0c5.85 0 10.58 1.87 14.18 5.61 3.6 3.75 5.4 8.7 5.4 14.84 0 6-1.8 10.82-5.4 14.48-3.6 3.66-8.35 5.48-14.26 5.48-5.86 0-10.57-1.82-14.13-5.48-3.56-3.66-5.34-8.49-5.34-14.48 0-6.15 1.8-11.1 5.38-14.84 3.59-3.74 8.31-5.61 14.17-5.61Zm-96.94 0c5.4 0 9.61 1.64 12.64 4.91 3.02 3.28 4.58 7.94 4.69 13.99 0 1.26-.08 2.39-.24 3.38h-28.74c.3 4.1 1.49 7.1 3.57 9 2.08 1.9 4.83 2.85 8.24 2.85 2.61 0 4.99-.36 7.16-1.08 2.16-.71 4.48-1.9 6.95-3.57l2.74 4.65a27.34 27.34 0 0 1-7.96 4.83 26.5 26.5 0 0 1-9.21 1.45c-5.62 0-10.14-1.65-13.58-4.97-3.44-3.32-5.16-8.33-5.16-15.05 0-3.46.47-6.52 1.41-9.16a16.01 16.01 0 0 1 3.99-6.4 16.7 16.7 0 0 1 5.97-3.63c2.25-.8 4.76-1.2 7.53-1.2Zm-226.52 0c5.35 0 9.08 1.25 11.2 3.77 2.12 2.5 3.18 6.7 3.18 12.55v23.37h-7.46v-4.88a32.19 32.19 0 0 1-6.31 4.13 16.24 16.24 0 0 1-7.12 1.47c-4.48 0-7.81-.92-9.99-2.78-2.17-1.85-3.26-4.85-3.26-8.98 0-8.33 5.44-12.5 16.3-12.5 4.51 0 7.97.03 10.38.09 0-3.94-.53-6.59-1.6-7.94-1.08-1.34-3.25-2.02-6.52-2.02-3.41 0-7.87.71-13.38 2.13l-1.26-5.92c6.64-1.66 11.92-2.5 15.84-2.5Zm-103.38 0c5.19 0 9.91 1.26 14.19 3.79l-2.54 5.04a25.8 25.8 0 0 0-11.57-2.55c-3.6 0-6.5 1.3-8.69 3.92-2.18 2.6-3.28 6.04-3.28 10.29 0 4.14 1.07 7.45 3.2 9.92 2.14 2.48 4.98 3.72 8.53 3.72 2.44 0 4.65-.31 6.6-.93a26.54 26.54 0 0 0 6.54-3.31l2.7 4.96a28.26 28.26 0 0 1-7.88 4.36c-2.43.8-5.41 1.2-8.93 1.2-5.4 0-9.75-1.83-13.06-5.5-3.3-3.65-4.95-8.46-4.95-14.42 0-6.16 1.74-11.11 5.24-14.87 3.49-3.75 8.12-5.62 13.9-5.62Zm-106.85 0c5.4 0 9.61 1.64 12.63 4.91 3.03 3.28 4.59 7.94 4.7 13.99 0 1.26-.08 2.39-.24 3.38h-28.74c.3 4.1 1.49 7.1 3.57 9 2.08 1.9 4.83 2.85 8.24 2.85 2.6 0 4.99-.36 7.15-1.08 2.17-.71 4.48-1.9 6.96-3.57l2.73 4.65a27.3 27.3 0 0 1-7.95 4.83 26.49 26.49 0 0 1-9.21 1.45c-5.62 0-10.14-1.65-13.58-4.97-3.44-3.32-5.16-8.33-5.16-15.05 0-3.46.47-6.52 1.4-9.16a16.01 16.01 0 0 1 4-6.4 16.7 16.7 0 0 1 5.96-3.63c2.26-.8 4.77-1.2 7.54-1.2Zm-96.3 0c5.4 0 9.62 1.64 12.64 4.91 3.02 3.28 4.59 7.94 4.7 13.99 0 1.26-.08 2.39-.25 3.38h-28.73c.3 4.1 1.48 7.1 3.57 9 2.08 1.9 4.83 2.85 8.24 2.85 2.6 0 4.99-.36 7.15-1.08 2.16-.71 4.48-1.9 6.95-3.57l2.74 4.65a27.29 27.29 0 0 1-7.96 4.83 26.49 26.49 0 0 1-9.2 1.45c-5.62 0-10.15-1.65-13.59-4.97-3.43-3.32-5.15-8.33-5.15-15.05 0-3.46.47-6.52 1.4-9.16a16.02 16.02 0 0 1 4-6.4 16.7 16.7 0 0 1 5.96-3.63c2.26-.8 4.77-1.2 7.54-1.2Zm-133.47 0c5.86 0 10.59 1.87 14.19 5.61 3.6 3.75 5.4 8.7 5.4 14.84 0 6-1.8 10.82-5.4 14.48-3.6 3.66-8.36 5.48-14.27 5.48-5.86 0-10.57-1.82-14.13-5.48-3.56-3.66-5.33-8.49-5.33-14.48 0-6.15 1.79-11.1 5.38-14.84 3.58-3.74 8.3-5.61 14.16-5.61Zm-79.28 0c5.34 0 9.07 1.25 11.19 3.77 2.12 2.5 3.18 6.7 3.18 12.55v23.37h-7.46v-4.88a32.16 32.16 0 0 1-6.31 4.13 16.24 16.24 0 0 1-7.12 1.47c-4.48 0-7.81-.92-9.99-2.78-2.17-1.85-3.25-4.85-3.25-8.98 0-8.33 5.43-12.5 16.3-12.5 4.5 0 7.96.03 10.37.09 0-3.94-.53-6.59-1.6-7.94-1.08-1.34-3.25-2.02-6.52-2.02-3.41 0-7.87.71-13.38 2.13l-1.26-5.92c6.64-1.66 11.92-2.5 15.85-2.5Zm-120.18 0c5.86 0 10.58 1.87 14.19 5.61 3.6 3.75 5.4 8.7 5.4 14.84 0 6-1.8 10.82-5.4 14.48-3.6 3.66-8.36 5.48-14.27 5.48-5.86 0-10.57-1.82-14.13-5.48-3.56-3.66-5.34-8.49-5.34-14.48 0-6.15 1.8-11.1 5.38-14.84 3.59-3.74 8.31-5.61 14.17-5.61Zm1146.86-.08c4.25 0 9.1 1.22 14.55 3.68l-1.97 5.7c-5.62-2.07-9.86-3.1-12.74-3.1-2.09 0-3.7.41-4.83 1.23a4.05 4.05 0 0 0-1.7 3.49c0 .47.06.89.18 1.26.13.38.35.73.69 1.04.33.3.63.56.9.76.27.2.73.41 1.39.66a145.33 145.33 0 0 0 3.49 1.22l2.03.67c1.81.6 3.26 1.1 4.34 1.45 1.09.37 2.22.82 3.41 1.38a11.2 11.2 0 0 1 2.71 1.68c.62.56 1.2 1.24 1.76 2.03.55.8.93 1.7 1.15 2.7.21 1 .32 2.16.32 3.49 0 3.45-1.26 6.17-3.79 8.16-2.52 2-5.94 3-10.23 3a27.86 27.86 0 0 1-17.09-5.8l3.14-5.13a28.58 28.58 0 0 0 6.61 3.57c2.02.71 4.43 1.07 7.26 1.07 2.2 0 3.95-.41 5.23-1.24a4 4 0 0 0 1.94-3.58 6.73 6.73 0 0 0-.63-2.89 2.8 2.8 0 0 0-.86-1 8.64 8.64 0 0 0-2.64-1.43c-.71-.25-1.31-.45-1.78-.6l-2.24-.67-2.57-.79c-4.19-1.25-7.18-2.61-8.97-4.1-1.78-1.47-2.68-3.67-2.68-6.6 0-3.63 1.18-6.43 3.53-8.38 2.35-1.96 5.71-2.93 10.09-2.93Zm-570.87 0c4.24 0 9.1 1.22 14.55 3.68l-1.98 5.7c-5.61-2.07-9.86-3.1-12.73-3.1-2.1 0-3.7.41-4.84 1.23a4.05 4.05 0 0 0-1.69 3.49c0 .47.06.89.18 1.26.12.38.35.73.68 1.04.34.3.64.56.9.76.28.2.74.41 1.4.66a61.42 61.42 0 0 0 3.48 1.22l2.03.67c1.82.6 3.26 1.1 4.35 1.45 1.09.37 2.22.82 3.4 1.38 1.2.56 2.1 1.12 2.71 1.68.62.56 1.21 1.24 1.76 2.03.55.8.94 1.7 1.15 2.7.22 1 .33 2.16.33 3.49 0 3.45-1.26 6.17-3.8 8.16-2.52 2-5.93 3-10.23 3a27.86 27.86 0 0 1-17.09-5.8l3.15-5.13a28.5 28.5 0 0 0 6.6 3.57c2.02.71 4.44 1.07 7.26 1.07 2.2 0 3.95-.41 5.24-1.24a4 4 0 0 0 1.94-3.58 6.68 6.68 0 0 0-.63-2.89c-.17-.36-.46-.7-.86-1a8.7 8.7 0 0 0-2.64-1.43 63.4 63.4 0 0 0-1.79-.6l-2.24-.67-2.56-.79c-4.2-1.25-7.18-2.61-8.97-4.1-1.79-1.47-2.68-3.67-2.68-6.6 0-3.63 1.17-6.43 3.52-8.38 2.36-1.96 5.72-2.93 10.1-2.93Zm-113.65-8.9h7.46v9.7h11.52v6.29h-11.52v19.64c0 2.55.49 4.25 1.47 5.12.98.88 2.7 1.31 5.18 1.31 1.93 0 3.87-.13 5.8-.4l.8 5.5a26.83 26.83 0 0 1-9.06 1.83c-4.11 0-7.08-1.02-8.9-3.06-1.83-2.04-2.75-5.36-2.75-9.96v-19.98h-5.84v-6.29h5.84Zm-312.95 0h7.46v9.7h11.52v6.29H355.8v19.64c0 2.55.49 4.25 1.47 5.12.98.88 2.7 1.31 5.18 1.31 1.93 0 3.87-.13 5.8-.4l.8 5.5a26.83 26.83 0 0 1-9.06 1.83c-4.11 0-7.08-1.02-8.9-3.06-1.83-2.04-2.75-5.36-2.75-9.96v-19.98h-5.84v-6.29h5.84ZM129 727.6h42.72v7.1h-17.57v43.23h-7.62v-43.24H129Zm883.15-.85c7.17 0 13.84 1.24 19.99 3.71l-2.14 6.29a52.57 52.57 0 0 0-17.16-2.9c-5.46 0-9.67 1.64-12.64 4.93-2.97 3.3-4.45 7.95-4.45 13.96 0 6.1 1.37 10.76 4.1 13.99 2.75 3.22 6.6 4.83 11.58 4.83 3.27 0 6.17-.28 8.7-.84 2.53-.57 4.9-1.58 7.13-3.03v-8.98h-16.92v-6.93h24.18v20.02a45.2 45.2 0 0 1-11.35 5.22 43.12 43.12 0 0 1-12.07 1.63c-7.2 0-12.85-2.25-16.96-6.77-4.12-4.5-6.17-10.86-6.17-19.05 0-8.1 2.14-14.46 6.43-19.1 4.28-4.65 10.2-6.98 17.75-6.98Zm-533.04 0a53.2 53.2 0 0 1 19.99 3.71l-2.14 6.29a52.61 52.61 0 0 0-17.17-2.9c-5.45 0-9.66 1.64-12.63 4.93-2.97 3.3-4.46 7.95-4.46 13.96 0 6.1 1.37 10.76 4.11 13.99 2.75 3.22 6.6 4.83 11.57 4.83 3.28 0 6.18-.28 8.7-.84 2.53-.57 4.9-1.58 7.14-3.03v-8.98h-16.93v-6.93h24.18v20.02a45.13 45.13 0 0 1-11.34 5.22 43.11 43.11 0 0 1-12.07 1.63c-7.2 0-12.86-2.25-16.97-6.77-4.1-4.5-6.16-10.86-6.16-19.05 0-8.1 2.14-14.46 6.42-19.1 4.29-4.65 10.2-6.98 17.76-6.98Zm462.7-2.7h7.46v53.88h-7.46v-5.23a25.64 25.64 0 0 1-6.13 4.52c-1.94.95-4.43 1.43-7.47 1.43-2.2 0-4.24-.38-6.12-1.15a15.48 15.48 0 0 1-5.16-3.5 16.11 16.11 0 0 1-3.68-6.38 29.7 29.7 0 0 1-1.34-9.38c0-6.9 1.36-11.97 4.07-15.18 2.72-3.21 6.48-4.82 11.3-4.82 5.57 0 10.41 1.92 14.53 5.76Zm327.06-.52a4.7 4.7 0 0 1 3.18 1.09 3.81 3.81 0 0 1 1.28 3.06c0 1.3-.44 2.3-1.3 3.02a4.74 4.74 0 0 1-3.16 1.1 4.7 4.7 0 0 1-3.17-1.12 3.77 3.77 0 0 1-1.28-3 3.8 3.8 0 0 1 1.27-3.06 4.73 4.73 0 0 1 3.18-1.09Zm-570.87 0a4.7 4.7 0 0 1 3.18 1.09 3.8 3.8 0 0 1 1.27 3.06c0 1.3-.43 2.3-1.3 3.02a4.74 4.74 0 0 1-3.15 1.1 4.68 4.68 0 0 1-3.17-1.12 3.76 3.76 0 0 1-1.28-3 3.8 3.8 0 0 1 1.27-3.06 4.72 4.72 0 0 1 3.18-1.09Zm-286.02-56.37c-4.07 0-7.02.51-8.84 1.54-1.83 1.03-2.74 2.9-2.74 5.62 0 5.26 3.18 7.89 9.55 7.89 2.23 0 4.45-.62 6.67-1.84a22.76 22.76 0 0 0 6-4.83v-8.38Zm501.72-17.14c-4.14 0-7.48 1.46-10.02 4.37-2.54 2.92-3.81 6.77-3.81 11.57 0 4.61 1.26 8.33 3.78 11.15 2.53 2.82 5.85 4.24 9.96 4.24 4.17 0 7.54-1.42 10.1-4.24 2.58-2.82 3.86-6.54 3.86-11.15 0-4.8-1.28-8.65-3.83-11.57-2.55-2.91-5.9-4.37-10.04-4.37Zm-141.55 0c-3.47 0-6.38.9-8.72 2.68-2.35 1.79-3.8 4.53-4.38 8.25h25.17c-.3-3.55-1.5-6.25-3.56-8.12-2.07-1.87-4.9-2.8-8.5-2.8Zm-88.87 0c-4.14 0-7.48 1.46-10.01 4.37-2.54 2.92-3.81 6.77-3.81 11.57 0 4.61 1.26 8.33 3.78 11.15 2.53 2.82 5.84 4.24 9.95 4.24 4.17 0 7.54-1.42 10.11-4.24 2.57-2.82 3.86-6.54 3.86-11.15 0-4.8-1.28-8.65-3.83-11.57-2.56-2.91-5.9-4.37-10.05-4.37Zm-393.98-6.25h8.39v43.83h-8.39Zm681.46-.73c2.06 0 3.92.09 5.58.26l-.55 7.9a66.41 66.41 0 0 0-5.3-.18c-2.96 0-5.55.96-7.78 2.88-2.22 1.93-3.89 4.66-5 8.2v25.5h-8.4v-43.83h8.4v8.21a15.13 15.13 0 0 1 5.25-6.5 13.29 13.29 0 0 1 7.8-2.44Zm-323.26 0c2.05 0 3.91.09 5.57.26l-.54 7.9a66.41 66.41 0 0 0-5.3-.18c-2.97 0-5.56.96-7.78 2.88-2.22 1.93-3.9 4.66-5.01 8.2v25.5h-8.39v-43.83h8.39v8.21a15.14 15.14 0 0 1 5.26-6.5 13.29 13.29 0 0 1 7.8-2.44Zm-175.84 0c4.99 0 8.67 1.38 11.04 4.15 2.37 2.76 3.56 7.1 3.56 13.03v27.38h-8.39v-25.34c0-4.26-.5-7.23-1.52-8.9-1.01-1.68-3.1-2.52-6.28-2.52-5.17 0-9.99 2.6-14.46 7.8v28.96h-8.39v-43.83h8.39v6.43a32.57 32.57 0 0 1 7.69-5.35 19.12 19.12 0 0 1 8.36-1.8Zm442.04-.09c6.59 0 11.9 2.1 15.96 6.32 4.05 4.21 6.07 9.77 6.07 16.69 0 6.74-2.02 12.17-6.07 16.29-4.05 4.11-9.4 6.17-16.05 6.17-6.6 0-11.89-2.06-15.9-6.17-4-4.12-6-9.55-6-16.3 0-6.9 2.02-12.47 6.05-16.68 4.04-4.21 9.35-6.32 15.94-6.32Zm-141.73 0c6.08 0 10.82 1.84 14.22 5.53 3.4 3.69 5.16 8.93 5.28 15.73 0 1.42-.1 2.7-.27 3.8h-32.33c.33 4.61 1.67 7.99 4.01 10.13 2.35 2.14 5.44 3.2 9.27 3.2 2.94 0 5.62-.4 8.05-1.2a32.62 32.62 0 0 0 7.82-4.03l3.09 5.24a30.87 30.87 0 0 1-8.96 5.43 29.83 29.83 0 0 1-10.36 1.64c-6.31 0-11.4-1.87-15.28-5.6-3.87-3.73-5.8-9.37-5.8-16.93 0-3.9.53-7.33 1.59-10.3a18.03 18.03 0 0 1 4.49-7.2 18.78 18.78 0 0 1 6.7-4.09c2.54-.9 5.37-1.35 8.48-1.35Zm-88.69 0c6.6 0 11.91 2.1 15.96 6.32 4.05 4.21 6.08 9.77 6.08 16.69 0 6.74-2.03 12.17-6.08 16.29-4.05 4.11-9.4 6.17-16.05 6.17-6.59 0-11.88-2.06-15.89-6.17-4-4.12-6-9.55-6-16.3 0-6.9 2.01-12.47 6.05-16.68 4.03-4.21 9.35-6.32 15.93-6.32Zm-268.45 0c6.01 0 10.2 1.41 12.6 4.24 2.38 2.82 3.57 7.53 3.57 14.12v26.3h-8.38v-5.5a36.4 36.4 0 0 1-7.1 4.65 18.27 18.27 0 0 1-8.02 1.66c-5.04 0-8.79-1.04-11.23-3.13-2.45-2.09-3.67-5.45-3.67-10.1 0-9.38 6.11-14.06 18.34-14.06 5.07 0 8.96.03 11.68.09 0-4.44-.6-7.41-1.82-8.93-1.2-1.51-3.65-2.27-7.32-2.27-3.84 0-8.86.8-15.05 2.4l-1.43-6.67c7.47-1.87 13.42-2.8 17.83-2.8Zm448.31-.09c4.78 0 10.23 1.38 16.37 4.14l-2.22 6.4c-6.32-2.31-11.1-3.47-14.33-3.47-2.36 0-4.17.46-5.44 1.38a4.56 4.56 0 0 0-1.9 3.93c0 .52.06 1 .2 1.42.13.42.4.81.77 1.16.37.35.71.64 1.01.85.3.23.83.47 1.56.75a76.16 76.16 0 0 0 3.93 1.37l2.28.76 4.9 1.63c1.21.41 2.49.93 3.82 1.56 1.34.63 2.35 1.25 3.05 1.88.7.63 1.36 1.4 1.98 2.29a8.5 8.5 0 0 1 1.3 3.03c.24 1.12.36 2.43.36 3.92 0 3.89-1.42 6.95-4.26 9.2-2.84 2.24-6.68 3.36-11.52 3.36a31.34 31.34 0 0 1-19.22-6.52l3.53-5.77a32.05 32.05 0 0 0 7.44 4.01c2.27.8 4.99 1.2 8.16 1.2 2.48 0 4.44-.46 5.9-1.38a4.5 4.5 0 0 0 2.17-4.04 7.52 7.52 0 0 0-.7-3.25 3.2 3.2 0 0 0-.98-1.12 18.9 18.9 0 0 0-1.22-.85 9.8 9.8 0 0 0-1.75-.76c-.8-.28-1.47-.5-2-.67l-2.52-.76-2.89-.88c-4.71-1.41-8.08-2.95-10.09-4.6-2-1.67-3.01-4.15-3.01-7.44 0-4.09 1.32-7.23 3.96-9.43 2.65-2.2 6.44-3.3 11.36-3.3Zm-44.7 0c4.77 0 10.23 1.38 16.36 4.14l-2.22 6.4c-6.32-2.31-11.1-3.47-14.33-3.47-2.35 0-4.17.46-5.44 1.38a4.56 4.56 0 0 0-1.9 3.93c0 .52.07 1 .2 1.42.14.42.4.81.77 1.16.38.35.72.64 1.02.85.3.23.82.47 1.56.75a76.16 76.16 0 0 0 3.92 1.37l2.28.76 4.9 1.63c1.22.41 2.5.93 3.83 1.56s2.35 1.25 3.04 1.88c.7.63 1.36 1.4 1.98 2.29.62.9 1.06 1.9 1.3 3.03.24 1.12.36 2.43.36 3.92 0 3.89-1.42 6.95-4.26 9.2-2.84 2.24-6.68 3.36-11.52 3.36a31.34 31.34 0 0 1-19.22-6.52l3.54-5.77a32.05 32.05 0 0 0 7.43 4.01c2.27.8 4.99 1.2 8.16 1.2 2.48 0 4.45-.46 5.9-1.38a4.5 4.5 0 0 0 2.17-4.04 7.52 7.52 0 0 0-.7-3.25 3.2 3.2 0 0 0-.97-1.12c-.46-.34-.87-.62-1.23-.85a9.8 9.8 0 0 0-1.74-.76c-.8-.28-1.47-.5-2-.67l-2.53-.76-2.88-.88c-4.72-1.41-8.08-2.95-10.1-4.6-2-1.67-3-4.15-3-7.44 0-4.09 1.31-7.23 3.96-9.43 2.64-2.2 6.43-3.3 11.35-3.3Zm-491.78 0c4.77 0 10.23 1.38 16.36 4.14l-2.22 6.4c-6.31-2.31-11.09-3.47-14.32-3.47-2.36 0-4.17.46-5.44 1.38a4.56 4.56 0 0 0-1.9 3.93c0 .52.06 1 .2 1.42.13.42.39.81.76 1.16.38.35.72.64 1.02.85.3.23.82.47 1.56.75a75.92 75.92 0 0 0 3.93 1.37l2.28.76 4.89 1.63c1.22.41 2.5.93 3.83 1.56s2.35 1.25 3.05 1.88c.7.63 1.35 1.4 1.97 2.29.63.9 1.06 1.9 1.3 3.03.24 1.12.37 2.43.37 3.92 0 3.89-1.43 6.95-4.27 9.2-2.84 2.24-6.68 3.36-11.51 3.36a31.34 31.34 0 0 1-19.23-6.52l3.54-5.77a32.06 32.06 0 0 0 7.44 4.01c2.26.8 4.98 1.2 8.16 1.2 2.47 0 4.44-.46 5.9-1.38a4.5 4.5 0 0 0 2.17-4.04 7.52 7.52 0 0 0-.7-3.25c-.2-.4-.53-.77-.98-1.12a18.9 18.9 0 0 0-1.22-.85 9.79 9.79 0 0 0-1.75-.76c-.8-.28-1.47-.5-2-.67l-2.52-.76-2.89-.88c-4.72-1.41-8.08-2.95-10.09-4.6-2.01-1.67-3.02-4.15-3.02-7.44 0-4.09 1.33-7.23 3.97-9.43 2.65-2.2 6.43-3.3 11.36-3.3Zm-68.78 0c4.77 0 10.23 1.38 16.37 4.14l-2.23 6.4c-6.31-2.31-11.09-3.47-14.32-3.47-2.36 0-4.17.46-5.44 1.38a4.56 4.56 0 0 0-1.9 3.93c0 .52.06 1 .2 1.42.13.42.39.81.76 1.16.38.35.72.64 1.02.85.3.23.82.47 1.56.75a75.92 75.92 0 0 0 3.93 1.37l2.28.76 4.89 1.63c1.22.41 2.5.93 3.83 1.56 1.34.63 2.35 1.25 3.05 1.88.7.63 1.35 1.4 1.98 2.29a8.5 8.5 0 0 1 1.3 3.03c.23 1.12.35 2.43.35 3.92 0 3.89-1.42 6.95-4.26 9.2-2.84 2.24-6.68 3.36-11.51 3.36a31.34 31.34 0 0 1-19.23-6.52l3.54-5.77a32.06 32.06 0 0 0 7.44 4.01c2.26.8 4.98 1.2 8.16 1.2 2.48 0 4.44-.46 5.9-1.38a4.5 4.5 0 0 0 2.17-4.04 7.52 7.52 0 0 0-.7-3.25c-.2-.4-.53-.77-.98-1.12a16.5 16.5 0 0 0-1.23-.85 9.79 9.79 0 0 0-1.74-.76c-.8-.28-1.47-.5-2-.67l-2.52-.76-2.89-.88c-4.72-1.41-8.08-2.95-10.09-4.6-2.01-1.67-3.02-4.15-3.02-7.44 0-4.09 1.33-7.23 3.97-9.43 2.65-2.2 6.43-3.3 11.36-3.3Zm-44.7 0c4.77 0 10.22 1.38 16.36 4.14l-2.22 6.4c-6.32-2.31-11.1-3.47-14.33-3.47-2.36 0-4.17.46-5.44 1.38a4.56 4.56 0 0 0-1.9 3.93c0 .52.06 1 .2 1.42.13.42.39.81.77 1.16.37.35.71.64 1.01.85.3.23.83.47 1.56.75a75.92 75.92 0 0 0 3.93 1.37l2.28.76 4.9 1.63c1.21.41 2.49.93 3.82 1.56 1.34.63 2.35 1.25 3.05 1.88.7.63 1.36 1.4 1.98 2.29a8.5 8.5 0 0 1 1.3 3.03c.24 1.12.36 2.43.36 3.92 0 3.89-1.42 6.95-4.26 9.2-2.84 2.24-6.68 3.36-11.52 3.36a31.34 31.34 0 0 1-19.22-6.52l3.53-5.77a32.06 32.06 0 0 0 7.44 4.01c2.27.8 4.99 1.2 8.16 1.2 2.48 0 4.44-.46 5.9-1.38a4.5 4.5 0 0 0 2.17-4.04 7.52 7.52 0 0 0-.7-3.25c-.2-.4-.52-.77-.98-1.12a18.9 18.9 0 0 0-1.22-.85 9.79 9.79 0 0 0-1.75-.76c-.8-.28-1.47-.5-2-.67l-2.52-.76-2.89-.88c-4.71-1.41-8.08-2.95-10.09-4.6-2-1.67-3.01-4.15-3.01-7.44 0-4.09 1.32-7.23 3.96-9.43 2.65-2.2 6.44-3.3 11.36-3.3Zm364.3-3.9v24.39h11.3c4.71.03 8.34-1.01 10.87-3.13 2.5-2.08 3.74-5.05 3.71-8.88 0-4-1.29-7.05-3.87-9.18s-6.24-3.2-10.98-3.2Zm-419.04-1.95c-.6 2.3-1.31 4.55-2.13 6.76l-9.3 22.57h22.86l-9.3-22.57a72.97 72.97 0 0 1-2.13-6.76Zm345.57-4.17h8.4v10.93h12.96v7.07H512.4v22.1c0 2.86.55 4.78 1.66 5.76 1.1.98 3.04 1.47 5.82 1.47 2.18 0 4.36-.15 6.53-.45l.9 6.18a30 30 0 0 1-10.2 2.06c-4.62 0-7.96-1.14-10.01-3.44-2.06-2.3-3.09-6.03-3.09-11.2v-22.48h-6.57v-7.07h6.57Zm-144.43 0h8.38v10.93h12.97v7.07h-12.97v22.1c0 2.86.56 4.78 1.66 5.76 1.1.98 3.05 1.47 5.83 1.47 2.17 0 4.35-.15 6.52-.45l.91 6.18a30.09 30.09 0 0 1-10.2 2.06c-4.62 0-7.96-1.14-10.02-3.44-2.06-2.3-3.08-6.03-3.08-11.2v-22.48H353v-7.07h6.58Zm209.32-1.86h19.61c7.44 0 13.18 1.75 17.2 5.24 4.03 3.49 6.04 8.48 6.04 14.98 0 6.45-1.98 11.42-5.94 14.9-3.96 3.49-9.6 5.23-16.91 5.23h-11.43v16.27h-8.57Zm-416.13 0h11.43l23.57 56.62h-9.2l-5.49-13.28h-29.24l-5.49 13.28h-9.15Zm140.63-4.58c1.43 0 2.62.41 3.58 1.23a4.28 4.28 0 0 1 1.43 3.44 4.2 4.2 0 0 1-1.45 3.4 5.34 5.34 0 0 1-3.56 1.23c-1.41 0-2.6-.42-3.56-1.25a4.23 4.23 0 0 1-1.45-3.38c0-1.48.48-2.63 1.44-3.44a5.31 5.31 0 0 1 3.57-1.23Zm441.83-1.4c3.38 0 6.22.28 8.52.84l-.63 6.5a70.29 70.29 0 0 0-6.53-.27c-2.88 0-4.88.67-6.01 2s-1.7 3.43-1.7 6.3v3.4h13.42v7.07h-13.42v36.76h-8.39v-36.76h-6.08v-7.07h6.08v-3.44c0-5.24 1.17-9.1 3.51-11.59 2.34-2.5 6.08-3.74 11.23-3.74Z"/>
    <path fill="#015495" d="M136.27 1012.85c-.8-.21-2-.8-2.61-1.27a7.1 7.1 0 0 1-2.52-4.38c-.13-.81-.2-59.52-.07-60.65.13-1.22.28-1.79.72-2.68a6.35 6.35 0 0 1 3.06-3.06 6.8 6.8 0 0 1 2.57-.72c.97-.12 59.3-.12 60.2 0a6.4 6.4 0 0 1 2.47.65 6.47 6.47 0 0 1 3.25 3.26c.72 1.53.66-1.84.66 32.62v30.61l-.2.71c-.12.39-.4 1.09-.64 1.53a6.85 6.85 0 0 1-3.96 3.29l-.6.22-30.86.01c-30.49.02-30.86.02-31.47-.14Zm61.92-4.46a2.39 2.39 0 0 0 1.42-2.16c0-1.03.85-.11-13.01-13.99L174 979.65l-.95.98c-1.21 1.22-1.61 1.54-2.56 2.01-.95.47-1.7.64-2.92.64-2.2 0-3.34-.52-5.28-2.43l-1.19-1.16-12.69 12.7c-12.18 12.19-12.7 12.72-12.83 13.14a2.37 2.37 0 0 0 1.28 2.85l.5.25h60.34l.49-.24Zm-51.41-20.63c6.12-6.13 11.12-11.16 11.12-11.2 0-.13-22.22-22.33-22.33-22.33-.08 0-.1 4.5-.1 22.32 0 17.8.02 22.32.09 22.32.06 0 5.1-5 11.22-11.11Zm52.83-11.2c0-17.8-.03-22.33-.1-22.33-.11 0-22.34 22.22-22.34 22.33 0 .11 22.23 22.31 22.33 22.31.08 0 .1-4.5.1-22.32Zm-31.06 2.14c.28-.14 3.78-3.6 15.46-15.27 9.77-9.78 15.16-15.23 15.3-15.48.31-.52.38-1.25.18-1.86-.2-.58-.9-1.29-1.46-1.48-.37-.13-2.56-.13-30.53-.13h-30.13l-.44.2c-.6.28-1.18.9-1.36 1.44a2.4 2.4 0 0 0 .16 1.8 2465 2465 0 0 0 30.62 30.66c.19.12.47.25.64.29.42.1 1.13.02 1.56-.17Zm2.91 141.22a39.53 39.53 0 0 0 36.9-31.83c.53-2.66.72-4.68.72-7.67a39.42 39.42 0 0 0-14.13-30.3 39.42 39.42 0 0 0-30.29-8.91 39.54 39.54 0 0 0-34.21 33.6c-.3 2.09-.37 3.13-.37 5.58 0 2.46.07 3.6.37 5.65a39.55 39.55 0 0 0 33.5 33.51c1.84.26 3.02.35 5.13.37h2.38Zm-4.47-4.4a68.54 68.54 0 0 1-4.07-4.56 56.45 56.45 0 0 1-6.64-10.28 36.07 36.07 0 0 1-1.25-2.76 47.13 47.13 0 0 1 12.12-2.2l.51-.04v10.19c0 8.05-.02 10.2-.07 10.2s-.31-.25-.6-.55Zm4.5-9.77v-10.08l.45.04 1.34.1a46.13 46.13 0 0 1 10.44 2 56.4 56.4 0 0 1-9.57 15.2 47.9 47.9 0 0 1-2.61 2.8c-.02 0-.05-4.53-.05-10.06Zm5.9 9.43.53-.63a59.28 59.28 0 0 0 9.47-15.46c.09-.08 3.62 1.54 5.12 2.36 1.72.95 3.94 2.32 3.94 2.44 0 .13-3.07 3.14-3.86 3.8a35.8 35.8 0 0 1-15.22 7.57c-.01 0 0-.04.03-.08Zm-16.83-.24a35.55 35.55 0 0 1-17.8-11c-.05-.09.03-.16.65-.56a49.25 49.25 0 0 1 7.9-4.12c.04 0 .25.4.47.92a58.9 58.9 0 0 0 8.5 13.62l.94 1.16c.08.1.13.18.1.18l-.76-.2Zm35.78-15.73a50.3 50.3 0 0 0-6.32-3.22c-.66-.29-1.23-.53-1.25-.56-.03-.02.02-.26.1-.53a52.44 52.44 0 0 0 1.58-6.63 49.73 49.73 0 0 0 .6-5.74l.04-.2 7.05.02 7.05.02-.02.37a35.36 35.36 0 0 1-6.04 17.68l-.27.38-.8-.52a60.1 60.1 0 0 0-1.72-1.07Zm-56.56.84a35.82 35.82 0 0 1-5.76-16.66 15.9 15.9 0 0 0-.07-.79l-.03-.26h13.64l.05.79c.2 3.63.92 7.65 2.02 11.22.17.58.32 1.1.32 1.16.01.09-.24.22-1.13.6a53.35 53.35 0 0 0-8.37 4.6c-.07.05-.14.07-.17.06a7.6 7.6 0 0 1-.5-.72Zm13.73-6.2a44.23 44.23 0 0 1-2.05-10.99l-.02-.5 8.1-.01 8.12-.01v9.49l-1.22.07a53.19 53.19 0 0 0-11.85 2.1 5.8 5.8 0 0 1-.89.24c-.04 0-.13-.18-.2-.38Zm30.57.01a52.54 52.54 0 0 0-11.37-1.96l-1.22-.07v-9.49h15.69v.27a46.86 46.86 0 0 1-2.13 11.53 49 49 0 0 1-.97-.28Zm6.97-15.49a44.35 44.35 0 0 0-.35-3.97 50.45 50.45 0 0 0-2.04-9 4.95 4.95 0 0 1-.25-.98 52.21 52.21 0 0 0 8.86-4.49 5.89 5.89 0 0 1 1.09-.6 35.4 35.4 0 0 1 6.84 18.91l.03.27h-14.14l-.04-.14Zm-19.56-5.17v-5.3l.6-.04a53.03 53.03 0 0 0 12.57-2.17c.04-.03.51 1.4.85 2.57.87 3.05 1.45 6.4 1.65 9.59l.04.66h-15.71v-5.3Zm-20.05 4.86a45.53 45.53 0 0 1 1.58-9.56c.33-1.12.92-2.96.96-2.96l.73.2a52.99 52.99 0 0 0 12.34 2.12l.61.04v10.6h-16.25l.03-.44Zm-17.49.22.07-.8a35.72 35.72 0 0 1 6.77-18.14c.03-.03.52.23 1.1.59a53.5 53.5 0 0 0 7.87 4.07c.3.12.54.24.54.28a56.7 56.7 0 0 0-1.33 4.5 47.82 47.82 0 0 0-1.34 8.54l-.07 1.19h-13.64l.03-.23Zm37.54-23.75v-9.47l.7.71a58.07 58.07 0 0 1 10.54 15.13c.28.6.5 1.1.48 1.14a45.57 45.57 0 0 1-11.21 1.94l-.51.01v-9.46Zm-6.52 9.3a49.6 49.6 0 0 1-8.77-1.66c-.3-.1-.6-.18-.67-.2-.05-.01-.1-.06-.1-.1 0-.14 1.68-3.45 2.33-4.58a57.55 57.55 0 0 1 7.05-9.71 23.7 23.7 0 0 1 2.73-2.8c.12 0 .12.24.12 9.62v9.61l-.88-.04c-.48-.03-1.3-.09-1.8-.14Zm20.95-5.18a58.68 58.68 0 0 0-7.88-12.1c-.44-.53-.79-.96-.77-.96a35.6 35.6 0 0 1 17.72 9.81l.86.86-.52.34c-2.02 1.31-5.31 3-7.84 4.02l-.52.2-.15-.3-.9-1.87Zm-35.3 1.53a56.01 56.01 0 0 1-6.8-3.58l-.52-.34.9-.9a35.65 35.65 0 0 1 17.04-9.6l-.73.9a59.5 59.5 0 0 0-8.17 12.7 8.08 8.08 0 0 1-.66 1.24c-.04 0-.51-.19-1.05-.42Z"/>
    <path fill="#005596" d="M1913.26 691.17h5.07v5.06c0-2.8-2.27-5.06-5.07-5.06Zm-18.81 0h5.07a5.07 5.07 0 0 0-5.07 5.06Zm-28.97 0h5.08v5.06c0-2.8-2.28-5.06-5.08-5.06Zm-18.81 0h5.07a5.07 5.07 0 0 0-5.07 5.06Zm-28.97-23.84h5.08v5.07c0-2.8-2.28-5.07-5.08-5.07Zm76.75-5.06c0 2.8 2.27 5.06 5.07 5.06h-5.07Zm-23.89 0v5.06h-5.08c2.8 0 5.08-2.26 5.08-5.06Zm-23.89 0c0 2.8 2.27 5.06 5.07 5.06h-5.07Zm114.36-18.77h5.08v5.07c0-2.8-2.27-5.07-5.08-5.07Zm-66.58 0h5.07a5.07 5.07 0 0 0-5.07 5.07Zm-100.64 0h5.08v5.07c0-2.8-2.27-5.07-5.08-5.07Zm172.3-28.9v5.07h-5.08a5.07 5.07 0 0 0 5.08-5.07Zm-47.78 0c0 2.8 2.28 5.07 5.08 5.07h-5.08Zm-23.89 0v5.07h-5.07c2.8 0 5.07-2.27 5.07-5.07Zm5.08-42.6h13.74c2.8 0 5.07 2.27 5.07 5.06v18.77h-9.05 9.05v23.84h-9.05 9.05v9.63-9.63h23.89v9.63-9.63h23.89v9.63-9.63h8.84-8.84V600.9c0-2.8 2.27-5.07 5.08-5.07h13.73a5.07 5.07 0 0 1 5.08 5.07v18.77h-6.47 6.47v23.83h-6.47 6.47v18.77c0 2.8-2.27 5.06-5.08 5.06h-13.73a5.07 5.07 0 0 1-5.08-5.06V643.5h8.84-8.84v-5.64 5.64h-23.89v-5.64 5.64h-23.89v-5.64 5.64h-23.88v-5.64h-.01v5.64h-5.24 5.24v23.83h-5.24 5.24v7.01h.01v-7h23.88v7-7h18.82c2.8 0 5.07 2.26 5.07 5.06v18.77h-5.78 5.78v18.77c0 2.8-2.27 5.06-5.07 5.06h-13.74a5.08 5.08 0 0 1-5.08-5.06v-18.77h9.53-9.53v-8.27 8.27h-23.88v-8.27h-.01v8.27h-5.24 5.24v18.77c0 2.8-2.27 5.06-5.07 5.06h-13.74a5.07 5.07 0 0 1-5.07-5.06v-18.77h10.05-10.05v-8.27 8.27h-23.89v-8.27 8.27h-7.57 7.57v18.77c0 2.8-2.28 5.06-5.08 5.06h-13.74a5.07 5.07 0 0 1-5.07-5.06v-18.77h7.74-7.74v-23.84h7.74-7.74v-10.07 10.07h-18.81a5.07 5.07 0 0 1-5.08-5.06V643.5h10.88-10.88V634v9.5h-18.81a5.07 5.07 0 0 1-5.08-5.07v-13.7c0-2.8 2.27-5.06 5.08-5.06h18.81v5.78-5.78h23.89v5.78-5.78h18.81c2.8 0 5.08 2.26 5.08 5.06v18.77h-7.57 7.57v23.83h-7.57 7.57v7.01-7h23.89v7-7h10.05-10.05V643.5h10.05-10.05v-18.77c0-2.8 2.27-5.06 5.07-5.06h18.81v9.63h.01v-9.63h6.25-6.25v-23.84h6.25-6.25v-18.77c0-2.8 2.27-5.06 5.07-5.06ZM1656 900.9a5.1 5.1 0 0 0 5.1 5.1h-5.1v-5.1Zm-18.9-18.9h13.8a5.1 5.1 0 0 1 5.1 5.1V906h18.9a5.1 5.1 0 0 1 5.1 5.1v37.8a5.1 5.1 0 0 1-5.1 5.1h-37.8a5.1 5.1 0 0 1-5.1-5.1v-61.8a5.1 5.1 0 0 1 5.1-5.1Zm-28.6.43h4.99a5.03 5.03 0 0 0-4.99 5.07v-5.07Zm0-28.93v5.07h-4.99a5.03 5.03 0 0 0 4.99-5.07Zm-4.99-18.79h4.99v5.07c0-2.8-2.24-5.07-4.99-5.07Zm4.99-28.92v5.07h-4.99a5.03 5.03 0 0 0 4.99-5.07Zm4.99-18.79h13.52a5.03 5.03 0 0 1 4.99 5.07v85.29c0 2.8-2.24 5.07-4.99 5.07h-18.51v66.5c0 2.8-2.24 5.07-4.99 5.07h-13.52a5.03 5.03 0 0 1-4.99-5.07v-85.29c0-2.8 2.24-5.07 4.99-5.07h18.51v-23.86h-18.51a5.03 5.03 0 0 1-4.99-5.07v-13.71c0-2.8 2.24-5.07 4.99-5.07h18.51v-18.8c0-2.8 2.24-5.06 4.99-5.06Zm524.61 48h18.9v8.15V835h18.9a5 5 0 0 1 5.1 4.89v13.22a5 5 0 0 1-5.1 4.89H2157v-6.59V858h-18.9a5 5 0 0 1-5.1-4.89V839.9a5 5 0 0 1 5.1-4.89ZM1799 1115.9a5.1 5.1 0 0 0 5.1 5.1h-5.1Zm0-18.9h5.1a5.1 5.1 0 0 0-5.1 5.1Zm0-29.1a5.1 5.1 0 0 0 5.1 5.1h-5.1Zm0-18.9h5.1a5.1 5.1 0 0 0-5.1 5.1Zm-18.9-24h18.9v7.89-7.89h24v7.89-7.89h18.9a5.1 5.1 0 0 1 5.1 5.1v13.8a5.1 5.1 0 0 1-5.1 5.1H1823v-7.49 7.49h-24v-7.49 7.49h-5.86 5.86v24h-5.86 5.86v8.49-8.49h18.9a5.1 5.1 0 0 1 5.1 5.1v13.8a5.1 5.1 0 0 1-5.1 5.1H1799v-6.88 6.88h-5.86 5.86v24h-5.86 5.86v9.76-9.76h18.9a5.1 5.1 0 0 1 5.1 5.1v13.8a5.1 5.1 0 0 1-5.1 5.1H1799v-5.62 5.62h-18.9a5.1 5.1 0 0 1-5.1-5.1V1121h9.52-9.52v-24h9.52-9.52v-24h9.52-9.52v-24h9.52-9.52v-18.9a5.1 5.1 0 0 1 5.1-5.1Z"/>
    <path fill="#005596" d="M1828.1 1097h18.9v8.68-8.68h18.9a5.1 5.1 0 0 1 5.1 5.1v13.8a5.1 5.1 0 0 1-5.1 5.1H1847v-6.7 6.7h-18.9a5.1 5.1 0 0 1-5.1-5.1v-13.8a5.1 5.1 0 0 1 5.1-5.1Zm66.57-29.1c0 2.82 2.25 5.1 5.03 5.1h-5.03Zm-18.64-18.9h13.61a5.07 5.07 0 0 1 5.03 5.1v18.9h-5.5 5.5v7.56-7.56h23.66v7.56-7.56h18.64a5.06 5.06 0 0 1 5.03 5.1v13.8c0 2.82-2.25 5.1-5.03 5.1h-18.64v-7.82 7.82h-23.66v-7.82 7.82h-18.64a5.06 5.06 0 0 1-5.03-5.1V1073h9.67-9.67v-18.9c0-2.82 2.25-5.1 5.03-5.1Zm275.87 24h5.1v5.1a5.1 5.1 0 0 0-5.1-5.1Zm-13.8-24h18.9v7.67-7.67h18.9a5.1 5.1 0 0 1 5.1 5.1v18.9h-7.71 7.71v18.9a5.1 5.1 0 0 1-5.1 5.1h-13.8a5.1 5.1 0 0 1-5.1-5.1V1073h7.67-7.67v-7.71 7.71h-18.9a5.1 5.1 0 0 1-5.1-5.1v-13.8a5.1 5.1 0 0 1 5.1-5.1Zm18.9-76.1v5.1h-5.1a5.1 5.1 0 0 0 5.1-5.1Zm-5.1-42.9h5.1v5.1a5.1 5.1 0 0 0-5.1-5.1Zm-24-24h5.1v5.1a5.1 5.1 0 0 0-5.1-5.1Zm29.1-5.1a5.1 5.1 0 0 0 5.1 5.1h-5.1Zm-42.9-18.9h18.9v7.67V882h18.9a5.1 5.1 0 0 1 5.1 5.1V906h-7.89 7.89v7.67V906h18.9a5.1 5.1 0 0 1 5.1 5.1V930h-7.54 7.54v24h-7.54 7.54v24h-7.54 7.54v18.9a5.1 5.1 0 0 1-5.1 5.1H2157v-6.88 6.88h-24v-6.88 6.88h-18.9a5.1 5.1 0 0 1-5.1-5.1v-13.8a5.1 5.1 0 0 1 5.1-5.1h18.9v8.5-8.5h24v8.5-8.5h7.84-7.84v-24h7.84-7.84v-24h7.84-7.84v-7.7 7.7h-18.9a5.1 5.1 0 0 1-5.1-5.1V906h7.49-7.49v-7.7 7.7h-18.9a5.1 5.1 0 0 1-5.1-5.1v-13.8a5.1 5.1 0 0 1 5.1-5.1Zm-57.46.25h5.03v5.05a5.04 5.04 0 0 0-5.03-5.05Zm28.69-23.75h5.03a5.04 5.04 0 0 0-5.03 5.05Zm-23.66-28.8a5.04 5.04 0 0 0 5.03 5.05h-5.03Zm-18.64-18.7h13.61a5.04 5.04 0 0 1 5.03 5.05v18.7h-8.38 8.38v7.6-7.6h23.66v7.6-7.6h18.64a5.04 5.04 0 0 1 5.03 5.05v13.65a5.04 5.04 0 0 1-5.03 5.05h-18.64v-7.62 7.62h-7.79 7.79v23.75h-7.79 7.79v18.7a5.04 5.04 0 0 1-5.03 5.05h-13.6a5.04 5.04 0 0 1-5.03-5.05v-18.7h7.37-7.37v-9.37 9.37h-18.64a5.04 5.04 0 0 1-5.03-5.05v-18.7h6.78-6.78v-23.75h6.78-6.78v-18.7a5.04 5.04 0 0 1 5.03-5.05Zm-243.63 18.14v5.06h-5.06c2.8 0 5.06-2.26 5.06-5.06Zm-5.06-18.74h5.06v5.06c0-2.8-2.26-5.06-5.06-5.06Zm-23.8-23.8h5.06v5.06c0-2.8-2.26-5.06-5.06-5.06Zm52.66-23.8h5.06a5.06 5.06 0 0 0-5.06 5.06Zm-76.46 0h5.06v5.06c0-2.8-2.26-5.06-5.06-5.06Zm76.46-23.8h18.74c2.8 0 5.06 2.26 5.06 5.06v13.68c0 2.8-2.26 5.06-5.06 5.06h-18.74v-6.96 6.96h-9.33 9.33v23.8h-9.33 9.33v23.8h-9.33 9.33v23.8h-9.33 9.33v18.74c0 2.8-2.26 5.06-5.06 5.06h-18.74v-9.17V858h-18.74a5.05 5.05 0 0 1-5.06-5.06v-13.68c0-2.8 2.26-5.06 5.06-5.06h18.74v6.08-6.08h5.92-5.92v-23.8h5.92-5.92v-10.13 10.13h-18.74a5.06 5.06 0 0 1-5.06-5.06V786.6h10.33-10.33v-7.42 7.42h-18.74a5.06 5.06 0 0 1-5.06-5.06V762.8h11.44-11.44v-6.96 6.96h-18.74a5.05 5.05 0 0 1-5.06-5.06v-13.68c0-2.8 2.26-5.06 5.06-5.06h18.74v8.28V739h23.8v8.28V739h23.8v8.28V739h23.8v8.28Zm-95.06 167.13h5.07a5.07 5.07 0 0 0-5.07 5.07Zm-28.92 0h5.07v5.07c0-2.8-2.27-5.07-5.07-5.07Zm5.07-28.95c0 2.8 2.27 5.07 5.07 5.07h-5.07Zm-28.93-18.8h5.07v5.07c0-2.8-2.27-5.07-5.07-5.07Zm5.07-76.7c0 2.8 2.27 5.07 5.07 5.07h-5.07Zm0-18.8h5.07a5.07 5.07 0 0 0-5.07 5.07Zm-28.93 0h5.07v5.07c0-2.8-2.27-5.07-5.07-5.07Zm-42.64 0h5.07a5.07 5.07 0 0 0-5.07 5.07Zm-23.86 0h23.86v18.8c0 2.8-2.27 5.07-5.07 5.07h-13.72a5.07 5.07 0 0 1-5.07-5.07Zm95.43-23.88h18.79c2.8 0 5.07 2.27 5.07 5.07v13.73c0 2.8-2.27 5.07-5.07 5.07h-18.79v-7.65 7.65h-5.81 5.81v23.88h-5.81 5.81v6.2-6.2h18.79c2.8 0 5.07 2.27 5.07 5.07v18.8h-7.35 7.35v23.88h-7.35 7.35v23.88h-7.35 7.35v23.87h-7.35 7.35v7.63-7.63h23.85v7.63-7.63h18.79c2.8 0 5.07 2.27 5.07 5.07v13.73c0 2.8-2.27 5.08-5.07 5.08h-18.79v-7.67 7.66h-8.8 8.8v18.8c0 2.8-2.27 5.08-5.07 5.08h-13.71a5.07 5.07 0 0 1-5.07-5.07v-18.8h6.48-6.48v-7.67 7.66h-18.79a5.07 5.07 0 0 1-5.07-5.07v-18.8h7.94-7.94v-23.87h7.94-7.94v-9.2 9.2h-18.79a5.07 5.07 0 0 1-5.07-5.08v-18.8h9.14-9.14v-23.87h9.14-9.14v-23.88h9.48-9.48v-23.88h9.48-9.48v-7.65 7.65h-23.86v-7.65 7.65h-23.85v-7.65 7.65H1585v-18.8c0-2.8 2.27-5.07 5.07-5.07h18.79v7.64V739h23.85v7.64V739h23.86v7.64V739h23.86v7.64Z"/>
    <path fill="#005596" d="M2080.57 1121.09h5.06v5.08c0-2.8-2.27-5.08-5.06-5.08Zm-90.31 0h5.07a5.08 5.08 0 0 0-5.07 5.08Zm166.9-5.08a5.07 5.07 0 0 0 5.07 5.08h-5.07Zm-100.44-18.83h5.07v5.08c0-2.8-2.27-5.08-5.07-5.08Zm-18.77 0h5.06a5.08 5.08 0 0 0-5.06 5.08Zm95.37-5.08a5.06 5.06 0 0 0 5.06 5.08h-5.06Zm-23.85 0v5.08h-5.06c2.8 0 5.06-2.27 5.06-5.08Zm-23.84 0a5.07 5.07 0 0 0 5.07 5.08h-5.07Zm-95.37 0v5.08h-5.06a5.07 5.07 0 0 0 5.06-5.08Zm95.37-18.83h5.07a5.08 5.08 0 0 0-5.07 5.08Zm-100.43 0h5.06v5.08c0-2.8-2.27-5.08-5.06-5.08Zm-23.85-23.91h5.07v5.08c0-2.8-2.27-5.08-5.07-5.08Zm100.44-28.99v5.08h-5.07c2.8 0 5.07-2.27 5.07-5.08Zm-71.53 0a5.07 5.07 0 0 0 5.07 5.08h-5.07Zm-71.52 0v5.08h-5.07c2.8 0 5.07-2.27 5.07-5.08Zm-5.07-18.82h5.07v5.08a5.07 5.07 0 0 0-5.07-5.08Zm171.96-5.09a5.07 5.07 0 0 0 5.07 5.08h-5.07Zm-119.21 0v5.08h-5.07c2.8 0 5.07-2.27 5.07-5.08Zm-23.84 0a5.07 5.07 0 0 0 5.07 5.08h-5.07Zm-95.37-18.82h5.07a5.07 5.07 0 0 0-5.07 5.08Zm-28.91 0h5.07v5.08c0-2.8-2.27-5.08-5.07-5.08Zm-18.77 0h5.06a5.07 5.07 0 0 0-5.06 5.08Zm119.21-5.09v5.09h-5.07c2.8 0 5.07-2.28 5.07-5.09Zm166.89-18.82h5.07a5.08 5.08 0 0 0-5.07 5.08Zm-28.91 0h5.07v5.08c0-2.8-2.27-5.08-5.07-5.08Zm-66.46 0h5.07a5.08 5.08 0 0 0-5.07 5.08Zm-28.91 0h5.07v5.08c0-2.8-2.27-5.08-5.07-5.08Zm-18.77 0h5.07a5.08 5.08 0 0 0-5.07 5.08Zm-28.91 0h5.07v5.08c0-2.8-2.27-5.08-5.07-5.08Zm-18.77 0h5.06a5.07 5.07 0 0 0-5.06 5.08Zm-124.28 0h5.06v5.08c0-2.8-2.26-5.08-5.06-5.08Zm100.43-5.08v5.08h-5.06a5.07 5.07 0 0 0 5.06-5.08Zm-71.52 0c0 2.8 2.26 5.08 5.06 5.08h-5.06Zm190.73-2.32v7.4h-7.48 7.48v23.9h-7.48 7.48v23.91h-7.48v.01h7.48v23.9h-7.04v.01h7.04v10.16-10.16h23.85v12.29-12.29h23.84v12.29-12.29h23.84v12.29-12.29h8.86v-.01h-8.86v-23.9h8.86v-.01h-8.86v-23.9h8.86-8.86v-23.91h8.86-8.86v-7.4 7.4h-23.84v-7.4 7.4h-23.84v-7.4 7.4h-23.85v-7.4Zm-47.68 0v7.4h-5.61 5.61v23.9h-5.61 5.61v23.91h-5.61v.01h5.61v7.39-7.39h23.84v7.39-7.39h7.79v-.01h-7.79v-23.9h7.79-7.79v-23.91h7.79-7.79v-7.4 7.4h-23.84v-7.4Zm71.53-21.6a5.07 5.07 0 0 0 5.06 5.09h-5.06Zm-23.85 0v5.09h-5.06a5.07 5.07 0 0 0 5.06-5.08Zm-71.52 0a5.08 5.08 0 0 0 5.06 5.09h-5.06Zm-23.85 0v5.09h-5.06c2.8 0 5.06-2.28 5.06-5.08Zm-119.21 0v5.09h-5.06c2.8 0 5.06-2.28 5.06-5.08Zm238.43-18.82h5.06a5.07 5.07 0 0 0-5.06 5.08Zm-124.28 0h5.06v5.08c0-2.8-2.26-5.08-5.06-5.08Zm-90.3 0h5.06a5.07 5.07 0 0 0-5.06 5.08ZM1780.75 882h18.78v7.86V882h18.77c2.8 0 5.07 2.27 5.07 5.08v13.75c0 2.8-2.27 5.08-5.07 5.08h-18.77v-7.46 7.46h-7.28 7.28v23.9h-7.28 7.28v23.92h-7.28 7.28v7.64-7.64h23.84v7.64-7.64h23.84v7.64-7.64h23.84v7.64-7.64h8.87-8.87V934.9c0-2.8 2.27-5.08 5.07-5.08h18.77v7.92h.01v-7.92h7.62-7.62V905.9h7.62-7.62v-6.05h-.01v6.05h-18.77a5.07 5.07 0 0 1-5.07-5.08v-13.75c0-2.8 2.27-5.08 5.07-5.08h18.77v9.27h.01V882h18.77c2.8 0 5.07 2.27 5.07 5.08v18.83h-7.66 7.66v23.9h-7.66 7.66v7.93-7.92h23.84v7.92-7.92h23.84v7.92-7.92h23.84v7.92-7.92h8.95-8.95V905.9h8.95-8.95v-18.83c0-2.8 2.27-5.08 5.07-5.08h18.78v8.8-8.8h18.77c2.8 0 5.07 2.27 5.07 5.08v13.75c0 2.8-2.27 5.08-5.07 5.08h-18.77v-6.53 6.53h-6.34 6.34v23.9h-6.34 6.34v7.93-7.92h23.84v7.92-7.92h23.84v7.92-7.92h23.84v7.92-7.92h18.78c2.8 0 5.06 2.27 5.06 5.08v13.75c0 2.8-2.26 5.08-5.06 5.08h-18.78v-7.4 7.4h-6.42 6.42v23.9h-6.42 6.42v23.91h-6.42v.01h6.42v9.27-9.27h18.78c2.8 0 5.06 2.27 5.06 5.08v18.82h-10.96v.01h10.96v23.9h-10.96 10.96v18.83a5.06 5.06 0 0 1-5.06 5.08h-18.78v-8.21 8.21h-6.42 6.42v23.91h-6.42 6.42v7.22-7.22h23.84v8.79-8.79h8.01-8.01v-18.83c0-2.8 2.27-5.08 5.07-5.08h13.71c2.8 0 5.07 2.28 5.07 5.08v18.83h-7.28 7.28v8.79-8.79h18.77c2.8 0 5.07 2.28 5.07 5.08v18.83h-8.08 8.08v7.64-7.64h18.77c2.8 0 5.07 2.28 5.07 5.08v13.75a5.07 5.07 0 0 1-5.07 5.08h-18.77v-7.68 7.68h-23.84v-10.08V1145h-23.85v-10.08V1145h-18.77a5.07 5.07 0 0 1-5.07-5.08v-18.83h7.64-7.64v-8.11 8.11h-18.77a5.07 5.07 0 0 1-5.07-5.08v-18.83h8.86-8.86v-7.79 7.79h-23.84v-7.79 7.79h-8.94 8.94v18.83a5.07 5.07 0 0 1-5.07 5.08h-18.77v-6.43 6.43h-23.85v-7 7h-10.74 10.74v18.83a5.07 5.07 0 0 1-5.06 5.08h-18.78v-8.61 8.61h-18.77a5.07 5.07 0 0 1-5.07-5.08v-18.83h9.99-9.99v-18.83c0-2.8 2.27-5.08 5.07-5.08h18.77v8.32-8.32h23.84v8.32-8.32h11.8-11.8v-23.91h10.26-10.26v-8.7 8.7h-18.77a5.07 5.07 0 0 1-5.07-5.08v-18.83h11.49-11.49v-7 7h-23.84v-7 7h-23.84v-7 7h-18.78a5.06 5.06 0 0 1-5.06-5.08v-13.74a5.06 5.06 0 0 1 5.06-5.08h18.78v8.31-8.31h9.21v-.01h-9.21v-23.9h9.67v-.01h-9.67v-8.39 8.39h-18.78a5.06 5.06 0 0 1-5.06-5.08v-13.74c0-2.8 2.26-5.08 5.06-5.08h18.78v6.92-6.92h9.67-9.67v-23.91h9.67-9.67v-7.4 7.4h-23.84v-7.4h-.01v7.4h-6.41 6.41v18.82a5.07 5.07 0 0 1-5.06 5.09h-18.78v-7.68 7.68h-23.84v-7.68 7.68h-6.71 6.71v18.82a5.07 5.07 0 0 1-5.07 5.08h-13.71a5.07 5.07 0 0 1-5.06-5.08v-18.82h8.57-8.57v-7.68 7.68h-23.84v-7.68 7.68h-7.28 7.28v18.82a5.07 5.07 0 0 1-5.07 5.08h-13.71a5.07 5.07 0 0 1-5.07-5.08v-18.82h8.01-8.01v-23.91h8.01-8.01v-8.17 8.17h-23.84v-8.17 8.17h-18.77a5.08 5.08 0 0 1-5.07-5.08V934.9c0-2.8 2.27-5.08 5.07-5.08h18.77v7.15-7.15h23.84v7.15-7.15h8.01-8.01V905.9h8.01-8.01v-18.83c0-2.8 2.27-5.08 5.07-5.08Zm84.99-47.75h5.06v5.05a5.06 5.06 0 0 0-5.06-5.05Zm76.46-23.75h5.06a5.05 5.05 0 0 0-5.06 5.05Zm-28.86 0h5.06v5.05a5.05 5.05 0 0 0-5.06-5.05Zm-18.74 0h5.06a5.05 5.05 0 0 0-5.06 5.05Zm-23.8-28.8a5.05 5.05 0 0 0 5.06 5.05h-5.06Zm-18.74-18.7h13.68a5.06 5.06 0 0 1 5.06 5.05v18.7h-9.44 9.44v7.6-7.6h23.8v7.6-7.6h23.8v7.6-7.6h23.8v7.6-7.6h18.74c2.8 0 5.06 2.26 5.06 5.05v13.65a5.05 5.05 0 0 1-5.06 5.05h-18.74v-7.62 7.62h-7.83 7.83v18.7a5.05 5.05 0 0 1-5.06 5.05h-13.68a5.05 5.05 0 0 1-5.06-5.05v-18.7h7.42-7.42v-7.62 7.62h-23.8v-7.62 7.62h-9.39 9.39v23.75h-7.53 7.53v18.7a5.06 5.06 0 0 1-5.06 5.05h-13.68a5.05 5.05 0 0 1-5.06-5.05v-18.7h7.72-7.72v-9.49 9.49h-18.74a5.05 5.05 0 0 1-5.06-5.05v-18.7h11.31H1847v-23.75h5.81-5.81v-18.7a5.05 5.05 0 0 1 5.06-5.05Z"/>
    <path fill="#005596" d="M1985.22 763h5.07v5.1c0-2.82-2.27-5.1-5.07-5.1Zm28.92-5.1c0 2.82 2.27 5.1 5.07 5.1h-5.07Zm-95.43-24c0 2.82 2.27 5.1 5.07 5.1h-5.07Zm-23.85 0v5.1h-5.07c2.8 0 5.07-2.28 5.07-5.1Zm71.57 0v5.1h-5.07c2.8 0 5.07-2.28 5.07-5.1Zm23.86 0c0 2.82 2.27 5.1 5.07 5.1h-5.07ZM1971.5 691h13.72c2.8 0 5.07 2.28 5.07 5.1V715h-6.04 6.04v24h-6.04 6.04v7.96V739h18.78c2.8 0 5.07 2.28 5.07 5.1V763h-6.33 6.33v11.48V763h18.79c2.8 0 5.07 2.28 5.07 5.1V787h-10.48H2038v18.9c0 2.82-2.27 5.1-5.07 5.1h-18.79v-9.97V811h-18.78a5.08 5.08 0 0 1-5.07-5.1V787h10.26-10.26v-24h8.95-8.95v-7.41 7.4h-23.86v-7.4 7.4h-23.86v-7.4 7.4h-23.86v-7.4 7.4h-23.85v-7.4 7.4h-18.79a5.08 5.08 0 0 1-5.07-5.1V744.1c0-2.82 2.27-5.1 5.07-5.1h18.79v7.96V739h7.63-7.63v-18.9c0-2.82 2.27-5.1 5.07-5.1h13.71c2.8 0 5.07 2.28 5.07 5.1V739h-7.65 7.65v7.96V739h23.86v7.96V739h23.86v7.96V739h9.25-9.25v-24h9.25-9.25v-18.9c0-2.82 2.27-5.1 5.07-5.1Zm-191.4-24h13.8a5.1 5.1 0 0 1 5.1 5.1V691h-7.41 7.41v18.9a5.1 5.1 0 0 1-5.1 5.1h-13.8a5.1 5.1 0 0 1-5.1-5.1V691h7.97-7.97v-18.9a5.1 5.1 0 0 1 5.1-5.1Zm143.93-119h18.64v6.01V548h23.66v6.01V548h18.64a5.06 5.06 0 0 1 5.03 5.1v13.8c0 2.82-2.25 5.1-5.03 5.1h-18.64v-9.37V572h-23.66v-9.37V572h-18.64a5.06 5.06 0 0 1-5.03-5.1v-13.8c0-2.82 2.25-5.1 5.03-5.1ZM1799 552.97a4.97 4.97 0 0 1 4.97-4.97h14.06a4.97 4.97 0 0 1 4.97 4.97v14.06a4.97 4.97 0 0 1-4.97 4.97h-14.06a4.97 4.97 0 0 1-4.97-4.97Zm-24 24a4.97 4.97 0 0 1 4.97-4.97h14.06a4.97 4.97 0 0 1 4.97 4.97v14.06a4.97 4.97 0 0 1-4.97 4.97h-14.06a4.97 4.97 0 0 1-4.97-4.97Zm48 0a4.97 4.97 0 0 1 4.97-4.97h14.06a4.97 4.97 0 0 1 4.97 4.97v14.06a4.97 4.97 0 0 1-4.97 4.97h-14.06a4.97 4.97 0 0 1-4.97-4.97Zm24 24a4.97 4.97 0 0 1 4.97-4.97h14.06a4.97 4.97 0 0 1 4.97 4.97v14.06a4.97 4.97 0 0 1-4.97 4.97h-14.06a4.97 4.97 0 0 1-4.97-4.97Zm191 143a4.97 4.97 0 0 1 4.97-4.97h14.06a4.97 4.97 0 0 1 4.97 4.97v14.06a4.97 4.97 0 0 1-4.97 4.97h-14.06a4.97 4.97 0 0 1-4.97-4.97Zm48-.21a4.76 4.76 0 0 1 4.76-4.76h13.48a4.76 4.76 0 0 1 4.76 4.76v14.48a4.76 4.76 0 0 1-4.76 4.76h-13.48a4.76 4.76 0 0 1-4.76-4.76Zm47 .21a4.97 4.97 0 0 1 4.97-4.97h14.06a4.97 4.97 0 0 1 4.97 4.97v14.06a4.97 4.97 0 0 1-4.97 4.97h-14.06a4.97 4.97 0 0 1-4.97-4.97Zm24 24a4.97 4.97 0 0 1 4.97-4.97h14.06a4.97 4.97 0 0 1 4.97 4.97v14.06a4.97 4.97 0 0 1-4.97 4.97h-14.06a4.97 4.97 0 0 1-4.97-4.97Zm-48 24a4.97 4.97 0 0 1 4.97-4.97h14.06a4.97 4.97 0 0 1 4.97 4.97v14.06a4.97 4.97 0 0 1-4.97 4.97h-14.06a4.97 4.97 0 0 1-4.97-4.97Zm-47 0a4.97 4.97 0 0 1 4.97-4.97h14.06a4.97 4.97 0 0 1 4.97 4.97v14.06a4.97 4.97 0 0 1-4.97 4.97h-14.06a4.97 4.97 0 0 1-4.97-4.97Zm-96 24a4.97 4.97 0 0 1 4.97-4.97h14.06a4.97 4.97 0 0 1 4.97 4.97v14.06a4.97 4.97 0 0 1-4.97 4.97h-14.06a4.97 4.97 0 0 1-4.97-4.97Zm-24 23.79a4.76 4.76 0 0 1 4.76-4.76h14.48a4.76 4.76 0 0 1 4.76 4.76v13.48a4.76 4.76 0 0 1-4.76 4.76h-14.48a4.76 4.76 0 0 1-4.76-4.76Zm24 23.21a4.97 4.97 0 0 1 4.97-4.97h14.06a4.97 4.97 0 0 1 4.97 4.97v14.06a4.97 4.97 0 0 1-4.97 4.97h-14.06a4.97 4.97 0 0 1-4.97-4.97Zm24-23.21a4.76 4.76 0 0 1 4.76-4.76h14.48a4.76 4.76 0 0 1 4.76 4.76v13.48a4.76 4.76 0 0 1-4.76 4.76h-14.48a4.76 4.76 0 0 1-4.76-4.76Zm-286-71.79a4.97 4.97 0 0 1 4.97-4.97h14.06a4.97 4.97 0 0 1 4.97 4.97v14.06a4.97 4.97 0 0 1-4.97 4.97h-14.06a4.97 4.97 0 0 1-4.97-4.97Zm24 24a4.97 4.97 0 0 1 4.97-4.97h14.06a4.97 4.97 0 0 1 4.97 4.97v14.06a4.97 4.97 0 0 1-4.97 4.97h-14.06a4.97 4.97 0 0 1-4.97-4.97Zm24 23.79a4.76 4.76 0 0 1 4.76-4.76h13.48a4.76 4.76 0 0 1 4.76 4.76v14.48a4.76 4.76 0 0 1-4.76 4.76h-13.48a4.76 4.76 0 0 1-4.76-4.76Zm-24 24a4.76 4.76 0 0 1 4.76-4.76h14.48a4.76 4.76 0 0 1 4.76 4.76v13.48a4.76 4.76 0 0 1-4.76 4.76h-14.48a4.76 4.76 0 0 1-4.76-4.76Zm119-119.79a4.97 4.97 0 0 1 4.97-4.97h14.06a4.97 4.97 0 0 1 4.97 4.97v14.06a4.97 4.97 0 0 1-4.97 4.97h-14.06a4.97 4.97 0 0 1-4.97-4.97Zm-95 142.79a4.76 4.76 0 0 1 4.76-4.76h13.48a4.76 4.76 0 0 1 4.76 4.76v14.48a4.76 4.76 0 0 1-4.76 4.76h-13.48a4.76 4.76 0 0 1-4.76-4.76Zm95 48.21a4.97 4.97 0 0 1 4.97-4.97h14.06a4.97 4.97 0 0 1 4.97 4.97v14.06a4.97 4.97 0 0 1-4.97 4.97h-14.06a4.97 4.97 0 0 1-4.97-4.97Zm0 95.79a4.76 4.76 0 0 1 4.76-4.76h14.48a4.76 4.76 0 0 1 4.76 4.76v13.48a4.76 4.76 0 0 1-4.76 4.76h-14.48a4.76 4.76 0 0 1-4.76-4.76Zm167-23.79a4.97 4.97 0 0 1 4.97-4.97h14.06a4.97 4.97 0 0 1 4.97 4.97v14.06a4.97 4.97 0 0 1-4.97 4.97h-14.06a4.97 4.97 0 0 1-4.97-4.97Zm-119 143a4.98 4.98 0 0 1 4.97-4.97h14.06a4.98 4.98 0 0 1 4.97 4.97v14.06a4.98 4.98 0 0 1-4.97 4.97h-14.06a4.98 4.98 0 0 1-4.97-4.97ZM1636.97 596h14.06l.34.07.34-.07h47.41a4.97 4.97 0 0 1 4.58 3l.3 1.46v62.17l-.3 1.46a4.95 4.95 0 0 1-2.65 2.61l-1.48.3h-63.05l-1.48-.3a4.9 4.9 0 0 1-3.04-4.52V600.9c0-2.7 2.23-4.9 4.97-4.9Zm0 430h14.06l.34.07.34-.07h47.41a4.97 4.97 0 0 1 4.58 3l.3 1.46v62.17l-.3 1.46a4.9 4.9 0 0 1-2.65 2.61l-1.48.3h-63.05l-1.48-.3a4.88 4.88 0 0 1-3.04-4.51v-61.29c0-2.7 2.23-4.9 4.97-4.9Zm429.93-430h13.87l.33.07.34-.07h46.75a4.89 4.89 0 0 1 4.51 3l.3 1.46v62.17l-.3 1.46a4.88 4.88 0 0 1-2.61 2.61l-1.46.3h-62.17l-1.46-.3a4.9 4.9 0 0 1-3-4.52V600.9c0-2.7 2.2-4.9 4.9-4.9Z"/>
    <path fill="#F58845" d="M1728.14 686.07v5.07h-5.07c2.8 0 5.07-2.27 5.07-5.07Zm-119.28 0c0 2.8 2.27 5.07 5.07 5.07h-5.07Zm0-114.21h5.07a5.07 5.07 0 0 0-5.07 5.07Zm114.21 0h5.07v5.07c0-2.8-2.27-5.07-5.07-5.07Zm-52.87-6.66v6.66h-61.34v-.32.32h-.24.24v61h-6.66 6.66v58.28h-.06.06v.38-.38h60.53v8.63h.01v-8.63h58.74v.25-.25h.06-.06v-58.28h8.63-8.63v-61h.24-.24v-.1.1h-57.94v-6.66Zm-56.61-17.2h56.61v8.63V548h57.94v.09-.09h18.79c2.8 0 5.07 2.27 5.07 5.07v18.79h-.24.24v61h-6.66 6.66v58.28h-.06.06v18.79c0 2.8-2.27 5.07-5.07 5.07h-18.79v-.25.25h-58.74v-6.66h-.01V715h-60.53v-.38.38h-18.79a5.07 5.07 0 0 1-5.07-5.07v-18.79h.06-.06v-58.28h8.63-8.63v-61h.24-.24v-18.79c0-2.8 2.27-5.07 5.07-5.07h18.79v.32-.32h4.73Zm543.55 138.07v5.07h-5.07c2.8 0 5.07-2.27 5.07-5.07Zm-119.28 0c0 2.8 2.27 5.07 5.07 5.07h-5.07Zm0-114.21h5.07a5.07 5.07 0 0 0-5.07 5.07Zm114.21 0h5.07v5.07c0-2.8-2.27-5.07-5.07-5.07Zm-52.87-6.66v6.66h-61.34v-.32.32h-.24.24v61h-6.66 6.66v58.28h-.06.06v.38-.38h60.53v8.63h.01v-8.63h58.74v.25-.25h.06-.06v-58.28h8.63-8.63v-61h.24-.24v-.1.1h-57.94v-6.66Zm-56.61-17.2h56.61v8.63V548h57.94v.09-.09h18.79c2.8 0 5.07 2.27 5.07 5.07v18.79h-.24.24v61h-6.66 6.66v58.28h-.06.06v18.79c0 2.8-2.27 5.07-5.07 5.07h-18.79v-.25.25h-58.74v-6.66h-.01V715h-60.53v-.38.38h-18.79a5.07 5.07 0 0 1-5.07-5.07v-18.79h.06-.06v-58.28h8.63-8.63v-61h.24-.24v-18.79c0-2.8 2.27-5.07 5.07-5.07h18.79v.32-.32h4.73Zm-314.45 568.07v5.07h-5.07c2.8 0 5.07-2.27 5.07-5.07Zm-119.28 0c0 2.8 2.27 5.07 5.07 5.07h-5.07Zm0-114.21h5.07a5.07 5.07 0 0 0-5.07 5.07Zm114.21 0h5.07v5.07c0-2.8-2.27-5.07-5.07-5.07Zm-52.87-6.66v6.66h-61.34v-.32.32h-.24.24v61h-6.66 6.66v58.28h-.06.06v.38-.38h60.53v8.63h.01v-8.63h58.74v.25-.25h.06-.06v-58.28h8.63-8.63v-61h.24-.24v-.09.09h-57.94v-6.66Zm-56.61-17.2h56.61v8.63V978h57.94v.09-.09h18.79c2.8 0 5.07 2.27 5.07 5.07v18.79h-.24.24v61h-6.66 6.66v58.28h-.06.06v18.79c0 2.8-2.27 5.07-5.07 5.07h-18.79v-.25.25h-58.74v-6.66h-.01v6.66h-60.53v-.38.38h-18.79a5.07 5.07 0 0 1-5.07-5.07v-18.79h.06-.06v-58.28h8.63-8.63v-61h.24-.24v-18.79c0-2.8 2.27-5.07 5.07-5.07h18.79v.32-.32h4.73Z"/>
    <path fill="#015495" d="m167.32 851.78 2.07.13a21.05 21.05 0 0 1 18.64 16.83l.35 3.53c.02.12.04.24.04.37l-.04.37a1.8 1.8 0 0 1-1.77 1.45c-1 0-1.8-.81-1.8-1.82l.01-.12-.3-3.05a17.42 17.42 0 0 0-17.01-14.02c-1.43.08-1.96-1.3-2-1.9-.03-.62.81-1.77 1.8-1.77Zm-33.14-13.13.34 6.9c3.24 32.24 28.67 57.84 60.6 60.92l6.16.3V892.1l-10.2-1.97-8.55-2.34c-2.07 2.06-2.92 2.85-4.99 4.9-2.07 2.25-3.12 3.02-6.4.9-11.01-6.5-17.56-14.6-24.01-25.14-1.38-3.07-1.81-3.92.42-6.08l4.9-5-.47-1.7c-1.2-4.7-2.16-9.46-2.9-14.32l-.33-2.7h-14.57Zm33.17-3.58h.16c19.42 0 35.4 14.93 37.31 34.06l.18 3.51-.05.29a1.76 1.76 0 0 1-3.44 0l-.03-.29h-.02l-.16-3.14c-1.74-17.33-16.2-30.85-33.8-30.85h-.18l-.33-.04a1.8 1.8 0 0 1 .36-3.54Zm-33.7-.07h17.09c.74 0 1.38.46 1.66 1.12l.66 4.62c.72 4.72 1.66 9.36 2.81 13.91l.5 1.79.13.44c.26.65.13 1.44-.4 1.97l-6.3 6.3c2.44 6.7 14.84 22.09 24.46 25.97l6.36-6.49c1.07-.97 2.9-.81 3.83-.43l4.14 1.13c4.5 1.17 9.09 2.13 13.75 2.85 1.71.36 2.5 1.39 2.62 2.82l-.07 17.39c-.15 2.08-1.35 2.6-3.31 2.61-39.53 0-71.58-32.42-71.58-72.41.03-2.4 1.77-3.53 3.65-3.59Z"/>
    <path fill="#FFF" d="M246.06 91.28h78.21v42.04h-15.74v114.5c0 66.1-21.46 98.18-81.76 98.18-34.22 0-57.58-13.28-70.61-34.02-11.68-18.53-11.68-39.27-11.68-64.16v-114.5H129V91.56h78.49v42.03h-15.2V234c0 42.04 4.88 62.23 34.48 62.23 29.6 0 34.5-20.2 34.5-62.23V133.6h-15.21Zm84.46-.28H500v65.55h-42.37v-23.23h-64.1v60.3h58.4v42.58h-58.4v64.44h15.2v42.6h-78.2v-42.6h15.75V133.32h-15.76Z"/>
    <path fill="#F58845" d="m981.55 298.5-5.44 17.96h11.22l-5.61-17.96Zm-433.34 0-5.45 17.96H554l-5.62-17.96Zm988.04-.25v15.57h10.9c2.52-.02 4.42-.55 5.69-1.6a5.6 5.6 0 0 0 1.91-4.53v-2.82c0-2.16-.62-3.8-1.88-4.93-1.26-1.12-3.16-1.69-5.72-1.7Zm-415.79 0c-3.27 0-5.64.82-7.1 2.49-1.46 1.66-2.17 4.17-2.14 7.52v15.65c-.03 3.63.68 6.18 2.14 7.65 1.46 1.46 3.83 2.17 7.1 2.12h5.78c3.28.05 5.67-.66 7.16-2.12 1.49-1.47 2.24-4.02 2.26-7.65v-15.65c.02-3.71-.71-6.32-2.2-7.83-1.49-1.51-3.9-2.24-7.22-2.19Zm-320.2 0v35.43h10.9c2.82-.01 4.98-.75 6.49-2.23 1.5-1.47 2.29-3.6 2.34-6.38V307.1c-.01-2.86-.77-5.06-2.28-6.57-1.5-1.51-3.7-2.27-6.55-2.28Zm-130.7 0v35.43h10.9c2.82-.01 4.99-.75 6.5-2.23 1.5-1.47 2.29-3.6 2.34-6.38V307.1c-.01-2.86-.77-5.06-2.28-6.57-1.5-1.51-3.7-2.27-6.55-2.28ZM1516.2 287h31.12c6.91-.06 12.04 1.24 15.39 3.9 3.34 2.66 5.01 7.04 4.99 13.14v4.47c-.05 3.81-.82 6.85-2.33 9.12a22.3 22.3 0 0 1-5.92 5.94 58.1 58.1 0 0 1 2.77 4.44 56.19 56.19 0 0 1 3.09 6.25c.74.12 1.58.25 2.53.38l3.16.44v9.84h-20.54v-10.58c-.76-2.46-1.37-4.3-1.83-5.53a15.5 15.5 0 0 0-1.39-2.92h-10.99v8.7l4.3.5v9.83h-24.1v-9.84l3.04-.47c1-.15 2-.27 2.99-.35v-36.51l-2.8-.4c-1.04-.14-2.2-.3-3.48-.51Zm-51.59 0h47.13v17.96h-8.58l-1.65-6.96h-17.01v12h13.87v11.83h-13.87v12.1h17.42l1.65-6.96h8.58v17.95h-47.29v-9.83a542.92 542.92 0 0 0 5.86-.83v-36.6l-2.77-.35c-.96-.11-2.07-.27-3.34-.47Zm-59.04 0h53.97v18.94h-9.48l-.83-7.61h-9.75v35.93a88.55 88.55 0 0 1 6.86.82v9.84h-27.32v-9.84a67.7 67.7 0 0 1 3.34-.44l3.35-.38v-35.93h-9.83l-.83 7.62h-9.48Zm-64.77 0h19.06l23.78 36.5v-26c-.78-.08-1.59-.18-2.41-.3l-2.54-.36V287h23.26v9.84c-1.07.2-2.12.37-3.15.52l-3.04.39v47.17h-14.18l-22.38-35.08v24.58a64 64 0 0 1 2.36.3l2.43.37v9.83h-22.94v-9.83l3.04-.48c1-.15 2-.27 2.99-.35v-36.43l-6.28-1Zm-51.59 0h47.12v17.96h-8.57l-1.65-6.96h-17.01v12h13.87v11.83h-13.87v12.1h17.42l1.65-6.96h8.58v17.95h-47.29v-9.83a542.92 542.92 0 0 0 5.86-.83v-36.6l-2.77-.35c-.97-.11-2.08-.27-3.34-.47Zm-134.13 0h19.06l23.78 36.5v-26c-.78-.08-1.59-.18-2.41-.3l-2.54-.36V287h23.27v9.84c-1.08.2-2.13.37-3.16.52l-3.03.39v47.17h-14.19l-22.38-35.08v24.58a64 64 0 0 1 2.36.3l2.43.37v9.83h-22.94v-9.83l3.04-.48c1-.15 2-.27 2.99-.35v-36.43l-6.28-1Zm-89.42 0h25.99v9.84l-3.05.48a50.1 50.1 0 0 1-3.05.35v36.59c1.02.08 2.04.2 3.05.35 1.01.15 2.03.3 3.05.48v9.83h-25.74v-9.83a105.9 105.9 0 0 1 5.86-.83v-36.6a91.52 91.52 0 0 1-6.11-.82Zm-59.04 0h53.97v18.94h-9.48l-.83-7.61h-9.75v35.93a88.55 88.55 0 0 1 6.86.82v9.84h-27.32v-9.84a67.7 67.7 0 0 1 3.34-.44l3.35-.38v-35.93h-9.83l-.83 7.62h-9.48Zm-42.4 0h27.81l15.6 47.18a57.5 57.5 0 0 1 7.09.9v9.84h-27.88v-9.84a66 66 0 0 1 5.36-.74l-1.98-6.22h-16.76l-1.33 6.14c.84.12 1.46.25 1.87.38.41.13 1.05.28 1.93.45v9.83h-24.59v-9.83a63.54 63.54 0 0 1 6.76-.92l11.73-36.59-2.47-.3-3.14-.44Zm-125.88 0h26.33v9.84a66.76 66.76 0 0 1-6.52.83v27.65c0 2.81.76 5.07 2.26 6.75 1.5 1.7 3.67 2.56 6.49 2.6h3.05c2.79-.04 4.94-.9 6.45-2.6 1.52-1.68 2.29-3.94 2.3-6.75V297.5c-.82-.08-1.66-.18-2.52-.3l-2.6-.36V287h22.94v9.84c-.86.16-1.73.3-2.59.4l-2.52.34v25.83c.02 7.71-1.68 13.41-5.12 17.1-3.43 3.69-8.77 5.52-16 5.49h-4.22c-7.4.03-12.88-1.8-16.42-5.49-3.54-3.69-5.3-9.38-5.28-17.1v-25.74c-1.03-.13-2.04-.25-3.04-.39-1-.13-2-.28-2.99-.44Zm-58.13 0h32.35c7.34 0 12.71 1.72 16.1 5.17 3.4 3.45 5.07 8.9 5.02 16.34v15.4c-.04 7.28-1.76 12.62-5.16 16-3.4 3.38-8.7 5.05-15.88 5.01h-32.19v-9.83a112 112 0 0 1 3.33-.52c1.01-.14 1.91-.27 2.7-.4v-36.42a227.51 227.51 0 0 1-6.27-.91Zm-51.6 0h47.13v17.96h-8.57L765.5 298h-17v12h13.87v11.83H748.5v12.1h17.43l1.65-6.96h8.57v17.95h-47.28v-9.83l3.3-.45c.96-.13 1.82-.26 2.56-.38v-36.6l-2.78-.35c-.96-.11-2.07-.27-3.33-.47Zm-79.1 0h32.36c7.34 0 12.7 1.72 16.1 5.17 3.4 3.45 5.07 8.9 5.02 16.34v15.4c-.04 7.28-1.76 12.62-5.16 16-3.4 3.38-8.7 5.05-15.88 5.01h-32.19v-9.83c1.2-.2 2.31-.38 3.33-.52 1.01-.14 1.91-.27 2.7-.4v-36.42a227.51 227.51 0 0 1-6.27-.91Zm-65.34 0h19.06L627 323.5v-26c-.78-.08-1.59-.18-2.41-.3l-2.55-.36V287h23.27v9.84c-1.07.2-2.12.37-3.15.52l-3.04.39v47.17h-14.18l-22.38-35.08v24.58l2.36.3 2.43.37v9.83h-22.94v-9.83l3.04-.48c1-.15 2-.27 2.98-.35v-36.43l-6.27-1Zm-53.3 0h27.82l15.6 47.18a57.35 57.35 0 0 1 7.1.9v9.84h-27.9v-9.84a66 66 0 0 1 5.37-.74l-1.98-6.22H540.1l-1.32 6.14c.84.12 1.46.25 1.87.38.4.13 1.05.28 1.93.45v9.83H518v-9.83a63.17 63.17 0 0 1 6.77-.92l11.72-36.59-2.47-.3-3.15-.44Zm729.77-1h3.64c3.04-.01 6.24.2 9.61.62 3.37.42 7.24 1.18 11.6 2.28v17.46h-11.47l-1.57-8.53a41.87 41.87 0 0 0-5.14-.55c-1.8-.08-3.8-.12-6.01-.11-2.89 0-5.09.84-6.58 2.5-1.49 1.67-2.24 4.12-2.25 7.35v18.55c.02 2.9.79 5.12 2.31 6.64 1.53 1.52 3.7 2.29 6.52 2.3h3.64c2.3 0 4.22-.5 5.75-1.51a10.19 10.19 0 0 0 3.66-4.62h11.47v10.67a35.72 35.72 0 0 1-9.73 5.12 32.36 32.36 0 0 1-10.41 1.83h-5.86c-7.22.02-12.52-1.76-15.91-5.32-3.4-3.57-5.13-9.05-5.21-16.44v-15.98c-.01-7.33 1.82-12.87 5.46-16.62 3.65-3.74 9.14-5.62 16.48-5.63Zm-141 0h8.09c7.37.06 12.83 2.13 16.39 6.21 3.56 4.09 5.33 9.88 5.31 17.38v13.24c.01 7.38-1.79 13.07-5.4 17.08-3.61 4.01-9.04 6.04-16.3 6.09h-8.09c-7.45-.05-13-2.08-16.64-6.08-3.64-4-5.49-9.67-5.56-17v-13.33c-.02-7.54 1.79-13.34 5.44-17.41 3.64-4.07 9.23-6.13 16.76-6.17Zm-196.04 0h3.63c3.04-.01 6.25.2 9.62.62a97.8 97.8 0 0 1 11.6 2.28v17.46h-11.48l-1.57-8.53a41.73 41.73 0 0 0-5.14-.55c-1.8-.08-3.8-.12-6-.11-2.9 0-5.1.84-6.58 2.5-1.5 1.67-2.25 4.12-2.25 7.35v18.55c.02 2.9.79 5.12 2.3 6.64 1.53 1.52 3.7 2.29 6.53 2.3h3.63c2.3 0 4.22-.5 5.76-1.51a10.18 10.18 0 0 0 3.65-4.62h11.47v10.67a35.77 35.77 0 0 1-9.73 5.12 32.32 32.32 0 0 1-10.4 1.83h-5.87c-7.21.02-12.52-1.76-15.91-5.32-3.39-3.57-5.13-9.05-5.2-16.44v-15.98c-.01-7.33 1.81-12.87 5.46-16.62 3.64-3.74 9.14-5.62 16.48-5.63Zm384.68-87.51-5.45 17.97h11.23l-5.61-17.97Zm-409.27 0-5.45 17.97h11.23l-5.61-17.97Zm465.28-.25v15.57h10.9c2.52-.01 4.42-.55 5.69-1.6 1.27-1.06 1.91-2.57 1.91-4.53v-2.81c0-2.16-.62-3.8-1.88-4.93-1.26-1.13-3.16-1.7-5.72-1.7Zm-278.58 0v15.57h10.9c2.52-.01 4.42-.55 5.69-1.6 1.27-1.06 1.91-2.57 1.91-4.53v-2.81c0-2.16-.62-3.8-1.88-4.93-1.25-1.13-3.16-1.7-5.72-1.7Zm-250.7 0c-3.28 0-5.64.83-7.1 2.5-1.46 1.66-2.18 4.17-2.15 7.52v15.64c-.03 3.63.69 6.18 2.15 7.65 1.46 1.47 3.82 2.18 7.1 2.12h5.78c3.28.06 5.66-.65 7.15-2.12 1.5-1.47 2.25-4.02 2.26-7.65v-15.64c.03-3.72-.7-6.33-2.2-7.84-1.49-1.5-3.9-2.23-7.21-2.18Zm619.29-11.25h24.83v9.84a126.73 126.73 0 0 1-4.79.67v12.67h21.06V197.5l-2.4-.3-2.47-.37V187h24.84v9.84c-1.03.17-2.07.33-3.1.48-1.03.15-2.06.26-3.09.35v36.6l3.09.38c1.06.13 2.1.28 3.1.44v9.84h-24.84v-9.84a220.2 220.2 0 0 1 4.87-.66v-12.67h-21.06v12.67a66.62 66.62 0 0 1 4.79.66v9.84h-24.83v-9.84c1.04-.16 2.09-.31 3.16-.45l3.11-.38v-36.59c-1.07-.09-2.13-.2-3.17-.35-1.04-.15-2.07-.3-3.1-.48Zm-110.06 0h31.12c6.91-.06 12.04 1.24 15.39 3.9 3.34 2.66 5 7.04 4.99 13.15v4.47c-.05 3.8-.82 6.85-2.33 9.11a22.3 22.3 0 0 1-5.92 5.95 61.44 61.44 0 0 1 5.85 10.68c.75.13 1.59.25 2.54.38l3.16.45v9.84h-20.54v-10.58c-.76-2.47-1.37-4.31-1.83-5.54a15.4 15.4 0 0 0-1.4-2.92h-10.98v8.7l4.29.5v9.84h-24.09v-9.84l3.04-.48c1-.14 2-.26 2.98-.35v-36.5c-.82-.13-1.75-.26-2.79-.4s-2.2-.31-3.48-.52Zm-53.3 0h27.82l15.6 47.18a57.5 57.5 0 0 1 7.09.91v9.84h-27.89v-9.84a51.33 51.33 0 0 1 5.37-.74l-1.98-6.22h-16.77l-1.32 6.13c.84.12 1.46.25 1.87.38.41.14 1.05.29 1.93.45v9.84h-24.59v-9.84c1.11-.2 2.23-.4 3.35-.55 1.12-.16 2.26-.28 3.42-.36l11.72-36.6c-.74-.07-1.56-.18-2.47-.3l-3.15-.44Zm-63.63 0h47.12v17.96h-8.58l-1.65-6.96h-17.01V210h13.87v11.83h-13.87v12.1h17.42l1.66-6.97h8.57v17.96h-47.29v-9.84l3.31-.45c.96-.13 1.82-.26 2.56-.38v-36.59l-2.78-.35c-.96-.12-2.07-.28-3.33-.48Zm-103.18 0h47.12v17.96h-8.57l-1.65-6.96h-17.02V210h13.88v11.83h-13.88v12.1h17.43l1.65-6.97h8.57v17.96h-47.28v-9.84l3.3-.45a93.1 93.1 0 0 0 2.56-.38v-36.59l-2.78-.35c-.96-.12-2.07-.28-3.33-.48Zm-58.47 0h31.12c6.91-.06 12.04 1.24 15.39 3.9 3.34 2.66 5.01 7.04 4.99 13.15v4.47c-.05 3.8-.82 6.85-2.33 9.11a22.3 22.3 0 0 1-5.92 5.95 58.1 58.1 0 0 1 2.77 4.44 56.36 56.36 0 0 1 3.09 6.24c.74.13 1.58.25 2.53.38l3.16.45v9.84h-20.54v-10.58c-.76-2.47-1.37-4.31-1.83-5.54-.46-1.22-.92-2.2-1.39-2.92h-10.99v8.7l4.3.5v9.84h-24.1v-9.84l3.04-.48c1-.14 2-.26 2.99-.35v-36.5c-.83-.13-1.76-.26-2.8-.4-1.04-.14-2.2-.31-3.48-.52Zm-79.68 0h53.97v18.95h-9.48l-.82-7.62h-9.75v35.93a94.8 94.8 0 0 1 6.86.83v9.84h-27.33v-9.84c1.02-.16 2.14-.31 3.35-.45 1.21-.13 2.32-.25 3.34-.38v-35.93h-9.83l-.82 7.62h-9.49Zm-104.3 0h27.8l15.6 47.18a57.42 57.42 0 0 1 7.1.91v9.84H904.3v-9.84a67.8 67.8 0 0 1 5.36-.75l-1.98-6.21H890.9l-1.32 6.13c.84.12 1.46.25 1.87.38.41.14 1.05.29 1.93.45v9.84H868.8v-9.84c1.11-.2 2.23-.4 3.35-.55 1.13-.16 2.26-.28 3.42-.36l11.72-36.6c-.74-.07-1.56-.18-2.47-.3l-3.14-.44Zm-194.33 0h47.53v17.96h-8.57l-1.65-6.96h-17.43v13.67h17.18v11.82h-17.18v10.77c.74.08 1.78.17 3.11.25l4.02.27c1.33.1 2.37.2 3.11.31v9.84h-29.88v-9.84a105.97 105.97 0 0 1 5.87-.83v-36.59a98.27 98.27 0 0 1-6.11-.83Zm-51.6 0h27.9v9.84a52.94 52.94 0 0 1-8 1v36.1h16.92l1.57-8.37h9.15v19.36h-47.28v-9.84a153.58 153.58 0 0 1 5.86-.83v-36.59a178.91 178.91 0 0 1-6.11-.83Zm-62.23 0h26.33v9.84a51.56 51.56 0 0 1-6.53.83v27.65c.02 2.82.77 5.07 2.27 6.76 1.5 1.69 3.66 2.55 6.49 2.6h3.05c2.79-.05 4.94-.91 6.45-2.6 1.52-1.69 2.29-3.94 2.3-6.76V197.5l-2.52-.3-2.6-.37V187h22.95v9.84c-.87.16-1.74.3-2.6.4l-2.52.35v25.83c.02 7.7-1.68 13.4-5.12 17.1-3.44 3.68-8.77 5.51-16 5.49h-4.22c-7.4.02-12.88-1.8-16.42-5.5-3.55-3.68-5.3-9.38-5.28-17.1v-25.74l-3.04-.38c-1-.13-2-.28-2.99-.45Zm852.21-.99h3.63a73.4 73.4 0 0 1 9.61.61 99.3 99.3 0 0 1 11.6 2.29v17.45h-11.47l-1.57-8.52a42.05 42.05 0 0 0-5.14-.55c-1.79-.09-3.79-.12-6-.12-2.9.01-5.09.85-6.59 2.5-1.49 1.67-2.24 4.12-2.24 7.36v18.54c.01 2.9.78 5.12 2.31 6.64 1.52 1.53 3.69 2.29 6.52 2.3h3.63c2.3 0 4.22-.5 5.76-1.51a10.23 10.23 0 0 0 3.65-4.62h11.47v10.68a35.72 35.72 0 0 1-9.73 5.11 32.32 32.32 0 0 1-10.41 1.84h-5.86c-7.22.01-12.52-1.76-15.91-5.33-3.39-3.57-5.13-9.05-5.21-16.43v-15.98c0-7.34 1.82-12.88 5.47-16.62 3.64-3.75 9.14-5.63 16.48-5.64Zm-227.81 0h2.72c3.74 0 7.28.25 10.63.77 3.35.51 6.84 1.3 10.5 2.37v16.14h-10.89l-1.57-7.37c-1.2-.52-2.49-.87-3.88-1.03a34.82 34.82 0 0 0-4.38-.21h-2.89c-2.53-.03-4.34.34-5.43 1.1-1.08.77-1.61 2.11-1.59 4.03v.74a4.84 4.84 0 0 0 .92 3.2c.63.78 1.7 1.37 3.21 1.77l16.77 3.98c4.19 1 7.15 2.59 8.87 4.76 1.73 2.16 2.56 5.32 2.51 9.47v3.56c.05 5.8-1.62 10.03-4.99 12.7-3.38 2.66-8.76 3.97-16.14 3.93h-3.8a47.16 47.16 0 0 1-13.48-1.65 139.5 139.5 0 0 1-7.64-2.32v-15.06h11.46l1.49 7.04c1.45.56 2.94.93 4.48 1.1 1.53.17 3.32.24 5.35.23h1.32c3.12.05 5.28-.3 6.47-1.05 1.19-.75 1.76-2.2 1.7-4.34v-1.65c.07-1.68-.37-2.92-1.32-3.73-.94-.8-2.79-1.55-5.53-2.23l-13.63-3.31a27.79 27.79 0 0 1-7.46-3.12 9.65 9.65 0 0 1-3.83-4.7c-.74-1.95-1.1-4.53-1.08-7.75v-.83c-.05-5.79 1.62-10 4.99-12.64 3.38-2.64 8.76-3.94 16.14-3.9Zm-240.75 0h2.73c3.74 0 7.28.25 10.62.77 3.35.51 6.85 1.3 10.5 2.37v16.14h-10.89l-1.56-7.37c-1.2-.52-2.5-.87-3.89-1.03a34.81 34.81 0 0 0-4.37-.21h-2.9c-2.52-.03-4.33.34-5.42 1.1-1.09.77-1.62 2.11-1.6 4.03v.74a4.84 4.84 0 0 0 .93 3.2c.63.78 1.7 1.37 3.2 1.77l16.77 3.98c4.19 1 7.15 2.59 8.88 4.76 1.72 2.16 2.56 5.32 2.5 9.47v3.56c.05 5.8-1.61 10.03-4.99 12.7-3.38 2.66-8.75 3.97-16.13 3.93h-3.8a47.5 47.5 0 0 1-13.49-1.65 142.2 142.2 0 0 1-7.64-2.32v-15.06h11.47l1.48 7.04c1.45.56 2.95.93 4.48 1.1 1.54.17 3.32.24 5.35.23h1.32c3.12.05 5.28-.3 6.47-1.05 1.2-.75 1.76-2.2 1.7-4.34v-1.65c.07-1.68-.37-2.92-1.31-3.73-.95-.8-2.8-1.55-5.54-2.23l-13.62-3.31a27.69 27.69 0 0 1-7.46-3.12 9.58 9.58 0 0 1-3.83-4.7c-.75-1.95-1.1-4.53-1.09-7.75v-.83c-.04-5.79 1.62-10 5-12.64 3.37-2.64 8.75-3.94 16.13-3.9Zm-122.99 0h8.1c7.36.05 12.83 2.12 16.39 6.2 3.56 4.09 5.33 9.88 5.3 17.38v13.25c.01 7.37-1.8 13.06-5.4 17.07-3.6 4.01-9.04 6.04-16.3 6.1h-8.09c-7.45-.06-13-2.08-16.64-6.09-3.64-4-5.5-9.66-5.55-17v-13.33c-.02-7.54 1.79-13.34 5.43-17.4 3.64-4.08 9.23-6.13 16.76-6.18Zm-51.59 0h3.63c3.04-.02 6.25.19 9.62.61 3.37.43 7.23 1.19 11.6 2.29v17.45h-11.48l-1.57-8.52a42.12 42.12 0 0 0-5.13-.55c-1.8-.09-3.8-.12-6-.12-2.9.01-5.1.85-6.6 2.5-1.48 1.67-2.23 4.12-2.24 7.36v18.54c.02 2.9.79 5.12 2.31 6.64 1.52 1.53 3.7 2.29 6.52 2.3h3.63c2.3 0 4.22-.5 5.76-1.51a10.17 10.17 0 0 0 3.65-4.62h11.48v10.68a35.78 35.78 0 0 1-9.73 5.11 32.38 32.38 0 0 1-10.41 1.84h-5.87c-7.21.01-12.52-1.76-15.9-5.33-3.4-3.57-5.13-9.05-5.22-16.43v-15.98c0-7.34 1.82-12.88 5.47-16.62 3.65-3.75 9.14-5.63 16.48-5.64Zm-240.16 0h3.88c.97 0 2.64.12 5 .35a185.82 185.82 0 0 1 17.2 2.55v17.79h-11.47l-1.57-7.87c-1.65-.24-3.45-.4-5.38-.48-1.95-.07-4.03-.1-6.26-.1-3.06.06-5.5 1.1-7.34 3.13-1.83 2.02-2.77 4.68-2.82 7.97v15.88c.03 2.79.85 4.9 2.47 6.35 1.62 1.45 3.91 2.18 6.86 2.19h6.94c2.23-.02 4.04-.57 5.44-1.67a5.82 5.82 0 0 0 2.16-4.72v-1.65a723.81 723.81 0 0 1-13.95-1.33v-10.17h26.57v14.31c-.12 4.57-1.35 8.13-3.7 10.67a18.94 18.94 0 0 1-8.3 5.34 27.6 27.6 0 0 1-8.71 1.46h-7.93c-7.36.01-12.82-1.78-16.35-5.37-3.54-3.6-5.3-9.09-5.27-16.48v-14.23c.05-7.41 2.03-13.23 5.94-17.46 3.9-4.22 9.44-6.38 16.6-6.46Z"/>
    <path fill="#015495" d="M144.04 1201.26h3.88c1.2 0 2.17.98 2.17 2.2a2.2 2.2 0 0 1-2.18 2.2l-2.54.04-11.47 20.86h67.2l-11.47-20.86-2.54-.04a2.2 2.2 0 0 1-2.18-2.2c0-1.22.98-2.2 2.18-2.2h3.9c.6 0 1.15.25 1.54.65l.3.49 13.9 25.25a2.23 2.23 0 0 1-1.69 3.29l-.68.06h-73.72c-.91-.11-1.01-.22-1.51-.33a2.23 2.23 0 0 1-.85-3.02l13.88-25.25.33-.49.58-.4.02-.01Zm23.43-36.26a10.55 10.55 0 0 0-10.48 10.61c0 5.85 4.7 10.61 10.48 10.61 5.77 0 10.47-4.76 10.47-10.61s-4.7-10.61-10.47-10.61Zm0-3.9c7.9 0 14.32 6.51 14.32 14.51 0 8.01-6.43 14.52-14.32 14.52-7.9 0-14.33-6.51-14.33-14.52 0-8 6.43-14.51 14.33-14.51Zm0-6.2c-11.27 0-20.44 9.29-20.44 20.71 0 4.82 3.34 13.1 9.18 22.73 5.05 8.35 9.55 13.75 11.23 15.12 1.68-1.41 6.25-6.95 11.24-15.14 5.86-9.65 9.22-17.92 9.22-22.71 0-11.42-9.16-20.71-20.43-20.71Zm0-3.9c13.39 0 24.29 11.04 24.29 24.61 0 7.8-6.52 19.48-10.41 25.75a114.88 114.88 0 0 1-7.7 11.02c-3.86 4.81-5.17 5.21-6.18 5.21-1 0-2.39-.4-6.27-5.21a111.39 111.39 0 0 1-7.69-11.02c-3.86-6.26-10.33-17.92-10.33-25.75 0-13.57 10.9-24.61 24.29-24.61Z"/>
</svg>

