<?xml version="1.0" encoding="UTF-8" standalone="no"?>
<svg viewBox="-2 -2 36 36" xmlns="http://www.w3.org/2000/svg" xmlns:xlink="http://www.w3.org/1999/xlink">
   <rect x="-2" y="-2" width="36" height="36" style="fill:#00a99d"/>
   <use xlink:href="#as" x="3.2" y="3.2" fill="#000" opacity="0.001" />
   <use xlink:href="#as" x="3.1" y="3.1" fill="#000" opacity="0.002" />
   <use xlink:href="#as" x="3.1" y="3.1" fill="#000" opacity="0.003" />
   <use xlink:href="#as" x="2.9" y="2.9" fill="#000" opacity="0.004" />
   <use xlink:href="#as" x="2.8" y="2.8" fill="#000" opacity="0.005" />
   <use xlink:href="#as" x="2.7" y="2.7" fill="#000" opacity="0.006" />
   <use xlink:href="#as" x="2.6" y="2.6" fill="#000" opacity="0.007" />
   <use xlink:href="#as" x="2.5" y="2.5" fill="#000" opacity="0.008" />
   <use xlink:href="#as" x="2.4" y="2.4" fill="#000" opacity="0.009" />
   <use xlink:href="#as" x="2.3" y="2.3" fill="#000" opacity="0.010" />
   <use xlink:href="#as" x="2.2" y="2.2" fill="#000" opacity="0.011" />
   <use xlink:href="#as" x="2.1" y="2.1" fill="#000" opacity="0.012" />
   <use xlink:href="#as" x="2.0" y="2.0" fill="#000" opacity="0.013" />
   <use xlink:href="#as" x="1.9" y="1.9" fill="#000" opacity="0.014" />
   <use xlink:href="#as" x="1.8" y="1.8" fill="#000" opacity="0.015" />
   <use xlink:href="#as" x="1.7" y="1.7" fill="#000" opacity="0.016" />
   <use xlink:href="#as" x="1.6" y="1.6" fill="#000" opacity="0.017" />
   <use xlink:href="#as" x="1.5" y="1.5" fill="#000" opacity="0.018" />
   <use xlink:href="#as" x="1.4" y="1.4" fill="#000" opacity="0.019" />
   <use xlink:href="#as" x="1.3" y="1.3" fill="#000" opacity="0.020" />
   <use xlink:href="#as" x="1.2" y="1.2" fill="#000" opacity="0.021" />
   <use xlink:href="#as" x="1.1" y="1.1" fill="#000" opacity="0.022" />
   <use xlink:href="#as" x="1.0" y="1.0" fill="#000" opacity="0.023" />
   <use xlink:href="#as" x="0.9" y="0.9" fill="#000" opacity="0.024" />
   <use xlink:href="#as" x="0.8" y="0.8" fill="#000" opacity="0.025" />
   <use xlink:href="#as" x="0.7" y="0.7" fill="#000" opacity="0.026" />
   <use xlink:href="#as" x="0.6" y="0.6" fill="#000" opacity="0.027" />
   <use xlink:href="#as" x="0.5" y="0.5" fill="#000" opacity="0.028" />
   <use xlink:href="#as" x="0.4" y="0.4" fill="#000" opacity="0.029" />
   <use xlink:href="#as" x="0.3" y="0.3" fill="#000" opacity="0.030" />
   <use xlink:href="#as" x="0.2" y="0.2" fill="#000" opacity="0.031" />
   <use xlink:href="#as" x="0.1" y="0.1" fill="#000" opacity="0.032" />
   <use xlink:href="#as" fill="#FFF"/>
   <path fill="#bbb" d="M 8,21 H 7 l 1,-4 z"/>
   <path fill="#bbb" d="M 8,13 4,12 h 4 z" />
   <path fill="#bbb" d="M 12,12 V 8 L 11,12 Z" />
   <path fill="#bbb" d="m 12,21 4,-1 h -4 z" />
   <path fill="#bbb" d="m 24,20 h 4 L 24,19 Z" />
   <path fill="#bbb" d="m 24,14 v 4 l -1,-4 z" />
   <path fill="#bbb" d="M 20,8 V 12 h 1 z" />
   <path fill="#bbb" d="m 20,14 h -4 l 4,-1 v 1" />
   <path fill="#bbb" d="M 16,20 V 19 L 12,15 v 1 z" />
   <defs><path id="as" d="M 4,24 8,23 V 12 H 12 v 4 H 9 L 8,20 H 12 v 4 h 4 v -10 l 4,4 h 4 v 2 h -6 l -1,4 h 7 l 4,-4 V 18 L 24,14 H 20 V 12 h 6 L 27,8 H 20 L 16,12 12,8 H 8 L 4,12 Z" /></defs>
</svg>