<svg xmlns="http://www.w3.org/2000/svg" viewBox="0 0 770 98"><path d="M715.196 95.407c-64.74-2.377-128.947 2.14-197.44 0-25.517 0-46.807-16.06-51.73-37.407-.8-4.784-4.544-4.577-8.022-4.37-20.335 2.385-37.837 30.74-63.977 29.577-40.623-1.806-57.19-59.742-89.195-60.3S236.518 75.858 202 79.853s-42.62-24.94-81.83-32.976C59.212 34.382 20.028 39.24.002 37.712c44.523-3.772 84.034-.54 121.072 5.438s52.473 37.745 83.076 30.423 65.14-59.615 100.54-60.097 57.463 54.93 86.352 57.203c27.21 2.142 49.312-33.376 74.985-31.56C470.95 17.77 492.24 1.7 517.757 1.7c66.08 2.14 131.626-4.753 197.44 0C744.36 1.7 768 22.685 768 48.56s-23.64 46.848-52.804 46.848z"/></svg>