<svg xmlns="http://www.w3.org/2000/svg" 
    xmlns:xlink="http://www.w3.org/1999/xlink" overflow="hidden">
    <symbol id="sp1" viewBox="0 0 1280 720">
        <rect x="0" y="0" width="1280" height="720" fill="#4AA8DE"/>
    </symbol>
    <symbol id="sp2" viewBox="0 0 1280 720">
        <title>path2</title>
        <path d="M472 0 919.229 0 921.131 2.25648C922.771 4.86457 922.187 6.81249 921.667 10.6667 935.722 6.55559 947.194 13.361 952.333 25.3333 962.93 14.4514 975.062 6.7136 987.775 2.45701L997.109 0 1023.79 0 1026.7 0.468661C1052.53 6.55549 1076.87 27.9166 1092.08 67.25 1103.25 63.6667 1114.67 69.889 1116.08 76.5834 1140.5 55.5279 1182.17 59.0556 1201.33 82.9167 1211.5 63.5278 1226.17 66.1943 1235.08 78.4999 1233.53 45.7941 1256.51 29.2652 1280 30.4318L1280 720 0 720 0 30.2536C28.611 33.2802 38.2222 43.2234 49.3332 53.3333 119.667-20.2223 198.778 37.5556 202 54.6667 225.555 48.1111 232.333 56.8889 238.667 64 258.667 42.1111 280.889 37.7777 305.333 67.6667 317.111 55.8889 329.778 59.8889 337.333 65.3333 353.889 38.4444 399.555 37.2223 417 56.3333 425.111 50.7777 435 53.5556 439.667 58.6667 446 40.1111 467.333 38.6667 483 45 472 32.6667 465.778 20.5556 472 0Z" fill="#6DC5ED" fill-rule="evenodd"/>
    </symbol>
    <symbol id="sp3" viewBox="0 0 1280 720">
        <path d="M267 146.529C311.156 125.63 337.731 106.66 356.25 193.818 371.549 186.975 405.533 189.348 408 222.592 420.667 216.303 430.417 228.18 447.25 232.85 418.833 196.487 460 174.719 508 201.324 548.75 146.863 641.25 186.395 624.25 243.609 650.75 244.276 664.083 248.363 677.25 272.633 698.417 263.125 718.25 269.046 733 295.652 736.25 289.48 747.417 282.891 761 287.145 766.083 282.849 772.333 283.225 775.25 283.141 769.917 250.531 811.75 241.065 838.25 251.365 861.25 231.391 907.083 239.272 927 271.632 935.667 248.696 977.833 250.198 982 303.658 1001.42 298.571 1011.75 298.487 1030 302.657 1027 265.043 1037.33 234.185 1113.5 270.631 1105.17 228.013 1126.67 219.923 1163.25 225.594 1176.33 223.009 1180.75 196.904 1212 221.591 1203.5 194.485 1214.17 188.063 1243.75 191.816 1227.75 170.799 1222.62 109.541 1280 131.517L1280 720 0 720 0 131.801C6.01396 135.221 15.25 129.98 25.5833 132.768 35.9166 135.556 43.2639 145.904 62.0001 148.531 80.7363 151.158 95.2502 128.848 138 148.531 158.25 122.676 192 124.595 212 143.527 223 118.423 245.75 112.918 267 146.529Z" fill="#91D0EF" fill-rule="evenodd"/>
    </symbol>
    <symbol id="sp4" viewBox="0 0 1280 720">
        <path d="M838.205 243.655C869.874 225.513 893.635 233.928 914.833 260.611 927.116 260.706 940.146 261.508 949.398 275.732 1000.64 264.453 1035.87 314.946 1002.84 350.96 1017.81 347.967 1035.81 359.747 1036.19 369.796 1042.57 367.844 1052.08 366.208 1060.61 371.749 1076.14 360.287 1123.32 358.207 1141.36 390.038 1154.41 386.363 1165.38 392.427 1174.88 400.706 1189.37 375.98 1225.31 376.702 1234.84 404.207 1251.37 393.955 1261.44 391.249 1275.8 399.706 1277.38 398.048 1278.16 396.223 1279.47 395.501L1280 395.394 1280 720 0.249925 720C0.166582 611.767 0.0833433 503.535 0 395.302 48.2603 343.705 119.016 366.121 148.031 422.044 170.415 394.936 245.147 394.269 237.965 460.145 244.782 453.009 259.112 437.697 269.912 466.242 285.71 443.777 338.708 444.627 357.252 470.885 361.798 465.638 369.987 462.852 383.175 467.266 402.862 400.667 481.37 389.847 525.862 442.857 529.044 435.776 544.271 428.608 557.236 433.784 559.204 404.953 586.81 404.112 606.155 416.9 641.997 355.675 689.829 396.174 687.306 448.5 691.781 441.317 696.582 436.244 702.994 435.308 693.408 409.367 708.389 377.091 746.771 379.369 742.661 367.145 745.327 356.326 756.816 345.459 738.312 290.084 786.541 243.377 838.205 243.655Z" fill="#A5D9F1" fill-rule="evenodd"/>
    </symbol>
    <symbol id="sp5" viewBox="0 0 1280 720">
        <path d="M0 510.439C27.9881 506.277 38.4192 511.18 59.0001 524.662 77.5002 505.212 125 515.814 130.25 579.758 141.167 563.396 167.833 555.8 177.25 578.005 180.25 564.648 207.75 555.8 227.75 564.231 223.167 500.871 311.333 516.398 276 577.754 287.167 573.079 305.833 571.911 308 590.777 315.667 540.69 383.333 563.98 357 602.046 378.167 588.523 404.333 593.281 418 611.563 415.667 596.954 421.083 581.093 432.75 571.994 419.5 551.542 445 532.092 461 539.438 473.5 526.332 496 522.492 497 546.951 522.5 544.029 542.75 559.64 553.75 579.006 556.667 566.485 571.583 556.718 588 570.742 609.5 555.966 634.25 562.478 652.75 580.259 659.417 527.668 771.083 530.673 768.75 622.331 783.084 615.57 800.417 620.578 810.75 632.348 812.833 615.82 830.667 613.065 841 627.089 857.917 601.712 889.833 598.373 909.75 620.077 921.833 607.89 945.167 608.975 952.25 632.098 958.25 632.766 964 633.434 968 640.112 969 634.602 973.5 626.839 981.5 625.086 984.25 611.729 996.5 596.87 1019 606.804 1015.92 589.858 1027.83 583.681 1045 594.283 1044.25 586.686 1052.25 580.342 1063.75 583.514 1067.25 565.483 1080.25 557.469 1101.25 563.229 1133.08 504.878 1178.17 497.115 1207.25 559.473 1217.33 551.626 1233.42 552.544 1243.5 562.227 1248.31 539.435 1251.97 517.314 1280 510.638L1280 720 0 720 0 510.439Z" fill="#BFE4F4" fill-rule="evenodd"/>
    </symbol>

    <view id="sp1v" viewBox="0 0 1280 720"/>
    <view id="sp2v" viewBox="1280 0 1280 720"/>
    <view id="sp3v" viewBox="2560 0 1280 720"/>
    <view id="sp4v" viewBox="3840 0 1280 720"/>
    <view id="sp5v" viewBox="5120 0 1280 720"/>
    <use xlink:href="#sp1" width="1280" height="720" x="0" y="0"/>
    <use xlink:href="#sp2" width="1280" height="720" x="1280" y="0"/>
    <use xlink:href="#sp3" width="1280" height="720" x="2560" y="0" />
    <use xlink:href="#sp4" width="1280" height="720" x="3840" y="0"/>
    <use xlink:href="#sp5" width="1280" height="720" x="5120" y="0"/>

</svg>