<?xml version="1.0" encoding="UTF-8"?>
<svg xmlns="http://www.w3.org/2000/svg" style="display: none;">
  <symbol id="phone" viewBox="0 0 512 512">
    <path d="M493.4 24.6l-104-24c-11.3-2.6-22.9 3.3-27.5 13.9l-48 112c-4.2 9.8-1.4 21.3 6.9 28l60.6 49.6c-36 76.7-98.9 140.5-177.2 177.2l-49.6-60.6c-6.8-8.3-18.2-11.1-28-6.9l-112 48C3.9 366.5-2 378.1.6 389.4l24 104C27.1 504.2 36.7 512 48 512c256.1 0 464-207.5 464-464 0-11.2-7.7-20.9-18.6-23.4z"></path>
  </symbol>
  <symbol id="envelope" viewBox="0 0 512 512">
    <path d="M502.3 190.8c3.9-3.1 9.7-.2 9.7 4.7V400c0 26.5-21.5 48-48 48H48c-26.5 0-48-21.5-48-48V195.6c0-5 5.7-7.8 9.7-4.7 22.4 17.4 52.1 39.5 154.1 113.6 21.1 15.4 56.7 47.8 92.2 47.6 35.7.3 72-32.8 92.3-47.6 102-74.1 131.6-96.3 154-113.7zM256 320c23.2.4 56.6-29.2 73.4-41.4 132.7-96.3 142.8-104.7 173.4-128.7 5.8-4.5 9.2-11.5 9.2-18.9v-19c0-26.5-21.5-48-48-48H48C21.5 64 0 85.5 0 112v19c0 7.4 3.4 14.3 9.2 18.9 30.6 23.9 40.7 32.4 173.4 128.7 16.8 12.2 50.2 41.8 73.4 41.4z"></path>
  </symbol>
  <symbol id="briefcase" viewBox="0 0 512 512">
    <path d="M320 336c0 8.84-7.16 16-16 16h-96c-8.84 0-16-7.16-16-16v-48H0v144c0 25.6 22.4 48 48 48h416c25.6 0 48-22.4 48-48V288H320v48zm144-208h-80V80c0-25.6-22.4-48-48-48H176c-25.6 0-48 22.4-48 48v48H48c-25.6 0-48 22.4-48 48v80h512v-80c0-25.6-22.4-48-48-48zm-144 0H192V96h128v32z"></path>
  </symbol>
  <symbol id="map-marker-alt" viewBox="0 0 384 512">
    <path d="M172.268 501.67C26.97 291.031 0 269.413 0 192 0 85.961 85.961 0 192 0s192 85.961 192 192c0 77.413-26.97 99.031-172.268 309.67-9.535 13.774-29.93 13.773-39.464 0zM192 272c44.183 0 80-35.817 80-80s-35.817-80-80-80-80 35.817-80 80 35.817 80 80 80z"></path>
  </symbol>
  <symbol id="globe" viewBox="0 0 496 512">
    <path d="M336.5 160C322 70.7 287.8 8 248 8s-74 62.7-88.5 152h177zM152 256c0 22.2 1.2 43.5 3.3 64h185.3c2.1-20.5 3.3-41.8 3.3-64s-1.2-43.5-3.3-64H155.3c-2.1 20.5-3.3 41.8-3.3 64zm324.7-96c-28.6-67.9-86.5-120.4-158-141.6 24.4 33.8 41.2 84.7 50 141.6h108zM177.2 18.4C105.8 39.6 47.8 92.1 19.3 160h108c8.7-56.9 25.5-107.8 49.9-141.6zM487.4 192H372.7c2.1 21 3.3 42.5 3.3 64s-1.2 43-3.3 64h114.6c5.5-20.5 8.6-41.8 8.6-64s-3.1-43.5-8.5-64zM120 256c0-21.5 1.2-43 3.3-64H8.6C3.2 212.5 0 233.8 0 256s3.2 43.5 8.6 64h114.6c-2-21-3.2-42.5-3.2-64zm39.5 96c14.5 89.3 48.7 152 88.5 152s74-62.7 88.5-152h-177zm159.3 141.6c71.4-21.2 129.4-73.7 158-141.6h-108c-8.8 56.9-25.6 107.8-50 141.6zM19.3 352c28.6 67.9 86.5 120.4 158 141.6-24.4-33.8-41.2-84.7-50-141.6h-108z"></path>
  </symbol>
  <symbol id="tomato" viewBox="0 0 496 512">
    <path d="M336.5 160C322 70.7 287.8 8 248 8s-74 62.7-88.5 152h177zM152 256c0 22.2 1.2 43.5 3.3 64h185.3c2.1-20.5 3.3-41.8 3.3-64s-1.2-43.5-3.3-64H155.3c-2.1 20.5-3.3 41.8-3.3 64zm324.7-96c-28.6-67.9-86.5-120.4-158-141.6 24.4 33.8 41.2 84.7 50 141.6h108zM177.2 18.4C105.8 39.6 47.8 92.1 19.3 160h108c8.7-56.9 25.5-107.8 49.9-141.6zM487.4 192H372.7c2.1 21 3.3 42.5 3.3 64s-1.2 43-3.3 64h114.6c5.5-20.5 8.6-41.8 8.6-64s-3.1-43.5-8.5-64zM120 256c0-21.5 1.2-43 3.3-64H8.6C3.2 212.5 0 233.8 0 256s3.2 43.5 8.6 64h114.6c-2-21-3.2-42.5-3.2-64zm39.5 96c14.5 89.3 48.7 152 88.5 152s74-62.7 88.5-152h-177zm159.3 141.6c71.4-21.2 129.4-73.7 158-141.6h-108c-8.8 56.9-25.6 107.8-50 141.6zM19.3 352c28.6 67.9 86.5 120.4 158 141.6-24.4-33.8-41.2-84.7-50-141.6h-108z"></path>
  </symbol>
  <symbol id="jlab" viewBox="0 0 925 207">
      <path d="M471.945 0.00189303 477.615 0.00189303C485.396-0.00525842 492.766 0.522476 499.725 1.58489 506.685 2.6474 513.964 4.2874 521.563 6.50498L521.563 39.8968 498.915 39.8968 495.654 24.6473C493.156 23.5657 490.464 22.859 487.58 22.5272 484.695 22.1954 481.659 22.0455 478.474 22.0777L472.461 22.0777C467.192 22.0169 463.427 22.7807 461.165 24.3691 458.903 25.9574 457.8 28.7345 457.858 32.7003L457.858 34.2424C457.818 37.0374 458.455 39.2435 459.769 40.8605 461.083 42.4776 463.309 43.6984 466.448 44.523L501.317 52.7474C510.035 54.8321 516.19 58.1161 519.783 62.5997 523.375 67.0831 525.112 73.6227 524.994 82.2184L524.994 89.5861C525.095 101.583 521.634 110.337 514.612 115.847 507.589 121.356 496.402 124.074 481.051 123.999L473.148 123.999C467.649 124.008 462.73 123.742 458.391 123.2 454.052 122.658 449.619 121.783 445.092 120.576 440.564 119.368 435.268 117.771 429.203 115.784L429.203 84.6172 453.053 84.6172 456.142 99.1813C459.162 100.345 462.268 101.102 465.46 101.452 468.653 101.801 472.361 101.959 476.584 101.923L479.333 101.923C485.829 102.026 490.317 101.305 492.798 99.7595 495.278 98.2139 496.459 95.2226 496.341 90.7855L496.341 87.3586C496.477 83.889 495.561 81.3188 493.592 79.6482 491.624 77.9776 487.787 76.4355 482.082 75.0219L453.74 68.1683C447.156 66.3111 441.983 64.1618 438.221 61.7207 434.459 59.2796 431.803 56.0389 430.252 51.9986 428.701 47.9583 427.952 42.6107 428.002 35.9559L428.002 34.2424C427.902 22.2529 431.363 13.5281 438.385 8.0682 445.408 2.60839 456.595-0.0803486 471.945 0.00189303Z" fill="var(--tomato1)" fill-rule="evenodd"/>
      <path d="M181 2 220.577 2 269.966 77.607 269.966 23.754C268.337 23.5789 266.665 23.3717 264.951 23.1323 263.236 22.8929 261.478 22.6429 259.677 22.3822L259.677 2 308 2 308 22.3822C305.772 22.8037 303.586 23.1609 301.443 23.4539 299.301 23.7468 297.201 24.0183 295.144 24.2685L295.144 122 265.679 122 219.205 49.3084 219.205 100.246C220.831 100.421 222.467 100.628 224.114 100.868 225.761 101.107 227.44 101.357 229.152 101.618L229.152 122 181.514 122 181.514 101.618C183.653 101.268 185.76 100.939 187.835 100.632 189.91 100.324 191.974 100.081 194.028 99.9028L194.028 24.44 181 22.3822 181 2Z" fill="var(--tomato1)" fill-rule="evenodd"/>
      <path d="M316 2 413.149 2 413.149 39.1978 395.472 39.1978 392.067 24.7827 356.991 24.7827 356.991 49.6657 385.596 49.6657 385.596 74.1629 356.991 74.1629 356.991 99.2174 392.917 99.2174 396.323 84.8025 414 84.8025 414 122 316.51 122 316.51 101.618C319.056 101.278 321.325 100.971 323.318 100.695 325.31 100.42 327.068 100.156 328.593 99.9019L328.593 24.0969C326.76 23.8542 324.853 23.6115 322.871 23.3686 320.889 23.1258 318.599 22.797 316 22.3822L316 2Z" fill="var(--tomato1)" fill-rule="evenodd"/>
      <path d="M577 2 634.507 2 634.507 22.3822C631.957 22.897 629.311 23.3258 626.569 23.6687 623.826 24.0117 620.967 24.2687 617.991 24.4397L617.991 99.2174 652.897 99.2174 656.132 81.9001 675 81.9001 675 122 577.51 122 577.51 101.618C580.141 101.193 582.453 100.842 584.445 100.567 586.438 100.292 588.154 100.071 589.593 99.9032L589.593 24.0972C587.388 23.8438 585.246 23.5797 583.169 23.3047 581.091 23.0298 579.035 22.7223 577 22.3822L577 2Z" fill="var(--tomato1)" fill-rule="evenodd"/>
      <path d="M708.812 2 766.734 2 799.222 99.7318C801.803 99.9066 804.331 100.157 806.804 100.481 809.278 100.806 811.677 101.185 814 101.618L814 122 755.918 122 755.918 101.616C757.791 101.273 759.631 100.974 761.439 100.717 763.246 100.46 765.13 100.246 767.088 100.074L762.964 87.1938 728.051 87.1938 725.302 99.9007C727.038 100.155 728.334 100.419 729.189 100.695 730.045 100.97 731.384 101.278 733.206 101.618L733.206 122 682 122 682 101.618C684.316 101.185 686.643 100.806 688.981 100.481 691.318 100.155 693.688 99.9058 696.09 99.7318L720.5 23.9259C718.971 23.7544 717.259 23.54 715.365 23.2827 713.471 23.0253 711.287 22.7252 708.812 22.3822L708.812 2ZM744.917 25.813 733.571 63.0395 756.949 63.0395 745.26 25.813 744.917 25.813Z" fill="var(--tomato1)" fill-rule="evenodd"/>
      <path d="M818 2.00147 879.908 2.00147C894.486 1.92969 905.002 4.64253 911.456 10.14 917.91 15.6375 921.072 24.3502 920.944 36.2782L920.944 37.6509C920.919 43.5525 919.73 48.3905 917.376 52.165 915.023 55.9395 911.655 58.7596 907.272 60.6254 912.19 61.9843 916.028 64.8328 918.787 69.171 921.547 73.509 922.95 79.4043 922.996 86.8566L922.996 88.9155C923.125 101.681 920.005 110.429 913.637 115.159 907.269 119.889 896.881 122.166 882.474 121.991L818.513 121.991 818.513 101.61C821.075 101.185 823.391 100.835 825.462 100.559 827.532 100.284 829.378 100.063 830.999 99.8946L830.999 24.2691C829.292 24.0189 827.361 23.7472 825.205 23.4541 823.049 23.161 820.648 22.8037 818 22.3819L818 2.00147ZM859.541 25.2964 859.541 50.6916 878.196 50.6916C883.384 50.7809 887.171 50.0874 889.556 48.611 891.941 47.1347 893.118 44.3392 893.086 40.2247L893.086 37.8225C893.257 33.472 892.572 30.2904 891.032 28.2779 889.492 26.2652 886.069 25.2715 880.763 25.2964L859.541 25.2964ZM859.541 72.272 859.541 98.6958 878.196 98.6958C883.494 98.7029 887.445 97.5733 890.047 95.307 892.65 93.0407 893.948 89.5948 893.941 84.9692L893.941 82.567C893.938 78.3847 892.618 75.5964 889.983 74.2024 887.349 72.8082 883.419 72.1648 878.196 72.272L859.541 72.272Z" fill="var(--tomato1)" fill-rule="evenodd"/>
      <path d="M4.10765 2 58 2 58 22.378C55.9496 22.7276 53.8887 23.0558 51.817 23.3626 49.7453 23.6695 47.6416 23.9121 45.5057 24.0904L45.5057 80.6999 45.5057 102.253 45.5057 158.862C45.549 164.428 45.0634 169.181 44.0488 173.121 43.0343 177.062 41.2312 180.735 38.6393 184.142 36.0475 187.549 32.4074 191.236 27.7189 195.201 23.6714 198.437 20.6925 200.665 18.7823 201.886 16.8721 203.108 14.6621 204.479 12.152 206L0 194.516C1.13026 193.237 2.20714 191.98 3.23053 190.745 4.25382 189.509 5.63028 187.738 7.35961 185.431 11.1286 181.028 13.6888 176.935 15.0401 173.154 16.3916 169.372 17.0263 164.551 16.9442 158.691L16.9442 102.082 16.9442 80.6999 16.9442 24.0904C14.8049 23.9121 12.6654 23.6695 10.5259 23.3626L4.10765 22.378Z" fill="var(--tomato1)" fill-rule="evenodd"/>
      <path d="M642.843 142C643.883 142 644.935 142.171 646 142.513L645.851 146.431 645.926 150.093 644.774 150.752C643.586 149.531 642.075 148.921 640.243 148.921 637.371 148.921 635.761 150.007 635.414 152.18 635.241 153.278 635.154 155.475 635.154 158.771L635.154 163.897 638.534 163.897C640.218 163.897 642.397 163.8 645.071 163.605L645.591 164.007 644.737 168.182 644.366 168.548 639.054 168.511C637.172 168.511 635.872 168.523 635.154 168.548L635.154 175.066C635.154 186.149 635.328 192.069 635.674 192.826 635.872 193.265 636.207 193.546 636.677 193.668 637.42 193.839 639.129 193.961 641.803 194.034L642.174 194.4 642.174 196.634 641.803 197 639.054 196.89C636.43 196.792 633.582 196.744 630.511 196.744 626.079 196.744 622.699 196.829 620.371 197L620 196.634 620 194.4 620.371 194.034C622.749 193.961 624.222 193.778 624.792 193.485 625.287 193.265 625.559 192.679 625.609 191.727 625.782 188.554 625.869 183 625.869 175.066L625.869 168.548C625.324 168.523 624.99 168.511 624.866 168.511 624.593 168.511 623.875 168.548 622.711 168.621 622.142 168.646 621.362 168.682 620.371 168.731L620 168.365 620 167.23 620.334 166.717 623.64 165.033C624.284 164.74 624.965 164.386 625.683 163.971 625.807 163.824 625.869 163.605 625.869 163.312L625.869 162.762C625.869 159.003 626.116 156.44 626.612 155.073 626.884 154.34 627.404 153.51 628.172 152.583 628.394 152.314 630.004 150.776 633 147.969L635.303 145.808C635.971 145.149 636.826 144.368 637.866 143.465 639.228 142.488 640.887 142 642.843 142Z" fill="var(--tomato1)" fill-rule="evenodd"/>
      <path d="M727.815 142 728.593 142.441C728.593 143.102 728.556 144.315 728.482 146.078 728.235 151.932 728.111 158.411 728.111 165.514L728.111 174.993C728.111 182.953 728.198 188.525 728.37 191.709 728.42 192.665 728.691 193.253 729.185 193.473 729.753 193.767 731.222 193.951 733.593 194.024L734 194.391 734 196.633 733.63 197C731.284 196.829 727.901 196.743 723.482 196.743 719.062 196.743 715.691 196.829 713.37 197L713 196.633 713 194.391 713.37 194.024C715.741 193.951 717.21 193.767 717.778 193.473 718.272 193.253 718.543 192.665 718.593 191.709 718.765 188.525 718.852 182.953 718.852 174.993L718.852 162.685C718.852 157.541 718.765 153.377 718.593 150.193 718.543 149.287 718.272 148.693 717.778 148.411 717.284 148.13 715.852 147.952 713.481 147.878L713.111 147.474 713.111 145.454 713.481 145.049C718.247 144.535 723.025 143.519 727.815 142Z" fill="var(--tomato1)" fill-rule="evenodd"/>
      <path d="M877.354 142 878.16 142.441C878.16 142.539 878.112 143.75 878.014 146.076 877.794 151.339 877.684 159.247 877.684 169.798L877.684 181.659C877.684 188.538 877.843 192.32 878.16 193.006 878.356 193.422 878.625 193.679 878.967 193.777 879.505 193.948 880.727 194.107 882.633 194.254L883 194.622 883 196.605 882.633 196.972C880.238 196.8 878.075 196.715 876.144 196.715 874.311 196.715 871.83 196.8 868.701 196.972L868.371 196.715C868.469 195.515 868.518 193.508 868.518 190.692 867.638 191.427 866.379 192.553 864.742 194.071 862.713 195.956 861.393 197.082 860.782 197.449 860 197.816 858.729 198 856.969 198 852.789 198 849.416 196.421 846.85 193.263 844.283 190.105 843 186.017 843 180.998 843 176.126 843.99 172.332 845.97 169.614 846.483 168.904 847.998 167.644 850.516 165.832 853.449 163.727 855.588 162.393 856.932 161.83 858.105 161.34 859.596 161.095 861.405 161.095 863.947 161.095 866.318 161.634 868.518 162.711L868.518 160.654C868.518 154.216 868.359 150.422 868.041 149.271 867.87 148.634 867.369 148.243 866.538 148.096 866.147 148.022 865.023 147.949 863.165 147.875L862.798 147.472 862.798 145.452 863.165 145.048C867.858 144.558 872.588 143.542 877.354 142ZM859.938 165.906C856.566 165.906 854.39 167.644 853.412 171.12 852.875 173.054 852.606 175.208 852.606 177.583 852.606 182.651 853.791 186.408 856.162 188.856 857.409 190.154 859.083 190.803 861.185 190.803 862.921 190.803 864.534 190.252 866.025 189.15 867.369 188.171 868.163 187.118 868.408 185.992 868.481 185.649 868.518 182.797 868.518 177.436L868.518 170.533C866.758 168.427 865.071 167.081 863.458 166.493 862.358 166.101 861.185 165.906 859.938 165.906Z" fill="var(--tomato1)" fill-rule="evenodd"/>
      <path d="M296.518 143C297.999 143 299.283 143.579 300.37 144.736 301.457 145.894 302 147.322 302 149.019 302 150.666 301.462 152.074 300.388 153.244 299.313 154.415 298.023 155 296.518 155 294.989 155 293.687 154.415 292.612 153.244 291.537 152.074 291 150.666 291 149.019 291 147.322 291.543 145.894 292.63 144.736 293.717 143.579 295.013 143 296.518 143Z" fill="var(--tomato1)" fill-rule="evenodd"/>
      <path d="M471.518 143C472.999 143 474.283 143.579 475.37 144.736 476.457 145.894 477 147.322 477 149.019 477 150.666 476.462 152.074 475.388 153.244 474.313 154.415 473.023 155 471.518 155 469.989 155 468.687 154.415 467.612 153.244 466.537 152.074 466 150.666 466 149.019 466 147.322 466.543 145.894 467.63 144.736 468.717 143.579 470.013 143 471.518 143Z" fill="var(--tomato1)" fill-rule="evenodd"/>
      <path d="M825.518 143C826.999 143 828.283 143.579 829.37 144.736 830.457 145.894 831 147.322 831 149.019 831 150.666 830.463 152.074 829.388 153.244 828.313 154.415 827.023 155 825.518 155 823.989 155 822.687 154.415 821.612 153.244 820.537 152.074 820 150.666 820 149.019 820 147.322 820.543 145.894 821.63 144.736 822.717 143.579 824.013 143 825.518 143Z" fill="var(--tomato1)" fill-rule="evenodd"/>
      <path d="M178.37 145C180.739 145.146 184.539 145.219 189.77 145.219 195.1 145.219 198.887 145.146 201.133 145L201.503 145.365 201.503 147.809 201.133 148.173C198.616 148.319 197.172 148.441 196.802 148.538 196.087 148.733 195.667 149.183 195.544 149.888 195.223 151.639 195.063 155.408 195.063 161.195L195.063 168.71C195.063 177.902 195.482 183.531 196.321 185.598 197.999 189.683 202.132 191.726 208.72 191.726 213.038 191.726 216.406 190.68 218.824 188.589 219.959 187.592 220.749 186.583 221.193 185.562 221.637 184.54 221.983 182.96 222.229 180.82 222.452 178.826 222.563 176.807 222.563 174.765L222.563 167.178C222.563 160.806 222.538 156.454 222.489 154.119 222.439 151.93 222.291 150.508 222.044 149.851 221.847 149.365 221.415 148.988 220.749 148.721 220.181 148.502 218.664 148.319 216.196 148.173L215.826 147.809 215.826 145.365 216.196 145C218.343 145.146 220.552 145.219 222.822 145.219 224.524 145.219 227.794 145.146 232.63 145L233 145.365 233 147.809 232.63 148.173C229.718 148.173 228.077 148.939 227.707 150.471 227.51 151.322 227.362 153.171 227.263 156.016 227.189 158.131 227.152 161.183 227.152 165.171L227.152 176.406C227.152 183.628 225.709 188.784 222.822 191.872 218.997 195.957 213.544 198 206.462 198 199.998 198 194.952 196.942 191.324 194.827 188.265 193.027 186.266 190.474 185.328 187.166 184.736 185.051 184.44 179.531 184.44 170.606L184.44 161.195C184.44 155.408 184.28 151.639 183.959 149.888 183.836 149.183 183.416 148.733 182.701 148.538 182.33 148.441 180.887 148.319 178.37 148.173L178 147.809 178 145.365 178.37 145Z" fill="var(--tomato1)" fill-rule="evenodd"/>
      <path d="M669.369 145C671.733 145.147 675.524 145.22 680.743 145.22 684.115 145.22 692.411 145.147 705.631 145L706 145.294 705.52 149.477C705.422 150.407 705.311 151.63 705.188 153.147L704.966 156.083 704.597 156.486 702.455 156.486 702.086 156.119C702.037 152.817 701.84 150.933 701.495 150.468 700.929 149.71 697.495 149.33 691.193 149.33 690.183 149.33 688.596 149.404 686.429 149.55 686.158 152.046 686.023 156.523 686.023 162.982L686.023 167.936 690.196 168.046C691.451 168.07 693.777 168.021 697.175 167.899 697.839 167.875 698.282 167.691 698.504 167.349 698.873 166.761 699.095 165.147 699.169 162.505L699.538 162.138 701.827 162.138 702.197 162.505C702.098 165.245 702.049 167.752 702.049 170.027 702.049 172.498 702.098 175.202 702.197 178.138L701.827 178.468 699.353 178.468 698.984 178.101C698.984 175.532 698.873 174.027 698.652 173.587 698.233 172.731 696.965 172.217 694.848 172.046 693.396 171.924 691.968 171.862 690.565 171.862 688.866 171.862 687.352 171.899 686.023 171.973L686.023 180.706C686.023 186.505 686.183 190.297 686.503 192.083 686.626 192.792 687.045 193.245 687.759 193.44 687.931 193.489 689.691 193.612 693.039 193.807L693.408 194.174 693.408 196.633 693.002 197 678.158 196.78C676.041 196.755 673.111 196.829 669.369 197L669 196.67 669 194.174 669.369 193.807C671.88 193.661 673.32 193.538 673.69 193.44 674.404 193.245 674.822 192.792 674.945 192.083 675.265 190.297 675.425 186.505 675.425 180.706L675.425 161.294C675.425 155.495 675.265 151.703 674.945 149.917 674.822 149.208 674.404 148.755 673.69 148.56 673.32 148.462 671.88 148.339 669.369 148.193L669 147.826 669 145.33 669.369 145Z" fill="var(--tomato1)" fill-rule="evenodd"/>
      <path d="M145.985 149 146.95 149.729C146.653 152.74 146.443 155.436 146.319 157.816L145.985 164.119 147.21 164.119C149.905 164.119 152.23 164.034 154.184 163.864L154.592 164.265 154.073 168.527 153.702 168.891 145.985 168.891 145.985 181.242C145.985 185.2 146.035 187.532 146.134 188.236 146.257 189.257 146.696 190.082 147.451 190.714 148.205 191.345 149.225 191.661 150.511 191.661 151.525 191.661 152.749 191.394 154.184 190.859L155 192.171C154.827 192.365 154.295 192.875 153.405 193.701 151.946 195.061 150.697 196.3 149.658 197.417 148.446 197.806 147.222 198 145.985 198 142.548 198 140.038 197.016 138.455 195.049 137.787 194.199 137.342 193.215 137.119 192.098 136.872 190.762 136.761 189.014 136.785 186.852L136.897 178.145 136.897 169.037 135.895 169.037 133.929 169.11 132.408 169.11 132 168.782 132 167.835 132.297 167.288C132.742 166.997 133.434 166.56 134.374 165.977 135.487 165.297 136.328 164.726 136.897 164.265L136.897 159.31C136.897 157.246 136.798 155.06 136.6 152.752 138.455 152.17 139.957 151.653 141.107 151.204 142.257 150.755 143.883 150.02 145.985 149Z" fill="var(--tomato1)" fill-rule="evenodd"/>
      <path d="M501.986 149 502.95 149.729C502.653 152.74 502.443 155.436 502.319 157.816L501.986 164.119 503.21 164.119C505.905 164.119 508.23 164.034 510.184 163.864L510.592 164.265 510.073 168.527 509.702 168.891 501.986 168.891 501.986 181.242C501.986 185.2 502.035 187.532 502.134 188.236 502.257 189.257 502.696 190.082 503.451 190.714 504.205 191.345 505.225 191.661 506.511 191.661 507.525 191.661 508.749 191.394 510.184 190.859L511 192.171C510.827 192.365 510.295 192.875 509.405 193.701 507.946 195.061 506.697 196.3 505.658 197.417 504.446 197.806 503.222 198 501.986 198 498.548 198 496.038 197.016 494.455 195.049 493.787 194.199 493.342 193.215 493.119 192.098 492.872 190.762 492.761 189.014 492.786 186.852L492.897 178.145 492.897 169.037 491.895 169.037 489.929 169.11 488.408 169.11 488 168.782 488 167.835 488.297 167.288C488.742 166.997 489.434 166.56 490.374 165.977 491.487 165.297 492.328 164.726 492.897 164.265L492.897 159.31C492.897 157.246 492.798 155.06 492.6 152.752 494.455 152.17 495.957 151.653 497.107 151.204 498.257 150.755 499.883 150.02 501.986 149Z" fill="var(--tomato1)" fill-rule="evenodd"/>
      <path d="M594.518 161C602.378 161 607.589 163.654 610.152 168.962 611.384 171.508 612 174.702 612 178.545 612 187.048 609.068 192.8 603.203 195.802 600.345 197.268 597.08 198 593.409 198 587.741 198 583.423 196.403 580.454 193.208 577.485 190.014 576 185.439 576 179.482 576 171.244 578.883 165.756 584.649 163.018 587.483 161.672 590.772 161 594.518 161ZM593.593 164.783C588.69 164.783 586.238 169.094 586.238 177.717 586.238 188.789 588.986 194.325 594.481 194.325 597.906 194.325 600.086 192.488 601.023 188.813 601.515 186.892 601.762 184.454 601.762 181.499 601.762 175.519 601.09 171.238 599.747 168.656 598.405 166.074 596.353 164.783 593.593 164.783Z" fill="var(--tomato1)" fill-rule="evenodd"/>
      <path d="M759.517 161C767.378 161 772.589 163.654 775.152 168.962 776.384 171.508 777 174.702 777 178.545 777 187.048 774.068 192.8 768.203 195.802 765.345 197.268 762.08 198 758.409 198 752.741 198 748.423 196.403 745.454 193.208 742.484 190.014 741 185.439 741 179.482 741 171.244 743.883 165.756 749.649 163.018 752.483 161.672 755.772 161 759.517 161ZM758.593 164.783C753.69 164.783 751.238 169.094 751.238 177.717 751.238 188.789 753.986 194.325 759.481 194.325 762.906 194.325 765.086 192.488 766.023 188.813 766.515 186.892 766.762 184.454 766.762 181.499 766.762 175.519 766.09 171.238 764.747 168.656 763.404 166.074 761.353 164.783 758.593 164.783Z" fill="var(--tomato1)" fill-rule="evenodd"/>
      <path d="M252.144 161 252.938 161.475 252.866 167.609 259.072 162.351C260.66 161.694 262.404 161.365 264.304 161.365 268.129 161.365 270.991 162.534 272.892 164.87 274.431 166.769 275.201 169.556 275.201 173.231 275.201 173.645 275.153 175.337 275.057 178.306 274.96 181.276 274.912 183.394 274.912 184.659 274.912 188.335 274.972 190.678 275.093 191.688 275.213 192.698 275.49 193.337 275.923 193.604 276.356 193.872 277.607 194.03 279.675 194.079L280 194.444 280 196.598 279.639 197C276.993 196.83 274.756 196.744 272.928 196.744 271.244 196.744 268.79 196.83 265.567 197L265.206 196.635C265.639 191.207 265.856 187.02 265.856 184.075L265.856 176.919C265.856 170.98 263.739 168.01 259.505 168.01 257.292 168.01 255.56 168.777 254.309 170.31 253.251 171.6 252.722 172.903 252.722 174.217L252.722 181.045C252.722 187.349 252.878 191.219 253.191 192.655 253.383 193.507 254.778 193.957 257.376 194.006L257.737 194.371 257.737 196.598 257.376 196.963C255.332 196.817 252.277 196.744 248.211 196.744 243.906 196.744 240.622 196.83 238.361 197L238 196.635 238 194.408 238.361 194.043C240.67 193.97 242.101 193.787 242.655 193.495 243.136 193.276 243.4 192.692 243.448 191.742 243.617 188.578 243.701 185.183 243.701 181.556L243.701 176.335C243.701 171.467 243.521 168.667 243.16 167.937 242.919 167.45 242.402 167.146 241.608 167.024 241.32 166.976 240.273 166.915 238.469 166.842L238.108 166.477 238.108 164.432 238.469 164.03C242.799 163.617 247.357 162.607 252.144 161Z" fill="var(--tomato1)" fill-rule="evenodd"/>
      <path d="M300.815 161 301.593 161.475C301.272 165.905 301.111 169.641 301.111 172.684L301.111 184.331C301.111 186.108 301.197 188.578 301.37 191.742 301.42 192.692 301.691 193.276 302.185 193.495 302.753 193.787 304.222 193.97 306.593 194.043L307 194.408 307 196.635 306.63 197C304.284 196.83 300.901 196.744 296.481 196.744 292.062 196.744 288.691 196.83 286.37 197L286 196.635 286 194.408 286.37 194.043C288.741 193.97 290.21 193.787 290.778 193.495 291.272 193.276 291.543 192.692 291.593 191.742 291.765 188.578 291.852 185.183 291.852 181.556L291.852 176.335C291.852 171.613 291.667 168.813 291.296 167.937 291.099 167.45 290.568 167.146 289.704 167.024 289.407 166.976 288.333 166.915 286.481 166.842L286.111 166.477 286.111 164.432 286.481 164.03C291.222 163.617 296 162.607 300.815 161Z" fill="var(--tomato1)" fill-rule="evenodd"/>
      <path d="M410.207 161 411.004 161.475 410.932 168.631C412.43 166.878 414.242 164.834 416.368 162.497 417.358 161.523 418.711 161.037 420.427 161.037 421.442 161.037 422.299 161.183 423 161.475L422.746 167.974C422.722 169.045 422.674 170.262 422.601 171.625L421.079 172.099C419.944 170.444 418.373 169.617 416.368 169.617 414.556 169.617 413.058 170.347 411.874 171.807 411.149 172.708 410.787 174.035 410.787 175.787L410.787 184.331C410.787 186.108 410.871 188.578 411.04 191.742 411.089 192.643 411.342 193.227 411.801 193.495 412.26 193.763 413.94 193.945 416.839 194.043L417.201 194.371 417.201 196.598 416.839 196.963C413.287 196.817 409.76 196.744 406.256 196.744 401.932 196.744 398.634 196.83 396.362 197L396 196.635 396 194.408 396.362 194.043C398.682 193.97 400.119 193.787 400.675 193.495 401.158 193.276 401.424 192.692 401.472 191.742 401.642 188.578 401.726 185.183 401.726 181.556L401.726 176.335C401.726 171.467 401.545 168.667 401.183 167.937 400.941 167.45 400.422 167.146 399.624 167.024 399.334 166.976 398.283 166.915 396.471 166.842L396.109 166.477 396.109 164.432 396.471 164.03C400.82 163.617 405.399 162.607 410.207 161Z" fill="var(--tomato1)" fill-rule="evenodd"/>
      <path d="M475.815 161 476.593 161.475C476.272 165.905 476.111 169.641 476.111 172.684L476.111 184.331C476.111 186.108 476.197 188.578 476.37 191.742 476.42 192.692 476.691 193.276 477.185 193.495 477.753 193.787 479.222 193.97 481.593 194.043L482 194.408 482 196.635 481.63 197C479.284 196.83 475.901 196.744 471.481 196.744 467.062 196.744 463.691 196.83 461.37 197L461 196.635 461 194.408 461.37 194.043C463.741 193.97 465.21 193.787 465.778 193.495 466.272 193.276 466.543 192.692 466.593 191.742 466.765 188.578 466.852 185.183 466.852 181.556L466.852 176.335C466.852 171.613 466.667 168.813 466.296 167.937 466.099 167.45 465.568 167.146 464.704 167.024 464.407 166.976 463.333 166.915 461.481 166.842L461.111 166.477 461.111 164.432 461.481 164.03C466.222 163.617 471 162.607 475.815 161Z" fill="var(--tomato1)" fill-rule="evenodd"/>
      <path d="M798.207 161 799.004 161.475 798.932 168.631C800.43 166.878 802.242 164.834 804.368 162.497 805.359 161.523 806.711 161.037 808.427 161.037 809.442 161.037 810.299 161.183 811 161.475L810.746 167.974C810.722 169.045 810.674 170.262 810.601 171.625L809.079 172.099C807.944 170.444 806.373 169.617 804.368 169.617 802.556 169.617 801.058 170.347 799.874 171.807 799.149 172.708 798.787 174.035 798.787 175.787L798.787 184.331C798.787 186.108 798.871 188.578 799.04 191.742 799.089 192.643 799.342 193.227 799.801 193.495 800.26 193.763 801.94 193.945 804.839 194.043L805.201 194.371 805.201 196.598 804.839 196.963C801.287 196.817 797.76 196.744 794.256 196.744 789.932 196.744 786.634 196.83 784.362 197L784 196.635 784 194.408 784.362 194.043C786.682 193.97 788.12 193.787 788.675 193.495 789.158 193.276 789.424 192.692 789.473 191.742 789.642 188.578 789.726 185.183 789.726 181.556L789.726 176.335C789.726 171.467 789.545 168.667 789.183 167.937 788.941 167.45 788.422 167.146 787.624 167.024 787.334 166.976 786.283 166.915 784.471 166.842L784.109 166.477 784.109 164.432 784.471 164.03C788.82 163.617 793.399 162.607 798.207 161Z" fill="var(--tomato1)" fill-rule="evenodd"/>
      <path d="M829.815 161 830.593 161.475C830.272 165.905 830.111 169.641 830.111 172.684L830.111 184.331C830.111 186.108 830.198 188.578 830.37 191.742 830.42 192.692 830.691 193.276 831.185 193.495 831.753 193.787 833.222 193.97 835.593 194.043L836 194.408 836 196.635 835.63 197C833.284 196.83 829.901 196.744 825.482 196.744 821.062 196.744 817.691 196.83 815.37 197L815 196.635 815 194.408 815.37 194.043C817.741 193.97 819.21 193.787 819.778 193.495 820.272 193.276 820.543 192.692 820.593 191.742 820.765 188.578 820.852 185.183 820.852 181.556L820.852 176.335C820.852 171.613 820.667 168.813 820.296 167.937 820.099 167.45 819.568 167.146 818.704 167.024 818.407 166.976 817.333 166.915 815.481 166.842L815.111 166.477 815.111 164.432 815.481 164.03C820.222 163.617 825 162.607 829.815 161Z" fill="var(--tomato1)" fill-rule="evenodd"/>
      <path d="M443.16 161C447.153 161 450.472 161.652 453.118 162.955L453.455 163.534C453.18 164.62 452.968 167.408 452.818 171.897L452.406 172.259 450.273 172.259 449.861 171.897C449.761 170.16 449.586 168.748 449.337 167.661 447.765 165.731 445.481 164.765 442.487 164.765 440.54 164.765 438.943 165.224 437.695 166.141 436.447 167.058 435.824 168.265 435.824 169.761 435.824 171.765 436.884 173.104 439.005 173.78 439.954 174.07 441.8 174.48 444.545 175.011 448.738 175.807 451.508 176.724 452.856 177.762 454.952 179.379 456 181.805 456 185.039 456 188.925 454.484 192.057 451.452 194.434 448.42 196.811 444.458 198 439.567 198 436.098 198 432.38 197.276 428.412 195.828L428 195.285C428.225 193.064 428.362 191.339 428.412 190.108L428.599 185.546 428.973 185.148 431.182 185.148 431.631 185.546C431.731 188.249 431.843 189.842 431.968 190.325 434.089 192.956 436.872 194.271 440.316 194.271 442.512 194.271 444.271 193.752 445.594 192.714 446.916 191.676 447.578 190.289 447.578 188.551 447.578 186.355 446.579 184.894 444.583 184.17 443.734 183.856 442.05 183.446 439.529 182.939 435.412 182.095 432.654 181.129 431.257 180.043 429.135 178.402 428.075 175.976 428.075 172.766 428.075 169.267 429.385 166.455 432.005 164.331 434.751 162.11 438.469 161 443.16 161Z" fill="var(--tomato1)" fill-rule="evenodd"/>
      <path d="M109.04 161C113.872 161 117.318 162.265 119.378 164.796 120.874 166.638 121.622 169.464 121.622 173.272 121.622 174.206 121.585 175.704 121.512 177.768 121.389 181.208 121.328 183.505 121.328 184.659 121.328 188.369 121.389 190.734 121.512 191.753 121.634 192.773 121.923 193.418 122.376 193.688 122.83 193.958 123.915 194.118 125.632 194.167L126 194.573 126 196.636 125.595 197.042C123.535 196.919 121.168 196.857 118.495 196.857 116.41 196.857 114.411 196.919 112.498 197.042L112.167 196.636 112.498 191.698 105.361 197.152C104.797 197.57 103.988 197.828 102.933 197.926 102.516 197.975 102.026 198 101.461 198 98.7391 198 96.6482 197.177 95.1889 195.531 93.7296 193.885 93 191.612 93 188.713 93 184.88 94.214 182.166 96.6421 180.569 99.2665 178.824 104.552 177.252 112.498 175.852 112.498 171.945 111.468 169.329 109.408 168.002 108.157 167.191 106.661 166.786 104.92 166.786 103.007 166.786 101.498 167.179 100.395 167.965L98.9967 171.392 98.5184 171.65 96.6421 171.208 96.3846 170.692 96.5686 166.344C100.615 163.346 103.657 161.651 105.692 161.258 106.551 161.086 107.667 161 109.04 161ZM112.498 178.984C108.451 179.868 105.723 180.821 104.313 181.84 102.902 182.86 102.197 184.414 102.197 186.502 102.197 189.843 103.657 191.514 106.575 191.514 109.052 191.514 111.027 190.359 112.498 188.05L112.498 178.984Z" fill="var(--tomato1)" fill-rule="evenodd"/>
      <path d="M906.04 161C910.872 161 914.318 162.265 916.378 164.796 917.874 166.638 918.622 169.464 918.622 173.272 918.622 174.206 918.585 175.704 918.512 177.768 918.389 181.208 918.328 183.505 918.328 184.659 918.328 188.369 918.389 190.734 918.512 191.753 918.634 192.773 918.923 193.418 919.376 193.688 919.83 193.958 920.915 194.118 922.632 194.167L923 194.573 923 196.636 922.595 197.042C920.535 196.919 918.168 196.857 915.495 196.857 913.41 196.857 911.411 196.919 909.498 197.042L909.167 196.636 909.498 191.698 902.361 197.152C901.797 197.57 900.988 197.828 899.933 197.926 899.516 197.975 899.026 198 898.462 198 895.739 198 893.648 197.177 892.189 195.531 890.73 193.885 890 191.612 890 188.713 890 184.88 891.214 182.166 893.642 180.569 896.266 178.824 901.552 177.252 909.498 175.852 909.498 171.945 908.468 169.329 906.408 168.002 905.157 167.191 903.661 166.786 901.92 166.786 900.007 166.786 898.498 167.179 897.395 167.965L895.997 171.392 895.518 171.65 893.642 171.208 893.385 170.692 893.569 166.344C897.615 163.346 900.657 161.651 902.692 161.258 903.551 161.086 904.667 161 906.04 161ZM909.498 178.984C905.451 179.868 902.723 180.821 901.313 181.84 899.902 182.86 899.197 184.414 899.197 186.502 899.197 189.843 900.657 191.514 903.575 191.514 906.052 191.514 908.027 190.359 909.498 188.05L909.498 178.984Z" fill="var(--tomato1)" fill-rule="evenodd"/>
      <path d="M376.395 161C380.701 161 384.033 162.254 386.391 164.762 388.797 167.343 390 171.057 390 175.902 390 176.316 389.988 176.937 389.964 177.765L389.567 178.276C386.391 179.153 382.181 179.591 376.936 179.591 375.998 179.591 374.578 179.61 372.678 179.646 370.777 179.683 369.345 179.701 368.383 179.701 368.527 183.28 369.622 186.239 371.667 188.577 373.808 191.085 376.599 192.339 380.04 192.339 382.349 192.339 385.092 191.535 388.268 189.928L389.134 190.987 387.546 194.603C384.033 196.868 380.22 198 376.106 198 370.693 198 366.488 196.454 363.493 193.361 360.498 190.269 359 185.861 359 180.139 359 173.345 360.6 168.695 363.8 166.186 368.227 162.729 372.425 161 376.395 161ZM374.518 165.091C370.26 165.091 368.13 168.354 368.13 174.88L368.13 175.683C369.526 175.902 372.004 176.012 375.565 176.012 377.417 176.012 379.077 175.902 380.545 175.683 380.569 175.342 380.581 175.099 380.581 174.953 380.581 168.378 378.56 165.091 374.518 165.091Z" fill="var(--tomato1)" fill-rule="evenodd"/>
      <path d="M312.403 162C314.647 162.073 317.904 162.109 322.174 162.109 325.931 162.109 328.871 162.073 330.994 162L331.396 162.364 331.396 164.513 330.994 164.914C329.188 164.962 328.017 165.071 327.48 165.241 326.944 165.411 326.675 165.739 326.675 166.225 326.675 166.905 328.176 171.178 331.177 179.045 332.762 183.245 333.799 185.88 334.287 186.948 335.849 183.306 337.337 179.737 338.752 176.24 341.07 170.535 342.229 167.196 342.229 166.225 342.229 165.715 341.979 165.381 341.479 165.223 340.978 165.065 339.777 164.95 337.874 164.877L337.471 164.513 337.471 162.364 337.874 162C339.752 162.073 341.973 162.109 344.534 162.109 347.291 162.109 349.658 162.073 351.634 162L352 162.364 352 164.586 351.634 164.986C350.146 165.084 349.17 165.266 348.706 165.533 348.365 165.727 347.95 166.261 347.462 167.135 346.974 168.009 346.059 169.976 344.717 173.035L337.727 189.17C337.483 189.752 336.434 192.362 334.58 197L328.176 197C326.809 193.164 325.321 189.242 323.711 185.236 321.149 178.85 318.966 173.363 317.16 168.774 316.355 166.735 315.489 165.545 314.562 165.205 314.025 165.011 313.305 164.901 312.403 164.877L312 164.477 312 162.364 312.403 162Z" fill="var(--tomato1)" fill-rule="evenodd"/>
      <path d="M513.403 162C514.966 162.059 517.957 162.088 522.377 162.088 526.48 162.088 529.813 162.059 532.377 162L532.744 162.294 532.744 164.057 532.377 164.351C529.593 164.351 528.201 164.753 528.201 165.556 528.201 165.909 528.324 166.34 528.568 166.85 528.958 167.751 529.557 169.093 530.363 170.876L535.711 182.222 538.934 176.02C542.084 169.965 543.659 166.428 543.659 165.41 543.659 164.704 542.243 164.351 539.41 164.351L539.044 164.057 539.044 162.294 539.447 162C540.863 162.059 543.256 162.088 546.626 162.088 548.531 162.088 550.521 162.059 552.597 162L553 162.294 553 164.087 552.67 164.351C551.059 164.351 549.96 164.724 549.374 165.468 549.056 165.899 548.189 167.34 546.773 169.789 543.574 175.373 540.924 180.253 538.824 184.426L532.927 196.124C531.095 199.749 529.129 202.326 527.029 203.854 525.051 205.285 522.634 206 519.777 206 517.969 206 516.223 205.657 514.538 204.971 514.954 203.58 515.381 201.63 515.821 199.122L516.773 198.975C518.043 200.425 519.764 201.15 521.938 201.15 524.502 201.15 526.858 199.142 529.007 195.125L530.509 192.303 518.641 167.555C517.957 166.125 517.328 165.238 516.755 164.895 516.181 164.552 515.051 164.371 513.366 164.351L513 164.057 513 162.294 513.403 162Z" fill="var(--tomato1)" fill-rule="evenodd"/>
      <path d="M55.0244 60.7709C55.827 31.8885 84.9981 10.7752 123.698 7.22903 155.126 4.34908 183.747 28.9919 183.998 60.7709 184.285 97.2612 155.126 124 119.511 124 83.896 124 54.025 96.7453 55.0244 60.7709Z" fill="var(--tomato2)" fill-rule="evenodd"/>
      <path d="M0.234541 3.40304C0.0901837 3.8547 0.00713911 4.34184 0.0088189 4.85501 0.0153281 6.90793 0.296693 9.20494 2.60535 12.8673 4.62551 16.072 8.49848 21.4781 11.5453 24.1862L12.9993 25.3656 11.9615 26.1767C10.235 27.4858 8.47181 29.1793 7.27958 30.9588 4.89512 34.5177 0.321995 45.0751 1.35685 43.858 2.3916 42.6405 6.86467 37.3837 8.56588 35.6062 10.2671 33.8283 11.2188 33.0024 11.5642 33.1916 11.577 34.0487 11.5898 34.9057 11.6027 35.7627 11.7066 37.0639 11.9026 38.3642 12.2118 39.5742 13.4487 44.4141 17.7865 54.8132 18.5278 55.0479 19.2691 55.2824 16.4542 45.6433 16.6595 40.9816 16.865 36.3203 17.9489 30.8851 19.7602 27.0796 23.4152 24.0874 28.3096 21.4853 33.8464 19.6346 39.3833 17.784 53.7048 16.4541 52.9814 15.976 52.2582 15.4977 36.4245 15.5029 29.5069 16.7658 27.7774 17.0815 25.9988 17.6017 24.2752 18.2365L22.0459 19.2183C22.4867 17.5231 22.6471 16.2661 23.3684 14.133 24.993 9.32808 31.6191 0.0230971 30.7849 0.072231 29.9508 0.121575 21.5095 9.74541 18.3633 14.4283L16.87 17.1025C15.6475 16.43 12.5395 13.2331 11.0283 10.3937 9.51717 7.55444 8.71926 2.79076 7.30898 1.15013 5.89858-0.490499 3.7831-0.0677165 2.5664 0.549711 1.65386 1.01291 0.667822 2.04829 0.234541 3.40304Z" stroke="var(--tomato1)" stroke-miterlimit="8" fill="var(--tomato3)" fill-rule="evenodd" transform="matrix(-0.286977 0.957937 0.957937 0.286977 86.6311 1.13803)"/>
      <path d="M131.021 113.991C131.803 114.275 156.948 107.759 169.535 89.4382 180.68 73.2163 176.31 47.2865 175.362 47.0026 174.415 46.7187 178.489 70.0417 164.845 87.7352 151.202 105.428 130.24 113.707 131.021 113.991Z" fill="var(--tomato3)" fill-rule="evenodd"/>
      <path d="M81 133C81 132.448 81.4477 132 82 132L922 132C922.552 132 923 132.448 923 133L923 133C923 133.552 922.552 134 922 134L82 134C81.4477 134 81 133.552 81 133Z" fill="var(--tomato2)" fill-rule="evenodd"/>
  </symbol>
  <symbol id="jlab2" viewBox="0 0 881 225">
      <path d="M118.373 1.28152 118.377 1.2845 196.798 1.2845 196.798 43.3198 181.012 43.3198 181.012 157.819C181.012 223.918 159.493 256 99.0367 256 64.7236 256 41.3037 242.722 28.2324 221.98 16.5219 203.45 16.5204 182.71 16.5204 157.819L16.5204 43.3198 1.00003 43.3198 1.00003 1.55804 79.6961 1.55804 79.6961 43.5938 64.4523 43.5938 64.4523 143.99C64.4523 186.029 69.3519 206.218 99.0352 206.218 128.718 206.218 133.617 186.029 133.617 143.99L133.617 43.5938 118.373 43.5938ZM203.066 1.00003 203.069 1.00152 203.34 1.00152 373 1.00152 373 66.551 330.512 66.551 330.512 43.3178 266.245 43.3178 266.245 103.612 324.793 103.612 324.793 146.198 266.245 146.198 266.245 210.642 281.493 210.642 281.493 253.233 203.066 253.233 203.066 210.642 218.863 210.642 218.863 43.3178 203.066 43.3178Z" fill="#FFFFFF" fill-rule="evenodd"/>
      <path d="M377 96.9999 407.657 96.9999C414.488 96.9999 419.433 98.4076 422.492 101.224 425.551 104.04 427.053 108.514 426.999 114.646L426.999 119.372C427.041 125.137 425.522 129.348 422.441 132.005 419.359 134.663 414.459 135.974 407.739 135.94L396.911 135.94 396.911 144.237C398.058 144.321 399.189 144.442 400.305 144.599 401.421 144.756 402.532 144.939 403.638 145.149L403.638 155 377.246 155 377.246 145.148C379.2 144.831 381.195 144.554 383.23 144.32L383.23 107.764C382.412 107.643 381.487 107.512 380.453 107.37 379.42 107.228 378.269 107.055 377 106.851L377 96.9999ZM396.911 108.26 396.911 124.514 406.673 124.514C409.212 124.519 411.106 123.948 412.353 122.803 413.601 121.658 414.223 119.906 414.22 117.548L414.22 115.475C414.233 113.033 413.632 111.22 412.415 110.033 411.198 108.846 409.284 108.255 406.673 108.26L396.911 108.26Z" fill="var(--tomato2)" fill-rule="evenodd"/>
      <path d="M432 96.9999 459.58 96.9999 459.58 106.851C458.357 107.1 457.087 107.307 455.773 107.473 454.457 107.639 453.086 107.763 451.659 107.846L451.659 143.989 468.399 143.989 469.951 135.618 479 135.618 479 155 432.245 155 432.245 145.149C433.506 144.943 434.615 144.774 435.571 144.641 436.526 144.508 437.349 144.401 438.039 144.32L438.039 107.68C436.982 107.558 435.955 107.43 434.958 107.297 433.962 107.164 432.976 107.016 432 106.851L432 96.9999Z" fill="var(--tomato2)" fill-rule="evenodd"/>
      <path d="M495 96.9999 523.083 96.9999 538.835 144.237C540.086 144.321 541.312 144.442 542.511 144.599 543.711 144.756 544.873 144.939 546 145.149L546 155 517.839 155 517.839 145.147C518.747 144.982 519.639 144.837 520.516 144.713 521.392 144.589 522.305 144.485 523.254 144.403L521.255 138.177 504.328 138.177 502.995 144.319C503.836 144.441 504.465 144.569 504.88 144.702 505.294 144.836 505.943 144.984 506.827 145.149L506.827 155 482 155 482 145.149C483.123 144.939 484.251 144.756 485.384 144.599 486.518 144.442 487.667 144.321 488.831 144.237L500.666 107.597C499.925 107.515 499.095 107.411 498.177 107.287 497.258 107.162 496.2 107.017 495 106.851L495 96.9999ZM512.505 108.51 507.004 126.502 518.339 126.502 512.671 108.51 512.505 108.51Z" fill="var(--tomato2)" fill-rule="evenodd"/>
      <path d="M548 96.9999 567.321 96.9999 591.432 133.543 591.432 107.514C590.637 107.43 589.821 107.33 588.984 107.214 588.146 107.098 587.288 106.978 586.409 106.851L586.409 96.9999 610 96.9999 610 106.851C608.912 107.055 607.845 107.228 606.799 107.369 605.753 107.511 604.728 107.642 603.724 107.763L603.724 155 589.34 155 566.651 119.866 566.651 144.486C567.445 144.57 568.244 144.67 569.048 144.786 569.852 144.902 570.671 145.022 571.507 145.149L571.507 155 548.251 155 548.251 145.149C549.295 144.979 550.324 144.82 551.337 144.672 552.35 144.523 553.357 144.406 554.36 144.32L554.36 107.846 548 106.851 548 96.9999Z" fill="var(--tomato2)" fill-rule="evenodd"/>
      <path d="M613 96.9999 667 96.9999 667 115.969 657.513 115.969 656.687 108.343 646.932 108.343 646.932 144.32C647.998 144.406 649.152 144.524 650.394 144.672 651.635 144.82 652.769 144.979 653.794 145.148L653.794 155 626.455 155 626.455 145.148C627.477 144.984 628.593 144.836 629.803 144.703 631.012 144.57 632.128 144.442 633.151 144.32L633.151 108.343 623.313 108.343 622.487 115.969 613 115.969 613 96.9999Z" fill="var(--tomato2)" fill-rule="evenodd"/>
      <path d="M626.201 196 634.295 196C641.663 196.051 647.128 198.12 650.688 202.204 654.248 206.289 656.019 212.082 656 219.583L656 232.831C656.003 240.206 654.202 245.899 650.595 249.909 646.989 253.92 641.555 255.95 634.295 256L626.201 256C618.749 255.949 613.202 253.922 609.559 249.92 605.917 245.918 604.063 240.249 604 232.914L604 219.583C603.981 212.046 605.793 206.243 609.436 202.173 613.079 198.104 618.667 196.046 626.201 196ZM627.027 208.24C623.751 208.238 621.383 209.07 619.924 210.734 618.465 212.399 617.749 214.907 617.777 218.258L617.777 233.907C617.749 237.538 618.465 240.088 619.924 241.555 621.383 243.023 623.751 243.73 627.027 243.677L632.808 243.677C636.086 243.73 638.471 243.023 639.963 241.555 641.454 240.088 642.208 237.538 642.223 233.907L642.223 218.258C642.249 214.545 641.516 211.933 640.025 210.424 638.533 208.914 636.127 208.187 632.808 208.24L627.027 208.24Z" fill="var(--tomato2)" fill-rule="evenodd"/>
      <path d="M736.201 196 744.295 196C751.663 196.051 757.128 198.12 760.688 202.204 764.248 206.289 766.019 212.082 766 219.583L766 232.831C766.003 240.206 764.202 245.899 760.595 249.909 756.989 253.92 751.555 255.95 744.295 256L736.201 256C728.749 255.949 723.202 253.922 719.559 249.92 715.917 245.918 714.063 240.249 714 232.914L714 219.583C713.981 212.046 715.793 206.243 719.436 202.173 723.079 198.104 728.667 196.046 736.201 196ZM737.027 208.24C733.751 208.238 731.383 209.07 729.924 210.734 728.465 212.399 727.749 214.907 727.777 218.258L727.777 233.907C727.749 237.538 728.465 240.088 729.924 241.555 731.383 243.023 733.751 243.73 737.027 243.677L742.808 243.677C746.086 243.73 748.471 243.023 749.963 241.555 751.454 240.088 752.208 237.538 752.223 233.907L752.223 218.258C752.249 214.545 751.516 211.933 750.025 210.424 748.533 208.914 746.127 208.187 742.808 208.24L737.027 208.24Z" fill="var(--tomato2)" fill-rule="evenodd"/>
      <path d="M795.418 196 799.277 196C800.24 196.002 801.899 196.117 804.254 196.346 806.609 196.575 809.301 196.904 812.331 197.335 815.362 197.766 818.37 198.286 821.358 198.894L821.358 216.688 809.953 216.688 808.392 208.819C806.749 208.578 804.962 208.419 803.032 208.343 801.101 208.267 799.027 208.233 796.809 208.239 793.764 208.298 791.33 209.341 789.507 211.366 787.685 213.392 786.75 216.049 786.704 219.338L786.704 235.223C786.726 238.008 787.544 240.124 789.158 241.573 790.772 243.021 793.049 243.749 795.987 243.758L802.888 243.758C805.108 243.746 806.912 243.19 808.3 242.09 809.688 240.99 810.404 239.419 810.446 237.377L810.446 235.719C808.527 235.556 806.43 235.366 804.152 235.151 801.875 234.935 799.347 234.684 796.569 234.396L796.569 224.225 823 224.225 823 238.537C822.884 243.104 821.657 246.66 819.319 249.207 816.982 251.753 814.229 253.532 811.06 254.542 807.892 255.553 805.004 256.038 802.397 255.998L794.513 255.998C787.185 256.013 781.761 254.224 778.244 250.631 774.726 247.036 772.978 241.542 773 234.148L773 219.918C773.052 212.509 775.021 206.691 778.911 202.463 782.8 198.235 788.302 196.081 795.418 196Z" fill="var(--tomato2)" fill-rule="evenodd"/>
      <path d="M377 197 407.657 197C414.488 197 419.433 198.408 422.492 201.224 425.551 204.04 427.053 208.514 426.999 214.646L426.999 219.372C427.041 225.137 425.522 229.348 422.441 232.006 419.359 234.663 414.459 235.974 407.739 235.94L396.911 235.94 396.911 244.237C398.058 244.321 399.189 244.442 400.305 244.599 401.421 244.756 402.532 244.939 403.638 245.149L403.638 255 377.246 255 377.246 245.148C379.2 244.831 381.195 244.554 383.23 244.32L383.23 207.764C382.412 207.643 381.487 207.512 380.453 207.37 379.42 207.228 378.269 207.056 377 206.851L377 197ZM396.911 208.26 396.911 224.514 406.673 224.514C409.212 224.519 411.106 223.949 412.353 222.803 413.601 221.658 414.223 219.906 414.22 217.548L414.22 215.475C414.233 213.033 413.632 211.22 412.415 210.033 411.198 208.846 409.284 208.255 406.673 208.26L396.911 208.26Z" fill="var(--tomato2)" fill-rule="evenodd"/>
      <path d="M436.797 197 464.441 197 479.947 244.237C481.179 244.321 482.385 244.442 483.566 244.599 484.747 244.756 485.891 244.939 487 245.149L487 255 459.279 255 459.279 245.148C460.173 244.982 461.051 244.837 461.914 244.713 462.777 244.589 463.675 244.485 464.61 244.403L462.642 238.177 445.979 238.177 444.667 244.319C445.495 244.441 446.114 244.569 446.522 244.702 446.93 244.836 447.569 244.984 448.439 245.149L448.439 255 424 255 424 245.149C425.105 244.939 426.216 244.756 427.332 244.599 428.447 244.442 429.578 244.321 430.725 244.237L442.375 207.597C441.645 207.515 440.828 207.411 439.924 207.287 439.02 207.162 437.978 207.017 436.797 206.851L436.797 197ZM454.028 208.51 448.613 226.502 459.771 226.502 454.192 208.51 454.028 208.51Z" fill="var(--tomato2)" fill-rule="evenodd"/>
      <path d="M479 197 533 197 533 215.969 523.513 215.969 522.687 208.343 512.932 208.343 512.932 244.32C513.998 244.406 515.152 244.524 516.394 244.672 517.636 244.82 518.769 244.979 519.794 245.148L519.794 255 492.455 255 492.455 245.148C493.478 244.984 494.594 244.836 495.803 244.703 497.012 244.57 498.128 244.442 499.151 244.32L499.151 208.343 489.313 208.343 488.487 215.969 479 215.969 479 197Z" fill="var(--tomato2)" fill-rule="evenodd"/>
      <path d="M538 197 562.808 197 562.808 206.851C562.021 206.978 561.224 207.099 560.416 207.214 559.609 207.33 558.811 207.43 558.024 207.515L558.024 220.204 579.058 220.204 579.058 207.515C578.273 207.43 577.472 207.33 576.656 207.214 575.84 207.099 575.018 206.978 574.191 206.851L574.191 197 599 197 599 206.851C597.969 207.021 596.939 207.18 595.909 207.328 594.878 207.477 593.847 207.594 592.817 207.68L592.817 244.32C593.816 244.442 594.847 244.57 595.909 244.703 596.97 244.836 598 244.984 599 245.149L599 255 574.191 255 574.191 245.149C575.018 245.022 575.84 244.901 576.656 244.786 577.472 244.67 578.273 244.57 579.058 244.485L579.058 231.796 558.024 231.796 558.024 244.485C558.811 244.57 559.609 244.67 560.416 244.786 561.224 244.901 562.021 245.022 562.808 245.149L562.808 255 538 255 538 245.149C539.039 244.984 540.094 244.836 541.164 244.703 542.234 244.57 543.268 244.442 544.266 244.32L544.266 207.68C543.196 207.594 542.141 207.477 541.102 207.328 540.063 207.18 539.029 207.021 538 206.851L538 197Z" fill="var(--tomato2)" fill-rule="evenodd"/>
      <path d="M662 197 689.58 197 689.58 206.851C688.357 207.1 687.088 207.307 685.773 207.473 684.457 207.639 683.086 207.763 681.659 207.846L681.659 243.989 698.399 243.989 699.951 235.618 709 235.618 709 255 662.245 255 662.245 245.149C663.506 244.943 664.615 244.774 665.571 244.641 666.526 244.508 667.349 244.401 668.039 244.32L668.039 207.68C666.982 207.558 665.955 207.43 664.958 207.297 663.962 207.164 662.976 207.016 662 206.851L662 197Z" fill="var(--tomato2)" fill-rule="evenodd"/>
      <path d="M826 197 849.901 197 849.901 206.851C848.496 207.031 847.131 207.169 845.808 207.266L854.246 224.923 854.656 224.923 863.011 207.432C862.277 207.351 861.534 207.264 860.78 207.173 860.026 207.081 859.242 206.974 858.427 206.851L858.427 197 882 197 882 206.851C880.979 207.055 879.973 207.228 878.982 207.369 877.991 207.511 877.006 207.642 876.025 207.764L860.464 234.953 860.464 244.32C861.486 244.406 862.492 244.524 863.484 244.672 864.475 244.82 865.461 244.979 866.442 245.149L866.442 255 840.985 255 840.985 245.149C841.964 244.984 842.933 244.836 843.892 244.703 844.851 244.57 845.82 244.442 846.799 244.32L846.799 235.533 831.239 207.597C829.533 207.432 827.787 207.183 826 206.851L826 197Z" fill="var(--tomato2)" fill-rule="evenodd"/>
  </symbol>
</svg>

