<svg width="925" height="207" xmlns="http://www.w3.org/2000/svg" xmlns:xlink="http://www.w3.org/1999/xlink" overflow="hidden"><defs><clipPath id="clip0"><path d="M195 288 1120 288 1120 495 195 495Z" fill-rule="evenodd" clip-rule="evenodd"/></clipPath></defs><g clip-path="url(#clip0)" transform="translate(-195 -288)"><path d="M667.492 289.002 673.103 289.002C680.804 288.995 688.099 289.518 694.986 290.572 701.873 291.626 709.077 293.253 716.598 295.453L716.598 328.575 694.184 328.575 690.957 313.448C688.484 312.376 685.82 311.675 682.965 311.345 680.11 311.016 677.106 310.868 673.954 310.9L668.003 310.9C662.788 310.839 659.062 311.597 656.823 313.173 654.584 314.748 653.493 317.503 653.55 321.437L653.55 322.966C653.511 325.739 654.141 327.927 655.442 329.531 656.742 331.135 658.945 332.346 662.051 333.164L696.561 341.322C705.189 343.39 711.281 346.647 714.837 351.095 718.392 355.542 720.111 362.029 719.994 370.555L719.994 377.864C720.094 389.764 716.669 398.447 709.719 403.912 702.769 409.378 691.697 412.073 676.504 411.999L668.683 411.999C663.24 412.008 658.372 411.744 654.078 411.206 649.784 410.669 645.396 409.801 640.915 408.604 636.435 407.406 631.193 405.822 625.191 403.851L625.191 372.935 648.795 372.935 651.852 387.381C654.84 388.536 657.914 389.286 661.074 389.633 664.234 389.98 667.903 390.136 672.083 390.101L674.804 390.101C681.233 390.204 685.675 389.488 688.13 387.955 690.585 386.422 691.753 383.455 691.637 379.053L691.637 375.654C691.771 372.212 690.864 369.663 688.916 368.006 686.968 366.349 683.171 364.819 677.524 363.417L649.474 356.619C642.959 354.776 637.839 352.644 634.116 350.223 630.392 347.802 627.763 344.587 626.229 340.579 624.694 336.572 623.952 331.267 624.002 324.666L624.002 322.966C623.903 311.073 627.328 302.419 634.278 297.003 641.228 291.587 652.3 288.92 667.492 289.002Z" fill="#FFFFFF" fill-rule="evenodd"/><path d="M377 291 416.265 291 465.266 365.977 465.266 312.573C463.65 312.399 461.991 312.194 460.289 311.956 458.588 311.719 456.844 311.471 455.058 311.212L455.058 291 503 291 503 311.212C500.789 311.63 498.621 311.985 496.495 312.275 494.369 312.566 492.286 312.835 490.245 313.083L490.245 410 461.013 410 414.904 337.914 414.904 388.427C416.517 388.601 418.14 388.806 419.775 389.044 421.409 389.281 423.075 389.529 424.772 389.788L424.772 410 377.51 410 377.51 389.788C379.633 389.44 381.723 389.115 383.781 388.81 385.84 388.505 387.888 388.264 389.925 388.087L389.925 313.253 377 311.212 377 291Z" fill="#FFFFFF" fill-rule="evenodd"/><path d="M512 291 609.149 291 609.149 327.888 591.472 327.888 588.067 313.593 552.991 313.593 552.991 338.268 581.596 338.268 581.596 362.562 552.991 362.562 552.991 387.407 588.917 387.407 592.323 373.113 610 373.113 610 410 512.51 410 512.51 389.788C515.056 389.451 517.325 389.146 519.318 388.873 521.31 388.6 523.068 388.338 524.593 388.086L524.593 312.913C522.76 312.672 520.853 312.431 518.871 312.191 516.889 311.95 514.599 311.624 512 311.212L512 291Z" fill="#FFFFFF" fill-rule="evenodd"/><path d="M773 291 830.507 291 830.507 311.212C827.957 311.723 825.311 312.148 822.569 312.488 819.826 312.828 816.967 313.083 813.991 313.253L813.991 387.407 848.897 387.407 852.132 370.234 871 370.234 871 410 773.51 410 773.51 389.788C776.141 389.366 778.453 389.019 780.445 388.746 782.438 388.473 784.154 388.254 785.593 388.087L785.593 312.913C783.388 312.662 781.246 312.4 779.169 312.127 777.091 311.855 775.035 311.55 773 311.212L773 291Z" fill="#FFFFFF" fill-rule="evenodd"/><path d="M904.609 291 962.092 291 994.334 387.917C996.896 388.091 999.404 388.339 1001.86 388.661 1004.31 388.983 1006.69 389.359 1009 389.788L1009 410 951.358 410 951.358 389.786C953.216 389.446 955.043 389.149 956.837 388.894 958.631 388.639 960.5 388.427 962.443 388.257L958.35 375.484 923.702 375.484 920.974 388.085C922.697 388.337 923.983 388.599 924.832 388.872 925.681 389.146 927.009 389.451 928.818 389.788L928.818 410 878 410 878 389.788C880.299 389.358 882.608 388.982 884.928 388.66 887.248 388.337 889.6 388.09 891.983 387.917L916.208 312.743C914.691 312.573 912.992 312.361 911.112 312.105 909.232 311.85 907.065 311.552 904.609 311.212L904.609 291ZM940.44 314.615 929.18 351.531 952.381 351.531 940.781 314.615 940.44 314.615Z" fill="#FFFFFF" fill-rule="evenodd"/><path d="M1014 291.001 1075.32 291.001C1089.76 290.93 1100.17 293.621 1106.57 299.072 1112.96 304.524 1116.09 313.164 1115.96 324.993L1115.96 326.354C1115.94 332.206 1114.76 337.004 1112.43 340.747 1110.1 344.49 1106.76 347.287 1102.42 349.137 1107.29 350.484 1111.09 353.309 1113.83 357.611 1116.56 361.913 1117.95 367.759 1118 375.149L1118 377.191C1118.12 389.85 1115.03 398.525 1108.73 403.216 1102.42 407.906 1092.13 410.164 1077.86 409.991L1014.51 409.991 1014.51 389.78C1017.05 389.358 1019.34 389.011 1021.39 388.738 1023.44 388.465 1025.27 388.245 1026.88 388.079L1026.88 313.083C1025.18 312.835 1023.27 312.566 1021.14 312.275 1019 311.985 1016.62 311.63 1014 311.212L1014 291.001ZM1055.15 314.102 1055.15 339.286 1073.62 339.286C1078.76 339.374 1082.51 338.687 1084.87 337.223 1087.24 335.759 1088.4 332.986 1088.37 328.906L1088.37 326.524C1088.54 322.21 1087.86 319.055 1086.34 317.059 1084.81 315.063 1081.42 314.078 1076.17 314.102L1055.15 314.102ZM1055.15 360.686 1055.15 386.89 1073.62 386.89C1078.87 386.897 1082.78 385.777 1085.36 383.529 1087.94 381.282 1089.22 377.865 1089.22 373.278L1089.22 370.896C1089.21 366.748 1087.91 363.983 1085.3 362.601 1082.69 361.218 1078.8 360.58 1073.62 360.686L1055.15 360.686Z" fill="#FFFFFF" fill-rule="evenodd"/><path d="M200.108 291 254 291 254 311.278C251.95 311.626 249.889 311.953 247.817 312.258 245.745 312.563 243.642 312.805 241.506 312.982L241.506 369.314 241.506 390.762 241.506 447.094C241.549 452.632 241.063 457.361 240.049 461.282 239.034 465.203 237.231 468.859 234.639 472.249 232.047 475.64 228.407 479.308 223.719 483.254 219.671 486.474 216.692 488.691 214.782 489.906 212.872 491.122 210.662 492.486 208.152 494L196 482.572C197.13 481.3 198.207 480.049 199.231 478.819 200.254 477.59 201.63 475.827 203.36 473.532 207.129 469.15 209.689 465.078 211.04 461.315 212.392 457.552 213.026 452.754 212.944 446.923L212.944 390.591 212.944 369.314 212.944 312.982C210.805 312.805 208.665 312.563 206.526 312.258L200.108 311.278Z" fill="#FFFFFF" fill-rule="evenodd"/><path d="M837.964 431C838.964 431 839.976 431.171 841 431.513L840.857 435.431 840.929 439.093 839.822 439.752C838.679 438.531 837.226 437.921 835.464 437.921 832.702 437.921 831.155 439.007 830.821 441.18 830.655 442.278 830.571 444.475 830.571 447.771L830.571 452.897 833.821 452.897C835.44 452.897 837.536 452.8 840.107 452.605L840.607 453.007 839.786 457.182 839.429 457.548 834.321 457.511C832.512 457.511 831.262 457.523 830.571 457.548L830.571 464.066C830.571 475.149 830.738 481.069 831.072 481.826 831.262 482.265 831.583 482.546 832.036 482.668 832.75 482.839 834.393 482.961 836.964 483.034L837.321 483.4 837.321 485.634 836.964 486 834.321 485.89C831.798 485.792 829.06 485.744 826.107 485.744 821.845 485.744 818.595 485.829 816.357 486L816 485.634 816 483.4 816.357 483.034C818.643 482.961 820.06 482.778 820.607 482.485 821.083 482.265 821.345 481.679 821.393 480.727 821.56 477.554 821.643 472 821.643 464.066L821.643 457.548C821.119 457.523 820.798 457.511 820.679 457.511 820.417 457.511 819.726 457.548 818.607 457.621 818.06 457.646 817.31 457.682 816.357 457.731L816 457.365 816 456.23 816.321 455.717 819.5 454.033C820.119 453.74 820.774 453.386 821.464 452.971 821.583 452.824 821.643 452.605 821.643 452.312L821.643 451.762C821.643 448.003 821.881 445.44 822.357 444.073 822.619 443.34 823.119 442.51 823.857 441.583 824.071 441.314 825.619 439.776 828.5 436.969L830.714 434.808C831.357 434.149 832.179 433.368 833.179 432.465 834.488 431.488 836.083 431 837.964 431Z" fill="#FFFFFF" fill-rule="evenodd"/><path d="M923.815 431 924.593 431.441C924.593 432.102 924.556 433.315 924.482 435.078 924.235 440.932 924.111 447.411 924.111 454.514L924.111 463.993C924.111 471.953 924.198 477.525 924.37 480.709 924.42 481.665 924.691 482.253 925.185 482.473 925.753 482.767 927.222 482.951 929.593 483.024L930 483.391 930 485.633 929.63 486C927.284 485.829 923.901 485.743 919.482 485.743 915.062 485.743 911.691 485.829 909.37 486L909 485.633 909 483.391 909.37 483.024C911.741 482.951 913.21 482.767 913.778 482.473 914.272 482.253 914.543 481.665 914.593 480.709 914.765 477.525 914.852 471.953 914.852 463.993L914.852 451.685C914.852 446.541 914.765 442.377 914.593 439.193 914.543 438.287 914.272 437.693 913.778 437.411 913.284 437.13 911.852 436.952 909.481 436.878L909.111 436.474 909.111 434.454 909.481 434.049C914.247 433.535 919.025 432.519 923.815 431Z" fill="#FFFFFF" fill-rule="evenodd"/><path d="M1073.35 431 1074.16 431.441C1074.16 431.539 1074.11 432.75 1074.01 435.076 1073.79 440.339 1073.68 448.247 1073.68 458.798L1073.68 470.659C1073.68 477.538 1073.84 481.32 1074.16 482.006 1074.36 482.422 1074.62 482.679 1074.97 482.777 1075.5 482.948 1076.73 483.107 1078.63 483.254L1079 483.622 1079 485.605 1078.63 485.972C1076.24 485.8 1074.07 485.715 1072.14 485.715 1070.31 485.715 1067.83 485.8 1064.7 485.972L1064.37 485.715C1064.47 484.515 1064.52 482.508 1064.52 479.692 1063.64 480.427 1062.38 481.553 1060.74 483.071 1058.71 484.956 1057.39 486.082 1056.78 486.449 1056 486.816 1054.73 487 1052.97 487 1048.79 487 1045.42 485.421 1042.85 482.263 1040.28 479.105 1039 475.017 1039 469.998 1039 465.126 1039.99 461.332 1041.97 458.614 1042.48 457.904 1044 456.644 1046.52 454.832 1049.45 452.727 1051.59 451.393 1052.93 450.83 1054.11 450.34 1055.6 450.095 1057.41 450.095 1059.95 450.095 1062.32 450.634 1064.52 451.711L1064.52 449.654C1064.52 443.216 1064.36 439.422 1064.04 438.271 1063.87 437.634 1063.37 437.243 1062.54 437.096 1062.15 437.022 1061.02 436.949 1059.16 436.875L1058.8 436.472 1058.8 434.452 1059.16 434.048C1063.86 433.558 1068.59 432.542 1073.35 431ZM1055.94 454.906C1052.57 454.906 1050.39 456.644 1049.41 460.12 1048.87 462.054 1048.61 464.208 1048.61 466.583 1048.61 471.651 1049.79 475.408 1052.16 477.856 1053.41 479.154 1055.08 479.803 1057.19 479.803 1058.92 479.803 1060.53 479.252 1062.02 478.15 1063.37 477.171 1064.16 476.118 1064.41 474.992 1064.48 474.649 1064.52 471.797 1064.52 466.436L1064.52 459.533C1062.76 457.427 1061.07 456.081 1059.46 455.493 1058.36 455.101 1057.19 454.906 1055.94 454.906Z" fill="#FFFFFF" fill-rule="evenodd"/><path d="M492.02 432C493.635 432 495.036 432.531 496.221 433.592 497.407 434.653 498 435.961 498 437.518 498 439.027 497.414 440.318 496.241 441.391 495.068 442.464 493.661 443 492.02 443 490.352 443 488.932 442.464 487.759 441.391 486.586 440.318 486 439.027 486 437.518 486 435.961 486.593 434.653 487.778 433.592 488.964 432.531 490.378 432 492.02 432Z" fill="#FFFFFF" fill-rule="evenodd"/><path d="M667.02 432C668.635 432 670.036 432.531 671.221 433.592 672.407 434.653 673 435.961 673 437.518 673 439.027 672.414 440.318 671.241 441.391 670.068 442.464 668.661 443 667.02 443 665.352 443 663.932 442.464 662.759 441.391 661.586 440.318 661 439.027 661 437.518 661 435.961 661.593 434.653 662.779 433.592 663.964 432.531 665.378 432 667.02 432Z" fill="#FFFFFF" fill-rule="evenodd"/><path d="M1021.02 432C1022.64 432 1024.04 432.531 1025.22 433.592 1026.41 434.653 1027 435.961 1027 437.518 1027 439.027 1026.41 440.318 1025.24 441.391 1024.07 442.464 1022.66 443 1021.02 443 1019.35 443 1017.93 442.464 1016.76 441.391 1015.59 440.318 1015 439.027 1015 437.518 1015 435.961 1015.59 434.653 1016.78 433.592 1017.96 432.531 1019.38 432 1021.02 432Z" fill="#FFFFFF" fill-rule="evenodd"/><path d="M374.363 434C376.689 434.146 380.42 434.219 385.556 434.219 390.789 434.219 394.507 434.146 396.712 434L397.075 434.365 397.075 436.809 396.712 437.173C394.241 437.319 392.824 437.441 392.46 437.538 391.758 437.733 391.346 438.183 391.225 438.888 390.91 440.639 390.752 444.408 390.752 450.195L390.752 457.71C390.752 466.902 391.164 472.531 391.988 474.598 393.635 478.683 397.693 480.726 404.162 480.726 408.401 480.726 411.708 479.68 414.082 477.589 415.196 476.592 415.972 475.583 416.408 474.562 416.844 473.54 417.183 471.96 417.425 469.82 417.643 467.826 417.752 465.807 417.752 463.765L417.752 456.178C417.752 449.806 417.728 445.454 417.68 443.119 417.631 440.93 417.486 439.508 417.244 438.851 417.05 438.365 416.626 437.988 415.972 437.721 415.414 437.502 413.925 437.319 411.502 437.173L411.139 436.809 411.139 434.365 411.502 434C413.61 434.146 415.778 434.219 418.007 434.219 419.678 434.219 422.888 434.146 427.637 434L428 434.365 428 436.809 427.637 437.173C424.778 437.173 423.167 437.939 422.803 439.471 422.61 440.323 422.464 442.171 422.367 445.016 422.295 447.131 422.258 450.183 422.258 454.171L422.258 465.406C422.258 472.628 420.841 477.784 418.007 480.872 414.252 484.957 408.898 487 401.945 487 395.598 487 390.643 485.942 387.082 483.827 384.078 482.027 382.116 479.474 381.195 476.167 380.614 474.051 380.323 468.531 380.323 459.606L380.323 450.195C380.323 444.408 380.166 440.639 379.851 438.888 379.729 438.183 379.318 437.733 378.615 437.538 378.252 437.441 376.835 437.319 374.363 437.173L374 436.809 374 434.365 374.363 434Z" fill="#FFFFFF" fill-rule="evenodd"/><path d="M865.369 434C867.733 434.147 871.524 434.22 876.743 434.22 880.115 434.22 888.411 434.147 901.631 434L902 434.294 901.52 438.477C901.422 439.407 901.311 440.63 901.188 442.147L900.966 445.083 900.597 445.486 898.455 445.486 898.086 445.119C898.037 441.817 897.84 439.933 897.495 439.468 896.929 438.71 893.495 438.33 887.193 438.33 886.183 438.33 884.596 438.404 882.429 438.55 882.158 441.046 882.023 445.523 882.023 451.982L882.023 456.936 886.196 457.046C887.451 457.07 889.777 457.021 893.175 456.899 893.839 456.875 894.282 456.691 894.504 456.349 894.873 455.761 895.095 454.147 895.169 451.505L895.538 451.138 897.827 451.138 898.197 451.505C898.098 454.245 898.049 456.752 898.049 459.027 898.049 461.498 898.098 464.202 898.197 467.138L897.827 467.468 895.353 467.468 894.984 467.101C894.984 464.532 894.873 463.027 894.652 462.587 894.233 461.731 892.965 461.217 890.848 461.046 889.396 460.924 887.968 460.862 886.565 460.862 884.866 460.862 883.352 460.899 882.023 460.973L882.023 469.706C882.023 475.505 882.183 479.297 882.503 481.083 882.626 481.792 883.045 482.245 883.759 482.44 883.931 482.489 885.691 482.612 889.039 482.807L889.408 483.174 889.408 485.633 889.002 486 874.158 485.78C872.041 485.755 869.111 485.829 865.369 486L865 485.67 865 483.174 865.369 482.807C867.88 482.661 869.32 482.538 869.69 482.44 870.404 482.245 870.822 481.792 870.945 481.083 871.265 479.297 871.425 475.505 871.425 469.706L871.425 450.294C871.425 444.495 871.265 440.703 870.945 438.917 870.822 438.208 870.404 437.755 869.69 437.56 869.32 437.462 867.88 437.339 865.369 437.193L865 436.826 865 434.33 865.369 434Z" fill="#FFFFFF" fill-rule="evenodd"/><path d="M340.985 437 341.95 437.729C341.653 440.74 341.443 443.436 341.319 445.816L340.985 452.119 342.21 452.119C344.905 452.119 347.23 452.034 349.184 451.864L349.592 452.265 349.073 456.527 348.702 456.891 340.985 456.891 340.985 469.242C340.985 473.2 341.035 475.532 341.134 476.236 341.257 477.257 341.696 478.082 342.451 478.714 343.205 479.345 344.225 479.661 345.511 479.661 346.525 479.661 347.749 479.394 349.184 478.859L350 480.171C349.827 480.365 349.295 480.875 348.405 481.701 346.946 483.061 345.697 484.3 344.658 485.417 343.446 485.806 342.222 486 340.985 486 337.548 486 335.038 485.016 333.455 483.049 332.787 482.199 332.342 481.215 332.119 480.098 331.872 478.762 331.761 477.014 331.785 474.852L331.897 466.145 331.897 457.037 330.895 457.037 328.929 457.11 327.408 457.11 327 456.782 327 455.835 327.297 455.288C327.742 454.997 328.434 454.56 329.374 453.977 330.487 453.297 331.328 452.726 331.897 452.265L331.897 447.31C331.897 445.246 331.798 443.06 331.6 440.752 333.455 440.17 334.957 439.653 336.107 439.204 337.257 438.755 338.883 438.02 340.985 437Z" fill="#FFFFFF" fill-rule="evenodd"/><path d="M696.986 437 697.95 437.729C697.653 440.74 697.443 443.436 697.319 445.816L696.986 452.119 698.21 452.119C700.905 452.119 703.23 452.034 705.184 451.864L705.592 452.265 705.073 456.527 704.702 456.891 696.986 456.891 696.986 469.242C696.986 473.2 697.035 475.532 697.134 476.236 697.257 477.257 697.696 478.082 698.451 478.714 699.205 479.345 700.225 479.661 701.511 479.661 702.525 479.661 703.749 479.394 705.184 478.859L706 480.171C705.827 480.365 705.295 480.875 704.405 481.701 702.946 483.061 701.697 484.3 700.658 485.417 699.446 485.806 698.222 486 696.986 486 693.548 486 691.038 485.016 689.455 483.049 688.787 482.199 688.342 481.215 688.119 480.098 687.872 478.762 687.761 477.014 687.786 474.852L687.897 466.145 687.897 457.037 686.895 457.037 684.929 457.11 683.408 457.11 683 456.782 683 455.835 683.297 455.288C683.742 454.997 684.434 454.56 685.374 453.977 686.487 453.297 687.328 452.726 687.897 452.265L687.897 447.31C687.897 445.246 687.798 443.06 687.6 440.752 689.455 440.17 690.957 439.653 692.107 439.204 693.257 438.755 694.883 438.02 696.986 437Z" fill="#FFFFFF" fill-rule="evenodd"/><path d="M790.003 449C797.645 449 802.712 451.726 805.203 457.177 806.401 459.792 807 463.073 807 467.02 807 475.752 804.149 481.659 798.448 484.743 795.669 486.248 792.495 487 788.925 487 783.415 487 779.217 485.36 776.33 482.079 773.443 478.798 772 474.099 772 467.982 772 459.521 774.803 453.884 780.409 451.072 783.164 449.691 786.362 449 790.003 449ZM789.105 452.885C784.337 452.885 781.954 457.313 781.954 466.168 781.954 477.54 784.625 483.226 789.967 483.226 793.297 483.226 795.417 481.339 796.328 477.565 796.807 475.591 797.046 473.088 797.046 470.054 797.046 463.911 796.393 459.514 795.088 456.863 793.782 454.211 791.788 452.885 789.105 452.885Z" fill="#FFFFFF" fill-rule="evenodd"/><path d="M955.003 449C962.645 449 967.712 451.726 970.203 457.177 971.401 459.792 972 463.073 972 467.02 972 475.752 969.149 481.659 963.448 484.743 960.669 486.248 957.495 487 953.925 487 948.415 487 944.217 485.36 941.33 482.079 938.443 478.798 937 474.099 937 467.982 937 459.521 939.803 453.884 945.409 451.072 948.164 449.691 951.362 449 955.003 449ZM954.105 452.885C949.337 452.885 946.954 457.313 946.954 466.168 946.954 477.54 949.625 483.226 954.967 483.226 958.297 483.226 960.417 481.339 961.328 477.565 961.807 475.591 962.046 473.088 962.046 470.054 962.046 463.911 961.393 459.514 960.088 456.863 958.782 454.211 956.788 452.885 954.105 452.885Z" fill="#FFFFFF" fill-rule="evenodd"/><path d="M447.481 449 448.294 449.488 448.22 455.792 454.574 450.389C456.199 449.713 457.985 449.375 459.93 449.375 463.846 449.375 466.777 450.576 468.722 452.978 470.299 454.929 471.087 457.794 471.087 461.571 471.087 461.996 471.037 463.735 470.939 466.787 470.84 469.839 470.791 472.016 470.791 473.316 470.791 477.094 470.853 479.502 470.976 480.54 471.099 481.578 471.382 482.235 471.826 482.51 472.269 482.785 473.55 482.948 475.668 482.998L476 483.373 476 485.587 475.631 486C472.922 485.825 470.631 485.737 468.759 485.737 467.036 485.737 464.523 485.825 461.223 486L460.854 485.625C461.297 480.046 461.519 475.743 461.519 472.716L461.519 465.361C461.519 459.257 459.352 456.205 455.017 456.205 452.751 456.205 450.978 456.993 449.698 458.569 448.614 459.895 448.072 461.233 448.072 462.584L448.072 469.601C448.072 476.081 448.232 480.059 448.552 481.534 448.749 482.41 450.178 482.873 452.838 482.923L453.207 483.298 453.207 485.587 452.838 485.962C450.744 485.812 447.617 485.737 443.454 485.737 439.046 485.737 435.685 485.825 433.369 486L433 485.625 433 483.336 433.369 482.96C435.734 482.885 437.199 482.698 437.766 482.398 438.258 482.172 438.529 481.572 438.578 480.596 438.751 477.344 438.837 473.854 438.837 470.127L438.837 464.761C438.837 459.757 438.652 456.88 438.283 456.13 438.036 455.63 437.507 455.317 436.694 455.192 436.399 455.142 435.327 455.079 433.48 455.004L433.111 454.629 433.111 452.527 433.48 452.115C437.913 451.689 442.58 450.651 447.481 449Z" fill="#FFFFFF" fill-rule="evenodd"/><path d="M496.815 449 497.593 449.488C497.272 454.041 497.111 457.881 497.111 461.008L497.111 472.979C497.111 474.805 497.197 477.344 497.37 480.596 497.42 481.572 497.691 482.172 498.185 482.398 498.753 482.698 500.222 482.885 502.593 482.96L503 483.336 503 485.625 502.63 486C500.284 485.825 496.901 485.737 492.481 485.737 488.062 485.737 484.691 485.825 482.37 486L482 485.625 482 483.336 482.37 482.96C484.741 482.885 486.21 482.698 486.778 482.398 487.272 482.172 487.543 481.572 487.593 480.596 487.765 477.344 487.852 473.854 487.852 470.127L487.852 464.761C487.852 459.907 487.667 457.03 487.296 456.13 487.099 455.63 486.568 455.317 485.704 455.192 485.407 455.142 484.333 455.079 482.481 455.004L482.111 454.629 482.111 452.527 482.481 452.115C487.222 451.689 492 450.651 496.815 449Z" fill="#FFFFFF" fill-rule="evenodd"/><path d="M606.207 449 607.004 449.488 606.932 456.843C608.43 455.042 610.242 452.94 612.368 450.539 613.358 449.538 614.711 449.038 616.427 449.038 617.442 449.038 618.299 449.188 619 449.488L618.746 456.167C618.722 457.268 618.674 458.519 618.601 459.92L617.079 460.408C615.944 458.707 614.373 457.856 612.368 457.856 610.556 457.856 609.058 458.606 607.874 460.108 607.149 461.033 606.787 462.397 606.787 464.198L606.787 472.979C606.787 474.805 606.871 477.344 607.04 480.596 607.089 481.522 607.342 482.122 607.801 482.398 608.26 482.673 609.94 482.86 612.839 482.96L613.201 483.298 613.201 485.587 612.839 485.962C609.287 485.812 605.76 485.737 602.256 485.737 597.932 485.737 594.634 485.825 592.362 486L592 485.625 592 483.336 592.362 482.96C594.682 482.885 596.12 482.698 596.675 482.398 597.158 482.172 597.424 481.572 597.472 480.596 597.642 477.344 597.726 473.854 597.726 470.127L597.726 464.761C597.726 459.757 597.545 456.88 597.183 456.13 596.941 455.63 596.422 455.317 595.624 455.192 595.334 455.142 594.283 455.079 592.471 455.004L592.109 454.629 592.109 452.527 592.471 452.115C596.82 451.689 601.399 450.651 606.207 449Z" fill="#FFFFFF" fill-rule="evenodd"/><path d="M671.815 449 672.593 449.488C672.272 454.041 672.111 457.881 672.111 461.008L672.111 472.979C672.111 474.805 672.198 477.344 672.37 480.596 672.42 481.572 672.691 482.172 673.185 482.398 673.753 482.698 675.222 482.885 677.593 482.96L678 483.336 678 485.625 677.63 486C675.284 485.825 671.901 485.737 667.481 485.737 663.062 485.737 659.691 485.825 657.37 486L657 485.625 657 483.336 657.37 482.96C659.741 482.885 661.21 482.698 661.778 482.398 662.272 482.172 662.543 481.572 662.593 480.596 662.765 477.344 662.852 473.854 662.852 470.127L662.852 464.761C662.852 459.907 662.667 457.03 662.296 456.13 662.099 455.63 661.568 455.317 660.704 455.192 660.407 455.142 659.333 455.079 657.481 455.004L657.111 454.629 657.111 452.527 657.481 452.115C662.222 451.689 667 450.651 671.815 449Z" fill="#FFFFFF" fill-rule="evenodd"/><path d="M994.207 449 995.004 449.488 994.932 456.843C996.43 455.042 998.242 452.94 1000.37 450.539 1001.36 449.538 1002.71 449.038 1004.43 449.038 1005.44 449.038 1006.3 449.188 1007 449.488L1006.75 456.167C1006.72 457.268 1006.67 458.519 1006.6 459.92L1005.08 460.408C1003.94 458.707 1002.37 457.856 1000.37 457.856 998.556 457.856 997.058 458.606 995.874 460.108 995.149 461.033 994.787 462.397 994.787 464.198L994.787 472.979C994.787 474.805 994.871 477.344 995.04 480.596 995.089 481.522 995.342 482.122 995.801 482.398 996.26 482.673 997.94 482.86 1000.84 482.96L1001.2 483.298 1001.2 485.587 1000.84 485.962C997.287 485.812 993.76 485.737 990.256 485.737 985.932 485.737 982.634 485.825 980.362 486L980 485.625 980 483.336 980.362 482.96C982.682 482.885 984.12 482.698 984.675 482.398 985.158 482.172 985.424 481.572 985.473 480.596 985.642 477.344 985.726 473.854 985.726 470.127L985.726 464.761C985.726 459.757 985.545 456.88 985.183 456.13 984.941 455.63 984.422 455.317 983.624 455.192 983.334 455.142 982.283 455.079 980.471 455.004L980.109 454.629 980.109 452.527 980.471 452.115C984.82 451.689 989.399 450.651 994.207 449Z" fill="#FFFFFF" fill-rule="evenodd"/><path d="M1025.81 449 1026.59 449.488C1026.27 454.041 1026.11 457.881 1026.11 461.008L1026.11 472.979C1026.11 474.805 1026.2 477.344 1026.37 480.596 1026.42 481.572 1026.69 482.172 1027.19 482.398 1027.75 482.698 1029.22 482.885 1031.59 482.96L1032 483.336 1032 485.625 1031.63 486C1029.28 485.825 1025.9 485.737 1021.48 485.737 1017.06 485.737 1013.69 485.825 1011.37 486L1011 485.625 1011 483.336 1011.37 482.96C1013.74 482.885 1015.21 482.698 1015.78 482.398 1016.27 482.172 1016.54 481.572 1016.59 480.596 1016.77 477.344 1016.85 473.854 1016.85 470.127L1016.85 464.761C1016.85 459.907 1016.67 457.03 1016.3 456.13 1016.1 455.63 1015.57 455.317 1014.7 455.192 1014.41 455.142 1013.33 455.079 1011.48 455.004L1011.11 454.629 1011.11 452.527 1011.48 452.115C1016.22 451.689 1021 450.651 1025.81 449Z" fill="#FFFFFF" fill-rule="evenodd"/><path d="M638.619 449C642.469 449 645.67 449.669 648.221 451.008L648.546 451.603C648.281 452.718 648.076 455.581 647.932 460.192L647.535 460.564 645.477 460.564 645.08 460.192C644.984 458.407 644.815 456.957 644.575 455.841 643.059 453.858 640.857 452.867 637.969 452.867 636.092 452.867 634.552 453.338 633.349 454.28 632.146 455.222 631.544 456.461 631.544 457.998 631.544 460.055 632.567 461.431 634.612 462.125 635.527 462.423 637.307 462.844 639.955 463.389 643.997 464.207 646.668 465.149 647.968 466.215 649.989 467.876 651 470.367 651 473.689 651 477.68 649.538 480.896 646.614 483.338 643.691 485.779 639.87 487 635.154 487 631.809 487 628.223 486.256 624.397 484.769L624 484.211C624.217 481.931 624.349 480.159 624.397 478.894L624.578 474.209 624.939 473.8 627.068 473.8 627.501 474.209C627.598 476.986 627.706 478.622 627.826 479.117 629.872 481.819 632.555 483.17 635.876 483.17 637.993 483.17 639.69 482.637 640.965 481.571 642.241 480.506 642.878 479.08 642.878 477.296 642.878 475.04 641.916 473.54 639.991 472.796 639.172 472.474 637.548 472.053 635.118 471.532 631.147 470.665 628.488 469.673 627.14 468.558 625.095 466.872 624.072 464.381 624.072 461.084 624.072 457.49 625.336 454.602 627.862 452.421 630.509 450.14 634.095 449 638.619 449Z" fill="#FFFFFF" fill-rule="evenodd"/><path d="M304.554 450C309.239 450 312.581 451.231 314.579 453.693 316.029 455.486 316.755 458.235 316.755 461.94 316.755 462.849 316.719 464.307 316.648 466.315 316.529 469.661 316.469 471.896 316.469 473.02 316.469 476.629 316.529 478.93 316.648 479.922 316.767 480.914 317.046 481.542 317.486 481.805 317.926 482.068 318.978 482.223 320.643 482.271L321 482.665 321 484.673 320.608 485.068C318.61 484.948 316.315 484.888 313.722 484.888 311.701 484.888 309.763 484.948 307.907 485.068L307.586 484.673 307.907 479.868 300.987 485.175C300.44 485.582 299.655 485.833 298.632 485.928 298.228 485.976 297.752 486 297.205 486 294.565 486 292.538 485.199 291.123 483.598 289.708 481.996 289 479.785 289 476.964 289 473.235 290.177 470.594 292.532 469.04 295.077 467.343 300.202 465.813 307.907 464.45 307.907 460.649 306.909 458.104 304.911 456.813 303.698 456.024 302.247 455.629 300.559 455.629 298.703 455.629 297.241 456.012 296.171 456.777L294.815 460.112 294.351 460.363 292.532 459.932 292.282 459.43 292.46 455.199C296.385 452.283 299.334 450.634 301.308 450.251 302.14 450.084 303.222 450 304.554 450ZM307.907 467.498C303.983 468.359 301.337 469.285 299.97 470.277 298.602 471.269 297.919 472.781 297.919 474.813 297.919 478.064 299.334 479.689 302.164 479.689 304.566 479.689 306.48 478.566 307.907 476.319L307.907 467.498Z" fill="#FFFFFF" fill-rule="evenodd"/><path d="M1101.55 450C1106.24 450 1109.58 451.231 1111.58 453.693 1113.03 455.486 1113.75 458.235 1113.75 461.94 1113.75 462.849 1113.72 464.307 1113.65 466.315 1113.53 469.661 1113.47 471.896 1113.47 473.02 1113.47 476.629 1113.53 478.93 1113.65 479.922 1113.77 480.914 1114.05 481.542 1114.49 481.805 1114.93 482.068 1115.98 482.223 1117.64 482.271L1118 482.665 1118 484.673 1117.61 485.068C1115.61 484.948 1113.31 484.888 1110.72 484.888 1108.7 484.888 1106.76 484.948 1104.91 485.068L1104.59 484.673 1104.91 479.868 1097.99 485.175C1097.44 485.582 1096.65 485.833 1095.63 485.928 1095.23 485.976 1094.75 486 1094.21 486 1091.57 486 1089.54 485.199 1088.12 483.598 1086.71 481.996 1086 479.785 1086 476.964 1086 473.235 1087.18 470.594 1089.53 469.04 1092.08 467.343 1097.2 465.813 1104.91 464.45 1104.91 460.649 1103.91 458.104 1101.91 456.813 1100.7 456.024 1099.25 455.629 1097.56 455.629 1095.7 455.629 1094.24 456.012 1093.17 456.777L1091.81 460.112 1091.35 460.363 1089.53 459.932 1089.28 459.43 1089.46 455.199C1093.38 452.283 1096.33 450.634 1098.31 450.251 1099.14 450.084 1100.22 450 1101.55 450ZM1104.91 467.498C1100.98 468.359 1098.34 469.285 1096.97 470.277 1095.6 471.269 1094.92 472.781 1094.92 474.813 1094.92 478.064 1096.33 479.689 1099.16 479.689 1101.57 479.689 1103.48 478.566 1104.91 476.319L1104.91 467.498Z" fill="#FFFFFF" fill-rule="evenodd"/><path d="M571.956 450C576.401 450 579.841 451.254 582.275 453.762 584.758 456.343 586 460.057 586 464.902 586 465.316 585.988 465.937 585.963 466.765L585.553 467.276C582.275 468.153 577.929 468.591 572.515 468.591 571.546 468.591 570.081 468.61 568.119 468.646 566.157 468.683 564.679 468.701 563.686 468.701 563.835 472.28 564.965 475.239 567.076 477.577 569.286 480.085 572.167 481.339 575.718 481.339 578.102 481.339 580.934 480.535 584.212 478.928L585.106 479.987 583.467 483.603C579.841 485.868 575.905 487 571.658 487 566.07 487 561.73 485.454 558.638 482.361 555.546 479.269 554 474.861 554 469.139 554 462.345 555.652 457.695 558.955 455.186 563.524 451.729 567.858 450 571.956 450ZM570.019 454.091C565.623 454.091 563.425 457.354 563.425 463.88L563.425 464.683C564.865 464.902 567.423 465.012 571.099 465.012 573.011 465.012 574.725 464.902 576.24 464.683 576.265 464.342 576.277 464.099 576.277 463.953 576.277 457.378 574.191 454.091 570.019 454.091Z" fill="#FFFFFF" fill-rule="evenodd"/><path d="M508.403 451C510.647 451.073 513.904 451.109 518.174 451.109 521.931 451.109 524.871 451.073 526.994 451L527.396 451.364 527.396 453.513 526.994 453.914C525.188 453.962 524.017 454.071 523.48 454.241 522.944 454.411 522.675 454.739 522.675 455.225 522.675 455.905 524.176 460.178 527.177 468.045 528.762 472.245 529.799 474.88 530.287 475.948 531.849 472.306 533.337 468.737 534.752 465.24 537.07 459.534 538.229 456.196 538.229 455.225 538.229 454.715 537.979 454.381 537.479 454.223 536.978 454.065 535.777 453.95 533.874 453.877L533.471 453.513 533.471 451.364 533.874 451C535.752 451.073 537.973 451.109 540.534 451.109 543.291 451.109 545.658 451.073 547.634 451L548 451.364 548 453.586 547.634 453.986C546.146 454.084 545.17 454.266 544.706 454.533 544.365 454.727 543.95 455.261 543.462 456.135 542.974 457.009 542.059 458.976 540.717 462.035L533.727 478.17C533.483 478.752 532.434 481.362 530.58 486L524.176 486C522.809 482.164 521.321 478.242 519.711 474.236 517.149 467.85 514.966 462.363 513.16 457.774 512.355 455.735 511.489 454.545 510.562 454.205 510.025 454.011 509.305 453.901 508.403 453.877L508 453.477 508 451.364 508.403 451Z" fill="#FFFFFF" fill-rule="evenodd"/><path d="M709.403 451C710.966 451.057 713.957 451.086 718.377 451.086 722.48 451.086 725.813 451.057 728.377 451L728.744 451.287 728.744 453.011 728.377 453.298C725.593 453.298 724.201 453.69 724.201 454.476 724.201 454.82 724.324 455.242 724.568 455.74 724.958 456.62 725.557 457.932 726.363 459.675L731.711 470.762 734.934 464.701C738.084 458.784 739.659 455.328 739.659 454.332 739.659 453.643 738.243 453.298 735.41 453.298L735.044 453.011 735.044 451.287 735.447 451C736.863 451.057 739.256 451.086 742.626 451.086 744.531 451.086 746.521 451.057 748.597 451L749 451.287 749 453.039 748.67 453.298C747.059 453.298 745.96 453.662 745.374 454.389 745.056 454.811 744.189 456.218 742.773 458.612 739.574 464.069 736.924 468.838 734.824 472.917L728.927 484.349C727.095 487.891 725.129 490.409 723.029 491.903 721.051 493.301 718.634 494 715.777 494 713.969 494 712.223 493.665 710.538 492.995 710.954 491.635 711.381 489.73 711.821 487.279L712.773 487.135C714.043 488.552 715.764 489.261 717.938 489.261 720.502 489.261 722.858 487.298 725.007 483.372L726.509 480.615 714.641 456.429C713.957 455.031 713.328 454.164 712.755 453.829 712.181 453.494 711.051 453.317 709.366 453.298L709 453.011 709 451.287 709.403 451Z" fill="#FFFFFF" fill-rule="evenodd"/><path d="M277.5 421.5 1118.77 421.5" stroke="#F26C50" stroke-miterlimit="8" fill="none" fill-rule="evenodd"/><path d="M251.024 347.311C251.827 318.676 280.998 297.743 319.698 294.227 351.126 291.372 379.747 315.804 379.998 347.311 380.285 383.49 351.126 410 315.511 410 279.896 410 250.025 382.978 251.024 347.311Z" fill="#F26C4F" fill-rule="evenodd"/><path d="M0.234541 3.40304C0.0901837 3.8547 0.00713911 4.34184 0.0088189 4.85501 0.0153281 6.90793 0.296693 9.20494 2.60535 12.8673 4.62551 16.072 8.49848 21.4781 11.5453 24.1862L12.9993 25.3656 11.9615 26.1767C10.235 27.4858 8.47181 29.1793 7.27958 30.9588 4.89512 34.5177 0.321995 45.0751 1.35685 43.858 2.3916 42.6405 6.86467 37.3837 8.56588 35.6062 10.2671 33.8283 11.2188 33.0024 11.5642 33.1916 11.577 34.0487 11.5898 34.9057 11.6027 35.7627 11.7066 37.0639 11.9026 38.3642 12.2118 39.5742 13.4487 44.4141 17.7865 54.8132 18.5278 55.0479 19.2691 55.2824 16.4542 45.6433 16.6595 40.9816 16.865 36.3203 17.9489 30.8851 19.7602 27.0796 23.4152 24.0874 28.3096 21.4853 33.8464 19.6346 39.3833 17.784 53.7048 16.4541 52.9814 15.976 52.2582 15.4977 36.4245 15.5029 29.5069 16.7658 27.7774 17.0815 25.9988 17.6017 24.2752 18.2365L22.0459 19.2183C22.4867 17.5231 22.6471 16.2661 23.3684 14.133 24.993 9.32808 31.6191 0.0230971 30.7849 0.072231 29.9508 0.121575 21.5095 9.74541 18.3633 14.4283L16.87 17.1025C15.6475 16.43 12.5395 13.2331 11.0283 10.3937 9.51717 7.55444 8.71926 2.79076 7.30898 1.15013 5.89858-0.490499 3.7831-0.0677165 2.5664 0.549711 1.65386 1.01291 0.667822 2.04829 0.234541 3.40304Z" stroke="#FFFFFF" stroke-miterlimit="8" fill="#FFFFFF" fill-rule="evenodd" transform="matrix(-0.286977 0.957937 0.957937 0.286977 282.214 287.692)"/><path d="M326.021 400.991C326.803 401.279 351.948 394.666 364.535 376.072 375.68 359.608 371.31 333.291 370.362 333.003 369.415 332.715 373.489 356.386 359.845 374.343 346.202 392.3 325.24 400.703 326.021 400.991Z" fill="#FFFFFF" fill-rule="evenodd"/></g></svg>