<svg viewBox="0 0 340 340" width="32" height="32" xmlns="http://www.w3.org/2000/svg">
    <path d="M120.429 337.374C96.9434 336.07 79.174 333.6 64.2974 329.552 26.2104 319.122 9.88746 299.431 3.41337 256.136 0.93393 239.531 0.52069 229.925 0.10745 182.376-0.3747 122.34 0.658436 101.138 5.41066 72.9381 7.68352 59.6271 9.88746 52.011 13.8132 44.1205 22.1469 27.5847 35.1639 16.8124 54.9995 10.1569 73.3887 4.05038 89.9183 1.85476 128.418 0.48249 154.59-0.409519 226.15 0.00216105 237.858 1.16862 284.21 5.6971 305.836 14.6168 319.404 34.7891 328.289 48.1001 333.868 69.0271 335.934 96.9527 338.689 132.769 338.689 215.311 335.934 247.216 332.077 293.393 318.027 315.417 285.312 326.67 266.854 333.051 245.021 335.933 203.077 337.442 181.313 338.197 135.168 338.197 120.429 337.374Z" style="fill:#00a99d"/>
    <polygon points=" 122,122 162,122 202,162 242,122 312,122 302,162 242,162 242,182 282,182 322,222 322,242 282,282 212,282 222,242 282,242 282,222 242,222 202,182 202,282 162,282 162,242 122,242 132,202 162,202 162,162 122,162 122,272 82,282 82,162 " style="fill:rgba(0,0,0,0.001)" />
    <polygon points=" 121,121 161,121 201,161 241,121 311,121 301,161 241,161 241,181 281,181 321,221 321,241 281,281 211,281 221,241 281,241 281,221 241,221 201,181 201,281 161,281 161,241 121,241 131,201 161,201 161,161 121,161 121,271 81,281 81,161 " style="fill:rgba(0,0,0,0.002)" />
    <polygon points=" 120,120 160,120 200,160 240,120 310,120 300,160 240,160 240,180 280,180 320,220 320,240 280,280 210,280 220,240 280,240 280,220 240,220 200,180 200,280 160,280 160,240 120,240 130,200 160,200 160,160 120,160 120,270 80,280 80,160 " style="fill:rgba(0,0,0,0.003)" />
    <polygon points=" 119,119 159,119 199,159 239,119 309,119 299,159 239,159 239,179 279,179 319,219 319,239 279,279 209,279 219,239 279,239 279,219 239,219 199,179 199,279 159,279 159,239 119,239 129,199 159,199 159,159 119,159 119,269 79,279 79,159 " style="fill:rgba(0,0,0,0.004)" />
    <polygon points=" 118,118 158,118 198,158 238,118 308,118 298,158 238,158 238,178 278,178 318,218 318,238 278,278 208,278 218,238 278,238 278,218 238,218 198,178 198,278 158,278 158,238 118,238 128,198 158,198 158,158 118,158 118,268 78,278 78,158 " style="fill:rgba(0,0,0,0.005)" />
    <polygon points=" 117,117 157,117 197,157 237,117 307,117 297,157 237,157 237,177 277,177 317,217 317,237 277,277 207,277 217,237 277,237 277,217 237,217 197,177 197,277 157,277 157,237 117,237 127,197 157,197 157,157 117,157 117,267 77,277 77,157 " style="fill:rgba(0,0,0,0.006)" />
    <polygon points=" 116,116 156,116 196,156 236,116 306,116 296,156 236,156 236,176 276,176 316,216 316,236 276,276 206,276 216,236 276,236 276,216 236,216 196,176 196,276 156,276 156,236 116,236 126,196 156,196 156,156 116,156 116,266 76,276 76,156 " style="fill:rgba(0,0,0,0.007)" />
    <polygon points=" 115,115 155,115 195,155 235,115 305,115 295,155 235,155 235,175 275,175 315,215 315,235 275,275 205,275 215,235 275,235 275,215 235,215 195,175 195,275 155,275 155,235 115,235 125,195 155,195 155,155 115,155 115,265 75,275 75,155 " style="fill:rgba(0,0,0,0.008)" />
    <polygon points=" 114,114 154,114 194,154 234,114 304,114 294,154 234,154 234,174 274,174 314,214 314,234 274,274 204,274 214,234 274,234 274,214 234,214 194,174 194,274 154,274 154,234 114,234 124,194 154,194 154,154 114,154 114,264 74,274 74,154 " style="fill:rgba(0,0,0,0.009)" />
    <polygon points=" 113,113 153,113 193,153 233,113 303,113 293,153 233,153 233,173 273,173 313,213 313,233 273,273 203,273 213,233 273,233 273,213 233,213 193,173 193,273 153,273 153,233 113,233 123,193 153,193 153,153 113,153 113,263 73,273 73,153 " style="fill:rgba(0,0,0,0.01)" />
    <polygon points=" 112,112 152,112 192,152 232,112 302,112 292,152 232,152 232,172 272,172 312,212 312,232 272,272 202,272 212,232 272,232 272,212 232,212 192,172 192,272 152,272 152,232 112,232 122,192 152,192 152,152 112,152 112,262 72,272 72,152 " style="fill:rgba(0,0,0,0.011)" />
    <polygon points=" 111,111 151,111 191,151 231,111 301,111 291,151 231,151 231,171 271,171 311,211 311,231 271,271 201,271 211,231 271,231 271,211 231,211 191,171 191,271 151,271 151,231 111,231 121,191 151,191 151,151 111,151 111,261 71,271 71,151 " style="fill:rgba(0,0,0,0.012)" />
    <polygon points=" 110,110 150,110 190,150 230,110 300,110 290,150 230,150 230,170 270,170 310,210 310,230 270,270 200,270 210,230 270,230 270,210 230,210 190,170 190,270 150,270 150,230 110,230 120,190 150,190 150,150 110,150 110,260 70,270 70,150 " style="fill:rgba(0,0,0,0.013)" />
    <polygon points=" 109,109 149,109 189,149 229,109 299,109 289,149 229,149 229,169 269,169 309,209 309,229 269,269 199,269 209,229 269,229 269,209 229,209 189,169 189,269 149,269 149,229 109,229 119,189 149,189 149,149 109,149 109,259 69,269 69,149 " style="fill:rgba(0,0,0,0.014)" />
    <polygon points=" 108,108 148,108 188,148 228,108 298,108 288,148 228,148 228,168 268,168 308,208 308,228 268,268 198,268 208,228 268,228 268,208 228,208 188,168 188,268 148,268 148,228 108,228 118,188 148,188 148,148 108,148 108,258 68,268 68,148 " style="fill:rgba(0,0,0,0.015)" />
    <polygon points=" 107,107 147,107 187,147 227,107 297,107 287,147 227,147 227,167 267,167 307,207 307,227 267,267 197,267 207,227 267,227 267,207 227,207 187,167 187,267 147,267 147,227 107,227 117,187 147,187 147,147 107,147 107,257 67,267 67,147 " style="fill:rgba(0,0,0,0.016)" />
    <polygon points=" 106,106 146,106 186,146 226,106 296,106 286,146 226,146 226,166 266,166 306,206 306,226 266,266 196,266 206,226 266,226 266,206 226,206 186,166 186,266 146,266 146,226 106,226 116,186 146,186 146,146 106,146 106,256 66,266 66,146 " style="fill:rgba(0,0,0,0.017)" />
    <polygon points=" 105,105 145,105 185,145 225,105 295,105 285,145 225,145 225,165 265,165 305,205 305,225 265,265 195,265 205,225 265,225 265,205 225,205 185,165 185,265 145,265 145,225 105,225 115,185 145,185 145,145 105,145 105,255 65,265 65,145 " style="fill:rgba(0,0,0,0.018)" />
    <polygon points=" 104,104 144,104 184,144 224,104 294,104 284,144 224,144 224,164 264,164 304,204 304,224 264,264 194,264 204,224 264,224 264,204 224,204 184,164 184,264 144,264 144,224 104,224 114,184 144,184 144,144 104,144 104,254 64,264 64,144 " style="fill:rgba(0,0,0,0.019)" />
    <polygon points=" 103,103 143,103 183,143 223,103 293,103 283,143 223,143 223,163 263,163 303,203 303,223 263,263 193,263 203,223 263,223 263,203 223,203 183,163 183,263 143,263 143,223 103,223 113,183 143,183 143,143 103,143 103,253 63,263 63,143 " style="fill:rgba(0,0,0,0.020)" />
    <polygon points=" 102,102 142,102 182,142 222,102 292,102 282,142 222,142 222,162 262,162 302,202 302,222 262,262 192,262 202,222 262,222 262,202 222,202 182,162 182,262 142,262 142,222 102,222 112,182 142,182 142,142 102,142 102,252 62,262 62,142 " style="fill:rgba(0,0,0,0.021)" />
    <polygon points=" 101,101 141,101 181,141 221,101 291,101 281,141 221,141 221,161 261,161 301,201 301,221 261,261 191,261 201,221 261,221 261,201 221,201 181,161 181,261 141,261 141,221 101,221 111,181 141,181 141,141 101,141 101,251 61,261 61,141 " style="fill:rgba(0,0,0,0.022)" />
    <polygon points=" 100,100 140,100 180,140 220,100 290,100 280,140 220,140 220,160 260,160 300,200 300,220 260,260 190,260 200,220 260,220 260,200 220,200 180,160 180,260 140,260 140,220 100,220 110,180 140,180 140,140 100,140 100,250 60,260 60,140 " style="fill:rgba(0,0,0,0.023)" />
    <polygon points=" 99,99 139,99 179,139 219,99 289,99 279,139 219,139 219,159 259,159 299,199 299,219 259,259 189,259 199,219 259,219 259,199 219,199 179,159 179,259 139,259 139,219 99,219 109,179 139,179 139,139 99,139 99,249 59,259 59,139 " style="fill:rgba(0,0,0,0.024)" />
    <polygon points=" 98,98 138,98 178,138 218,98 288,98 278,138 218,138 218,158 258,158 298,198 298,218 258,258 188,258 198,218 258,218 258,198 218,198 178,158 178,258 138,258 138,218 98,218 108,178 138,178 138,138 98,138 98,248 58,258 58,138 " style="fill:rgba(0,0,0,0.025)" />
    <polygon points=" 97,97 137,97 177,137 217,97 287,97 277,137 217,137 217,157 257,157 297,197 297,217 257,257 187,257 197,217 257,217 257,197 217,197 177,157 177,257 137,257 137,217 97,217 107,177 137,177 137,137 97,137 97,247 57,257 57,137 " style="fill:rgba(0,0,0,0.026)" />
    <polygon points=" 96,96 136,96 176,136 216,96 286,96 276,136 216,136 216,156 256,156 296,196 296,216 256,256 186,256 196,216 256,216 256,196 216,196 176,156 176,256 136,256 136,216 96,216 106,176 136,176 136,136 96,136 96,246 56,256 56,136 " style="fill:rgba(0,0,0,0.027)" />
    <polygon points=" 95,95 135,95 175,135 215,95 285,95 275,135 215,135 215,155 255,155 295,195 295,215 255,255 185,255 195,215 255,215 255,195 215,195 175,155 175,255 135,255 135,215 95,215 105,175 135,175 135,135 95,135 95,245 55,255 55,135 " style="fill:rgba(0,0,0,0.028)" />
    <polygon points=" 94,94 134,94 174,134 214,94 284,94 274,134 214,134 214,154 254,154 294,194 294,214 254,254 184,254 194,214 254,214 254,194 214,194 174,154 174,254 134,254 134,214 94,214 104,174 134,174 134,134 94,134 94,244 54,254 54,134 " style="fill:rgba(0,0,0,0.029)" />
    <polygon points=" 93,93 133,93 173,133 213,93 283,93 273,133 213,133 213,153 253,153 293,193 293,213 253,253 183,253 193,213 253,213 253,193 213,193 173,153 173,253 133,253 133,213 93,213 103,173 133,173 133,133 93,133 93,243 53,253 53,133 " style="fill:rgba(0,0,0,0.030)" />
    <polygon points=" 92,92 132,92 172,132 212,92 282,92 272,132 212,132 212,152 252,152 292,192 292,212 252,252 182,252 192,212 252,212 252,192 212,192 172,152 172,252 132,252 132,212 92,212 102,172 132,172 132,132 92,132 92,242 52,252 52,132 " style="fill:rgba(0,0,0,0.031)" />
    <polygon points=" 91,91 131,91 171,131 211,91 281,91 271,131 211,131 211,151 251,151 291,191 291,211 251,251 181,251 191,211 251,211 251,191 211,191 171,151 171,251 131,251 131,211 91,211 101,171 131,171 131,131 91,131 91,241 51,251 51,131 " style="fill:rgba(0,0,0,0.032)" />
    <polygon points=" 90,90 130,90 170,130 210,90 280,90 270,130 210,130 210,150 250,150 290,190 290,210 250,250 180,250 190,210 250,210 250,190 210,190 170,150 170,250 130,250 130,210 90,210 100,170 130,170 130,130 90,130 90,240 50,250 50,130 " style="fill:#FFFFFF" />
    <polygon points=" 50,130 90,130 90,140 " style="fill:#BBBBBB" />
    <polygon points=" 80,220 90,180 90,220 " style="fill:#BBBBBB" />
    <polygon points=" 120,130 130,130 130,90 " style="fill:#BBBBBB" />
    <polygon points=" 130,160 130,170 170,210 170,200 " style="fill:#BBBBBB" />
    <polygon points=" 170,210 130,210 130,220 " style="fill:#BBBBBB" />
    <polygon points=" 290,210 250,210 250,200 " style="fill:#BBBBBB" />
    <polygon points=" 250,190 250,150 240,150 " style="fill:#BBBBBB" />
    <polygon points=" 210,150 170,150 210,140 " style="fill:#BBBBBB" />
    <polygon points=" 210,130 210,90 220,130 " style="fill:#BBBBBB" />
</svg>