<svg width="0" height="0" class="hidden">
  <symbol xmlns="http://www.w3.org/2000/svg" viewBox="0 0 2500 2437.5" id="xd">
    <path d="M2057.3 2437.5H442.7C197.9 2437.5 0 2239.6 0 1994.8V442.7C0 197.9 197.9 0 442.7 0h1614.6C2302.1 0 2500 197.9 2500 442.7v1552.1c0 244.8-197.9 442.7-442.7 442.7z" fill="#ff26be"></path>
    <path d="M2017.7 2333.3H482.3c-208.3 0-378.1-169.8-378.1-378.1V482.3c0-208.3 169.8-378.1 378.1-378.1h1534.4c209.4 0 378.1 169.8 378.1 378.1v1471.9c1 209.3-168.8 379.1-377.1 379.1z" fill="#2e001f"></path>
    <path d="M988.5 1140.6l291.7 560.4c5.2 8.3 2.1 16.7-6.3 16.7h-181.3c-11.5 0-16.7-3.1-21.9-13.5l-204.2-422.9h-2.1c-62.5 139.6-131.3 286.5-197.9 424-5.2 8.3-10.4 11.5-18.8 11.5H476c-10.4 0-11.5-8.3-6.2-14.6l285.4-543.8-276-550c-6.3-8.3 0-14.6 6.2-14.6h179.2c10.4 0 14.6 2.1 18.7 11.5L878.1 1023h2.1c60.4-137.5 127.1-280.2 191.7-416.7 5.2-8.3 8.3-13.5 18.8-13.5h167.7c8.3 0 11.5 6.3 6.3 14.6l-276.2 533.2zm342.8 169.8c0-242.7 161.5-432.3 417.7-432.3 21.9 0 33.3 0 54.2 2.1v-276c0-6.3 5.2-10.4 10.4-10.4h164.6c8.3 0 10.4 3.1 10.4 8.3v956.3c0 28.1 0 63.5 5.2 102.1 0 6.3-2.1 8.3-8.3 11.5-87.5 41.7-179.2 60.4-266.7 60.4-226.1.9-387.6-138.6-387.5-422zm471.8-266.6c-14.6-6.3-35.4-10.4-60.4-10.4-131.3 0-222.9 101-222.9 268.8 0 191.7 93.8 268.8 211.5 268.8 25 0 52.1-3.1 71.9-11.5v-515.7z" fill="#ffd9f2"></path>
  </symbol>
  <symbol xmlns="http://www.w3.org/2000/svg" id="ahk" preserveAspectRatio="xMinYMin meet" viewBox="0 0 256 256">
    <rect height="254" ry="20.669" width="254" x="1" y="1" stroke-width="2" stroke="#8c8c8c" fill="#b2b2b2"></rect>
    <rect height="192" rx="7.517" ry="10.325" width="192" x="32" y="32" stroke-width="2.5" stroke="#fff" fill="#e7e7e7"></rect>
    <text font-size="160" y="185.266" x="128.078" font-family="Arial" text-anchor="middle">A</text>
  </symbol>
  <symbol xmlns="http://www.w3.org/2000/svg" id="arcgis" preserveAspectRatio="xMinYMin meet" viewBox="0 0 129 129">
    <path d="M9.178 65.737c0 30.4 24.6 55 55 55s55-24.6 55-55-24.6-55-55-55-55 24.6-55 55" fill="#1478c7"></path>
    <path d="M40.978 22.437c-4.2.2-8.3.7-12.4 1.3-11.5 9.7-18.9 24.1-19.4 40.2 3.2 3.4 7.5 11.1 12.5 15.6.7-.3 1.4-.5 2.1-.8-2.4-2.8-5.8-6.5-6.3-8.3-2.5-8.4.4-16.3 6.6-16.9 5.6-.6 10.4-8.9 14.3-14.4 8.1-11.2 20.6-9.4 20-15-.7-3.3-2.7-4.3-5.1-4.3-3.7.2-8.6 2.4-12.3 2.6" fill="#4db233"></path>
    <path d="M26.178 78.137l-2.4.7c-.7.2-1.2.4-2.1.8-2 .9-3.5 2.3-3.8 5.2-.6 5.3 4.5 9.5 8.7 10.8 5.4 1.6 5.9-.3 8.7 3.6 2 2.7 2.4 7.7 3.4 11 .6 1.8 1.3 3.7 2.3 5.5 3.9 1.8 8 3.2 12.3 4 1.1-6.3.6-14.9 2-18.6 2.9-7.6 4.5-10.9.6-18.7-8.6-2.4-11.3-3.2-20-5-1.8-.4-2.9-.5-3.9-.5-1.4-.1-2.7.3-5.8 1.2" fill="#4db233"></path>
    <path d="M79.678 34.337c-2.5 3.6-11.5 4.6-14.4 8.7-2.2 3.2.1 9.5-1.9 13.1-.9 1.7-.5 6.5.6 8.1 3.4 5 9.2 2.2 13.5 4 5.2 2.2 5.9 8.3 10.2 12.7 4.4 4.5-5.6 11.3 2.5 27.6.9 1.7 1.9 3 3 3.9 5.5-3.4 10.3-7.8 14.3-12.8 1.2-8.2-1.5-10.8 1.9-18.3 2.1-4.6 5.8-12.6 9.7-18.1-.7-15.2-7.5-28.8-18-38.3-1 .3-2.2.3-4 0-1.5-.3-2.8-.4-4-.4-8.1 0-10.5 5.6-13.4 9.8" fill="#4db233"></path>
    <path d="M57.878 124.137c-1.8-1-4.1-2.7-6.2-4.1-.9.8-1.6 1.9-2.3 2.9 2.4.8 5.7.8 8.5 1.2m-9.6-6.6c-3.9-2.9-13.6-12.1-17.6-17.6-1.5.9-3.1 3.2-5.2 3.6-.8.2-2.7.4-3.3.2s.1-1.4.7-2.2c1-1.4 2.6-3.1 4.8-4.9-4.8-7-7-12.1-10.3-20.5-1.9 1.2-3.2 2.2-4.9 3.5-.5.4-2.1.7-2.8 0-1.3-1.2-1.4-3.3.5-4.6.8-.6 4.6-3.2 5.5-3.9-2.3-6.7-4.3-15.6-4.8-20.2-1.6 1.4-3.8 2.9-4.4 3.3-.9.3-1.5 0-1.7-.1-.9 9.5.1 20.1 3 29.5 4.9 16.3 18.6 31.9 37 37.7.5-.5 2.6-3 3.5-3.8m-37.9-71.5l-.5-8.4c-2.6 5.6-4.1 9-4.9 15.6 1.9-3.1 5.4-7.2 5.4-7.2m27.7-40.3c10.7-4.4 21.2-6.9 33.2-5.2 1.3.2 1.2 1.3-.2 1.3h-1.7c-9.7.2-24 3.2-31.4 7.4-.2 4.9.8 12.8 1.8 18.9 6.7-2.8 17.1-5.7 25-6.6-4.5-4.8-10.6-9.3-11.3-9.8s-1.1-1.4-1.1-2.6c.1-2.1 1.9-2.4 2.9-2.2 3.3-.6 6.5-1.3 12.1-1.2 23.5-1 44.9 12.3 53.1 27.4 20.7 32.8 0 78-27.1 90.1-11.6 5.2-21.6 7.4-39.9 4.8-18.4-2.6-33.4-11.6-45.1-30.5-14.4-23.3-6.3-50.4-4.3-56.1 8.7-20.2 22.9-31 34-35.7m-24.3 24.8c-.3 2.5 0 7 .6 12.4 5-4.5 14.6-10.3 22.7-13.9-.9-6.1-1.9-15.9-1.8-18.6-7.5 4.1-15.6 12.3-21.6 20.8m1.2 16.6c.7 4.9 3 15.4 5.1 20.7 5-3.8 16.3-10.7 22.7-13.6-2.2-8.2-3.7-13.3-5-21.5-8.9 4.1-18.5 10.3-22.8 14.4m7.1 25.4c3 8.5 5.8 14.9 9.6 20.2 4.4-3.8 13.4-9.8 20.2-13.1-2.3-4.9-5.5-14-7.8-20.8-8.8 4.5-15.4 8.7-22 13.7m12.4 24c4.7 6 11.9 13.5 17 17.7 4.8-3.9 10.2-7.5 14.8-9.7-3.9-6.1-9.7-14.8-12.1-20.3-8.7 3.9-13.6 7.1-19.7 12.3m20 20.3c1.8 1.9 9.2 6.7 9.2 6.7 4.9.2 11-.4 15.4-1.1-2.4-2.8-8.5-11.3-10.3-14.2-4.7 2-10.6 5.6-14.3 8.6m29.7 4.4c2.5-.8 8.8-3.6 10.1-4.5.3-5.1.3-10.8.1-14.3-6.6 0-15.9 1.9-21.2 4.2 3 5 7.2 10.4 11 14.6m13.6-6.4c5-3.1 9.6-6.7 13-10.9-2.9-.7-9.4-1.6-12.6-1.4-.1 0-.2 7.7-.4 12.3m14.5-12.9c.9-.9 2.3-2.9 2.9-4.1.5-4.7.6-14.3.4-17.1-5.7-2.3-14.4-4.1-20.8-4.6 2.1 7.6 3.1 18.9 3.3 22.5 3 .3 10.7 1.9 14.2 3.3m8.3-21.8c-.3.9-1.8 1.8-2.6 1.6.1 1.6-.3 9.4-.7 12.5 1.1-2.2 3.2-7.8 3.8-10.1l.9-3.5c.9-2.9 3.7-13.1 1.1-26.4-2.9-14.8-8.2-20.1-10.1-22.4-4.8-2.6-12-4.9-12-4.9 6.5 8.8 8.8 13 12.7 23.5 2.3 1.2 6.4 3.5 6.9 4.1.4.5.4 1.4-.9 1.4-1.1 0-3.2-1-4.8-1.5 1.7 5.7 3 16.4 2.9 23.6.3-.2 3.1 1.2 2.8 2.1m-10.9-53.4c-9.1-11.1-29.5-20.5-52.3-19.1 5.1 3.4 9.3 8.4 13.1 12.6 5.7-.5 17.7.4 22.2 1.7-.8-.9-1.7-1.8-1.9-2.3-.6-1.4.9-1.7 2.1-.9 1.6 1 3.4 2.2 4.8 3.6 2.5.6 9 2.8 12 4.4m5.8 50c-.4-7.2-1.5-16.7-4.1-23.3-7-2.8-16.6-4.6-25-4.7 2.6 6.1 5.6 16.2 7.1 22.7 6 .7 15.5 2.5 22 5.3m-19.7-51.1c-6.3-1.1-15.6-1.9-22.5-1.5 4.7 6.5 8.1 12.1 11.3 20.2 8.7.2 20.5 2.8 25.3 4.7-2.8-7.7-8.3-17.5-14.1-23.4m-39.8 52.2c10.3-4.8 21.7-6.9 33.2-6.6-3.1-10.8-4.9-15.8-7.6-22.4-12.7.6-23.6 3.7-33.4 8.4-.1-.1 3.6 11.6 7.8 20.6m34.3-2.1c-13-.2-24.3 2.9-32 6.7 3.3 7.1 9.7 16.4 12.2 20.2 4.2-1.6 8.7-2.7 12.2-3.3 3.5-.5 8.2-1.1 11.4-1-.6-8.1-1.5-13.6-3.8-22.6m-43.6-23c9.4-4 19.5-7.2 33.2-8.3-3.5-8.4-7.3-14.3-11.9-19.7-10.1.8-19.3 3.5-27.3 6.8 1.2 6.2 3.4 13.7 6 21.2" fill="#231f20"></path>
  </symbol>
  <symbol xmlns="http://www.w3.org/2000/svg" viewBox="0 0 1386 1462" id="biopython" preserveAspectRatio="xMinYMin meet">
    <path d="M181.45 739.675c-9.933 6.774-17.835 16.088-23.068 27.19-9.743 19.924-12.215 40.665-13.13 58.794-1.186 29.715 4.296 57.228 8.98 81.624 6.805 34.367 17.932 65.628 26.545 94.3l79.701 245.898c5.749 19.98 8.001 26.183 12.626 50.237 4.626 24.055-26.204 33.738-10.262 67.355 46.376 72.78 86.895 77.125 107.144 69.863 15.658-7.219 34.752-19.758 34.217-107.74-5.441-33.587-31.624-31.038-49.52-48.825-7.205-21.535-10.675-31.732-20.454-55.936L232.643 902.06c-4.635-23.524-7.74-44.415-7.305-61.49.423-12.626 2.517-23.26 5.915-29.766 5.55-2.132 9.552-4.444 17.515-6.603 20.619-.331 48.273 9.752 80.757 21.395 32.151 11.924 66.27 31.334 104.13 50.738l249.548 130.923c19.894 8.65 40.13 16.086 60.589 22.263 10.9 3.516 28.68 11.441 52.439 11.74 19.686.451 50.898 2.458 76.528-21.137 27.23-24.937 28.235-59.2 29.942-81.257 3.057-38.856-8.031-72.238-13.152-97.966a667.01 667.01 0 0 0-14.657-57.801L770.87 450.695c-4.442-23.295-8.007-44.192-7.304-61.49.422-12.626 2.516-23.26 5.914-29.767.208-.565.874-1.124.208-.565 5.04-3.361 10.976-5.297 17.3-5.64 20.362-.637 48.28 9.355 80.564 21.166 32.485 11.644 66.593 31.584 104.196 50.682l167.052 89.317c72.959 42.69 190.86 75.868 213.41 62.95-14.623-26.63-112.496-96.847-185.538-134.899L884.741 297.84c-30.132-11.006-67.72-27.244-110.478-26.09-20.06.408-38.921 6.325-54.662 17.147-9.871 6.726-17.69 16.017-22.804 27.098-8.27 18.042-12.67 38.112-12.936 59.024-1.38 29.486 4.095 57.396 8.787 81.395l26.344 94.468 33.415 102.894c-.2.167.186.627-.014.795l58.8 192.16c6.457 31.787 13.223 57.31 11.791 74.958-1.535 19.826-6.238 33.17-7.844 34.91-.2.168-11.612 3.216-29.074 3.248-3.285.146-13.336-3.17-29.4-7.966a576.154 576.154 0 0 1-50.8-18.99c-24.49-10.779-49.843-24.751-77.157-39.167L346.461 748.465c-30.399-10.783-67.92-27.076-110.606-26.244-20.638 2.51-39.966 7.684-54.405 17.454z" fill="#37709f" stroke="#37709f" stroke-width="50"></path>
    <path d="M1008.591 33.795c-13.13 11.397-21.847 47.244-19.078 106.103-1.007 35.034 31.847 29.788 36.343 52.607 4.495 22.818 7.44 30.377 13.718 53.22l27.605 89.491 105.946 55.111-56.968-157.707c-5.756-19.989-8.065-26.155-12.732-50.096-4.667-23.942 26.137-33.708 10.243-67.222-35.659-74.924-46.365-92.279-78.24-90.224-11.86.834-20.497 3.144-26.837 8.717zm-501.39 423.882l-2.395 2.136c-27.126 24.914-28.118 59.048-29.914 81.196-3.049 38.772 8.01 72.039 13.152 97.86 4.105 19.728 7.788 31.962 13.318 50.367l28.145 95.926 100.44 51.771-16.824-49.85c-15.622-48.928-12.763-41.54-12.505-41.757l-34.338-112.21c-6.439-31.699-13.241-57.267-11.844-74.901 1.434-19.69 6.323-33.163 7.817-34.797.194-.162 11.522-3.336 29.098-3.396 3.186-.141 13.252 3.19 29.279 7.848a575.836 575.836 0 0 1 50.73 18.972c24.39 10.685 49.799 24.818 77.18 39.07l281.488 144.31c30.31 10.782 67.781 26.95 110.332 26.195 19.938-.661 38.665-6.65 54.373-17.387 9.943-6.754 17.818-16.098 22.964-27.247 9.717-19.93 12.188-40.616 13.147-58.642-1.106-14.953 1.621-27.54-4.903-46.906-35.097-12.759-54.043-19.185-81.484-33.393 9.128 22.295 4.063 33.865 6.604 65.698-.95 8.613-3.411 20.11-5.88 29.753-.069.311-.33.657-.46.765-5.09 3.385-12.262 5.604-17.044 5.945-20.575.424-48.157-9.735-80.618-21.244-32.203-11.726-66.24-31.283-104.04-50.468L694.08 472.696c-19.775-8.732-40.212-16.021-60.48-22.188-10.953-3.47-28.641-11.421-52.387-11.756-28.915.219-49.507.31-74.013 18.925zM26.39 902.15c14.554 26.535 112.32 96.703 185.19 134.577l281.49 144.31c30.114 10.945 67.522 27.167 110.143 25.972 20.957-.364 39.35-6.933 54.56-17.164 9.85-6.737 17.655-16.02 22.771-27.084 9.717-19.93 14.164-32.71 14.874-51.032.034-21.464-.61-33.971-8.572-48.028-21.813-12.236-41.337-21.796-77.75-41.016l7.855 25.61c4.49 14.638 4.501 28.067 3.494 40.634-.018 10.476-8.604 20.576-12.47 29.753-.07.311-.33.657-.46.765-5.012 3.25-10.87 5.13-17.1 5.485-20.388.647-48.164-9.349-80.493-21.095-32.397-11.563-66.489-31.58-104.04-50.468l-166.647-88.977c-72.848-42.705-190.315-75.828-212.898-62.83z" fill="#ffd141" stroke="#ffd141" stroke-width="50"></path>
    <circle r="11.203" cy="1414.734" cx="325.902" fill="#fff" stroke-width="5"></circle>
    <circle r="11.203" cy="1397.601" cx="385.869" fill="#fff" stroke-width="5"></circle>
    <circle r="11.203" cy="67.123" cx="1009.592" fill="#fff" stroke-width="5"></circle>
    <circle r="11.203" cy="57.989" cx="1067.559" fill="#fff" stroke-width="5"></circle>
  </symbol>
  <symbol xmlns="http://www.w3.org/2000/svg" viewBox="0 0 54 50" id="julia" preserveAspectRatio="xMinYMin meet">
    <circle r="12" cy="38" cx="12" fill="#CB3C33"></circle>
    <circle r="12" cy="38" cx="42" fill="#9558B2"></circle>
    <circle r="12" cy="12" cx="27" fill="#389826"></circle>
  </symbol>
  <symbol xmlns="http://www.w3.org/2000/svg" viewBox="0 0 194 194" id="jupyter" preserveAspectRatio="xMinYMin meet">
    <circle r="97" cy="97" cx="97" fill="#F37726"></circle>
    <path d="M97 30C132.887 30 164.527 41.7176 183.21 59.5397L186.86 63.4114 188.684 68.3857C191.489 77.3859 193 86.9551 193 96.8764 193 106.798 191.489 116.367 188.684 125.367L186.711 130.746 183.21 134.46C164.527 152.282 132.887 164 97 164 61.1133 164 29.4734 152.282 10.79 134.46L7.28858 130.746 5.31599 125.367C2.51101 116.367 1 106.798 1 96.8764 1 86.9551 2.51101 77.3859 5.31599 68.3857L7.14017 63.4114 10.79 59.5397C29.4734 41.7176 61.1133 30 97 30Z" fill="#282828"></path>
    <text font-size="90" y="130" x="100" font-family="Arial" text-anchor="middle" fill="#fff">lab</text>
  </symbol>
  <symbol xmlns="http://www.w3.org/2000/svg" viewBox="0 -28 191 163" id="docker" preserveAspectRatio="xMinYMin meet" fill="#0885CA">
    <rect x="87" y="1" width="22" height="19"/>
    <rect x="33" y="24" width="22" height="19"/>
    <rect x="60" y="24" width="22" height="19"/>
    <rect x="87" y="24" width="22" height="19"/>
    <rect x="6" y="47" width="22" height="19"/>
    <rect x="33" y="47" width="22" height="19"/>
    <rect x="60" y="47" width="22" height="19"/>
    <rect x="87" y="47" width="22" height="19"/>
    <rect x="114" y="47" width="22" height="19"/>
    <path d="M187.018 57.6012C182.744 54.9096 172.888 53.9384 165.318 55.2708 164.339 48.6118 160.36 42.8126 153.117 37.5961L148.961 35.0151 146.2 38.8999C140.738 46.6134 139.254 59.3213 145.102 67.7011 142.52 69.0049 137.442 70.7812 130.734 70.6696L1.68938 70.6696C-0.892953 84.7653 3.41146 103.078 14.7515 115.647 25.7647 127.827 42.2702 134.015 63.8504 134.015 110.575 134.015 145.159 113.9 161.339 77.3561 167.691 77.467 181.406 77.384 188.442 64.8153 188.887 64.1214 190.401 61.1522 190.964 60.0702Z"/>
  </symbol>
  <symbol xmlns="http://www.w3.org/2000/svg" viewBox="0 -40 208 168" id="markdown" preserveAspectRatio="xMinYMin meet">
    <rect height="128" width="208" x="0" y="0" ry="15" fill="#000" />
    <path d="m 30,98 0,-68 20,0 20,25 20,-25 20,0 0,68 -20,0 0,-39 -20,25 -20,-25 0,39 z" fill="#fff"/>
    <path d="m 155,98 -30,-33 20,0 0,-35 20,0 0,35 20,0 z" fill="#fff"/>
  </symbol>
  <symbol xmlns="http://www.w3.org/2000/svg" viewBox="0 0 512 512" preserveAspectRatio="xMinYMin meet" id="bash">
    <path d="M449.1 105.9l-161.6-96a60.74 60.74 0 0 0-62.4 0l-161.6 96c-19.3 11.4-31.2 32.6-31.2 55.5v191.9c0 22.9 11.9 44.1 31.2 55.5l161.6 95.9c9.6 5.7 20.4 8.6 31.2 8.6s21.5-2.9 31.2-8.6l161.6-95.9c19.3-11.5 31.2-32.6 31.2-55.5V161.4c0-22.9-11.9-44.1-31.2-55.5z" fill="#fff"></path>
    <path d="M449.1 105.9l-161.6-96c-9.6-5.7-20.4-8.6-31.2-8.6s-21.5 2.9-31.2 8.6l-161.6 96c-19.3 11.4-31.2 32.6-31.2 55.5v191.9c0 22.9 11.9 44.1 31.2 55.5l161.6 95.9c9.6 5.7 20.4 8.6 31.2 8.6s21.5-2.9 31.2-8.6l161.6-95.9c19.3-11.5 31.2-32.6 31.2-55.5V161.4c0-22.9-11.9-44.1-31.2-55.5zm-218.3 389L69.2 399c-15.8-9.4-25.6-26.9-25.6-45.7V161.4c0-18.8 9.8-36.3 25.6-45.7l161.6-95.9c7.8-4.6 16.6-7 25.5-7s17.8 2.4 25.5 7l161.6 95.9c13.3 7.9 22.3 21.6 24.8 37-5.4-11.4-17.4-14.6-31.5-6.3l-152.9 94.5c-19.1 11.1-33.1 23.7-33.1 46.6v188.4c0 13.8 5.5 22.7 14.1 25.3-2.8.5-5.6.8-8.5.8-8.9-.1-17.8-2.5-25.5-7.1z" fill="#283037"></path>
    <path d="M406.8 371.8l-40.3 24.1c-1.1.6-1.9 1.3-1.9 2.6V409c0 1.3.9 1.8 1.9 1.2l40.9-24.8c1.1-.6 1.2-1.8 1.2-3.1V373c.1-1.3-.8-1.8-1.8-1.2z" fill="#4da825"></path>
    <path d="M321.1 283.2c1.3-.7 2.4.2 2.4 1.9l.1 13.9c5.8-2.3 10.9-2.9 15.5-1.9 1 .3 1.4 1.6 1 3.2l-3.1 12.3c-.2.9-.8 1.9-1.4 2.5-.3.3-.5.5-.8.6-.4.2-.8.3-1.2.2-2.1-.5-7.1-1.6-14.9 2.4-8.2 4.2-11.1 11.3-11 16.6.1 6.3 3.3 8.3 14.5 8.4 14.9.2 21.4 6.8 21.5 21.8.2 14.8-7.7 30.6-19.8 40.4l.3 13.8c0 1.7-1.1 3.6-2.4 4.2l-8.2 4.7c-1.3.7-2.4-.1-2.4-1.8l-.1-13.6c-7 2.9-14.1 3.6-18.6 1.8-.9-.3-1.2-1.6-.9-3l3-12.5c.2-1 .8-2 1.5-2.6.3-.2.5-.4.8-.6.5-.2.9-.3 1.3-.1 4.9 1.6 11.1.9 17.1-2.2 7.6-3.9 12.7-11.6 12.6-19.4-.1-7-3.9-9.9-13.1-10-11.7 0-22.7-2.3-22.9-19.6-.1-14.2 7.3-29 19-38.4l-.1-13.9c0-1.7 1-3.6 2.4-4.3l7.9-4.8z" fill="#fff"></path>
  </symbol>
  <symbol xmlns="http://www.w3.org/2000/svg" viewBox="0 0 256 256" preserveAspectRatio="xMinYMin meet" id="brackets">
    <path d="M256 204.8c0 28.16-23.04 51.2-51.2 51.2H51.2C23.04 256 0 232.96 0 204.8V51.2C0 23.04 23.04 0 51.2 0h153.6C232.96 0 256 23.04 256 51.2v153.6z" fill="#115a91"></path>
    <path d="M204.8 28.16c12.705 0 23.04 10.335 23.04 23.04v128c0 12.705-10.335 23.04-23.04 23.04H51.2c-12.705 0-23.04-10.335-23.04-23.04v-128c0-12.705 10.335-23.04 23.04-23.04h153.6" fill="#fff"></path>
    <path d="M204.8 28.16c12.705 0 23.04 10.335 23.04 23.04v128c0 12.705-10.335 23.04-23.04 23.04H51.2c-12.705 0-23.04-10.335-23.04-23.04v-128c0-12.705 10.335-23.04 23.04-23.04h153.6zm0-28.16H51.2C23.04 0 0 23.04 0 51.2v128c0 28.16 23.04 51.2 51.2 51.2h153.6c28.16 0 51.2-23.04 51.2-51.2v-128C256 23.04 232.96 0 204.8 0z" fill="#25a5de"></path>
    <path d="M143.36 0v122.88h-64V92.16h35.84v-64H79.36V0h64zM64 0v28.16H28.16v64H64v30.72H0V0h64z" transform="translate(56.32 53.76)" fill="#4d4d4d"></path>
  </symbol>
  <symbol xmlns="http://www.w3.org/2000/svg" viewBox="0 0 362.7 411.4" preserveAspectRatio="xMinYMin meet" id="css">
    <path d="M0 0h362.734l-33.046 370.2-148.543 41.18L33.01 370.257z" fill="#264de4"></path>
    <path d="M301.397 346.626l28.24-316.352h-148.27v349.63z" fill="#2965f1"></path>
    <path d="M75.677 167.597l4.07 45.4h101.62v-45.4zm105.7-46.5v-45.4H67.5l4.128 45.4zM127.36 235.713H81.776l6.362 71.3 93.02 25.823.2-.058v-47.246l-.2.053-50.574-13.656z" fill="#ebebeb"></path>
    <path d="M274.304 307.014l20.66-231.33H181.2v45.41h63.988l-4.132 46.5H181.2v45.4h55.918l-5.27 58.894-50.647 13.67v47.244z" fill="#fff"></path>
  </symbol>
  <symbol xmlns="http://www.w3.org/2000/svg" viewBox="0 0 34.6 34.8" preserveAspectRatio="xMinYMin meet" id="gatk">
    <path d="M14.732 32.02c-1-.19-3.057-.904-4.04-1.398-3.545-1.78-5.965-4.536-7.308-8.323-.576-1.624-.615-1.91-.616-4.505-.001-3.185.26-4.415 1.474-6.927C6.026 7.17 9.206 4.5 13.347 3.218c1.933-.598 5.732-.653 7.72-.1 1.794.49 4.252 1.73 5.542 2.797C29.012 7.89 31 11.102 31.66 14.02c.498 2.237.335 5.818-.36 7.93-.915 2.78-.705 2.802-3.876-.425-3.347-3.406-3.586-3.88-3.586-7.12 0-2.792-.254-3.717-1.297-4.732-1.017-.988-2.79-1.944-4.22-2.278-2.5-.582-7.63.45-7.033 1.414.05.08 1.085.707 2.302 1.395s2.562 1.58 2.99 1.984c.715.676.766.794.644 1.484-.296 1.674-2.048 4.413-3.342 5.226-.995.625-1.962.41-4.4-.97C6.6 16.3 6.324 16.458 7.47 19.084c1.058 2.423 2.853 4.78 4.165 5.47.714.375 2.464.363 3.888-.026 1.478-.404 2.7-.37 3.74.102 1.094.496 5.683 4.98 5.462 5.336-.183.295-1.958 1.105-3.562 1.625-1.17.38-5.263.652-6.433.428z" fill="#2597b9"></path>
    <path d="M15.82 34.697c-4.592-.445-9.025-2.84-11.923-6.44C.435 23.953-.848 18.134.565 13.14c1.363-4.818 4.33-8.652 8.49-10.97C11.88.598 16.163-.3 18.974.09c4.454.62 7.385 1.967 10.264 4.715 1.823 1.74 2.858 3.182 3.905 5.44 1.198 2.584 1.472 3.947 1.46 7.248-.01 2.524-.075 3.08-.54 4.61-.92 3.03-2.11 5.074-4.274 7.337-3.552 3.716-8.936 5.74-13.966 5.254zm5.344-3.107c1.604-.52 3.38-1.33 3.562-1.625.22-.357-4.368-4.84-5.462-5.336-1.042-.473-2.263-.506-3.74-.102-1.424.39-3.174.4-3.888.026-1.312-.69-3.107-3.046-4.165-5.47-1.147-2.626-.87-2.785 2.008-1.153 2.438 1.382 3.405 1.596 4.4.97 1.293-.812 3.045-3.552 3.342-5.226.122-.69.07-.81-.644-1.484-.427-.404-1.772-1.297-2.99-1.984s-2.253-1.315-2.302-1.395C10.69 7.85 15.818 6.817 18.32 7.4c1.432.333 3.204 1.3 4.22 2.278 1.044 1.015 1.297 1.94 1.297 4.732 0 3.238.24 3.713 3.586 7.12 3.17 3.227 2.96 3.204 3.876.425.695-2.113.858-5.694.36-7.93-.65-2.92-2.647-6.13-5.05-8.117-1.3-1.067-3.748-2.307-5.542-2.797-1.987-.542-5.786-.488-7.72.1-4.14 1.282-7.32 3.952-9.105 7.647-1.214 2.512-1.475 3.743-1.474 6.927.001 2.594.04 2.882.616 4.505 1.62 4.57 4.943 7.77 9.584 9.228 1.827.574 2.013.595 4.634.52 1.653-.048 2.736-.186 3.563-.454z" fill="#343838"></path>
  </symbol>
  <symbol xmlns="http://www.w3.org/2000/svg" 
    xmlns:xlink="http://www.w3.org/1999/xlink" viewBox="0 0 735 852" preserveAspectRatio="xMinYMin meet" id="ggplot2">
    <path d="M705.6 196.2L367.5 1 .1 213v424.3l367.4 212 367.4-212V213z" fill="#fff"></path>
    <path d="M146.3 360L69 411a38.2 38.2 0 0 1 6.4 10.2l79.3-52.2a38.8 38.8 0 0 1-8.2-9zm298.7-4.6l71.5-45.6a38.6 38.6 0 0 1-6.5-10.1l-71.4 45.5a38.6 38.6 0 0 1 6.5 10.1zM581 269l59.5-38a39 39 0 0 1-6.5-10.1l-59.5 38a38.8 38.8 0 0 1 6.4 10.2zm-188 67l-41-59a38.7 38.7 0 0 1-9.9 6.9l41 59a38.9 38.9 0 0 1 9.9-6.9zm-177-7.6l80.7-53.2a38.8 38.8 0 0 1-6.6-10l-79 52a38.5 38.5 0 0 1 5 11z" fill="#424242"></path>
    <path d="M216 328.4a38.7 38.7 0 1 0-70.3 30.3l.7 1.2a38.7 38.7 0 0 0 69.6-31.4z" fill="#51a7f9"></path>
    <path d="M51.2 473.2c1.2-.4 2.4-.8 3.5-1.3a38.7 38.7 0 0 0 20.5-50.8 38.2 38.2 0 0 0-6.4-10.2 38.6 38.6 0 0 0-14.2-10.3c-1-.5-2.3-1-3.5-1.3a38.7 38.7 0 0 0-21.8-.4v74.5a38.8 38.8 0 0 0 21.8-.3z" fill="#a8d6ff"></path>
    <path d="M364 249.3a38.8 38.8 0 1 0-12 27.9 38.7 38.7 0 0 0 12-27.9z" fill="#0365c0"></path>
    <path d="M438.7 345.3a38.7 38.7 0 0 0-65.7 13.4 44 44 0 0 0-1 3.5 38.7 38.7 0 1 0 75.4 0l-1-3.5-1.3-3.3a38.6 38.6 0 0 0-6.4-10.1z" fill="#164f86"></path>
    <path d="M584 284a38.7 38.7 0 0 0-57.4-33.8 38.1 38.1 0 0 0-3.5 2.2 38.6 38.6 0 0 0 0 63.3 38 38 0 0 0 3.5 2.2 38.7 38.7 0 0 0 57.4-33.8z" fill="#002452"></path>
    <path d="M630.8 205.3v1.5a38.7 38.7 0 0 0 47.9 36c1.2-.3 2.4-.6 3.5-1a38.8 38.8 0 0 0 18.4-13.7L634 189.7a38.3 38.3 0 0 0-3.2 13.6v2z" fill="#000643"></path>
    <g fill="#424242">
      <path d="M705.6 196.2L367.5 1 .1 213v424.3l367.4 212 367.4-212V213zM682.2 635L365.7 815.7 29.4 621.5V231L369.2 36.8 705.6 231v390.4z"></path>
      <use xlink:href="#B"></use>
      <use xlink:href="#B" x="84.4"></use>
      <path d="M299 539.6l-.6-26.8H311l1 14a30 30 0 0 1 27.5-15.9c18.7 0 32.8 16.8 32.8 41.7 0 29.5-17 44-35.2 44-10.2 0-19.2-4.7-23.8-13h-.3v44.6h-14zm14 22a35.57 35.57 0 0 0 .6 6.1c2.6 10.3 11 17.5 21 17.5 15 0 23.5-13 23.5-31.7 0-16.5-8.2-30.5-23-30.5-9.6 0-18.6 7.3-21.3 18.5a25.6 25.6 0 0 0-1 6.1zm72-87h14V595h-14zm102.7 78.7c0 30.4-19.8 43.6-38.6 43.6-21 0-37-16.3-37-42.2 0-27.5 17-43.6 38.4-43.6 22.2 0 37.3 17 37.3 42.2zm-61.4 1c0 18 9.8 31.5 23.5 31.5 13.4 0 23.5-13.4 23.5-32 0-14-6.6-31.5-23.2-31.5s-23.8 16.3-23.8 32zm91-65v23.6h20.2v11.4h-20.2v44.3c0 10.2 2.7 16 10.6 16a29.6 29.6 0 0 0 8.2-1l.6 11.2c-2.7 1.2-7 2-12.5 2-6.6 0-11.8-2.2-15.2-6.3-4-4.4-5.4-11.7-5.4-21.4v-44.8h-12v-11.4h12V493zM543.7 595v-9l11-11.4c26.6-26.8 38.6-41 38.7-57.7 0-11.2-5-21.5-20.6-21.5-9.4 0-17.3 5-22 9.3l-4.4-10.5a44.1 44.1 0 0 1 29.4-11.2c18.133-1.137 33.107 13.978 31.8 32.1 0 20.4-14 36.8-35.8 59.2l-8.3 8.3H610V595z"></path>
    </g>
    <defs id="defs33">
      <path id="B" d="M198 512.8l-.6 70.2c0 18.8-3.5 30.4-11 37.5-7.5 7.5-18.4 9.8-28.2 9.8-9.3 0-19.5-2.4-25.8-6.8l3.5-11.4a41.8 41.8 0 0 0 22.7 6.5c14.4 0 25-8 25-28.7l-.3-9.2c-4.3 7.6-12.6 13.7-24.6 13.7-19.2 0-33-17.3-33-40 0-27.8 17-43.6 35-43.6 13.4 0 20.8 7.5 24.2 14.3h.3l.6-12.4zm-14.6 32.4a22.4 22.4 0 0 0-.8-6.8c-2.6-8.6-9.4-15.8-19.7-15.8-13.4 0-23 12-23 31 0 16 7.7 29.5 23 29.5 8.6 0 16.5-5.8 19.5-15.3a27.5 27.5 0 0 0 1.1-8z"></path>
    </defs>
  </symbol>
  <symbol xmlns="http://www.w3.org/2000/svg" baseProfile="tiny" viewBox="0 0 2350 2314.8" preserveAspectRatio="xMinYMin meet" id="github">
    <path d="M1175 0C525.8 0 0 525.8 0 1175c0 552.2 378.9 1010.5 890.1 1139.7-5.9-14.7-8.8-35.3-8.8-55.8v-199.8H734.4c-79.3 0-152.8-35.2-185.1-99.9-38.2-70.5-44.1-179.2-141-246.8-29.4-23.5-5.9-47 26.4-44.1 61.7 17.6 111.6 58.8 158.6 120.4 47 61.7 67.6 76.4 155.7 76.4 41.1 0 105.7-2.9 164.5-11.8 32.3-82.3 88.1-155.7 155.7-190.9-393.6-47-581.6-240.9-581.6-505.3 0-114.6 49.9-223.3 132.2-317.3-26.4-91.1-61.7-279.1 11.8-352.5 176.3 0 282 114.6 308.4 143.9 88.1-29.4 185.1-47 284.9-47 102.8 0 196.8 17.6 284.9 47 26.4-29.4 132.2-143.9 308.4-143.9 70.5 70.5 38.2 261.4 8.8 352.5 82.3 91.1 129.3 202.7 129.3 317.3 0 264.4-185.1 458.3-575.7 499.4 108.7 55.8 185.1 214.4 185.1 331.9V2256c0 8.8-2.9 17.6-2.9 26.4C2021 2123.8 2350 1689.1 2350 1175 2350 525.8 1824.2 0 1175 0z"></path>
  </symbol>
  <symbol xmlns="http://www.w3.org/2000/svg" viewBox="0 0 512 512" preserveAspectRatio="xMinYMin meet" id="html">
    <path fill="#e34f26" d="M71 460L30 0h451l-41 460-185 52"></path>
    <path fill="#ef652a" d="M256 472l149-41 35-394H256"></path>
    <path fill="#ebebeb" d="M256 208h-75l-5-58h80V94H114l1 15 14 156h127zm0 147h-1l-63-17-4-45h-56l7 89 116 32h1z"></path>
    <path fill="#fff" d="M255 208v57h70l-7 73-63 17v59l116-32 1-10 13-149 2-15h-16zm0-114v56h137l1-12 3-29 1-15z"></path>
  </symbol>
  <symbol xmlns="http://www.w3.org/2000/svg" 
    xmlns:xlink="http://www.w3.org/1999/xlink" viewBox="0 0 124.113 122.28" preserveAspectRatio="xMinYMin meet" id="mega">
    <path d="M0 0h59.743v58.5H0z" fill="#e74c3c"></path>
    <path d="M64.224 0h59.743v58.5H64.224zM.146 63.78H59.9v58.5H.146zm64.224 0h59.743v58.5H64.37z" fill="#2c3e50"></path>
    <path d="M30.465 106.63c-1.942 0-3.585-.293-5.228-1.024-1.643-.585-2.838-1.61-4.033-2.78s-1.942-2.633-2.54-4.24-.896-3.5-.896-5.558.3-3.95.896-5.558 1.494-3.07 2.54-4.24 2.4-2.048 4.033-2.633c1.494-.585 3.286-.878 5.078-.878 1.494 0 2.838.146 4.033.585 1.195.293 2.4.878 3.435 1.463 1.046.73 1.792 1.463 2.4 2.34s1.046 1.9 1.344 3.07h-2.09c-.15-.73-.448-1.463-.896-2.194s-1.195-1.316-1.942-1.755-1.792-.878-2.838-1.17-2.24-.44-3.435-.44c-1.494 0-2.987.293-4.33.73s-2.4 1.17-3.286 2.194-1.643 2.194-2.24 3.656c-.448 1.463-.747 3.07-.747 4.973s.3 3.5.747 4.973 1.195 2.633 2.24 3.656c.896 1.024 2.09 1.755 3.435 2.34s2.688.73 4.33.73c2.24 0 4.182-.44 5.825-1.17 1.643-.878 2.987-1.9 4.182-3.364v-4.68h-7.468v-1.9h9.26v12.724H41.07l-.896-3.5c-.597.73-1.344 1.316-2.09 1.9-.747.44-1.494.878-2.4 1.17s-1.643.585-2.688.73c-.597-.293-1.643-.146-2.54-.146" fill="#fff"></path>
    <path d="M86.48 18.135v9.653h15.533v1.9H86.48v10.677h17.326v1.9H84.387V16.234h18.67v1.9z" fill="#fff"></path>
    <path d="M106.2 106.046h-2.4l-3.286-8.336H87.37l-1.494 4.24-1.643 4.24h-1.942l2.54-6.58L89.9 86.74l2.54-6.58h2.688zm-6.124-9.8l-6.124-14.48-5.825 14.48z" fill="#fff"></path>
    <path d="M19.267 19.305v22.962h-1.942V16.234h2.838l9.708 23.693 9.858-23.693h2.688v26.033h-1.942V19.305l-9.56 22.962h-2.09z" fill="#fff"></path>
  </symbol>
  <symbol xmlns="http://www.w3.org/2000/svg" viewBox="0 0 240 234" preserveAspectRatio="xMinYMin meet" id="photoshop">
    <path d="M197.5 234h-155C19 234 0 215 0 191.5v-149C0 19 19 0 42.5 0h155C221 0 240 19 240 42.5v149c0 23.5-19 42.5-42.5 42.5z" fill="#26c9ff"></path>
    <path d="M193.7 224H46.3c-20 0-36.3-16.3-36.3-36.4V46.4C10 26.3 26.3 10 46.3 10h147.3c20.1 0 36.3 16.3 36.3 36.3v141.3c.1 20.1-16.2 36.4-36.2 36.4z" fill="#062026"></path>
    <path d="M58 54.8c0-.7 1.4-1.2 2.2-1.2 6.4-.3 15.9-.5 25.8-.5 27.7 0 38.5 15.2 38.5 34.7 0 25.4-18.4 36.3-41 36.3-3.8 0-5.1-.2-7.8-.2v38.4c0 .8-.3 1.2-1.2 1.2H59.2c-.8 0-1.2-.3-1.2-1.2V54.8zm17.8 53.1c2.3.2 4.1.2 8.1.2 11.7 0 22.7-4.1 22.7-20 0-12.7-7.9-19.1-21.2-19.1-4 0-7.8.2-9.6.3v38.6zm86-11.9c-7.9 0-10.6 4-10.6 7.3 0 3.6 1.8 6.1 12.4 11.6 15.7 7.6 20.6 14.9 20.6 25.6 0 16-12.2 24.6-28.7 24.6-8.7 0-16.2-1.8-20.5-4.3-.7-.3-.8-.8-.8-1.6v-14.7c0-1 .5-1.3 1.2-.8 6.3 4.1 13.5 5.9 20.1 5.9 7.9 0 11.2-3.3 11.2-7.8 0-3.6-2.3-6.8-12.4-12-14.2-6.8-20.1-13.7-20.1-25.2 0-12.9 10.1-23.6 27.6-23.6 8.6 0 14.6 1.3 17.9 2.8.8.5 1 1.3 1 2v13.7c0 .8-.5 1.3-1.5 1-4.4-2.8-10.9-4.5-17.4-4.5z" fill="#d9f5ff"></path>
  </symbol>
  <symbol xmlns="http://www.w3.org/2000/svg" viewBox="0 -61 256 256" preserveAspectRatio="xMinYMin meet" fill-rule="evenodd" id="php">
    <ellipse fill="#8993be" cx="128" cy="66.63" rx="128" ry="66.63"></ellipse>
    <path d="M35.945 106.082l14.028-71.014H82.4c14.027.877 21.04 7.9 21.04 20.165 0 21.04-16.657 33.315-31.562 32.438H56.1l-3.507 18.41H35.945zm23.67-31.56L64 48.22h11.397c6.137 0 10.52 2.63 10.52 7.9-.876 14.905-7.9 17.535-15.78 18.412h-10.52zm40.576 13.15l14.027-71.013h16.658l-3.507 18.4h15.78c14.028.877 19.288 7.9 17.535 16.658l-6.137 35.945h-17.534l6.137-32.438c.876-4.384.876-7.014-5.26-7.014h-13.15l-7.9 39.452h-16.658zm53.233 18.41l14.027-71.014H199.9c14.028.877 21.042 7.9 21.042 20.165 0 21.04-16.658 33.315-31.562 32.438H173.6l-3.507 18.41h-16.657zm23.67-31.56l4.384-26.302h11.398c6.137 0 10.52 2.63 10.52 7.9-.876 14.905-7.9 17.535-15.78 18.412h-10.52z" fill="#232531"></path>
  </symbol>
  <symbol xmlns="http://www.w3.org/2000/svg" viewBox="0 0 256 193" preserveAspectRatio="xMinYMin meet" id="r">
    <path d="M149.333 149.333c-53.333 0-98.66-26.713-98.66-58.713S90.667 32 144 32c67.357 0 98.572 25.91 98.572 57.91s-34.407 59.422-93.24 59.422M128 0C58.667 0 0 37.333 0 85.333c0 45.334 58.312 82.97 127.646 82.97S256 133.333 256 85.333 197.333 0 128 0" fill="#7b7a81"></path>
    <path d="M105.946 51.83v141.11h42.643v-54.875c10.66 0 17.01-2.328 23.986 10.452 10.66 18.292 23.987 44.423 23.987 44.423H247.2l-34.647-54.875c-4.915-5.227-10.66-5.227-18.656-7.84 15.99-2.613 30.9-9.248 36.082-23.464 4.53-13.065 3.998-29.685-5.714-40.83-8.41-8.82-17.042-14.1-38.364-14.1h-79.955zm42.643 29.388h27.984c6.636 0 11.993 6.533 11.993 13.065s-5.33 13.066-11.993 13.066H148.59v-26.13z" fill="#2165b6"></path>
  </symbol>
  <symbol xmlns="http://www.w3.org/2000/svg" viewBox="175.7 0 490.6 341.455" preserveAspectRatio="xMinYMin meet" fill="#61dafb" id="react">
    <path d="M666.3 248.777c0-32.5-40.7-63.3-103.1-82.4 14.4-63.6 8-114.2-20.2-130.4-6.5-3.8-14.1-5.6-22.4-5.6v22.3c4.6 0 8.3.9 11.4 2.6 13.6 7.8 19.5 37.5 14.9 75.7-1.1 9.4-2.9 19.3-5.1 29.4-19.6-4.8-41-8.5-63.5-10.9-13.5-18.5-27.5-35.3-41.6-50 32.6-30.3 63.2-46.9 84-46.9v-22.3c-27.5 0-63.5 19.6-99.9 53.6-36.4-33.8-72.4-53.2-99.9-53.2v22.3c20.7 0 51.4 16.5 84 46.6-14 14.7-28 31.4-41.3 49.9-22.6 2.4-44 6.1-63.6 11-2.3-10-4-19.7-5.2-29-4.7-38.2 1.1-67.9 14.6-75.8 3-1.8 6.9-2.6 11.5-2.6v-22.3c-8.4 0-16 1.8-22.6 5.6-28.1 16.2-34.4 66.7-19.9 130.1-62.2 19.2-102.7 49.9-102.7 82.3 0 32.5 40.7 63.3 103.1 82.4-14.4 63.6-8 114.2 20.2 130.4 6.5 3.8 14.1 5.6 22.5 5.6 27.5 0 63.5-19.6 99.9-53.6 36.4 33.8 72.4 53.2 99.9 53.2 8.4 0 16-1.8 22.6-5.6 28.1-16.2 34.4-66.7 19.9-130.1 62-19.1 102.5-49.9 102.5-82.3zm-130.2-66.7c-3.7 12.9-8.3 26.2-13.5 39.5-4.1-8-8.4-16-13.1-24-4.6-8-9.5-15.8-14.4-23.4 14.2 2.1 27.9 4.7 41 7.9zm-45.8 106.5c-7.8 13.5-15.8 26.3-24.1 38.2-14.9 1.3-30 2-45.2 2-15.1 0-30.2-.7-45-1.9-8.3-11.9-16.4-24.6-24.2-38-7.6-13.1-14.5-26.4-20.8-39.8 6.2-13.4 13.2-26.8 20.7-39.9 7.8-13.5 15.8-26.3 24.1-38.2 14.9-1.3 30-2 45.2-2 15.1 0 30.2.7 45 1.9 8.3 11.9 16.4 24.6 24.2 38 7.6 13.1 14.5 26.4 20.8 39.8-6.3 13.4-13.2 26.8-20.7 39.9zm32.3-13a428.56 428.56 0 0 1 13.8 39.8c-13.1 3.2-26.9 5.9-41.2 8 4.9-7.7 9.8-15.6 14.4-23.7 4.6-8 8.9-16.1 13-24.1zm-101.4 106.7c-9.3-9.6-18.6-20.3-27.8-32 9 .4 18.2.7 27.5.7 9.4 0 18.7-.2 27.8-.7-9 11.7-18.3 22.4-27.5 32zm-74.4-58.9c-14.2-2.1-27.9-4.7-41-7.9 3.7-12.9 8.3-26.2 13.5-39.5 4.1 8 8.4 16 13.1 24s9.5 15.8 14.4 23.4zm73.9-208.1c9.3 9.6 18.6 20.3 27.8 32-9-.4-18.2-.7-27.5-.7-9.4 0-18.7.2-27.8.7 9-11.7 18.3-22.4 27.5-32zm-74 58.9c-4.9 7.7-9.8 15.6-14.4 23.7-4.6 8-8.9 16-13 24a428.56 428.56 0 0 1-13.8-39.8c13.1-3.1 26.9-5.8 41.2-7.9zm-90.5 125.2c-35.4-15.1-58.3-34.9-58.3-50.6s22.9-35.6 58.3-50.6c8.6-3.7 18-7 27.7-10.1 5.7 19.6 13.2 40 22.5 60.9-9.2 20.8-16.6 41.1-22.2 60.6-9.9-3.1-19.3-6.5-28-10.2zm53.8 142.9c-13.6-7.8-19.5-37.5-14.9-75.7 1.1-9.4 2.9-19.3 5.1-29.4 19.6 4.8 41 8.5 63.5 10.9 13.5 18.5 27.5 35.3 41.6 50-32.6 30.3-63.2 46.9-84 46.9-4.5-.1-8.3-1-11.3-2.7zm237.2-76.2c4.7 38.2-1.1 67.9-14.6 75.8-3 1.8-6.9 2.6-11.5 2.6-20.7 0-51.4-16.5-84-46.6 14-14.7 28-31.4 41.3-49.9 22.6-2.4 44-6.1 63.6-11 2.3 10.1 4.1 19.8 5.2 29.1zm38.5-66.7c-8.6 3.7-18 7-27.7 10.1-5.7-19.6-13.2-40-22.5-60.9 9.2-20.8 16.6-41.1 22.2-60.6 9.9 3.1 19.3 6.5 28.1 10.2 35.4 15.1 58.3 34.9 58.3 50.6-.1 15.7-23 35.6-58.4 50.6z"></path>
    <circle r="45.7" cy="248.777" cx="420.9"></circle>
  </symbol>
  <symbol xmlns="http://www.w3.org/2000/svg" viewBox="0 0 35.637 41" preserveAspectRatio="xMinYMin meet" id="snapgene">
    <path d="M2.218 39.436c-.53-.31-.744-1.36-.723-3.54.03-3.104.637-6.874 1.97-12.22.62-2.482.953-3.335 4.054-10.345l3.38-7.887c0-.136-.155-.502-.345-.813-.427-.7-.43-1.06-.014-1.975.424-.934 1.13-1.188 2.867-1.03 3.36.304 7.766 2.367 9.837 4.605.895.967.976 1.12.978 1.866.003 1 .074 1.105.95 1.55.997.505 2.442 2.113 3.03 3.37.52 1.113.86 2.503.86 3.525 0 .485.11.65.67 1.003.37.233.842.7 1.052 1.04.308.5.567.67 1.362.896 1.256.358 1.684.762 1.94 1.83.525 2.2-.615 6.017-2.2 7.418-.454.398-.743.507-1.347.507-.746 0-.782.025-1.194.837-.443.874-1.378 1.82-1.995 2.014-.45.142-1.438-.172-1.782-.566-.142-.163-.356-.608-.475-.988s-.488-1.393-.82-2.25c-.59-1.524-.602-1.598-.513-3.46.16-3.345 1.647-6.362 3.67-7.45.76-.41.89-.86.606-2.125-.434-1.944-1.62-3.92-3.016-5.03-.73-.58-1.145-.633-2.422-.302-.697.18-.908.33-1.157.818-.168.33-1.638 3.627-3.267 7.33-3.523 8.006-3.333 7.622-5.047 10.18C8.838 34.63 4.255 39.646 2.73 39.6c-.123-.003-.354-.08-.513-.174z" fill="#b4e8fc"></path>
    <path d="M1.557 40.622c-.79-.53-1.162-1.322-1.388-2.95-.318-2.288.197-6.533 1.494-12.303.964-4.287 1.202-4.945 4.538-12.513l3.14-7.29c0-.09-.116-.388-.258-.66-.374-.717-.317-1.753.15-2.744.773-1.64 1.714-2.09 4.07-1.94 5.202.326 12.298 4.624 12.298 7.45 0 .305.308.664 1.157 1.346 1.882 1.513 3.117 3.64 3.554 6.12.155.883.312 1.18 1.048 1.987.7.768 1.058 1.01 1.873 1.26 1.676.514 2.318 1.702 2.312 4.28-.004 1.857-.432 3.53-1.34 5.244-.69 1.3-2.016 2.507-2.91 2.65-.56.1-.754.24-1.204.943-.57.886-1.76 1.794-2.596 1.978-.667.146-2.344-.352-2.834-.84-.213-.213-.528-.772-.702-1.244l-.923-2.415c-1.15-2.945-.92-6.194.66-9.342.7-1.393 1.557-2.47 2.507-3.145.414-.295.505-.476.47-.93-.068-.895-1.032-2.717-1.93-3.65-.724-.75-.884-.84-1.323-.738-.274.064-.593.205-.708.312s-1.65 3.453-3.412 7.435-3.528 7.758-3.925 8.4C12.793 31.425 8.958 36.366 6.6 38.6c-2.322 2.2-3.858 2.824-5.054 2.022zm2.126-1.372c1.715-.86 5.93-5.78 9.434-11.008 1.714-2.56 1.524-2.175 5.047-10.18l3.267-7.33c.25-.488.46-.638 1.157-.818 1.277-.33 1.69-.28 2.422.302 1.397 1.1 2.582 3.087 3.016 5.03.283 1.266.155 1.716-.606 2.125-2.024 1.09-3.5 4.107-3.67 7.45-.09 1.862-.078 1.936.513 3.46.332.856.702 1.868.82 2.25s.333.825.475.988c.344.394 1.334.708 1.782.566.616-.196 1.552-1.14 1.995-2.014.41-.812.448-.837 1.194-.837.604 0 .894-.11 1.347-.507 1.595-1.4 2.736-5.228 2.2-7.418-.256-1.07-.684-1.472-1.94-1.83-.795-.227-1.053-.397-1.362-.896-.21-.34-.682-.806-1.052-1.04-.562-.355-.67-.518-.67-1.003 0-1.022-.34-2.412-.86-3.525-.59-1.258-2.034-2.865-3.03-3.37-.876-.444-.947-.56-.95-1.55-.002-.745-.083-.9-.978-1.866-2.072-2.238-6.48-4.3-9.837-4.605-1.737-.157-2.443.096-2.867 1.03-.415.914-.413 1.275.014 1.975.2.312.345.677.345.813s-1.52 3.685-3.38 7.887c-3.1 7-3.436 7.863-4.054 10.345-1.332 5.346-1.94 9.116-1.97 12.22-.02 2.18.194 3.23.723 3.54.426.248.657.22 1.464-.185z" fill="#652d2c"></path>
  </symbol>
  <symbol xmlns="http://www.w3.org/2000/svg" viewBox="0 0 42.7 52.1" preserveAspectRatio="xMinYMin meet" stroke="#5da9dd" id="spades">
    <path d="M14.6 51.4s.2-.3.4-.5c.5-.5 1.9-2.6 2.4-3.5.4-.8.7-1.8 1-2.7a16 16 0 0 0 .2-3.6c-.1-.7-.2-.8-1-.2-1.6 1.2-3.5 1.8-5.7 2-2 .1-4.2-.6-6.4-2C4.2 40 2.6 38.2 2 37c-.6-1.3-.9-2-1.2-3.2-.2-.8-.2-4.4 0-5.4A22 22 0 0 1 3.7 21c.8-1.3 1.1-1.7 3.4-4.5.8-1 2.9-3 4.8-4.8l5.6-5.5A21 21 0 0 0 21.4.8c.1-.2.3-.1.6.3l2.4 3.5L27.2 8l9.5 9.7c2.3 2.7 4.3 6 4.9 8.6.3 1.3.4 1.8.4 3.8l-.2 2.7c-.7 3.2-2.3 6-4.5 7.5-1.4 1-2.8 1.6-4.7 2-1.3.2-2.4.1-3.9-.4-1.1-.3-2.6-1-3.3-1.7-.5-.4-.7-.4-.8.3-.3 1.2-.1 3.4.5 5.2.6 1.6 2.1 4.2 3.2 5.4l.5.6h-7c-4.2 0-7 0-7-.1zm5.9-.1c.6 0 1.2 0 1.3-.1.2-.1.3-2 .2-3.6a59 59 0 0 0-1.1-7.9l-.4-2c-.6-3.6-1-8.7-.7-9.8.2-.6.6-1 1.1-1.2.4-.1.5-.1 1 .1a27.9 27.9 0 0 1 1.6.7c1.8.8 2.5 1 3.2.6.7-.4 1.3-1.3 1.5-2.3.2-1.3-.4-2.7-1.4-3.2-.8-.4-1.5-.2-3 .8-1.3 1-1.9 1-2.5.7-.5-.3-.7-1-1-2.3-.2-1-.2-4.7 0-7l.9-10c.1-1 .1-1.4 0-1.4 0 0-.5.5-.9 1.2a48 48 0 0 1-7.2 8.1c-4.8 4.7-7.4 8-8.9 11-.6 1.2-1.3 3.4-1.6 4.7-.4 2-.3 4.3.1 6 .5 1.8 2.2 4.2 3.8 5.4 1.3 1 3.2 1.6 5.1 1.7 2.2.1 4-.4 6-1.8.4-.3.8-.5.9-.5.4.1.7 1.4.7 3 0 3-.8 5-3.3 8.3l-.8 1c0 .1 1.1.2 2.7.1h2.4zm6.2 0c.6 0 1.1 0 1.2-.1.1-.1.1-.1-1.4-2.2-1.3-1.8-1.9-3-2.3-5-.4-1.5-.4-2.8 0-4 .2-1 .4-1.3.6-1.3.1 0 .3.2.5.3.9.8 2.5 1.4 4.1 1.8 1.5.3 2.9.2 4.7-.4 1-.3 1.2-.4 2.1-1 2.1-1.4 3.4-3.2 4.3-6 .6-2 .6-4.2-.2-7.3-.3-1-.7-2.2-1.3-3.5-.8-1.5-1.4-2.5-2.5-4s-1.9-2.3-6.9-7.3A76 76 0 0 1 23.7 5l-1.1-1.4c-.4-.5-.6-.7-.7-.7a20 20 0 0 0-.2 2.7v14.6c.1 1 .3 1.8.5 2 .2.4.5.4 1.5-.1 1.7-1 2.5-1 3.4-.5.8.4 1.3 1 1.5 2 .5 2-.3 4.2-1.9 5-.5.3-.6.3-1.3.2-.7 0-.7 0-2.8-1-.9-.5-1.3-.5-1.6-.1-.5.6-.5 1.7 0 5.4l1.8 11c.1 1 .1 4-.1 5.7-.1.6-.1 1.2-.1 1.3s.1.1.3.1h3.8z" fill="#5ea9dc" stroke-width="1"></path>
    <path d="M15.4 51.2s.3-.6.8-1.2c2.2-3 2.9-4.6 3.2-7 .2-1.7-.1-3.7-.5-4.2-.2-.2-.2-.2-.5 0-.2.1-.7.4-1.1.6a9 9 0 0 1-6 1.5c-2.5-.2-4.6-1.3-6.1-3-1.8-2.2-2.6-4-2.7-6.5a18 18 0 0 1 3.4-10.8c1.5-2.2 3.1-4 7.9-9L18.2 7 21 3.3c.1-.2.2 0 .2.5 0 .3-.1 1-.2 1.7-.6 4.6-.9 9-.9 12.6 0 3.5.2 4.7.8 5.4.5.6 1.2.5 2.6-.3 1.6-1 2.2-1.2 3-1 .6.2 1.2 1 1.5 1.6.5 1.5-.4 3.6-1.6 4-.6.2-1.2 0-3.1-.8-1.9-.8-2.1-1-2.7-.6-.7.3-.9.8-1 2-.1 2.3.4 6.8 1.2 11.2l1.1 7c.1 1.7.1 4.2-.1 4.4-.1.1-.9.1-3.2.2-1.7 0-3.1 0-3.1-.1zm7.3-.7l.1-3.4c.1-3 0-3.4-1.1-9.5l-1.1-8c0-1 .1-1.4.4-1.7.3-.3.8-.2 2.3.6l1.5.7h.8c.7 0 .8-.1 1.4-.4.6-.4 1.1-1 1.5-2 .3-.7.3-2.6 0-3.5-.3-1-1.2-1.7-2.2-1.8-.6-.1-1.3.1-2.5.7s-1.4.6-1.7.1c-.7-1.3-.8-6.3-.5-15.6l.3-3.6a22 22 0 0 1 1.5 1.7 109 109 0 0 0 6.3 6.7l7.1 7.7c2.2 3 3.4 5.8 3.9 9.2.3 2 .2 3.7-.3 5.2-1.1 3.3-3.5 5.8-6.5 6.8-1.1.4-2.4.5-3.4.5a11 11 0 0 1-4.9-1.7c-.5-.3-.9-.5-1-.5s-.3.4-.4 1c-.8 2.4-.2 5.6 1.6 8.3l1.3 2c.8 1.2.9 1.3.8 1.4-.1 0-1.3.1-2.7.1h-2.5z" fill="#ccc" stroke-width=".5"></path>
    <path d="M16 51s.4-.6.9-1.4c1.6-2.3 2.3-3.6 2.6-5.3a13 13 0 0 0 0-4.3c-.2-.8-.5-1.3-.9-1.3-.1 0-.6.3-1.2.6-2.5 1.5-4.2 2-6.5 1.6-2.8-.4-4.7-1.6-6.4-4-1.4-2-1.9-4-1.8-6.6.2-3.7 1.9-7.8 5-11.5 1.2-1.4 2.1-2.4 5.7-6l7.5-8.4c0 .1-.1 1-.2 2.4a103 103 0 0 0-.7 8.9c-.1 3.5 0 6 .3 7.2.3 1 .9 1.6 1.6 1.6.5 0 .9-.2 2.2-1 1.1-.7 1.6-.8 2.2-.7.5.1 1.3 1 1.5 1.6.3 1-.2 2.8-1.1 3.3-.6.4-1.2.3-3.4-.6l-2.1-.7c-.4 0-1.1.3-1.3.6-.5.6-.7 1.7-.5 4.2.2 2.5.5 5.2 1.2 9.4l.8 4.8c.2 1.5.3 5.2.2 5.6l-.1.3h-2.7c-1.5 0-2.7 0-2.7-.1zm7.1-1c.1-2 .1-5.8 0-6.7l-1.9-13c-.1-2.4 0-2.5 2.4-1.3l1.4.7h.9c.8 0 .9-.1 1.4-.4.7-.4 1.2-1 1.5-1.8.3-.6.3-.7.3-2.2 0-1.4 0-1.6-.2-2-.8-1.5-2.1-2-3.6-1.6l-1.5.6c-.9.4-.9.4-1.1.2-.5-.7-.8-5.6-.6-12.5l.2-6 .9 1a107 107 0 0 0 6.2 6.6l6.9 7.4c2.4 3.2 3.6 6 4.1 9.6.2 1.5.2 3.4-.2 4.5-.8 3-2.7 5.3-5.2 6.5-1.6.8-4.1 1-5.8.7a11.5 11.5 0 0 1-3.4-1.4c-.5-.3-1-.6-1.1-.5-.2 0-.6.8-.8 1.6a11 11 0 0 0 0 3.6c.4 2 1.1 3.5 2.6 5.7l1.1 1.6h-1.2a70.9 70.9 0 0 1-2.2.1h-1z" fill="#fff" stroke-width=".5"></path>
  </symbol>
  <symbol xmlns="http://www.w3.org/2000/svg" viewBox="-11.9 -2 1003.9 995.6" preserveAspectRatio="xMinYMin meet" id="vscode">
    <path d="M12.1 353.9s-24-17.3 4.8-40.4l67.1-60s19.2-20.2 39.5-2.6l619.2 468.8v224.8s-.3 35.3-45.6 31.4z" fill="#2489ca"></path>
    <path d="M171.7 498.8L12.1 643.9s-16.4 12.2 0 34l74.1 67.4s17.6 18.9 43.6-2.6L299 614.4z" fill="#1070b3"></path>
    <path d="M451.9 500l292.7-223.5-1.9-223.6s-12.5-48.8-54.2-23.4L299 384z" fill="#0877b9"></path>
    <path d="M697.1 976.2c17 17.4 37.6 11.7 37.6 11.7l228.1-112.4c29.2-19.9 25.1-44.6 25.1-44.6V159.7c0-29.5-30.2-39.7-30.2-39.7L760 24.7c-43.2-26.7-71.5 4.8-71.5 4.8s36.4-26.2 54.2 23.4v887.5c0 6.1-1.3 12.1-3.9 17.5-5.2 10.5-16.5 20.3-43.6 16.2z" fill="#3c99d4"></path>
  </symbol>
  <symbol xmlns="http://www.w3.org/2000/svg" viewBox="0 0 48 48" preserveAspectRatio="xMinYMin meet" id="powershell">
    <path d="M19.847 41.956c-5.629-.002-11.259.024-16.888-.013-2.855-.019-3.374-.7-2.731-3.525 2.178-9.58 4.427-19.143 6.557-28.734C7.356 7.112 8.588 5.975 11.312 6c11.258.106 22.517.034 33.776.046 2.824.003 3.298.614 2.664 3.511a5514 5514 0 0 1-6.236 28.203c-.789 3.516-1.697 4.187-5.353 4.195-5.439.011-10.878.003-16.316.001z" fill="#0277BD"></path>
    <path d="M25.057 23.922c-.608-.687-1.114-1.267-1.531-1.732-2.43-2.728-4.656-5.27-7.063-7.869-1.102-1.189-1.453-2.344-.13-3.518 1.307-1.16 2.592-1.058 3.791.277 3.34 3.717 6.676 7.438 10.071 11.104 1.268 1.369.972 2.3-.424 3.315a2137.388 2137.388 0 0 0-16.01 11.778c-1.196.887-2.337 1.109-3.304-.201-1.066-1.445-.08-2.305 1.026-3.114 3.955-2.893 7.903-5.798 11.834-8.725.548-.407 1.278-.97 1.74-1.315zM21.75 37C20.625 37 20 36 20 35s.625-2 1.75-2h9.5c1.125 0 1.75 1 1.75 2s-.625 2-1.75 2h-9.5z" fill="#FAFAFA"></path>
  </symbol>
  <symbol xmlns="http://www.w3.org/2000/svg" viewBox="0 0 48 48" preserveAspectRatio="xMinYMin meet" id="inkscape">
    <path fill="#212121" d="M44.265 20.931L27.505 3.502c-2.08-2.003-5.498-2.003-7.423 0L3.908 20.327c-6.131 6.227 4.157 5.727 7.813 8.086 1.686 1.116-4.968 2.559-3.52 4.031 1.411 1.481 8.076 2.815 9.487 4.25 1.411 1.472-2.826 3.039-1.406 4.511 1.375 1.472 4.423.07 5.019 3.417.431 2.478 5.779 1.233 8.29-.879 1.567-1.353-2.74-1.352-1.329-2.833 1.265-1.298 2.474-1.875 3.574-2.231 1.97-.649 4.22-.504 5.054-2.662.706-1.792-5.266-3.194-3.654-4.346 3.848-2.751 17.554-4.12 11.029-10.74zM25.717 32.904c-2.126.732-11.867-3.948-9.31-3.948.44.001 14.854 2.065 9.31 3.948zm12.95 5.076c-1.847 1.904.321 3.899 2.128 2.584.483-.363-.039-2.131-2.128-2.584zm1.354-1.846c0 .899 6.313 1.412 5.965-.214-.503-2.739-5.267-2.525-5.965.214z"></path>
    <path fill="#212121" d="M9.552 41.421c1.477 1.555 3.711-.34 4.43-2.527-1.437-2.284-6.745.146-4.43 2.527z"></path>
    <path fill="#424242" d="M26.77 5.59l-4.48 7.59-7.94 13.46c-1.55-.59-3.21-.95-4.76-1.23-.6-.19-1.21-.36-1.82-.52-1.14-.31-3.21-.88-3.74-1.37.07-.21.34-.78 1.35-1.81l7.68-7.98 8.5-8.84c.55-.57 1.33-.89 2.21-.89s1.74.33 2.36.92l.64.67z"></path>
    <path fill="#fafafa" d="M33.07 12.13c-.03.1-.08.18-.13.24l-3.05-2.51-.6 3.69-2.51-1.37-4.09 2.62-.4-1.62-.95-3.89-2.18 4.79-5.45-.04c-.34 0-.55-.12-.65-.31l8.5-8.84c.55-.57 1.33-.89 2.21-.89s1.74.33 2.36.92l.64.67 6.3 6.54z"></path>
  </symbol>
  <symbol xmlns="http://www.w3.org/2000/svg" viewBox="0 0 48 48" preserveAspectRatio="xMinYMin meet" id="office">
    <path fill="#e65100" d="M36.883 7.341C38.726 7.85 40 9.508 40 11.397v25.162c0 1.906-1.301 3.57-3.168 4.065L25.29 43.863 29 36V11l-3.148-6.885 11.031 3.226z"></path>
    <path fill="#b71c1c" d="M29 35v3.927c0 3.803-3.824 6.249-7.019 4.491l-6.936-4.445c-.802-.466-1.236-1.462-.964-2.457.253-.926 1.121-1.516 2.034-1.516H29zm-13.544-2.772l-3.4 1.502C10.694 34.532 9 33.518 9 31.901V14.904c0-1.536.811-2.95 2.116-3.691l11.83-6.687C25.669 2.983 29 5.014 29 8.218v3.09l-10.037 3.486C17.78 15.263 17 16.436 17 17.743v11.742c0 1.133-.59 2.18-1.544 2.743z"></path>
  </symbol>
  <symbol xmlns="http://www.w3.org/2000/svg" viewBox="0 0 48 48" preserveAspectRatio="xMinYMin meet" id="python">
    <path fill="#0277BD" d="M24.047 5c-1.555.005-2.633.142-3.936.367-3.848.67-4.549 2.077-4.549 4.67V14h9v2H10.87c-2.636 0-4.943 1.242-5.674 4.219-.826 3.417-.863 5.557 0 9.125C5.851 32.005 7.294 34 9.931 34h3.632v-5.104c0-2.966 2.686-5.896 5.764-5.896h7.236c2.523 0 5-1.862 5-4.377v-8.586c0-2.439-1.759-4.263-4.218-4.672.061-.006-1.756-.371-3.298-.365zm-4.984 4c.821 0 1.5.677 1.5 1.502a1.5 1.5 0 0 1-1.5 1.498 1.49 1.49 0 0 1-1.5-1.498A1.5 1.5 0 0 1 19.063 9z"></path>
    <path fill="#FFC107" d="M23.078 43c1.555-.005 2.633-.142 3.936-.367 3.848-.67 4.549-2.077 4.549-4.67V34h-9v-2h13.693c2.636 0 4.943-1.242 5.674-4.219.826-3.417.863-5.557 0-9.125C41.274 15.995 39.831 14 37.194 14h-3.632v5.104c0 2.966-2.686 5.896-5.764 5.896h-7.236c-2.523 0-5 1.862-5 4.377v8.586c0 2.439 1.759 4.263 4.218 4.672-.061.006 1.756.371 3.298.365zm4.985-4c-.821 0-1.5-.677-1.5-1.502a1.5 1.5 0 0 1 1.5-1.498c.837 0 1.5.664 1.5 1.498 0 .822-.664 1.502-1.5 1.502z"></path>
  </symbol>
  <symbol xmlns="http://www.w3.org/2000/svg" viewBox="0 0 48 48" preserveAspectRatio="xMinYMin meet" id="fusion360">
    <path fill="#fb8c00" d="M13 7.505v16.26L13.961 42c2.924.586 6.289.905 10.039 1v-8.141c-.108-3.915 1.75-5.692 5.12-6.267l7.791-1.016-2.202-5.42c-3.803-.595-7.107-1.311-8.793-2.156-2.144-1.124-2.833-3.667-1-5.583.61-.638 2.255-1.407 4.119-1.417h8.892l-1.609-5.918C32.845 5.989 26.761 5.527 20.397 5 18.126 5.424 15.7 6.28 13 7.505z"></path>
    <path fill="#ffcc80" d="M29.12 28.592l7.791-1.016-2.202-5.42c-3.803-.595-7.107-1.311-8.793-2.156-2.144-1.124-2.833-3.667-1-5.583.61-.638 2.255-1.407 4.119-1.417h8.241c-3.658-.781-6.671-1.453-9.693-1.5-5.69-.088-9.327 2.78-9.75 7.5-.269 2.996-.011 6.233 1.167 10 1.141 3.653 2.704 8.591 5 13.705v-7.846c-.108-3.915 1.75-5.692 5.12-6.267z"></path>
    <path fill="#fb8c00" d="M24 24.5a2.5 2.5 0 0 0 2.5 2.5h10.177l-1.968-4.844c-.324-.051-.639-.104-.955-.156H26.5a2.5 2.5 0 0 0-2.5 2.5z"></path>
    <path fill="#ffcc80" d="M19.917 5.333s-.38.511-.905 1.483a19.777 19.777 0 0 0-.85 1.795c-.296.707-.587 1.52-.869 2.417-.286.895-.522 1.887-.736 2.94l-.26 1.633c-.052.562-.14 1.132-.188 1.715-.101 1.166-.125 2.382-.123 3.605.021 1.23.13 2.465.315 3.702a35.993 35.993 0 0 0 1.765 7.108c.795 2.201 1.798 4.164 2.718 5.82.928 1.65 1.715 3.024 2.302 3.964L24 43s-.408-.487-1.074-1.376c-.655-.896-1.61-2.169-2.624-3.787-.999-1.619-2.175-3.542-3.058-5.792-.896-2.237-1.558-4.736-1.932-7.28a29.464 29.464 0 0 1-.29-3.829c.006-1.272.085-2.509.215-3.708.133-1.197.36-2.341.613-3.414.277-1.068.572-2.068.914-2.967a18.7 18.7 0 0 1 1.064-2.393c.358-.692.714-1.271 1.018-1.738.623-.927 1.071-1.383 1.071-1.383z"></path>
  </symbol>
  <symbol xmlns="http://www.w3.org/2000/svg" viewBox="0 0 48 48" preserveAspectRatio="xMinYMin meet" id="teams">
    <path fill="#485bd5" d="M42 20H32v10a6 6 0 1 0 12 0v-8a2 2 0 0 0-2-2z"></path>
    <path fill="#6d81ff" d="M15 20v12.657c0 5.326 4.019 9.977 9.334 10.321C30.159 43.356 35 38.743 35 33V22a2 2 0 0 0-2-2H15z"></path>
    <path fill="#5161cb" d="M25 5a6 6 0 1 0 0 12 6 6 0 1 0 0-12z"></path>
    <path fill="#3440a0" d="M38 8a4 4 0 1 0 0 8 4 4 0 1 0 0-8z"></path>
    <path fill="#2d399a" d="M22.319 34H5.681A1.682 1.682 0 0 1 4 32.319V15.681C4 14.753 4.753 14 5.681 14h16.638c.928 0 1.681.753 1.681 1.681v16.638c0 .928-.753 1.681-1.681 1.681z"></path>
    <path fill="#fff" d="M18.068 18.999H9.932v1.72h3.047v8.28h2.042v-8.28h3.047z"></path>
  </symbol>
  <symbol xmlns="http://www.w3.org/2000/svg" viewBox="0 0 48 48" preserveAspectRatio="xMinYMin meet" id="trello">
    <path fill="#1E88E5" d="M6 10c0-2.2 1.8-4 4-4h28c2.2 0 4 1.8 4 4v28c0 2.2-1.8 4-4 4H10c-2.2 0-4-1.8-4-4V10z"></path>
    <path fill="#FFF" d="M10 12.2c0-1.2 1-2.2 2.2-2.2h7.6c1.2 0 2.2 1 2.2 2.2v21.6c0 1.2-1 2.2-2.2 2.2h-7.6C11 36 10 35 10 33.8V12.2zm16 10.6c0 1.2 1 2.2 2.2 2.2h7.6c1.2 0 2.2-1 2.2-2.2V12.2c0-1.2-1-2.2-2.2-2.2h-7.6C27 10 26 11 26 12.2v10.6z"></path>
  </symbol>
  <symbol xmlns="http://www.w3.org/2000/svg" viewBox="0 0 48 48" preserveAspectRatio="xMinYMin meet" id="javascript">
    <path fill="#ffd600" d="M6 42V6h36v36H6z"></path>
    <path fill="#000001" d="M29.538 32.947c.692 1.124 1.444 2.201 3.037 2.201 1.338 0 2.04-.665 2.04-1.585 0-1.101-.726-1.492-2.198-2.133l-.807-.344c-2.329-.988-3.878-2.226-3.878-4.841 0-2.41 1.845-4.244 4.728-4.244 2.053 0 3.528.711 4.592 2.573l-2.514 1.607c-.553-.988-1.151-1.377-2.078-1.377-.946 0-1.545.597-1.545 1.377 0 .964.6 1.354 1.985 1.951l.807.344C36.452 29.645 38 30.839 38 33.523 38 36.415 35.716 38 32.65 38c-2.999 0-4.702-1.505-5.65-3.368l2.538-1.685zm-11.586.082c.506.906 1.275 1.603 2.381 1.603 1.058 0 1.667-.418 1.667-2.043V22h3.333v11.101c0 3.367-1.953 4.899-4.805 4.899-2.577 0-4.437-1.746-5.195-3.368l2.619-1.603z"></path>
  </symbol>
  <symbol xmlns="http://www.w3.org/2000/svg" viewBox="0 0 460.176 460.218" preserveAspectRatio="xMinYMin meet" id="netlify">
    <path fill="#38afbb" d="M333.505 159.708l-.168-.072a.71.71 0 0 1-.276-.156 1.322 1.32 0 0 1-.336-1.116l9.287-56.724 43.553 43.52-45.296 19.252a.997.996 0 0 1-.396.072h-.18a1.246 1.246 0 0 1-.24-.204 20.617 20.596 0 0 0-5.947-4.573zm63.173-3.457l46.57 46.522c9.672 9.674 14.514 14.5 16.28 20.092a22.61 22.61 0 0 1 .649 2.509l-111.292-47.086a8.747 8.738 0 0 0-.18-.072c-.445-.18-.96-.384-.96-.84s.53-.672.973-.852l.144-.06zm61.6 84.054c-2.403 4.513-7.09 9.194-15.018 17.128l-52.504 52.44-67.907-14.127-.36-.072c-.6-.096-1.238-.204-1.238-.744a20.497 20.476 0 0 0-7.87-14.319c-.276-.276-.204-.708-.12-1.104 0-.06 0-.12.024-.168l12.82-78.593c.072-.6.18-1.296.72-1.296a20.785 20.765 0 0 0 13.937-7.982c.108-.12.18-.252.324-.324.384-.18.84 0 1.238.168l115.942 48.995zm-79.598 81.63l-86.338 86.25 14.802-90.86c.012-.12.036-.24.072-.348.12-.288.433-.408.733-.528l.144-.06a22.227 22.205 0 0 0 8.35-6.205c.288-.336.637-.66 1.08-.72a1.081 1.08 0 0 1 .348 0l60.795 12.483zM274.068 426.442l-9.732 9.722-107.592-155.338a5.094 5.089 0 0 0-.12-.168c-.168-.228-.348-.456-.312-.72.012-.192.132-.36.264-.504l.12-.156c.324-.48.6-.96.9-1.476l.24-.42.036-.036c.168-.288.324-.564.613-.72.252-.12.6-.072.877-.012L278.56 301.17a1.97 1.968 0 0 1 .913.396c.156.156.192.324.228.516a21.11 21.089 0 0 0 12.351 14.103c.336.168.192.54.036.936a2.86 2.857 0 0 0-.18.54l-17.842 108.78zm-20.33 20.296c-7.173 7.094-11.402 10.85-16.184 12.363a24.029 24.005 0 0 1-14.49 0c-5.6-1.776-10.44-6.6-20.113-16.276L94.904 334.886l28.223-43.726c.132-.216.264-.408.48-.564.3-.216.733-.12 1.093 0a29.244 29.214 0 0 0 19.68-.996c.324-.12.65-.204.9.024a2.283 2.28 0 0 1 .336.384L253.74 446.75zM84.488 324.48L59.7 299.718l48.948-20.86a1.009 1.008 0 0 1 .396-.084c.41 0 .65.408.865.78a34.963 34.928 0 0 0 1.562 2.208l.156.192c.144.204.048.408-.096.6L84.5 324.48zm-35.756-35.72l-31.358-31.327c-5.335-5.33-9.203-9.194-11.895-12.52l95.35 19.756a10.092 10.082 0 0 0 .36.06c.59.096 1.238.204 1.238.756 0 .6-.71.876-1.3 1.104l-.276.12zM0 228.807a24.029 24.005 0 0 1 1.081-5.941c1.778-5.593 6.608-10.418 16.292-20.092l40.13-40.09a26138.336 26112.003 0 0 0 55.58 80.262c.324.432.685.912.312 1.272-1.754 1.932-3.508 4.045-4.746 6.337a1.922 1.92 0 0 1-.601.744c-.156.096-.324.06-.505.024h-.024L0 228.795zm68.244-76.853l53.958-53.904 67.5 28.614c.36.144.685.288.84.648.096.216.048.492 0 .72a24.065 24.041 0 0 0 6.284 21.941c.36.36 0 .876-.312 1.32l-.168.252-54.787 84.775c-.144.24-.276.444-.517.6-.288.18-.697.096-1.033.012a27.321 27.294 0 0 0-6.524-.888c-1.97 0-4.11.36-6.272.756h-.012c-.24.036-.457.084-.65-.06a2.523 2.521 0 0 1-.541-.612zm64.855-64.8l69.854-69.783c9.672-9.662 14.514-14.5 20.113-16.264a24.029 24.005 0 0 1 14.49 0c5.6 1.764 10.44 6.6 20.113 16.264l15.14 15.123-49.68 76.865a1.862 1.86 0 0 1-.493.576c-.3.204-.72.12-1.08 0a25.195 25.169 0 0 0-23.068 4.441c-.324.336-.805.144-1.213-.036L133.1 87.164zm150.256-44.122l45.872 45.826-11.054 68.57a1.622 1.62 0 0 1-.096.456c-.12.24-.36.288-.6.36a21.987 21.965 0 0 0-6.584 3.277 1.85 1.848 0 0 0-.24.204c-.132.144-.264.276-.48.3a1.37 1.368 0 0 1-.517-.084l-70.034-29.73c-.445-.18-.973-.396-.973-.852a26.408 26.382 0 0 0-3.725-10.982c-.336-.552-.71-1.128-.42-1.692zm-47.242 103.295l65.528 27.726c.36.168.757.324.913.696a1.274 1.272 0 0 1 0 .684c-.192.96-.36 2.052-.36 3.157v1.836c0 .456-.47.648-.9.828l-.132.048-145.943 62.1c-.204 0-.42 0-.625-.204-.36-.36 0-.864.324-1.32a9.131 9.122 0 0 0 .168-.24l53.946-83.442c.312-.504.673-1.068 1.25-1.068l.54.084c1.225.168 2.307.324 3.4.324 8.17 0 15.74-3.973 20.305-10.766a1.922 1.92 0 0 1 .409-.48c.324-.24.805-.12 1.177.048zM161.07 256.58l147.54-62.858s.216 0 .42.204c.805.804 1.5 1.344 2.15 1.848l.324.204c.3.168.6.36.625.672 0 .12 0 .192-.024.3l-12.688 77.873c-.084.6-.168 1.284-.733 1.284a20.773 20.753 0 0 0-16.496 10.166l-.06.096c-.168.276-.324.54-.6.684-.252.12-.577.072-.84.012l-117.66-24.245c-.12-.024-1.826-6.23-1.958-6.24z"></path>
  </symbol>
  <symbol xmlns="http://www.w3.org/2000/svg" viewBox="0 0 150 150.2" preserveAspectRatio="xMinYMin meet" id="geneious">
    <path d="M0 .2h150v150H0V.2z" fill="none"></path>
    <path d="M107.7 4.6c-1.1-1.1-2.2-1.5-3.1-1.5-1.2 0-2.3.7-2.9 1.8 2.5 7.5 2.4 10 .4 12.1-.6.6-1.4.9-2.3.9-1.3 0-3-.6-5.3-2.1-13.8-10.7-33.6-8.3-44.4 5.5-9.9 12.7-8.7 30.8 2.8 42 .2.3.5.6.7.8C69 79.5 70.5 81 58.3 93.6c-10.5 9.3-11.4 25.2-2.2 35.7s25.2 11.4 35.7 2.2 11.4-25.2 2.2-35.7c-.7-.8-1.4-1.5-2.2-2.2C79.5 81 81.1 79.4 96.4 64.1c.3-.3.5-.5.7-.8 8.4-8.2 11.6-20.5 8.1-31.8.9-.6 1.8-1.2 2.5-2 6.8-6.9 6.8-18 0-24.9zM75.1 34.2c3.6 0 6.5 2.9 6.5 6.5s-2.9 6.5-6.5 6.5-6.5-2.9-6.5-6.5 2.9-6.5 6.5-6.5c-.1 0 0 0 0 0zm0 83.1c-2.7 0-4.9-2.2-4.9-4.9s2.2-4.9 4.9-4.9 4.9 2.2 4.9 4.9c-.1 2.7-2.2 4.9-4.9 4.9z" fill="#f47b20"></path>
  </symbol>
</svg>