<svg width="452" height="427" xmlns="http://www.w3.org/2000/svg" xmlns:xlink="http://www.w3.org/1999/xlink" overflow="hidden"><defs><clipPath id="clip0"><path d="M363 167 815 167 815 594 363 594Z" fill-rule="evenodd" clip-rule="evenodd"/></clipPath></defs><g clip-path="url(#clip0)" transform="translate(-363 -167)"><path d="M364.085 372.509C366.891 271.791 468.877 198.165 604.176 185.799 714.054 175.756 814.117 261.69 814.993 372.509 815.998 499.757 714.054 593 589.539 593 465.024 593 360.591 497.958 364.085 372.509Z" fill="#F26C4F" fill-rule="evenodd"/><path d="M0.790026 11.9018C0.284724 13.4821-0.00577428 15.1866 0 16.9825 0.0227822 24.1662 1.00745 32.2037 9.08609 45.0194 16.155 56.2333 29.7076 75.1507 40.3691 84.6268L45.4569 88.7538 41.8254 91.5921C35.7838 96.1728 29.614 102.099 25.4421 108.326 17.0984 120.779 1.09617 157.722 4.71717 153.463 8.33816 149.203 23.9903 130.808 29.9433 124.588 35.8963 118.367 39.2264 115.477 40.435 116.139 40.4799 119.138 40.5249 122.137 40.5699 125.136 40.9335 129.689 41.6191 134.239 42.7012 138.473 47.0296 155.409 62.2084 191.798 64.8024 192.619 67.3963 193.44 57.5462 159.71 58.265 143.398 58.9837 127.087 62.7767 108.068 69.1148 94.7513 81.9049 84.2809 99.0315 75.1755 118.406 68.6998 137.781 62.2241 187.895 57.5703 185.364 55.8971 182.833 54.2239 127.427 54.242 103.221 58.661 97.169 59.7658 90.9456 61.5859 84.9139 63.8076L77.1132 67.2427C78.6558 61.3112 79.217 56.9125 81.7408 49.4482 87.4256 32.6346 110.612 0.0742257 107.693 0.246509 104.774 0.418898 75.2362 34.095 64.2266 50.4819L59.0014 59.8391C54.7236 57.486 43.8479 46.2991 38.56 36.3637 33.2721 26.4282 30.48 9.75916 25.545 4.01806 20.61-1.72294 13.2072-0.24336 8.94971 1.91727 5.75664 3.53785 2.30614 7.16094 0.790026 11.9018Z" stroke="#FFFFFF" stroke-width="1.33333" stroke-miterlimit="8" fill="#FFFFFF" fill-rule="evenodd" transform="matrix(-0.286977 0.957937 0.957937 0.286977 473.482 164.126)"/><path d="M627.075 559.969C629.828 560.969 718.383 538.018 762.711 473.484 801.958 416.344 786.568 325.009 783.231 324.009 779.895 323.009 794.242 405.162 746.194 467.485 698.146 529.807 624.322 558.969 627.075 559.969Z" fill="#FFFFFF" fill-rule="evenodd"/></g></svg>